<?xml version="1.0" encoding="UTF-8" standalone="no"?>
<!DOCTYPE svg PUBLIC "-//W3C//DTD SVG 1.1//EN"
 "http://www.w3.org/Graphics/SVG/1.1/DTD/svg11.dtd">
<!-- Generated by graphviz version 2.38.0 (20140413.2041)
 -->
<!-- Title: cb_comdefs.h Pages: 1 -->
<svg width="221pt" height="196pt"
 viewBox="0.00 0.00 221.00 196.00" xmlns="http://www.w3.org/2000/svg" xmlns:xlink="http://www.w3.org/1999/xlink">
<g id="graph0" class="graph" transform="scale(1 1) rotate(0) translate(4 192)">
<title>cb_comdefs.h</title>
<polygon fill="white" stroke="none" points="-4,4 -4,-192 217,-192 217,4 -4,4"/>
<!-- Node1 -->
<g id="node1" class="node"><title>Node1</title>
<g id="a_node1"><a xlink:title="Internal defines.">
<polygon fill="#bfbfbf" stroke="black" points="57,-168.5 57,-187.5 134,-187.5 134,-168.5 57,-168.5"/>
<text text-anchor="middle" x="95.5" y="-175.5" font-family="Helvetica,sans-Serif" font-size="10.00">cb_comdefs.h</text>
</a>
</g>
</g>
<!-- Node2 -->
<g id="node2" class="node"><title>Node2</title>
<g id="a_node2"><a xlink:href="cb__at__util_8h.html" target="_top" xlink:title="Internal functions.">
<polygon fill="white" stroke="black" points="0,-56.5 0,-75.5 67,-75.5 67,-56.5 0,-56.5"/>
<text text-anchor="middle" x="33.5" y="-63.5" font-family="Helvetica,sans-Serif" font-size="10.00">cb_at_util.h</text>
</a>
</g>
</g>
<!-- Node1&#45;&gt;Node2 -->
<g id="edge1" class="edge"><title>Node1&#45;&gt;Node2</title>
<path fill="none" stroke="midnightblue" d="M77.0903,-161.54C68.5443,-153.505 58.8865,-143.063 52.5,-132 41.8025,-113.468 36.7123,-88.4333 34.6634,-75.5084"/>
<polygon fill="midnightblue" stroke="midnightblue" points="75.0166,-164.382 84.8,-168.448 79.6878,-159.168 75.0166,-164.382"/>
</g>
<!-- Node3 -->
<g id="node3" class="node"><title>Node3</title>
<g id="a_node3"><a xlink:href="cb__status_8h.html" target="_top" xlink:title="Internal defines.">
<polygon fill="white" stroke="black" points="61.5,-112.5 61.5,-131.5 129.5,-131.5 129.5,-112.5 61.5,-112.5"/>
<text text-anchor="middle" x="95.5" y="-119.5" font-family="Helvetica,sans-Serif" font-size="10.00">cb_status.h</text>
</a>
</g>
</g>
<!-- Node1&#45;&gt;Node3 -->
<g id="edge2" class="edge"><title>Node1&#45;&gt;Node3</title>
<path fill="none" stroke="midnightblue" d="M95.5,-157.805C95.5,-148.91 95.5,-138.78 95.5,-131.751"/>
<polygon fill="midnightblue" stroke="midnightblue" points="92.0001,-158.083 95.5,-168.083 99.0001,-158.083 92.0001,-158.083"/>
</g>
<!-- Node6 -->
<g id="node6" class="node"><title>Node6</title>
<g id="a_node6"><a xlink:href="cb__string_8h.html" target="_top" xlink:title="Internal functions.">
<polygon fill="white" stroke="black" points="148,-112.5 148,-131.5 213,-131.5 213,-112.5 148,-112.5"/>
<text text-anchor="middle" x="180.5" y="-119.5" font-family="Helvetica,sans-Serif" font-size="10.00">cb_string.h</text>
</a>
</g>
</g>
<!-- Node1&#45;&gt;Node6 -->
<g id="edge6" class="edge"><title>Node1&#45;&gt;Node6</title>
<path fill="none" stroke="midnightblue" d="M117.694,-162.901C133.28,-152.999 153.63,-140.071 166.877,-131.655"/>
<polygon fill="midnightblue" stroke="midnightblue" points="115.721,-160.007 109.157,-168.324 119.474,-165.916 115.721,-160.007"/>
</g>
<!-- Node3&#45;&gt;Node2 -->
<g id="edge3" class="edge"><title>Node3&#45;&gt;Node2</title>
<path fill="none" stroke="midnightblue" d="M77.7464,-105.537C66.6915,-95.9087 52.8685,-83.8694 43.6426,-75.8339"/>
<polygon fill="midnightblue" stroke="midnightblue" points="75.699,-108.395 85.5386,-112.324 80.2965,-103.117 75.699,-108.395"/>
</g>
<!-- Node4 -->
<g id="node4" class="node"><title>Node4</title>
<g id="a_node4"><a xlink:href="cb__tokenizer_8h.html" target="_top" xlink:title="Internal functions.">
<polygon fill="white" stroke="black" points="85.5,-56.5 85.5,-75.5 165.5,-75.5 165.5,-56.5 85.5,-56.5"/>
<text text-anchor="middle" x="125.5" y="-63.5" font-family="Helvetica,sans-Serif" font-size="10.00">cb_tokenizer.h</text>
</a>
</g>
</g>
<!-- Node3&#45;&gt;Node4 -->
<g id="edge4" class="edge"><title>Node3&#45;&gt;Node4</title>
<path fill="none" stroke="midnightblue" d="M105.347,-103.275C110.475,-94.0454 116.516,-83.1703 120.638,-75.7511"/>
<polygon fill="midnightblue" stroke="midnightblue" points="102.251,-101.642 100.454,-112.083 108.37,-105.041 102.251,-101.642"/>
</g>
<!-- Node5 -->
<g id="node5" class="node"><title>Node5</title>
<g id="a_node5"><a xlink:href="test__tokenizer_8c.html" target="_top" xlink:title="Tests the tokenizer of the URC parser.">
<polygon fill="white" stroke="black" points="82.5,-0.5 82.5,-19.5 168.5,-19.5 168.5,-0.5 82.5,-0.5"/>
<text text-anchor="middle" x="125.5" y="-7.5" font-family="Helvetica,sans-Serif" font-size="10.00">test_tokenizer.c</text>
</a>
</g>
</g>
<!-- Node4&#45;&gt;Node5 -->
<g id="edge5" class="edge"><title>Node4&#45;&gt;Node5</title>
<path fill="none" stroke="midnightblue" d="M125.5,-45.8045C125.5,-36.9102 125.5,-26.7798 125.5,-19.7511"/>
<polygon fill="midnightblue" stroke="midnightblue" points="122,-46.083 125.5,-56.083 129,-46.083 122,-46.083"/>
</g>
</g>
</svg>
