<?xml version="1.0" encoding="UTF-8" standalone="no"?>
<!DOCTYPE svg PUBLIC "-//W3C//DTD SVG 1.1//EN"
 "http://www.w3.org/Graphics/SVG/1.1/DTD/svg11.dtd">
<!-- Generated by graphviz version 2.38.0 (20140413.2041)
 -->
<!-- Title: cb_status.h Pages: 1 -->
<svg width="177pt" height="140pt"
 viewBox="0.00 0.00 176.50 140.00" xmlns="http://www.w3.org/2000/svg" xmlns:xlink="http://www.w3.org/1999/xlink">
<g id="graph0" class="graph" transform="scale(1 1) rotate(0) translate(4 136)">
<title>cb_status.h</title>
<polygon fill="white" stroke="none" points="-4,4 -4,-136 172.5,-136 172.5,4 -4,4"/>
<!-- Node1 -->
<g id="node1" class="node"><title>Node1</title>
<g id="a_node1"><a xlink:title="Internal defines.">
<polygon fill="#bfbfbf" stroke="black" points="45.5,-112.5 45.5,-131.5 113.5,-131.5 113.5,-112.5 45.5,-112.5"/>
<text text-anchor="middle" x="79.5" y="-119.5" font-family="Helvetica,sans-Serif" font-size="10.00">cb_status.h</text>
</a>
</g>
</g>
<!-- Node2 -->
<g id="node2" class="node"><title>Node2</title>
<g id="a_node2"><a xlink:href="cb__at__util_8h.html" target="_top" xlink:title="Internal functions.">
<polygon fill="white" stroke="black" points="0,-56.5 0,-75.5 67,-75.5 67,-56.5 0,-56.5"/>
<text text-anchor="middle" x="33.5" y="-63.5" font-family="Helvetica,sans-Serif" font-size="10.00">cb_at_util.h</text>
</a>
</g>
</g>
<!-- Node1&#45;&gt;Node2 -->
<g id="edge1" class="edge"><title>Node1&#45;&gt;Node2</title>
<path fill="none" stroke="midnightblue" d="M65.386,-104.431C57.324,-94.9673 47.5408,-83.4827 40.9546,-75.7511"/>
<polygon fill="midnightblue" stroke="midnightblue" points="62.755,-106.74 71.904,-112.083 68.0837,-102.201 62.755,-106.74"/>
</g>
<!-- Node3 -->
<g id="node3" class="node"><title>Node3</title>
<g id="a_node3"><a xlink:href="cb__tokenizer_8h.html" target="_top" xlink:title="Internal functions.">
<polygon fill="white" stroke="black" points="85.5,-56.5 85.5,-75.5 165.5,-75.5 165.5,-56.5 85.5,-56.5"/>
<text text-anchor="middle" x="125.5" y="-63.5" font-family="Helvetica,sans-Serif" font-size="10.00">cb_tokenizer.h</text>
</a>
</g>
</g>
<!-- Node1&#45;&gt;Node3 -->
<g id="edge2" class="edge"><title>Node1&#45;&gt;Node3</title>
<path fill="none" stroke="midnightblue" d="M93.614,-104.431C101.676,-94.9673 111.459,-83.4827 118.045,-75.7511"/>
<polygon fill="midnightblue" stroke="midnightblue" points="90.9163,-102.201 87.096,-112.083 96.245,-106.74 90.9163,-102.201"/>
</g>
<!-- Node4 -->
<g id="node4" class="node"><title>Node4</title>
<g id="a_node4"><a xlink:href="test__tokenizer_8c.html" target="_top" xlink:title="Tests the tokenizer of the URC parser.">
<polygon fill="white" stroke="black" points="82.5,-0.5 82.5,-19.5 168.5,-19.5 168.5,-0.5 82.5,-0.5"/>
<text text-anchor="middle" x="125.5" y="-7.5" font-family="Helvetica,sans-Serif" font-size="10.00">test_tokenizer.c</text>
</a>
</g>
</g>
<!-- Node3&#45;&gt;Node4 -->
<g id="edge3" class="edge"><title>Node3&#45;&gt;Node4</title>
<path fill="none" stroke="midnightblue" d="M125.5,-45.8045C125.5,-36.9102 125.5,-26.7798 125.5,-19.7511"/>
<polygon fill="midnightblue" stroke="midnightblue" points="122,-46.083 125.5,-56.083 129,-46.083 122,-46.083"/>
</g>
</g>
</svg>
