<?xml version="1.0" encoding="UTF-8" standalone="no"?>
<!DOCTYPE svg PUBLIC "-//W3C//DTD SVG 1.1//EN"
 "http://www.w3.org/Graphics/SVG/1.1/DTD/svg11.dtd">
<!-- Generated by graphviz version 2.38.0 (20140413.2041)
 -->
<!-- Title: cb_string.h Pages: 1 -->
<svg width="270pt" height="196pt"
 viewBox="0.00 0.00 270.00 196.00" xmlns="http://www.w3.org/2000/svg" xmlns:xlink="http://www.w3.org/1999/xlink">
<g id="graph0" class="graph" transform="scale(1 1) rotate(0) translate(4 192)">
<title>cb_string.h</title>
<polygon fill="white" stroke="none" points="-4,4 -4,-192 266,-192 266,4 -4,4"/>
<!-- Node1 -->
<g id="node1" class="node"><title>Node1</title>
<g id="a_node1"><a xlink:title="Internal functions.">
<polygon fill="#bfbfbf" stroke="black" points="161.5,-168.5 161.5,-187.5 226.5,-187.5 226.5,-168.5 161.5,-168.5"/>
<text text-anchor="middle" x="194" y="-175.5" font-family="Helvetica,sans-Serif" font-size="10.00">cb_string.h</text>
</a>
</g>
</g>
<!-- Node2 -->
<g id="node2" class="node"><title>Node2</title>
<g id="a_node2"><a xlink:href="cb__comdefs_8h.html" target="_top" xlink:title="Internal defines.">
<polygon fill="white" stroke="black" points="114.5,-112.5 114.5,-131.5 191.5,-131.5 191.5,-112.5 114.5,-112.5"/>
<text text-anchor="middle" x="153" y="-119.5" font-family="Helvetica,sans-Serif" font-size="10.00">cb_comdefs.h</text>
</a>
</g>
</g>
<!-- Node1&#45;&gt;Node2 -->
<g id="edge1" class="edge"><title>Node1&#45;&gt;Node2</title>
<path fill="none" stroke="midnightblue" d="M187.23,-168.083C181.438,-160.455 172.942,-149.264 165.862,-139.941"/>
<polygon fill="midnightblue" stroke="midnightblue" points="168.479,-137.599 159.644,-131.751 162.904,-141.832 168.479,-137.599"/>
</g>
<!-- Node8 -->
<g id="node8" class="node"><title>Node8</title>
<g id="a_node8"><a xlink:title=" ">
<polygon fill="white" stroke="#bfbfbf" points="210,-112.5 210,-131.5 262,-131.5 262,-112.5 210,-112.5"/>
<text text-anchor="middle" x="236" y="-119.5" font-family="Helvetica,sans-Serif" font-size="10.00">stdarg.h</text>
</a>
</g>
</g>
<!-- Node1&#45;&gt;Node8 -->
<g id="edge7" class="edge"><title>Node1&#45;&gt;Node8</title>
<path fill="none" stroke="midnightblue" d="M200.935,-168.083C206.929,-160.377 215.752,-149.033 223.048,-139.653"/>
<polygon fill="midnightblue" stroke="midnightblue" points="225.817,-141.793 229.194,-131.751 220.291,-137.496 225.817,-141.793"/>
</g>
<!-- Node3 -->
<g id="node3" class="node"><title>Node3</title>
<g id="a_node3"><a xlink:href="cb__platform__basic__types_8h.html" target="_top" xlink:title="Internal defines.">
<polygon fill="white" stroke="black" points="32.5,-56.5 32.5,-75.5 165.5,-75.5 165.5,-56.5 32.5,-56.5"/>
<text text-anchor="middle" x="99" y="-63.5" font-family="Helvetica,sans-Serif" font-size="10.00">cb_platform_basic_types.h</text>
</a>
</g>
</g>
<!-- Node2&#45;&gt;Node3 -->
<g id="edge2" class="edge"><title>Node2&#45;&gt;Node3</title>
<path fill="none" stroke="midnightblue" d="M144.083,-112.083C136.22,-104.22 124.569,-92.5688 115.081,-83.0813"/>
<polygon fill="midnightblue" stroke="midnightblue" points="117.297,-80.3473 107.751,-75.7511 112.347,-85.2971 117.297,-80.3473"/>
</g>
<!-- Node7 -->
<g id="node7" class="node"><title>Node7</title>
<g id="a_node7"><a xlink:title=" ">
<polygon fill="white" stroke="#bfbfbf" points="184,-56.5 184,-75.5 232,-75.5 232,-56.5 184,-56.5"/>
<text text-anchor="middle" x="208" y="-63.5" font-family="Helvetica,sans-Serif" font-size="10.00">stdlib.h</text>
</a>
</g>
</g>
<!-- Node2&#45;&gt;Node7 -->
<g id="edge6" class="edge"><title>Node2&#45;&gt;Node7</title>
<path fill="none" stroke="midnightblue" d="M162.082,-112.083C170.171,-104.141 182.195,-92.3354 191.91,-82.7973"/>
<polygon fill="midnightblue" stroke="midnightblue" points="194.403,-85.2545 199.087,-75.7511 189.499,-80.2595 194.403,-85.2545"/>
</g>
<!-- Node4 -->
<g id="node4" class="node"><title>Node4</title>
<g id="a_node4"><a xlink:title=" ">
<polygon fill="white" stroke="#bfbfbf" points="0,-0.5 0,-19.5 56,-19.5 56,-0.5 0,-0.5"/>
<text text-anchor="middle" x="28" y="-7.5" font-family="Helvetica,sans-Serif" font-size="10.00">stdbool.h</text>
</a>
</g>
</g>
<!-- Node3&#45;&gt;Node4 -->
<g id="edge3" class="edge"><title>Node3&#45;&gt;Node4</title>
<path fill="none" stroke="midnightblue" d="M87.5926,-56.324C76.8912,-48.1849 60.6593,-35.8395 47.8372,-26.0874"/>
<polygon fill="midnightblue" stroke="midnightblue" points="49.6932,-23.1018 39.6149,-19.8339 45.4556,-28.6734 49.6932,-23.1018"/>
</g>
<!-- Node5 -->
<g id="node5" class="node"><title>Node5</title>
<g id="a_node5"><a xlink:title=" ">
<polygon fill="white" stroke="#bfbfbf" points="74.5,-0.5 74.5,-19.5 123.5,-19.5 123.5,-0.5 74.5,-0.5"/>
<text text-anchor="middle" x="99" y="-7.5" font-family="Helvetica,sans-Serif" font-size="10.00">stdint.h</text>
</a>
</g>
</g>
<!-- Node3&#45;&gt;Node5 -->
<g id="edge4" class="edge"><title>Node3&#45;&gt;Node5</title>
<path fill="none" stroke="midnightblue" d="M99,-56.083C99,-49.0059 99,-38.8611 99,-29.9865"/>
<polygon fill="midnightblue" stroke="midnightblue" points="102.5,-29.751 99,-19.7511 95.5001,-29.7511 102.5,-29.751"/>
</g>
<!-- Node6 -->
<g id="node6" class="node"><title>Node6</title>
<g id="a_node6"><a xlink:title=" ">
<polygon fill="white" stroke="#bfbfbf" points="142,-0.5 142,-19.5 188,-19.5 188,-0.5 142,-0.5"/>
<text text-anchor="middle" x="165" y="-7.5" font-family="Helvetica,sans-Serif" font-size="10.00">stdio.h</text>
</a>
</g>
</g>
<!-- Node3&#45;&gt;Node6 -->
<g id="edge5" class="edge"><title>Node3&#45;&gt;Node6</title>
<path fill="none" stroke="midnightblue" d="M109.604,-56.324C119.456,-48.2631 134.351,-36.0765 146.215,-26.3695"/>
<polygon fill="midnightblue" stroke="midnightblue" points="148.68,-28.8752 154.203,-19.8339 144.247,-23.4575 148.68,-28.8752"/>
</g>
</g>
</svg>
