<?xml version="1.0" encoding="UTF-8" standalone="no"?>
<!DOCTYPE svg PUBLIC "-//W3C//DTD SVG 1.1//EN"
 "http://www.w3.org/Graphics/SVG/1.1/DTD/svg11.dtd">
<!-- Generated by graphviz version 2.38.0 (20140413.2041)
 -->
<!-- Title: ex_callbacks_edm_wifi.c Pages: 1 -->
<svg width="1142pt" height="364pt"
 viewBox="0.00 0.00 1142.00 364.00" xmlns="http://www.w3.org/2000/svg" xmlns:xlink="http://www.w3.org/1999/xlink">
<g id="graph0" class="graph" transform="scale(1 1) rotate(0) translate(4 360)">
<title>ex_callbacks_edm_wifi.c</title>
<polygon fill="white" stroke="none" points="-4,4 -4,-360 1138,-360 1138,4 -4,4"/>
<!-- Node1 -->
<g id="node1" class="node"><title>Node1</title>
<g id="a_node1"><a xlink:title=" ">
<polygon fill="#bfbfbf" stroke="black" points="496.5,-336.5 496.5,-355.5 621.5,-355.5 621.5,-336.5 496.5,-336.5"/>
<text text-anchor="middle" x="559" y="-343.5" font-family="Helvetica,sans-Serif" font-size="10.00">ex_callbacks_edm_wifi.c</text>
</a>
</g>
</g>
<!-- Node2 -->
<g id="node2" class="node"><title>Node2</title>
<g id="a_node2"><a xlink:title=" ">
<polygon fill="white" stroke="#bfbfbf" points="0,-280.5 0,-299.5 52,-299.5 52,-280.5 0,-280.5"/>
<text text-anchor="middle" x="26" y="-287.5" font-family="Helvetica,sans-Serif" font-size="10.00">assert.h</text>
</a>
</g>
</g>
<!-- Node1&#45;&gt;Node2 -->
<g id="edge1" class="edge"><title>Node1&#45;&gt;Node2</title>
<path fill="none" stroke="midnightblue" d="M496.469,-342.593C403.637,-338.306 223.833,-327.262 62.39,-299.977"/>
<polygon fill="midnightblue" stroke="midnightblue" points="62.7224,-296.483 52.2746,-298.242 61.5388,-303.382 62.7224,-296.483"/>
</g>
<!-- Node3 -->
<g id="node3" class="node"><title>Node3</title>
<g id="a_node3"><a xlink:title=" ">
<polygon fill="white" stroke="#bfbfbf" points="70.5,-280.5 70.5,-299.5 119.5,-299.5 119.5,-280.5 70.5,-280.5"/>
<text text-anchor="middle" x="95" y="-287.5" font-family="Helvetica,sans-Serif" font-size="10.00">ctype.h</text>
</a>
</g>
</g>
<!-- Node1&#45;&gt;Node3 -->
<g id="edge2" class="edge"><title>Node1&#45;&gt;Node3</title>
<path fill="none" stroke="midnightblue" d="M496.385,-340.759C413.206,-334.58 261.874,-321.443 134,-300 132.544,-299.756 131.06,-299.49 129.565,-299.208"/>
<polygon fill="midnightblue" stroke="midnightblue" points="130.168,-295.759 119.667,-297.168 128.755,-302.615 130.168,-295.759"/>
</g>
<!-- Node4 -->
<g id="node4" class="node"><title>Node4</title>
<g id="a_node4"><a xlink:title=" ">
<polygon fill="white" stroke="#bfbfbf" points="369,-56.5 369,-75.5 425,-75.5 425,-56.5 369,-56.5"/>
<text text-anchor="middle" x="397" y="-63.5" font-family="Helvetica,sans-Serif" font-size="10.00">stdbool.h</text>
</a>
</g>
</g>
<!-- Node1&#45;&gt;Node4 -->
<g id="edge3" class="edge"><title>Node1&#45;&gt;Node4</title>
<path fill="none" stroke="midnightblue" d="M496.131,-341.21C380.997,-332.536 148,-306.188 148,-235 148,-235 148,-235 148,-177 148,-85.9723 288.957,-69.6513 358.762,-67.1498"/>
<polygon fill="midnightblue" stroke="midnightblue" points="359.022,-70.644 368.921,-66.8656 358.827,-63.6467 359.022,-70.644"/>
</g>
<!-- Node5 -->
<g id="node5" class="node"><title>Node5</title>
<g id="a_node5"><a xlink:title=" ">
<polygon fill="white" stroke="#bfbfbf" points="255,-168.5 255,-187.5 301,-187.5 301,-168.5 255,-168.5"/>
<text text-anchor="middle" x="278" y="-175.5" font-family="Helvetica,sans-Serif" font-size="10.00">stdio.h</text>
</a>
</g>
</g>
<!-- Node1&#45;&gt;Node5 -->
<g id="edge4" class="edge"><title>Node1&#45;&gt;Node5</title>
<path fill="none" stroke="midnightblue" d="M496.416,-336.904C436.999,-325.957 349.224,-300.781 297,-244 285.445,-231.436 280.885,-212.216 279.103,-197.931"/>
<polygon fill="midnightblue" stroke="midnightblue" points="282.569,-197.401 278.188,-187.754 275.597,-198.027 282.569,-197.401"/>
</g>
<!-- Node6 -->
<g id="node6" class="node"><title>Node6</title>
<g id="a_node6"><a xlink:title=" ">
<polygon fill="white" stroke="#bfbfbf" points="934,-280.5 934,-299.5 982,-299.5 982,-280.5 934,-280.5"/>
<text text-anchor="middle" x="958" y="-287.5" font-family="Helvetica,sans-Serif" font-size="10.00">stdlib.h</text>
</a>
</g>
</g>
<!-- Node1&#45;&gt;Node6 -->
<g id="edge5" class="edge"><title>Node1&#45;&gt;Node6</title>
<path fill="none" stroke="midnightblue" d="M621.596,-339.279C693.835,-332.196 816.042,-318.733 920,-300 921.276,-299.77 922.574,-299.524 923.882,-299.266"/>
<polygon fill="midnightblue" stroke="midnightblue" points="924.914,-302.625 933.96,-297.11 923.449,-295.78 924.914,-302.625"/>
</g>
<!-- Node7 -->
<g id="node7" class="node"><title>Node7</title>
<g id="a_node7"><a xlink:title=" ">
<polygon fill="white" stroke="#bfbfbf" points="1000.5,-280.5 1000.5,-299.5 1049.5,-299.5 1049.5,-280.5 1000.5,-280.5"/>
<text text-anchor="middle" x="1025" y="-287.5" font-family="Helvetica,sans-Serif" font-size="10.00">string.h</text>
</a>
</g>
</g>
<!-- Node1&#45;&gt;Node7 -->
<g id="edge6" class="edge"><title>Node1&#45;&gt;Node7</title>
<path fill="none" stroke="midnightblue" d="M621.671,-341.527C704.046,-336.285 853.318,-324.455 989.983,-299.902"/>
<polygon fill="midnightblue" stroke="midnightblue" points="991.008,-303.273 1000.22,-298.035 989.752,-296.387 991.008,-303.273"/>
</g>
<!-- Node8 -->
<g id="node8" class="node"><title>Node8</title>
<g id="a_node8"><a xlink:title=" ">
<polygon fill="white" stroke="#bfbfbf" points="701,-56.5 701,-75.5 745,-75.5 745,-56.5 701,-56.5"/>
<text text-anchor="middle" x="723" y="-63.5" font-family="Helvetica,sans-Serif" font-size="10.00">time.h</text>
</a>
</g>
</g>
<!-- Node1&#45;&gt;Node8 -->
<g id="edge7" class="edge"><title>Node1&#45;&gt;Node8</title>
<path fill="none" stroke="midnightblue" d="M617.121,-336.465C706.63,-321.663 868,-287.673 868,-235 868,-235 868,-235 868,-177 868,-146.902 869.649,-133.897 849,-112 824.553,-86.0761 784.162,-75.0625 755.712,-70.3985"/>
<polygon fill="midnightblue" stroke="midnightblue" points="755.852,-66.882 745.452,-68.904 754.843,-73.8089 755.852,-66.882"/>
</g>
<!-- Node9 -->
<g id="node9" class="node"><title>Node9</title>
<g id="a_node9"><a xlink:title=" ">
<polygon fill="white" stroke="#bfbfbf" points="829.5,-56.5 829.5,-75.5 880.5,-75.5 880.5,-56.5 829.5,-56.5"/>
<text text-anchor="middle" x="855" y="-63.5" font-family="Helvetica,sans-Serif" font-size="10.00">unistd.h</text>
</a>
</g>
</g>
<!-- Node1&#45;&gt;Node9 -->
<g id="edge8" class="edge"><title>Node1&#45;&gt;Node9</title>
<path fill="none" stroke="midnightblue" d="M621.839,-338.11C721.835,-325.379 906,-293.932 906,-235 906,-235 906,-235 906,-177 906,-141.244 883.546,-104.508 868.436,-83.8357"/>
<polygon fill="midnightblue" stroke="midnightblue" points="871.144,-81.6137 862.307,-75.7686 865.57,-85.8485 871.144,-81.6137"/>
</g>
<!-- Node10 -->
<g id="node10" class="node"><title>Node10</title>
<g id="a_node10"><a xlink:href="ucxh__library_8h.html" target="_top" xlink:title=" ">
<polygon fill="white" stroke="black" points="520.5,-280.5 520.5,-299.5 597.5,-299.5 597.5,-280.5 520.5,-280.5"/>
<text text-anchor="middle" x="559" y="-287.5" font-family="Helvetica,sans-Serif" font-size="10.00">ucxh_library.h</text>
</a>
</g>
</g>
<!-- Node1&#45;&gt;Node10 -->
<g id="edge9" class="edge"><title>Node1&#45;&gt;Node10</title>
<path fill="none" stroke="midnightblue" d="M559,-336.083C559,-329.006 559,-318.861 559,-309.986"/>
<polygon fill="midnightblue" stroke="midnightblue" points="562.5,-309.751 559,-299.751 555.5,-309.751 562.5,-309.751"/>
</g>
<!-- Node22 -->
<g id="node22" class="node"><title>Node22</title>
<g id="a_node22"><a xlink:href="ucxh__serial_8h.html" target="_top" xlink:title=" ">
<polygon fill="white" stroke="black" points="176,-224.5 176,-243.5 250,-243.5 250,-224.5 176,-224.5"/>
<text text-anchor="middle" x="213" y="-231.5" font-family="Helvetica,sans-Serif" font-size="10.00">ucxh_serial.h</text>
</a>
</g>
</g>
<!-- Node1&#45;&gt;Node22 -->
<g id="edge36" class="edge"><title>Node1&#45;&gt;Node22</title>
<path fill="none" stroke="midnightblue" d="M496.336,-340.849C421.722,-334.982 302.365,-322.399 264,-300 245.1,-288.966 230.613,-267.995 221.992,-252.852"/>
<polygon fill="midnightblue" stroke="midnightblue" points="225.001,-251.058 217.186,-243.905 218.835,-254.371 225.001,-251.058"/>
</g>
<!-- Node23 -->
<g id="node23" class="node"><title>Node23</title>
<g id="a_node23"><a xlink:href="ex__config_8h.html" target="_top" xlink:title=" ">
<polygon fill="white" stroke="black" points="1068,-280.5 1068,-299.5 1134,-299.5 1134,-280.5 1068,-280.5"/>
<text text-anchor="middle" x="1101" y="-287.5" font-family="Helvetica,sans-Serif" font-size="10.00">ex_config.h</text>
</a>
</g>
</g>
<!-- Node1&#45;&gt;Node23 -->
<g id="edge39" class="edge"><title>Node1&#45;&gt;Node23</title>
<path fill="none" stroke="midnightblue" d="M621.652,-341.808C714.691,-336.528 895.009,-324.224 1057.42,-300.073"/>
<polygon fill="midnightblue" stroke="midnightblue" points="1058.23,-303.49 1067.6,-298.54 1057.19,-296.568 1058.23,-303.49"/>
</g>
<!-- Node11 -->
<g id="node11" class="node"><title>Node11</title>
<g id="a_node11"><a xlink:href="ucxh__config_8h.html" target="_top" xlink:title=" ">
<polygon fill="white" stroke="black" points="434.5,-224.5 434.5,-243.5 511.5,-243.5 511.5,-224.5 434.5,-224.5"/>
<text text-anchor="middle" x="473" y="-231.5" font-family="Helvetica,sans-Serif" font-size="10.00">ucxh_config.h</text>
</a>
</g>
</g>
<!-- Node10&#45;&gt;Node11 -->
<g id="edge10" class="edge"><title>Node10&#45;&gt;Node11</title>
<path fill="none" stroke="midnightblue" d="M545.183,-280.324C531.767,-271.9 511.176,-258.971 495.414,-249.074"/>
<polygon fill="midnightblue" stroke="midnightblue" points="497.113,-246.008 486.783,-243.655 493.391,-251.936 497.113,-246.008"/>
</g>
<!-- Node12 -->
<g id="node12" class="node"><title>Node12</title>
<g id="a_node12"><a xlink:href="ucxh__edm__parser_8h.html" target="_top" xlink:title=" ">
<polygon fill="white" stroke="black" points="606,-224.5 606,-243.5 708,-243.5 708,-224.5 606,-224.5"/>
<text text-anchor="middle" x="657" y="-231.5" font-family="Helvetica,sans-Serif" font-size="10.00">ucxh_edm_parser.h</text>
</a>
</g>
</g>
<!-- Node10&#45;&gt;Node12 -->
<g id="edge11" class="edge"><title>Node10&#45;&gt;Node12</title>
<path fill="none" stroke="midnightblue" d="M574.745,-280.324C590.319,-271.743 614.377,-258.486 632.459,-248.522"/>
<polygon fill="midnightblue" stroke="midnightblue" points="634.224,-251.546 641.294,-243.655 630.846,-245.415 634.224,-251.546"/>
</g>
<!-- Node13 -->
<g id="node13" class="node"><title>Node13</title>
<g id="a_node13"><a xlink:href="ucxh__parser_8h.html" target="_top" xlink:title=" ">
<polygon fill="white" stroke="black" points="559,-168.5 559,-187.5 637,-187.5 637,-168.5 559,-168.5"/>
<text text-anchor="middle" x="598" y="-175.5" font-family="Helvetica,sans-Serif" font-size="10.00">ucxh_parser.h</text>
</a>
</g>
</g>
<!-- Node10&#45;&gt;Node13 -->
<g id="edge30" class="edge"><title>Node10&#45;&gt;Node13</title>
<path fill="none" stroke="midnightblue" d="M562.06,-280.368C568.382,-262.537 583.004,-221.295 591.522,-197.272"/>
<polygon fill="midnightblue" stroke="midnightblue" points="594.911,-198.186 594.954,-187.591 588.313,-195.847 594.911,-198.186"/>
</g>
<!-- Node14 -->
<g id="node14" class="node"><title>Node14</title>
<g id="a_node14"><a xlink:href="ucxh__edm_8h.html" target="_top" xlink:title=" ">
<polygon fill="white" stroke="black" points="770,-112.5 770,-131.5 840,-131.5 840,-112.5 770,-112.5"/>
<text text-anchor="middle" x="805" y="-119.5" font-family="Helvetica,sans-Serif" font-size="10.00">ucxh_edm.h</text>
</a>
</g>
</g>
<!-- Node10&#45;&gt;Node14 -->
<g id="edge35" class="edge"><title>Node10&#45;&gt;Node14</title>
<path fill="none" stroke="midnightblue" d="M597.575,-287.896C661.1,-285.175 783.367,-275.832 810,-244 834.308,-214.946 821.923,-166.852 812.454,-140.911"/>
<polygon fill="midnightblue" stroke="midnightblue" points="815.701,-139.604 808.809,-131.557 809.179,-142.146 815.701,-139.604"/>
</g>
<!-- Node16 -->
<g id="node16" class="node"><title>Node16</title>
<g id="a_node16"><a xlink:href="ucxh__wait_8h.html" target="_top" xlink:title=" ">
<polygon fill="white" stroke="black" points="448,-112.5 448,-131.5 516,-131.5 516,-112.5 448,-112.5"/>
<text text-anchor="middle" x="482" y="-119.5" font-family="Helvetica,sans-Serif" font-size="10.00">ucxh_wait.h</text>
</a>
</g>
</g>
<!-- Node10&#45;&gt;Node16 -->
<g id="edge33" class="edge"><title>Node10&#45;&gt;Node16</title>
<path fill="none" stroke="midnightblue" d="M554.86,-280.075C542.635,-253.719 506.528,-175.878 490.192,-140.661"/>
<polygon fill="midnightblue" stroke="midnightblue" points="493.357,-139.167 485.974,-131.568 487.007,-142.112 493.357,-139.167"/>
</g>
<!-- Node17 -->
<g id="node17" class="node"><title>Node17</title>
<g id="a_node17"><a xlink:href="ucxh__wifi_8h.html" target="_top" xlink:title=" ">
<polygon fill="white" stroke="black" points="364.5,-112.5 364.5,-131.5 429.5,-131.5 429.5,-112.5 364.5,-112.5"/>
<text text-anchor="middle" x="397" y="-119.5" font-family="Helvetica,sans-Serif" font-size="10.00">ucxh_wifi.h</text>
</a>
</g>
</g>
<!-- Node10&#45;&gt;Node17 -->
<g id="edge34" class="edge"><title>Node10&#45;&gt;Node17</title>
<path fill="none" stroke="midnightblue" d="M520.303,-286.045C490.108,-281.657 449.33,-270.801 425,-244 399.119,-215.491 395.721,-167.878 396.032,-141.686"/>
<polygon fill="midnightblue" stroke="midnightblue" points="399.533,-141.703 396.354,-131.597 392.537,-141.48 399.533,-141.703"/>
</g>
<!-- Node20 -->
<g id="node20" class="node"><title>Node20</title>
<g id="a_node20"><a xlink:href="ucxh__mode_8h.html" target="_top" xlink:title=" ">
<polygon fill="white" stroke="black" points="726.5,-224.5 726.5,-243.5 801.5,-243.5 801.5,-224.5 726.5,-224.5"/>
<text text-anchor="middle" x="764" y="-231.5" font-family="Helvetica,sans-Serif" font-size="10.00">ucxh_mode.h</text>
</a>
</g>
</g>
<!-- Node10&#45;&gt;Node20 -->
<g id="edge29" class="edge"><title>Node10&#45;&gt;Node20</title>
<path fill="none" stroke="midnightblue" d="M591.483,-280.444C626.72,-271.162 683.104,-256.309 721.759,-246.127"/>
<polygon fill="midnightblue" stroke="midnightblue" points="722.891,-249.448 731.669,-243.516 721.107,-242.679 722.891,-249.448"/>
</g>
<!-- Node21 -->
<g id="node21" class="node"><title>Node21</title>
<g id="a_node21"><a xlink:href="ucxh__send_8h.html" target="_top" xlink:title=" ">
<polygon fill="white" stroke="black" points="306,-224.5 306,-243.5 378,-243.5 378,-224.5 306,-224.5"/>
<text text-anchor="middle" x="342" y="-231.5" font-family="Helvetica,sans-Serif" font-size="10.00">ucxh_send.h</text>
</a>
</g>
</g>
<!-- Node10&#45;&gt;Node21 -->
<g id="edge31" class="edge"><title>Node10&#45;&gt;Node21</title>
<path fill="none" stroke="midnightblue" d="M524.616,-280.444C487.078,-271.102 426.869,-256.119 385.933,-245.933"/>
<polygon fill="midnightblue" stroke="midnightblue" points="386.773,-242.535 376.223,-243.516 385.082,-249.328 386.773,-242.535"/>
</g>
<!-- Node12&#45;&gt;Node8 -->
<g id="edge12" class="edge"><title>Node12&#45;&gt;Node8</title>
<path fill="none" stroke="midnightblue" d="M662.084,-224.37C671.973,-207.27 693.966,-167.65 707,-132 712.556,-116.804 716.801,-98.9129 719.517,-85.7517"/>
<polygon fill="midnightblue" stroke="midnightblue" points="723.02,-86.0762 721.506,-75.5901 716.151,-84.7317 723.02,-86.0762"/>
</g>
<!-- Node12&#45;&gt;Node13 -->
<g id="edge13" class="edge"><title>Node12&#45;&gt;Node13</title>
<path fill="none" stroke="midnightblue" d="M647.521,-224.324C638.799,-216.341 625.657,-204.313 615.102,-194.653"/>
<polygon fill="midnightblue" stroke="midnightblue" points="617.392,-192.004 607.652,-187.834 612.666,-197.167 617.392,-192.004"/>
</g>
<!-- Node12&#45;&gt;Node14 -->
<g id="edge28" class="edge"><title>Node12&#45;&gt;Node14</title>
<path fill="none" stroke="midnightblue" d="M685.086,-224.461C706.115,-217.117 734.787,-205.005 756,-188 772.485,-174.786 786.427,-154.838 795.174,-140.527"/>
<polygon fill="midnightblue" stroke="midnightblue" points="798.327,-142.07 800.367,-131.673 792.289,-138.528 798.327,-142.07"/>
</g>
<!-- Node15 -->
<g id="node15" class="node"><title>Node15</title>
<g id="a_node15"><a xlink:href="ucxh__poll_8h.html" target="_top" xlink:title=" ">
<polygon fill="white" stroke="black" points="610,-112.5 610,-131.5 676,-131.5 676,-112.5 610,-112.5"/>
<text text-anchor="middle" x="643" y="-119.5" font-family="Helvetica,sans-Serif" font-size="10.00">ucxh_poll.h</text>
</a>
</g>
</g>
<!-- Node12&#45;&gt;Node15 -->
<g id="edge27" class="edge"><title>Node12&#45;&gt;Node15</title>
<path fill="none" stroke="midnightblue" d="M655.901,-224.368C653.642,-206.617 648.43,-165.666 645.367,-141.597"/>
<polygon fill="midnightblue" stroke="midnightblue" points="648.828,-141.069 644.093,-131.591 641.884,-141.953 648.828,-141.069"/>
</g>
<!-- Node13&#45;&gt;Node4 -->
<g id="edge14" class="edge"><title>Node13&#45;&gt;Node4</title>
<path fill="none" stroke="midnightblue" d="M590.307,-168.231C577.841,-154.5 551.896,-127.86 525,-112 496.787,-95.3642 461.462,-83.5245 435.072,-76.1786"/>
<polygon fill="midnightblue" stroke="midnightblue" points="435.639,-72.7067 425.073,-73.4901 433.821,-79.4667 435.639,-72.7067"/>
</g>
<!-- Node13&#45;&gt;Node8 -->
<g id="edge15" class="edge"><title>Node13&#45;&gt;Node8</title>
<path fill="none" stroke="midnightblue" d="M623.19,-168.379C641.936,-160.992 667.243,-148.862 685,-132 699.035,-118.673 709.546,-99.0184 715.915,-84.8139"/>
<polygon fill="midnightblue" stroke="midnightblue" points="719.139,-86.1759 719.812,-75.6024 712.693,-83.4486 719.139,-86.1759"/>
</g>
<!-- Node13&#45;&gt;Node14 -->
<g id="edge16" class="edge"><title>Node13&#45;&gt;Node14</title>
<path fill="none" stroke="midnightblue" d="M630.8,-168.444C666.38,-159.162 723.314,-144.309 762.347,-134.127"/>
<polygon fill="midnightblue" stroke="midnightblue" points="763.561,-137.427 772.354,-131.516 761.794,-130.654 763.561,-137.427"/>
</g>
<!-- Node13&#45;&gt;Node15 -->
<g id="edge18" class="edge"><title>Node13&#45;&gt;Node15</title>
<path fill="none" stroke="midnightblue" d="M605.431,-168.083C611.853,-160.377 621.306,-149.033 629.122,-139.653"/>
<polygon fill="midnightblue" stroke="midnightblue" points="631.994,-141.674 635.707,-131.751 626.617,-137.193 631.994,-141.674"/>
</g>
<!-- Node13&#45;&gt;Node16 -->
<g id="edge21" class="edge"><title>Node13&#45;&gt;Node16</title>
<path fill="none" stroke="midnightblue" d="M579.619,-168.444C560.784,-159.675 531.269,-145.935 509.621,-135.858"/>
<polygon fill="midnightblue" stroke="midnightblue" points="510.838,-132.564 500.295,-131.516 507.883,-138.91 510.838,-132.564"/>
</g>
<!-- Node13&#45;&gt;Node17 -->
<g id="edge22" class="edge"><title>Node13&#45;&gt;Node17</title>
<path fill="none" stroke="midnightblue" d="M566.151,-168.444C531.602,-159.162 476.318,-144.309 438.417,-134.127"/>
<polygon fill="midnightblue" stroke="midnightblue" points="439.266,-130.731 428.7,-131.516 437.449,-137.491 439.266,-130.731"/>
</g>
<!-- Node14&#45;&gt;Node9 -->
<g id="edge17" class="edge"><title>Node14&#45;&gt;Node9</title>
<path fill="none" stroke="midnightblue" d="M813.256,-112.083C820.465,-104.298 831.11,-92.8015 839.846,-83.3665"/>
<polygon fill="midnightblue" stroke="midnightblue" points="842.671,-85.4666 846.897,-75.7511 837.535,-80.7108 842.671,-85.4666"/>
</g>
<!-- Node15&#45;&gt;Node4 -->
<g id="edge19" class="edge"><title>Node15&#45;&gt;Node4</title>
<path fill="none" stroke="midnightblue" d="M609.823,-113.717C564.372,-103.74 482.939,-85.8647 435.062,-75.355"/>
<polygon fill="midnightblue" stroke="midnightblue" points="435.61,-71.8921 425.092,-73.1665 434.109,-78.7293 435.61,-71.8921"/>
</g>
<!-- Node15&#45;&gt;Node8 -->
<g id="edge20" class="edge"><title>Node15&#45;&gt;Node8</title>
<path fill="none" stroke="midnightblue" d="M655.853,-112.324C668.216,-103.979 687.13,-91.2122 701.737,-81.3524"/>
<polygon fill="midnightblue" stroke="midnightblue" points="703.848,-84.1503 710.179,-75.6545 699.932,-78.3483 703.848,-84.1503"/>
</g>
<!-- Node17&#45;&gt;Node4 -->
<g id="edge23" class="edge"><title>Node17&#45;&gt;Node4</title>
<path fill="none" stroke="midnightblue" d="M397,-112.083C397,-105.006 397,-94.8611 397,-85.9865"/>
<polygon fill="midnightblue" stroke="midnightblue" points="400.5,-85.751 397,-75.7511 393.5,-85.7511 400.5,-85.751"/>
</g>
<!-- Node18 -->
<g id="node18" class="node"><title>Node18</title>
<g id="a_node18"><a xlink:href="ucxh__urc_8h.html" target="_top" xlink:title=" ">
<polygon fill="white" stroke="black" points="496.5,-56.5 496.5,-75.5 561.5,-75.5 561.5,-56.5 496.5,-56.5"/>
<text text-anchor="middle" x="529" y="-63.5" font-family="Helvetica,sans-Serif" font-size="10.00">ucxh_urc.h</text>
</a>
</g>
</g>
<!-- Node17&#45;&gt;Node18 -->
<g id="edge24" class="edge"><title>Node17&#45;&gt;Node18</title>
<path fill="none" stroke="midnightblue" d="M417.916,-112.444C439.736,-103.517 474.15,-89.4387 498.892,-79.3168"/>
<polygon fill="midnightblue" stroke="midnightblue" points="500.252,-82.5422 508.182,-75.5164 497.601,-76.0634 500.252,-82.5422"/>
</g>
<!-- Node18&#45;&gt;Node13 -->
<g id="edge25" class="edge"><title>Node18&#45;&gt;Node13</title>
<path fill="none" stroke="midnightblue" d="M534.613,-75.5928C540.494,-84.6234 549.976,-99.2596 558,-112 568.016,-127.903 579.213,-146.138 587.207,-159.239"/>
<polygon fill="midnightblue" stroke="midnightblue" points="584.433,-161.412 592.623,-168.133 590.411,-157.771 584.433,-161.412"/>
</g>
<!-- Node19 -->
<g id="node19" class="node"><title>Node19</title>
<g id="a_node19"><a xlink:href="autogenerated_8h.html" target="_top" xlink:title="Automatically generated function prototypes and documentation.">
<polygon fill="white" stroke="black" points="486,-0.5 486,-19.5 572,-19.5 572,-0.5 486,-0.5"/>
<text text-anchor="middle" x="529" y="-7.5" font-family="Helvetica,sans-Serif" font-size="10.00">autogenerated.h</text>
</a>
</g>
</g>
<!-- Node18&#45;&gt;Node19 -->
<g id="edge26" class="edge"><title>Node18&#45;&gt;Node19</title>
<path fill="none" stroke="midnightblue" d="M529,-56.083C529,-49.0059 529,-38.8611 529,-29.9865"/>
<polygon fill="midnightblue" stroke="midnightblue" points="532.5,-29.751 529,-19.7511 525.5,-29.7511 532.5,-29.751"/>
</g>
<!-- Node21&#45;&gt;Node5 -->
<g id="edge32" class="edge"><title>Node21&#45;&gt;Node5</title>
<path fill="none" stroke="midnightblue" d="M331.717,-224.324C322.164,-216.263 307.72,-204.077 296.216,-194.369"/>
<polygon fill="midnightblue" stroke="midnightblue" points="298.37,-191.608 288.47,-187.834 293.856,-196.958 298.37,-191.608"/>
</g>
<!-- Node22&#45;&gt;Node4 -->
<g id="edge37" class="edge"><title>Node22&#45;&gt;Node4</title>
<path fill="none" stroke="midnightblue" d="M215.847,-224.166C220.485,-210.816 230.717,-185.233 246,-168 281.427,-128.055 336.031,-96.7727 368.958,-80.1643"/>
<polygon fill="midnightblue" stroke="midnightblue" points="370.619,-83.2472 378.035,-75.6806 367.519,-76.9711 370.619,-83.2472"/>
</g>
<!-- Node22&#45;&gt;Node5 -->
<g id="edge38" class="edge"><title>Node22&#45;&gt;Node5</title>
<path fill="none" stroke="midnightblue" d="M223.443,-224.324C233.146,-216.263 247.815,-204.077 259.5,-194.369"/>
<polygon fill="midnightblue" stroke="midnightblue" points="261.911,-196.916 267.367,-187.834 257.438,-191.532 261.911,-196.916"/>
</g>
</g>
</svg>
