<?xml version="1.0" encoding="UTF-8" standalone="no"?>
<!DOCTYPE svg PUBLIC "-//W3C//DTD SVG 1.1//EN"
 "http://www.w3.org/Graphics/SVG/1.1/DTD/svg11.dtd">
<!-- Generated by graphviz version 2.38.0 (20140413.2041)
 -->
<!-- Title: ex_wifi_pos.c Pages: 1 -->
<svg width="1183pt" height="364pt"
 viewBox="0.00 0.00 1183.00 364.00" xmlns="http://www.w3.org/2000/svg" xmlns:xlink="http://www.w3.org/1999/xlink">
<g id="graph0" class="graph" transform="scale(1 1) rotate(0) translate(4 360)">
<title>ex_wifi_pos.c</title>
<polygon fill="white" stroke="none" points="-4,4 -4,-360 1179,-360 1179,4 -4,4"/>
<!-- Node1 -->
<g id="node1" class="node"><title>Node1</title>
<g id="a_node1"><a xlink:title=" ">
<polygon fill="#bfbfbf" stroke="black" points="454.5,-336.5 454.5,-355.5 529.5,-355.5 529.5,-336.5 454.5,-336.5"/>
<text text-anchor="middle" x="492" y="-343.5" font-family="Helvetica,sans-Serif" font-size="10.00">ex_wifi_pos.c</text>
</a>
</g>
</g>
<!-- Node2 -->
<g id="node2" class="node"><title>Node2</title>
<g id="a_node2"><a xlink:title=" ">
<polygon fill="white" stroke="#bfbfbf" points="0,-280.5 0,-299.5 52,-299.5 52,-280.5 0,-280.5"/>
<text text-anchor="middle" x="26" y="-287.5" font-family="Helvetica,sans-Serif" font-size="10.00">assert.h</text>
</a>
</g>
</g>
<!-- Node1&#45;&gt;Node2 -->
<g id="edge1" class="edge"><title>Node1&#45;&gt;Node2</title>
<path fill="none" stroke="midnightblue" d="M454.264,-342.939C380.606,-338.512 212.45,-326.424 62.1543,-299.965"/>
<polygon fill="midnightblue" stroke="midnightblue" points="62.7413,-296.515 52.2816,-298.202 61.5103,-303.406 62.7413,-296.515"/>
</g>
<!-- Node3 -->
<g id="node3" class="node"><title>Node3</title>
<g id="a_node3"><a xlink:title=" ">
<polygon fill="white" stroke="#bfbfbf" points="70.5,-280.5 70.5,-299.5 119.5,-299.5 119.5,-280.5 70.5,-280.5"/>
<text text-anchor="middle" x="95" y="-287.5" font-family="Helvetica,sans-Serif" font-size="10.00">ctype.h</text>
</a>
</g>
</g>
<!-- Node1&#45;&gt;Node3 -->
<g id="edge2" class="edge"><title>Node1&#45;&gt;Node3</title>
<path fill="none" stroke="midnightblue" d="M454.445,-341.549C389.039,-335.257 250.103,-320.638 134,-300 132.546,-299.742 131.065,-299.464 129.571,-299.172"/>
<polygon fill="midnightblue" stroke="midnightblue" points="130.186,-295.725 119.68,-297.094 128.747,-302.576 130.186,-295.725"/>
</g>
<!-- Node4 -->
<g id="node4" class="node"><title>Node4</title>
<g id="a_node4"><a xlink:title=" ">
<polygon fill="white" stroke="#bfbfbf" points="332,-56.5 332,-75.5 388,-75.5 388,-56.5 332,-56.5"/>
<text text-anchor="middle" x="360" y="-63.5" font-family="Helvetica,sans-Serif" font-size="10.00">stdbool.h</text>
</a>
</g>
</g>
<!-- Node1&#45;&gt;Node4 -->
<g id="edge3" class="edge"><title>Node1&#45;&gt;Node4</title>
<path fill="none" stroke="midnightblue" d="M454.092,-343.454C403.293,-340.24 311.172,-330.355 239,-300 193.185,-280.73 148,-284.702 148,-235 148,-235 148,-235 148,-177 148,-99.585 260.756,-76.5809 321.804,-69.7993"/>
<polygon fill="midnightblue" stroke="midnightblue" points="322.254,-73.2718 331.848,-68.7779 321.545,-66.3077 322.254,-73.2718"/>
</g>
<!-- Node5 -->
<g id="node5" class="node"><title>Node5</title>
<g id="a_node5"><a xlink:title=" ">
<polygon fill="white" stroke="#bfbfbf" points="255,-168.5 255,-187.5 301,-187.5 301,-168.5 255,-168.5"/>
<text text-anchor="middle" x="278" y="-175.5" font-family="Helvetica,sans-Serif" font-size="10.00">stdio.h</text>
</a>
</g>
</g>
<!-- Node1&#45;&gt;Node5 -->
<g id="edge4" class="edge"><title>Node1&#45;&gt;Node5</title>
<path fill="none" stroke="midnightblue" d="M456.571,-336.449C412.318,-323.879 337.506,-296.055 297,-244 286.631,-230.675 281.916,-211.845 279.775,-197.879"/>
<polygon fill="midnightblue" stroke="midnightblue" points="283.245,-197.419 278.551,-187.921 276.297,-198.273 283.245,-197.419"/>
</g>
<!-- Node6 -->
<g id="node6" class="node"><title>Node6</title>
<g id="a_node6"><a xlink:title=" ">
<polygon fill="white" stroke="#bfbfbf" points="975,-280.5 975,-299.5 1023,-299.5 1023,-280.5 975,-280.5"/>
<text text-anchor="middle" x="999" y="-287.5" font-family="Helvetica,sans-Serif" font-size="10.00">stdlib.h</text>
</a>
</g>
</g>
<!-- Node1&#45;&gt;Node6 -->
<g id="edge5" class="edge"><title>Node1&#45;&gt;Node6</title>
<path fill="none" stroke="midnightblue" d="M529.615,-343.143C609.503,-338.814 801.822,-326.359 961,-300 962.279,-299.788 963.579,-299.558 964.89,-299.313"/>
<polygon fill="midnightblue" stroke="midnightblue" points="965.901,-302.678 974.978,-297.214 964.475,-295.824 965.901,-302.678"/>
</g>
<!-- Node7 -->
<g id="node7" class="node"><title>Node7</title>
<g id="a_node7"><a xlink:title=" ">
<polygon fill="white" stroke="#bfbfbf" points="1041.5,-280.5 1041.5,-299.5 1090.5,-299.5 1090.5,-280.5 1041.5,-280.5"/>
<text text-anchor="middle" x="1066" y="-287.5" font-family="Helvetica,sans-Serif" font-size="10.00">string.h</text>
</a>
</g>
</g>
<!-- Node1&#45;&gt;Node7 -->
<g id="edge6" class="edge"><title>Node1&#45;&gt;Node7</title>
<path fill="none" stroke="midnightblue" d="M529.603,-344.135C616.404,-341.654 837.474,-332.567 1031.15,-299.825"/>
<polygon fill="midnightblue" stroke="midnightblue" points="1031.96,-303.236 1041.23,-298.095 1030.78,-296.337 1031.96,-303.236"/>
</g>
<!-- Node8 -->
<g id="node8" class="node"><title>Node8</title>
<g id="a_node8"><a xlink:title=" ">
<polygon fill="white" stroke="#bfbfbf" points="745,-56.5 745,-75.5 789,-75.5 789,-56.5 745,-56.5"/>
<text text-anchor="middle" x="767" y="-63.5" font-family="Helvetica,sans-Serif" font-size="10.00">time.h</text>
</a>
</g>
</g>
<!-- Node1&#45;&gt;Node8 -->
<g id="edge7" class="edge"><title>Node1&#45;&gt;Node8</title>
<path fill="none" stroke="midnightblue" d="M529.741,-343.106C632.39,-336.932 909,-313.054 909,-235 909,-235 909,-235 909,-177 909,-146.902 910.565,-133.976 890,-112 866.305,-86.678 827.186,-75.5558 799.432,-70.7016"/>
<polygon fill="midnightblue" stroke="midnightblue" points="799.828,-67.2211 789.407,-69.1316 798.745,-74.1368 799.828,-67.2211"/>
</g>
<!-- Node9 -->
<g id="node9" class="node"><title>Node9</title>
<g id="a_node9"><a xlink:title=" ">
<polygon fill="white" stroke="#bfbfbf" points="836.5,-56.5 836.5,-75.5 887.5,-75.5 887.5,-56.5 836.5,-56.5"/>
<text text-anchor="middle" x="862" y="-63.5" font-family="Helvetica,sans-Serif" font-size="10.00">unistd.h</text>
</a>
</g>
</g>
<!-- Node1&#45;&gt;Node9 -->
<g id="edge8" class="edge"><title>Node1&#45;&gt;Node9</title>
<path fill="none" stroke="midnightblue" d="M529.622,-343.931C638.634,-339.824 947,-320.637 947,-235 947,-235 947,-235 947,-177 947,-135.765 909.139,-100.574 883.953,-81.7262"/>
<polygon fill="midnightblue" stroke="midnightblue" points="885.818,-78.7563 875.657,-75.758 881.731,-84.4388 885.818,-78.7563"/>
</g>
<!-- Node10 -->
<g id="node10" class="node"><title>Node10</title>
<g id="a_node10"><a xlink:href="ucxh__library_8h.html" target="_top" xlink:title=" ">
<polygon fill="white" stroke="black" points="539.5,-280.5 539.5,-299.5 616.5,-299.5 616.5,-280.5 539.5,-280.5"/>
<text text-anchor="middle" x="578" y="-287.5" font-family="Helvetica,sans-Serif" font-size="10.00">ucxh_library.h</text>
</a>
</g>
</g>
<!-- Node1&#45;&gt;Node10 -->
<g id="edge9" class="edge"><title>Node1&#45;&gt;Node10</title>
<path fill="none" stroke="midnightblue" d="M505.817,-336.324C519.233,-327.9 539.824,-314.971 555.586,-305.074"/>
<polygon fill="midnightblue" stroke="midnightblue" points="557.609,-307.936 564.217,-299.655 553.887,-302.008 557.609,-307.936"/>
</g>
<!-- Node18 -->
<g id="node18" class="node"><title>Node18</title>
<g id="a_node18"><a xlink:href="ucxh__wifi_8h.html" target="_top" xlink:title=" ">
<polygon fill="white" stroke="black" points="327.5,-112.5 327.5,-131.5 392.5,-131.5 392.5,-112.5 327.5,-112.5"/>
<text text-anchor="middle" x="360" y="-119.5" font-family="Helvetica,sans-Serif" font-size="10.00">ucxh_wifi.h</text>
</a>
</g>
</g>
<!-- Node1&#45;&gt;Node18 -->
<g id="edge41" class="edge"><title>Node1&#45;&gt;Node18</title>
<path fill="none" stroke="midnightblue" d="M485.803,-336.261C473.631,-318.968 445.965,-279.027 425,-244 403.558,-208.175 381.04,-164.753 368.949,-140.884"/>
<polygon fill="midnightblue" stroke="midnightblue" points="371.927,-139.017 364.303,-131.66 365.675,-142.166 371.927,-139.017"/>
</g>
<!-- Node23 -->
<g id="node23" class="node"><title>Node23</title>
<g id="a_node23"><a xlink:href="ucxh__serial_8h.html" target="_top" xlink:title=" ">
<polygon fill="white" stroke="black" points="176,-224.5 176,-243.5 250,-243.5 250,-224.5 176,-224.5"/>
<text text-anchor="middle" x="213" y="-231.5" font-family="Helvetica,sans-Serif" font-size="10.00">ucxh_serial.h</text>
</a>
</g>
</g>
<!-- Node1&#45;&gt;Node23 -->
<g id="edge37" class="edge"><title>Node1&#45;&gt;Node23</title>
<path fill="none" stroke="midnightblue" d="M454.404,-345.385C406.705,-344.215 323.5,-336.495 264,-300 245.344,-288.557 230.81,-267.665 222.111,-252.652"/>
<polygon fill="midnightblue" stroke="midnightblue" points="225.131,-250.878 217.253,-243.793 218.993,-254.244 225.131,-250.878"/>
</g>
<!-- Node24 -->
<g id="node24" class="node"><title>Node24</title>
<g id="a_node24"><a xlink:href="ex__config_8h.html" target="_top" xlink:title=" ">
<polygon fill="white" stroke="black" points="1109,-280.5 1109,-299.5 1175,-299.5 1175,-280.5 1109,-280.5"/>
<text text-anchor="middle" x="1142" y="-287.5" font-family="Helvetica,sans-Serif" font-size="10.00">ex_config.h</text>
</a>
</g>
</g>
<!-- Node1&#45;&gt;Node24 -->
<g id="edge40" class="edge"><title>Node1&#45;&gt;Node24</title>
<path fill="none" stroke="midnightblue" d="M529.553,-344.012C623.731,-341.152 877.638,-331.086 1098.45,-300.035"/>
<polygon fill="midnightblue" stroke="midnightblue" points="1099.2,-303.464 1108.6,-298.589 1098.21,-296.534 1099.2,-303.464"/>
</g>
<!-- Node11 -->
<g id="node11" class="node"><title>Node11</title>
<g id="a_node11"><a xlink:href="ucxh__config_8h.html" target="_top" xlink:title=" ">
<polygon fill="white" stroke="black" points="434.5,-224.5 434.5,-243.5 511.5,-243.5 511.5,-224.5 434.5,-224.5"/>
<text text-anchor="middle" x="473" y="-231.5" font-family="Helvetica,sans-Serif" font-size="10.00">ucxh_config.h</text>
</a>
</g>
</g>
<!-- Node10&#45;&gt;Node11 -->
<g id="edge10" class="edge"><title>Node10&#45;&gt;Node11</title>
<path fill="none" stroke="midnightblue" d="M561.13,-280.324C544.291,-271.664 518.193,-258.242 498.762,-248.249"/>
<polygon fill="midnightblue" stroke="midnightblue" points="500.322,-245.116 489.828,-243.655 497.12,-251.341 500.322,-245.116"/>
</g>
<!-- Node12 -->
<g id="node12" class="node"><title>Node12</title>
<g id="a_node12"><a xlink:href="ucxh__edm__parser_8h.html" target="_top" xlink:title=" ">
<polygon fill="white" stroke="black" points="738,-224.5 738,-243.5 840,-243.5 840,-224.5 738,-224.5"/>
<text text-anchor="middle" x="789" y="-231.5" font-family="Helvetica,sans-Serif" font-size="10.00">ucxh_edm_parser.h</text>
</a>
</g>
</g>
<!-- Node10&#45;&gt;Node12 -->
<g id="edge11" class="edge"><title>Node10&#45;&gt;Node12</title>
<path fill="none" stroke="midnightblue" d="M611.434,-280.444C647.856,-271.122 706.23,-256.183 746.029,-245.997"/>
<polygon fill="midnightblue" stroke="midnightblue" points="746.903,-249.387 755.723,-243.516 745.167,-242.605 746.903,-249.387"/>
</g>
<!-- Node13 -->
<g id="node13" class="node"><title>Node13</title>
<g id="a_node13"><a xlink:href="ucxh__parser_8h.html" target="_top" xlink:title=" ">
<polygon fill="white" stroke="black" points="616,-168.5 616,-187.5 694,-187.5 694,-168.5 616,-168.5"/>
<text text-anchor="middle" x="655" y="-175.5" font-family="Helvetica,sans-Serif" font-size="10.00">ucxh_parser.h</text>
</a>
</g>
</g>
<!-- Node10&#45;&gt;Node13 -->
<g id="edge31" class="edge"><title>Node10&#45;&gt;Node13</title>
<path fill="none" stroke="midnightblue" d="M616.578,-284.515C642.071,-279.325 673.689,-268.132 690,-244 700.799,-228.022 686.812,-208.371 673.445,-194.885"/>
<polygon fill="midnightblue" stroke="midnightblue" points="675.521,-192.032 665.838,-187.731 670.725,-197.132 675.521,-192.032"/>
</g>
<!-- Node15 -->
<g id="node15" class="node"><title>Node15</title>
<g id="a_node15"><a xlink:href="ucxh__edm_8h.html" target="_top" xlink:title=" ">
<polygon fill="white" stroke="black" points="811,-112.5 811,-131.5 881,-131.5 881,-112.5 811,-112.5"/>
<text text-anchor="middle" x="846" y="-119.5" font-family="Helvetica,sans-Serif" font-size="10.00">ucxh_edm.h</text>
</a>
</g>
</g>
<!-- Node10&#45;&gt;Node15 -->
<g id="edge36" class="edge"><title>Node10&#45;&gt;Node15</title>
<path fill="none" stroke="midnightblue" d="M616.641,-288.468C684.26,-286.63 819.665,-278.608 849,-244 873.372,-215.247 862.117,-167.382 853.196,-141.304"/>
<polygon fill="midnightblue" stroke="midnightblue" points="856.358,-139.762 849.626,-131.581 849.787,-142.174 856.358,-139.762"/>
</g>
<!-- Node17 -->
<g id="node17" class="node"><title>Node17</title>
<g id="a_node17"><a xlink:href="ucxh__wait_8h.html" target="_top" xlink:title=" ">
<polygon fill="white" stroke="black" points="411,-112.5 411,-131.5 479,-131.5 479,-112.5 411,-112.5"/>
<text text-anchor="middle" x="445" y="-119.5" font-family="Helvetica,sans-Serif" font-size="10.00">ucxh_wait.h</text>
</a>
</g>
</g>
<!-- Node10&#45;&gt;Node17 -->
<g id="edge34" class="edge"><title>Node10&#45;&gt;Node17</title>
<path fill="none" stroke="midnightblue" d="M578.864,-280.23C580.504,-258.553 581.727,-201.763 554,-168 544.627,-156.586 511.196,-143.744 483.802,-134.709"/>
<polygon fill="midnightblue" stroke="midnightblue" points="484.631,-131.299 474.039,-131.562 482.483,-137.961 484.631,-131.299"/>
</g>
<!-- Node10&#45;&gt;Node18 -->
<g id="edge35" class="edge"><title>Node10&#45;&gt;Node18</title>
<path fill="none" stroke="midnightblue" d="M571.528,-280.305C561.459,-267.137 541.006,-241.789 520,-224 476.65,-187.289 418.857,-154.088 385.915,-136.406"/>
<polygon fill="midnightblue" stroke="midnightblue" points="387.397,-133.231 376.923,-131.635 384.116,-139.414 387.397,-133.231"/>
</g>
<!-- Node21 -->
<g id="node21" class="node"><title>Node21</title>
<g id="a_node21"><a xlink:href="ucxh__mode_8h.html" target="_top" xlink:title=" ">
<polygon fill="white" stroke="black" points="606.5,-224.5 606.5,-243.5 681.5,-243.5 681.5,-224.5 606.5,-224.5"/>
<text text-anchor="middle" x="644" y="-231.5" font-family="Helvetica,sans-Serif" font-size="10.00">ucxh_mode.h</text>
</a>
</g>
</g>
<!-- Node10&#45;&gt;Node21 -->
<g id="edge30" class="edge"><title>Node10&#45;&gt;Node21</title>
<path fill="none" stroke="midnightblue" d="M588.604,-280.324C598.456,-272.263 613.351,-260.077 625.215,-250.369"/>
<polygon fill="midnightblue" stroke="midnightblue" points="627.68,-252.875 633.203,-243.834 623.247,-247.457 627.68,-252.875"/>
</g>
<!-- Node22 -->
<g id="node22" class="node"><title>Node22</title>
<g id="a_node22"><a xlink:href="ucxh__send_8h.html" target="_top" xlink:title=" ">
<polygon fill="white" stroke="black" points="306,-224.5 306,-243.5 378,-243.5 378,-224.5 306,-224.5"/>
<text text-anchor="middle" x="342" y="-231.5" font-family="Helvetica,sans-Serif" font-size="10.00">ucxh_send.h</text>
</a>
</g>
</g>
<!-- Node10&#45;&gt;Node22 -->
<g id="edge32" class="edge"><title>Node10&#45;&gt;Node22</title>
<path fill="none" stroke="midnightblue" d="M540.605,-280.444C499.246,-270.98 432.581,-255.726 388.042,-245.535"/>
<polygon fill="midnightblue" stroke="midnightblue" points="388.588,-242.07 378.059,-243.251 387.026,-248.893 388.588,-242.07"/>
</g>
<!-- Node12&#45;&gt;Node8 -->
<g id="edge12" class="edge"><title>Node12&#45;&gt;Node8</title>
<path fill="none" stroke="midnightblue" d="M787.817,-224.075C784.354,-197.945 774.185,-121.211 769.462,-85.577"/>
<polygon fill="midnightblue" stroke="midnightblue" points="772.919,-85.0216 768.136,-75.5681 765.98,-85.9413 772.919,-85.0216"/>
</g>
<!-- Node12&#45;&gt;Node13 -->
<g id="edge13" class="edge"><title>Node12&#45;&gt;Node13</title>
<path fill="none" stroke="midnightblue" d="M767.767,-224.444C745.616,-215.517 710.681,-201.439 685.564,-191.317"/>
<polygon fill="midnightblue" stroke="midnightblue" points="686.717,-188.008 676.133,-187.516 684.1,-194.501 686.717,-188.008"/>
</g>
<!-- Node12&#45;&gt;Node15 -->
<g id="edge29" class="edge"><title>Node12&#45;&gt;Node15</title>
<path fill="none" stroke="midnightblue" d="M793.473,-224.368C802.796,-206.376 824.469,-164.55 836.866,-140.627"/>
<polygon fill="midnightblue" stroke="midnightblue" points="840.055,-142.081 841.548,-131.591 833.84,-138.86 840.055,-142.081"/>
</g>
<!-- Node16 -->
<g id="node16" class="node"><title>Node16</title>
<g id="a_node16"><a xlink:href="ucxh__poll_8h.html" target="_top" xlink:title=" ">
<polygon fill="white" stroke="black" points="689,-112.5 689,-131.5 755,-131.5 755,-112.5 689,-112.5"/>
<text text-anchor="middle" x="722" y="-119.5" font-family="Helvetica,sans-Serif" font-size="10.00">ucxh_poll.h</text>
</a>
</g>
</g>
<!-- Node12&#45;&gt;Node16 -->
<g id="edge28" class="edge"><title>Node12&#45;&gt;Node16</title>
<path fill="none" stroke="midnightblue" d="M783.743,-224.368C772.735,-206.296 747.08,-164.176 732.542,-140.307"/>
<polygon fill="midnightblue" stroke="midnightblue" points="735.424,-138.311 727.233,-131.591 729.446,-141.953 735.424,-138.311"/>
</g>
<!-- Node13&#45;&gt;Node4 -->
<g id="edge15" class="edge"><title>Node13&#45;&gt;Node4</title>
<path fill="none" stroke="midnightblue" d="M626.606,-168.438C600.155,-160.148 559.826,-146.704 526,-132 508.497,-124.391 505.494,-119.63 488,-112 458.265,-99.0311 423.479,-86.9926 397.682,-78.6367"/>
<polygon fill="midnightblue" stroke="midnightblue" points="398.507,-75.2261 387.916,-75.5102 396.373,-81.8928 398.507,-75.2261"/>
</g>
<!-- Node13&#45;&gt;Node8 -->
<g id="edge16" class="edge"><title>Node13&#45;&gt;Node8</title>
<path fill="none" stroke="midnightblue" d="M656.298,-168.4C658.737,-154.901 665.159,-128.573 680,-112 694.808,-95.4631 717.136,-84.0904 735.464,-76.9151"/>
<polygon fill="midnightblue" stroke="midnightblue" points="736.715,-80.1845 744.892,-73.4475 734.298,-73.6148 736.715,-80.1845"/>
</g>
<!-- Node14 -->
<g id="node14" class="node"><title>Node14</title>
<g id="a_node14"><a xlink:title=" ">
<polygon fill="white" stroke="#bfbfbf" points="535.5,-112.5 535.5,-131.5 594.5,-131.5 594.5,-112.5 535.5,-112.5"/>
<text text-anchor="middle" x="565" y="-119.5" font-family="Helvetica,sans-Serif" font-size="10.00">inttypes.h</text>
</a>
</g>
</g>
<!-- Node13&#45;&gt;Node14 -->
<g id="edge14" class="edge"><title>Node13&#45;&gt;Node14</title>
<path fill="none" stroke="midnightblue" d="M640.54,-168.324C626.5,-159.9 604.952,-146.971 588.457,-137.074"/>
<polygon fill="midnightblue" stroke="midnightblue" points="589.8,-133.798 579.424,-131.655 586.198,-139.801 589.8,-133.798"/>
</g>
<!-- Node13&#45;&gt;Node15 -->
<g id="edge17" class="edge"><title>Node13&#45;&gt;Node15</title>
<path fill="none" stroke="midnightblue" d="M685.265,-168.444C717.955,-159.201 770.182,-144.436 806.183,-134.257"/>
<polygon fill="midnightblue" stroke="midnightblue" points="807.206,-137.605 815.877,-131.516 805.302,-130.869 807.206,-137.605"/>
</g>
<!-- Node13&#45;&gt;Node16 -->
<g id="edge19" class="edge"><title>Node13&#45;&gt;Node16</title>
<path fill="none" stroke="midnightblue" d="M665.765,-168.324C675.766,-160.263 690.887,-148.077 702.93,-138.369"/>
<polygon fill="midnightblue" stroke="midnightblue" points="705.45,-140.834 711.039,-131.834 701.057,-135.384 705.45,-140.834"/>
</g>
<!-- Node13&#45;&gt;Node17 -->
<g id="edge22" class="edge"><title>Node13&#45;&gt;Node17</title>
<path fill="none" stroke="midnightblue" d="M621.725,-168.444C585.552,-159.142 527.623,-144.246 488.019,-134.062"/>
<polygon fill="midnightblue" stroke="midnightblue" points="488.676,-130.617 478.119,-131.516 486.933,-137.397 488.676,-130.617"/>
</g>
<!-- Node13&#45;&gt;Node18 -->
<g id="edge23" class="edge"><title>Node13&#45;&gt;Node18</title>
<path fill="none" stroke="midnightblue" d="M615.913,-170.485C568.083,-162.417 484.384,-147.987 402.509,-132.041"/>
<polygon fill="midnightblue" stroke="midnightblue" points="403.022,-128.576 392.536,-130.09 401.678,-135.445 403.022,-128.576"/>
</g>
<!-- Node15&#45;&gt;Node9 -->
<g id="edge18" class="edge"><title>Node15&#45;&gt;Node9</title>
<path fill="none" stroke="midnightblue" d="M848.642,-112.083C850.786,-104.849 853.879,-94.4087 856.549,-85.3968"/>
<polygon fill="midnightblue" stroke="midnightblue" points="859.922,-86.3334 859.407,-75.7511 853.21,-84.3447 859.922,-86.3334"/>
</g>
<!-- Node16&#45;&gt;Node4 -->
<g id="edge20" class="edge"><title>Node16&#45;&gt;Node4</title>
<path fill="none" stroke="midnightblue" d="M688.915,-116.065C621.707,-106.039 469.55,-83.3417 398.234,-72.7034"/>
<polygon fill="midnightblue" stroke="midnightblue" points="398.725,-69.2381 388.318,-71.2243 397.692,-76.1615 398.725,-69.2381"/>
</g>
<!-- Node16&#45;&gt;Node8 -->
<g id="edge21" class="edge"><title>Node16&#45;&gt;Node8</title>
<path fill="none" stroke="midnightblue" d="M729.431,-112.083C735.853,-104.377 745.306,-93.0333 753.122,-83.6531"/>
<polygon fill="midnightblue" stroke="midnightblue" points="755.994,-85.674 759.707,-75.7511 750.617,-81.1927 755.994,-85.674"/>
</g>
<!-- Node18&#45;&gt;Node4 -->
<g id="edge24" class="edge"><title>Node18&#45;&gt;Node4</title>
<path fill="none" stroke="midnightblue" d="M360,-112.083C360,-105.006 360,-94.8611 360,-85.9865"/>
<polygon fill="midnightblue" stroke="midnightblue" points="363.5,-85.751 360,-75.7511 356.5,-85.7511 363.5,-85.751"/>
</g>
<!-- Node19 -->
<g id="node19" class="node"><title>Node19</title>
<g id="a_node19"><a xlink:href="ucxh__urc_8h.html" target="_top" xlink:title=" ">
<polygon fill="white" stroke="black" points="498.5,-56.5 498.5,-75.5 563.5,-75.5 563.5,-56.5 498.5,-56.5"/>
<text text-anchor="middle" x="531" y="-63.5" font-family="Helvetica,sans-Serif" font-size="10.00">ucxh_urc.h</text>
</a>
</g>
</g>
<!-- Node18&#45;&gt;Node19 -->
<g id="edge25" class="edge"><title>Node18&#45;&gt;Node19</title>
<path fill="none" stroke="midnightblue" d="M387.095,-112.444C415.988,-103.32 461.925,-88.8133 494.105,-78.6509"/>
<polygon fill="midnightblue" stroke="midnightblue" points="495.549,-81.8654 504.031,-75.5164 493.441,-75.1903 495.549,-81.8654"/>
</g>
<!-- Node19&#45;&gt;Node13 -->
<g id="edge26" class="edge"><title>Node19&#45;&gt;Node13</title>
<path fill="none" stroke="midnightblue" d="M548.107,-75.5507C563.433,-83.6883 586.044,-96.907 603,-112 618.963,-126.208 633.835,-145.69 643.55,-159.613"/>
<polygon fill="midnightblue" stroke="midnightblue" points="640.888,-161.924 649.402,-168.23 646.679,-157.991 640.888,-161.924"/>
</g>
<!-- Node20 -->
<g id="node20" class="node"><title>Node20</title>
<g id="a_node20"><a xlink:href="autogenerated_8h.html" target="_top" xlink:title="Automatically generated function prototypes and documentation.">
<polygon fill="white" stroke="black" points="488,-0.5 488,-19.5 574,-19.5 574,-0.5 488,-0.5"/>
<text text-anchor="middle" x="531" y="-7.5" font-family="Helvetica,sans-Serif" font-size="10.00">autogenerated.h</text>
</a>
</g>
</g>
<!-- Node19&#45;&gt;Node20 -->
<g id="edge27" class="edge"><title>Node19&#45;&gt;Node20</title>
<path fill="none" stroke="midnightblue" d="M531,-56.083C531,-49.0059 531,-38.8611 531,-29.9865"/>
<polygon fill="midnightblue" stroke="midnightblue" points="534.5,-29.751 531,-19.7511 527.5,-29.7511 534.5,-29.751"/>
</g>
<!-- Node22&#45;&gt;Node5 -->
<g id="edge33" class="edge"><title>Node22&#45;&gt;Node5</title>
<path fill="none" stroke="midnightblue" d="M331.717,-224.324C322.164,-216.263 307.72,-204.077 296.216,-194.369"/>
<polygon fill="midnightblue" stroke="midnightblue" points="298.37,-191.608 288.47,-187.834 293.856,-196.958 298.37,-191.608"/>
</g>
<!-- Node23&#45;&gt;Node4 -->
<g id="edge38" class="edge"><title>Node23&#45;&gt;Node4</title>
<path fill="none" stroke="midnightblue" d="M216.148,-224.415C221.18,-211.391 231.918,-186.227 246,-168 273.355,-132.591 314.357,-99.8632 339.012,-81.7432"/>
<polygon fill="midnightblue" stroke="midnightblue" points="341.247,-84.4461 347.3,-75.7505 337.145,-78.7736 341.247,-84.4461"/>
</g>
<!-- Node23&#45;&gt;Node5 -->
<g id="edge39" class="edge"><title>Node23&#45;&gt;Node5</title>
<path fill="none" stroke="midnightblue" d="M223.443,-224.324C233.146,-216.263 247.815,-204.077 259.5,-194.369"/>
<polygon fill="midnightblue" stroke="midnightblue" points="261.911,-196.916 267.367,-187.834 257.438,-191.532 261.911,-196.916"/>
</g>
</g>
</svg>
