<?xml version="1.0" encoding="UTF-8" standalone="no"?>
<!DOCTYPE svg PUBLIC "-//W3C//DTD SVG 1.1//EN"
 "http://www.w3.org/Graphics/SVG/1.1/DTD/svg11.dtd">
<!-- Generated by graphviz version 2.38.0 (20140413.2041)
 -->
<!-- Title: ex_http_get.c Pages: 1 -->
<svg width="1142pt" height="364pt"
 viewBox="0.00 0.00 1142.00 364.00" xmlns="http://www.w3.org/2000/svg" xmlns:xlink="http://www.w3.org/1999/xlink">
<g id="graph0" class="graph" transform="scale(1 1) rotate(0) translate(4 360)">
<title>ex_http_get.c</title>
<polygon fill="white" stroke="none" points="-4,4 -4,-360 1138,-360 1138,4 -4,4"/>
<!-- Node1 -->
<g id="node1" class="node"><title>Node1</title>
<g id="a_node1"><a xlink:title=" ">
<polygon fill="#bfbfbf" stroke="black" points="505,-336.5 505,-355.5 581,-355.5 581,-336.5 505,-336.5"/>
<text text-anchor="middle" x="543" y="-343.5" font-family="Helvetica,sans-Serif" font-size="10.00">ex_http_get.c</text>
</a>
</g>
</g>
<!-- Node2 -->
<g id="node2" class="node"><title>Node2</title>
<g id="a_node2"><a xlink:title=" ">
<polygon fill="white" stroke="#bfbfbf" points="0,-280.5 0,-299.5 52,-299.5 52,-280.5 0,-280.5"/>
<text text-anchor="middle" x="26" y="-287.5" font-family="Helvetica,sans-Serif" font-size="10.00">assert.h</text>
</a>
</g>
</g>
<!-- Node1&#45;&gt;Node2 -->
<g id="edge1" class="edge"><title>Node1&#45;&gt;Node2</title>
<path fill="none" stroke="midnightblue" d="M504.923,-343.499C424.677,-339.895 232.248,-328.937 62.1556,-299.942"/>
<polygon fill="midnightblue" stroke="midnightblue" points="62.7263,-296.489 52.2761,-298.233 61.5331,-303.387 62.7263,-296.489"/>
</g>
<!-- Node3 -->
<g id="node3" class="node"><title>Node3</title>
<g id="a_node3"><a xlink:title=" ">
<polygon fill="white" stroke="#bfbfbf" points="70.5,-280.5 70.5,-299.5 119.5,-299.5 119.5,-280.5 70.5,-280.5"/>
<text text-anchor="middle" x="95" y="-287.5" font-family="Helvetica,sans-Serif" font-size="10.00">ctype.h</text>
</a>
</g>
</g>
<!-- Node1&#45;&gt;Node3 -->
<g id="edge2" class="edge"><title>Node1&#45;&gt;Node3</title>
<path fill="none" stroke="midnightblue" d="M504.731,-342.295C432.096,-336.828 269.397,-322.99 134,-300 132.544,-299.753 131.061,-299.485 129.566,-299.201"/>
<polygon fill="midnightblue" stroke="midnightblue" points="130.171,-295.752 119.67,-297.153 128.753,-302.607 130.171,-295.752"/>
</g>
<!-- Node4 -->
<g id="node4" class="node"><title>Node4</title>
<g id="a_node4"><a xlink:title=" ">
<polygon fill="white" stroke="#bfbfbf" points="354,-56.5 354,-75.5 410,-75.5 410,-56.5 354,-56.5"/>
<text text-anchor="middle" x="382" y="-63.5" font-family="Helvetica,sans-Serif" font-size="10.00">stdbool.h</text>
</a>
</g>
</g>
<!-- Node1&#45;&gt;Node4 -->
<g id="edge3" class="edge"><title>Node1&#45;&gt;Node4</title>
<path fill="none" stroke="midnightblue" d="M504.767,-342.524C405.637,-335.061 148,-308.588 148,-235 148,-235 148,-235 148,-177 148,-91.5665 277.329,-72.3649 343.693,-68.1358"/>
<polygon fill="midnightblue" stroke="midnightblue" points="343.983,-71.6252 353.774,-67.5778 343.596,-64.6359 343.983,-71.6252"/>
</g>
<!-- Node5 -->
<g id="node5" class="node"><title>Node5</title>
<g id="a_node5"><a xlink:title=" ">
<polygon fill="white" stroke="#bfbfbf" points="255,-168.5 255,-187.5 301,-187.5 301,-168.5 255,-168.5"/>
<text text-anchor="middle" x="278" y="-175.5" font-family="Helvetica,sans-Serif" font-size="10.00">stdio.h</text>
</a>
</g>
</g>
<!-- Node1&#45;&gt;Node5 -->
<g id="edge4" class="edge"><title>Node1&#45;&gt;Node5</title>
<path fill="none" stroke="midnightblue" d="M504.626,-339.756C450.527,-330.332 352.282,-305.427 297,-244 285.581,-231.312 281.003,-212.109 279.179,-197.861"/>
<polygon fill="midnightblue" stroke="midnightblue" points="282.647,-197.347 278.229,-187.717 275.677,-198 282.647,-197.347"/>
</g>
<!-- Node6 -->
<g id="node6" class="node"><title>Node6</title>
<g id="a_node6"><a xlink:title=" ">
<polygon fill="white" stroke="#bfbfbf" points="934,-280.5 934,-299.5 982,-299.5 982,-280.5 934,-280.5"/>
<text text-anchor="middle" x="958" y="-287.5" font-family="Helvetica,sans-Serif" font-size="10.00">stdlib.h</text>
</a>
</g>
</g>
<!-- Node1&#45;&gt;Node6 -->
<g id="edge5" class="edge"><title>Node1&#45;&gt;Node6</title>
<path fill="none" stroke="midnightblue" d="M581.204,-341.887C649.528,-336 797.012,-321.832 920,-300 921.277,-299.773 922.575,-299.53 923.884,-299.275"/>
<polygon fill="midnightblue" stroke="midnightblue" points="924.911,-302.634 933.963,-297.129 923.454,-295.788 924.911,-302.634"/>
</g>
<!-- Node7 -->
<g id="node7" class="node"><title>Node7</title>
<g id="a_node7"><a xlink:title=" ">
<polygon fill="white" stroke="#bfbfbf" points="1000.5,-280.5 1000.5,-299.5 1049.5,-299.5 1049.5,-280.5 1000.5,-280.5"/>
<text text-anchor="middle" x="1025" y="-287.5" font-family="Helvetica,sans-Serif" font-size="10.00">string.h</text>
</a>
</g>
</g>
<!-- Node1&#45;&gt;Node7 -->
<g id="edge6" class="edge"><title>Node1&#45;&gt;Node7</title>
<path fill="none" stroke="midnightblue" d="M581.043,-343.218C657.065,-339.219 833.213,-327.759 990.374,-299.822"/>
<polygon fill="midnightblue" stroke="midnightblue" points="991,-303.266 1000.22,-298.046 989.757,-296.377 991,-303.266"/>
</g>
<!-- Node8 -->
<g id="node8" class="node"><title>Node8</title>
<g id="a_node8"><a xlink:title=" ">
<polygon fill="white" stroke="#bfbfbf" points="701,-56.5 701,-75.5 745,-75.5 745,-56.5 701,-56.5"/>
<text text-anchor="middle" x="723" y="-63.5" font-family="Helvetica,sans-Serif" font-size="10.00">time.h</text>
</a>
</g>
</g>
<!-- Node1&#45;&gt;Node8 -->
<g id="edge7" class="edge"><title>Node1&#45;&gt;Node8</title>
<path fill="none" stroke="midnightblue" d="M581.237,-340.283C667.148,-328.619 868,-294.94 868,-235 868,-235 868,-235 868,-177 868,-146.902 869.649,-133.897 849,-112 824.553,-86.0761 784.162,-75.0625 755.712,-70.3985"/>
<polygon fill="midnightblue" stroke="midnightblue" points="755.852,-66.882 745.452,-68.904 754.843,-73.8089 755.852,-66.882"/>
</g>
<!-- Node9 -->
<g id="node9" class="node"><title>Node9</title>
<g id="a_node9"><a xlink:title=" ">
<polygon fill="white" stroke="#bfbfbf" points="829.5,-56.5 829.5,-75.5 880.5,-75.5 880.5,-56.5 829.5,-56.5"/>
<text text-anchor="middle" x="855" y="-63.5" font-family="Helvetica,sans-Serif" font-size="10.00">unistd.h</text>
</a>
</g>
</g>
<!-- Node1&#45;&gt;Node9 -->
<g id="edge8" class="edge"><title>Node1&#45;&gt;Node9</title>
<path fill="none" stroke="midnightblue" d="M581.161,-341.611C674.36,-332.285 906,-302.332 906,-235 906,-235 906,-235 906,-177 906,-141.244 883.546,-104.508 868.436,-83.8357"/>
<polygon fill="midnightblue" stroke="midnightblue" points="871.144,-81.6137 862.307,-75.7686 865.57,-85.8485 871.144,-81.6137"/>
</g>
<!-- Node10 -->
<g id="node10" class="node"><title>Node10</title>
<g id="a_node10"><a xlink:href="ucxh__library_8h.html" target="_top" xlink:title=" ">
<polygon fill="white" stroke="black" points="504.5,-280.5 504.5,-299.5 581.5,-299.5 581.5,-280.5 504.5,-280.5"/>
<text text-anchor="middle" x="543" y="-287.5" font-family="Helvetica,sans-Serif" font-size="10.00">ucxh_library.h</text>
</a>
</g>
</g>
<!-- Node1&#45;&gt;Node10 -->
<g id="edge9" class="edge"><title>Node1&#45;&gt;Node10</title>
<path fill="none" stroke="midnightblue" d="M543,-336.083C543,-329.006 543,-318.861 543,-309.986"/>
<polygon fill="midnightblue" stroke="midnightblue" points="546.5,-309.751 543,-299.751 539.5,-309.751 546.5,-309.751"/>
</g>
<!-- Node23 -->
<g id="node23" class="node"><title>Node23</title>
<g id="a_node23"><a xlink:href="ucxh__serial_8h.html" target="_top" xlink:title=" ">
<polygon fill="white" stroke="black" points="176,-224.5 176,-243.5 250,-243.5 250,-224.5 176,-224.5"/>
<text text-anchor="middle" x="213" y="-231.5" font-family="Helvetica,sans-Serif" font-size="10.00">ucxh_serial.h</text>
</a>
</g>
</g>
<!-- Node1&#45;&gt;Node23 -->
<g id="edge37" class="edge"><title>Node1&#45;&gt;Node23</title>
<path fill="none" stroke="midnightblue" d="M504.935,-342.289C438.388,-336.994 304.152,-323.672 264,-300 245.147,-288.885 230.651,-267.93 222.015,-252.812"/>
<polygon fill="midnightblue" stroke="midnightblue" points="225.027,-251.023 217.199,-243.883 218.865,-254.346 225.027,-251.023"/>
</g>
<!-- Node24 -->
<g id="node24" class="node"><title>Node24</title>
<g id="a_node24"><a xlink:href="ex__config_8h.html" target="_top" xlink:title=" ">
<polygon fill="white" stroke="black" points="1068,-280.5 1068,-299.5 1134,-299.5 1134,-280.5 1068,-280.5"/>
<text text-anchor="middle" x="1101" y="-287.5" font-family="Helvetica,sans-Serif" font-size="10.00">ex_config.h</text>
</a>
</g>
</g>
<!-- Node1&#45;&gt;Node24 -->
<g id="edge40" class="edge"><title>Node1&#45;&gt;Node24</title>
<path fill="none" stroke="midnightblue" d="M581.061,-343.3C665.236,-339.194 873.658,-327.119 1057.48,-300.058"/>
<polygon fill="midnightblue" stroke="midnightblue" points="1058.22,-303.485 1067.6,-298.549 1057.19,-296.562 1058.22,-303.485"/>
</g>
<!-- Node11 -->
<g id="node11" class="node"><title>Node11</title>
<g id="a_node11"><a xlink:href="ucxh__config_8h.html" target="_top" xlink:title=" ">
<polygon fill="white" stroke="black" points="724.5,-224.5 724.5,-243.5 801.5,-243.5 801.5,-224.5 724.5,-224.5"/>
<text text-anchor="middle" x="763" y="-231.5" font-family="Helvetica,sans-Serif" font-size="10.00">ucxh_config.h</text>
</a>
</g>
</g>
<!-- Node10&#45;&gt;Node11 -->
<g id="edge10" class="edge"><title>Node10&#45;&gt;Node11</title>
<path fill="none" stroke="midnightblue" d="M577.86,-280.444C615.916,-271.102 676.958,-256.119 718.46,-245.933"/>
<polygon fill="midnightblue" stroke="midnightblue" points="719.426,-249.299 728.303,-243.516 717.757,-242.501 719.426,-249.299"/>
</g>
<!-- Node12 -->
<g id="node12" class="node"><title>Node12</title>
<g id="a_node12"><a xlink:href="ucxh__edm__parser_8h.html" target="_top" xlink:title=" ">
<polygon fill="white" stroke="black" points="604,-224.5 604,-243.5 706,-243.5 706,-224.5 604,-224.5"/>
<text text-anchor="middle" x="655" y="-231.5" font-family="Helvetica,sans-Serif" font-size="10.00">ucxh_edm_parser.h</text>
</a>
</g>
</g>
<!-- Node10&#45;&gt;Node12 -->
<g id="edge11" class="edge"><title>Node10&#45;&gt;Node12</title>
<path fill="none" stroke="midnightblue" d="M560.995,-280.324C579.038,-271.625 607.047,-258.12 627.803,-248.113"/>
<polygon fill="midnightblue" stroke="midnightblue" points="629.562,-251.15 637.05,-243.655 626.522,-244.845 629.562,-251.15"/>
</g>
<!-- Node13 -->
<g id="node13" class="node"><title>Node13</title>
<g id="a_node13"><a xlink:href="ucxh__parser_8h.html" target="_top" xlink:title=" ">
<polygon fill="white" stroke="black" points="530,-168.5 530,-187.5 608,-187.5 608,-168.5 530,-168.5"/>
<text text-anchor="middle" x="569" y="-175.5" font-family="Helvetica,sans-Serif" font-size="10.00">ucxh_parser.h</text>
</a>
</g>
</g>
<!-- Node10&#45;&gt;Node13 -->
<g id="edge31" class="edge"><title>Node10&#45;&gt;Node13</title>
<path fill="none" stroke="midnightblue" d="M545.708,-280.431C548.501,-271.419 552.877,-256.798 556,-244 559.755,-228.608 563.231,-210.972 565.642,-197.958"/>
<polygon fill="midnightblue" stroke="midnightblue" points="569.129,-198.347 567.467,-187.883 562.241,-197.099 569.129,-198.347"/>
</g>
<!-- Node15 -->
<g id="node15" class="node"><title>Node15</title>
<g id="a_node15"><a xlink:href="ucxh__edm_8h.html" target="_top" xlink:title=" ">
<polygon fill="white" stroke="black" points="770,-112.5 770,-131.5 840,-131.5 840,-112.5 770,-112.5"/>
<text text-anchor="middle" x="805" y="-119.5" font-family="Helvetica,sans-Serif" font-size="10.00">ucxh_edm.h</text>
</a>
</g>
</g>
<!-- Node10&#45;&gt;Node15 -->
<g id="edge36" class="edge"><title>Node10&#45;&gt;Node15</title>
<path fill="none" stroke="midnightblue" d="M581.604,-288.361C648.407,-286.349 781.203,-278.056 810,-244 834.459,-215.073 822.012,-166.927 812.493,-140.944"/>
<polygon fill="midnightblue" stroke="midnightblue" points="815.731,-139.613 808.83,-131.575 809.212,-142.163 815.731,-139.613"/>
</g>
<!-- Node17 -->
<g id="node17" class="node"><title>Node17</title>
<g id="a_node17"><a xlink:href="ucxh__wait_8h.html" target="_top" xlink:title=" ">
<polygon fill="white" stroke="black" points="286,-112.5 286,-131.5 354,-131.5 354,-112.5 286,-112.5"/>
<text text-anchor="middle" x="320" y="-119.5" font-family="Helvetica,sans-Serif" font-size="10.00">ucxh_wait.h</text>
</a>
</g>
</g>
<!-- Node10&#45;&gt;Node17 -->
<g id="edge34" class="edge"><title>Node10&#45;&gt;Node17</title>
<path fill="none" stroke="midnightblue" d="M520.302,-280.442C500.581,-272.48 471.699,-259.527 449,-244 402.55,-212.225 356.489,-163.927 334.069,-139.052"/>
<polygon fill="midnightblue" stroke="midnightblue" points="336.671,-136.71 327.406,-131.571 331.444,-141.367 336.671,-136.71"/>
</g>
<!-- Node18 -->
<g id="node18" class="node"><title>Node18</title>
<g id="a_node18"><a xlink:href="ucxh__wifi_8h.html" target="_top" xlink:title=" ">
<polygon fill="white" stroke="black" points="410.5,-112.5 410.5,-131.5 475.5,-131.5 475.5,-112.5 410.5,-112.5"/>
<text text-anchor="middle" x="443" y="-119.5" font-family="Helvetica,sans-Serif" font-size="10.00">ucxh_wifi.h</text>
</a>
</g>
</g>
<!-- Node10&#45;&gt;Node18 -->
<g id="edge35" class="edge"><title>Node10&#45;&gt;Node18</title>
<path fill="none" stroke="midnightblue" d="M515.332,-280.46C497.557,-273.511 475.526,-261.88 463,-244 441.388,-213.15 440.095,-167.156 441.359,-141.679"/>
<polygon fill="midnightblue" stroke="midnightblue" points="444.861,-141.762 442.055,-131.546 437.878,-141.282 444.861,-141.762"/>
</g>
<!-- Node21 -->
<g id="node21" class="node"><title>Node21</title>
<g id="a_node21"><a xlink:href="ucxh__mode_8h.html" target="_top" xlink:title=" ">
<polygon fill="white" stroke="black" points="472.5,-224.5 472.5,-243.5 547.5,-243.5 547.5,-224.5 472.5,-224.5"/>
<text text-anchor="middle" x="510" y="-231.5" font-family="Helvetica,sans-Serif" font-size="10.00">ucxh_mode.h</text>
</a>
</g>
</g>
<!-- Node10&#45;&gt;Node21 -->
<g id="edge30" class="edge"><title>Node10&#45;&gt;Node21</title>
<path fill="none" stroke="midnightblue" d="M537.551,-280.083C532.986,-272.613 526.332,-261.724 520.707,-252.52"/>
<polygon fill="midnightblue" stroke="midnightblue" points="523.549,-250.459 515.348,-243.751 517.576,-254.109 523.549,-250.459"/>
</g>
<!-- Node22 -->
<g id="node22" class="node"><title>Node22</title>
<g id="a_node22"><a xlink:href="ucxh__send_8h.html" target="_top" xlink:title=" ">
<polygon fill="white" stroke="black" points="306,-224.5 306,-243.5 378,-243.5 378,-224.5 306,-224.5"/>
<text text-anchor="middle" x="342" y="-231.5" font-family="Helvetica,sans-Serif" font-size="10.00">ucxh_send.h</text>
</a>
</g>
</g>
<!-- Node10&#45;&gt;Node22 -->
<g id="edge32" class="edge"><title>Node10&#45;&gt;Node22</title>
<path fill="none" stroke="midnightblue" d="M511.151,-280.444C476.602,-271.162 421.318,-256.309 383.417,-246.127"/>
<polygon fill="midnightblue" stroke="midnightblue" points="384.266,-242.731 373.7,-243.516 382.449,-249.491 384.266,-242.731"/>
</g>
<!-- Node12&#45;&gt;Node8 -->
<g id="edge12" class="edge"><title>Node12&#45;&gt;Node8</title>
<path fill="none" stroke="midnightblue" d="M660.47,-224.435C671.095,-207.45 694.646,-168.021 708,-132 713.605,-116.882 717.55,-98.9838 719.982,-85.8002"/>
<polygon fill="midnightblue" stroke="midnightblue" points="723.488,-86.0654 721.735,-75.6167 716.59,-84.8782 723.488,-86.0654"/>
</g>
<!-- Node12&#45;&gt;Node13 -->
<g id="edge13" class="edge"><title>Node12&#45;&gt;Node13</title>
<path fill="none" stroke="midnightblue" d="M641.183,-224.324C627.767,-215.9 607.176,-202.971 591.414,-193.074"/>
<polygon fill="midnightblue" stroke="midnightblue" points="593.113,-190.008 582.783,-187.655 589.391,-195.936 593.113,-190.008"/>
</g>
<!-- Node12&#45;&gt;Node15 -->
<g id="edge29" class="edge"><title>Node12&#45;&gt;Node15</title>
<path fill="none" stroke="midnightblue" d="M684.107,-224.426C705.52,-217.128 734.517,-205.089 756,-188 772.534,-174.847 786.468,-154.889 795.199,-140.56"/>
<polygon fill="midnightblue" stroke="midnightblue" points="798.358,-142.091 800.381,-131.691 792.314,-138.559 798.358,-142.091"/>
</g>
<!-- Node16 -->
<g id="node16" class="node"><title>Node16</title>
<g id="a_node16"><a xlink:href="ucxh__poll_8h.html" target="_top" xlink:title=" ">
<polygon fill="white" stroke="black" points="610,-112.5 610,-131.5 676,-131.5 676,-112.5 610,-112.5"/>
<text text-anchor="middle" x="643" y="-119.5" font-family="Helvetica,sans-Serif" font-size="10.00">ucxh_poll.h</text>
</a>
</g>
</g>
<!-- Node12&#45;&gt;Node16 -->
<g id="edge28" class="edge"><title>Node12&#45;&gt;Node16</title>
<path fill="none" stroke="midnightblue" d="M654.058,-224.368C652.122,-206.617 647.655,-165.666 645.029,-141.597"/>
<polygon fill="midnightblue" stroke="midnightblue" points="648.501,-141.153 643.937,-131.591 641.542,-141.912 648.501,-141.153"/>
</g>
<!-- Node13&#45;&gt;Node4 -->
<g id="edge15" class="edge"><title>Node13&#45;&gt;Node4</title>
<path fill="none" stroke="midnightblue" d="M529.706,-176.969C491.823,-174.792 435.331,-165.561 401,-132 388.794,-120.068 384.322,-100.763 382.737,-86.286"/>
<polygon fill="midnightblue" stroke="midnightblue" points="386.202,-85.6669 381.993,-75.9441 379.22,-86.1696 386.202,-85.6669"/>
</g>
<!-- Node13&#45;&gt;Node8 -->
<g id="edge16" class="edge"><title>Node13&#45;&gt;Node8</title>
<path fill="none" stroke="midnightblue" d="M608.189,-168.8C632.451,-162.141 663.054,-150.708 685,-132 699.729,-119.444 710.132,-99.6691 716.286,-85.2254"/>
<polygon fill="midnightblue" stroke="midnightblue" points="719.579,-86.4157 720.017,-75.83 713.073,-83.8321 719.579,-86.4157"/>
</g>
<!-- Node14 -->
<g id="node14" class="node"><title>Node14</title>
<g id="a_node14"><a xlink:title=" ">
<polygon fill="white" stroke="#bfbfbf" points="532.5,-112.5 532.5,-131.5 591.5,-131.5 591.5,-112.5 532.5,-112.5"/>
<text text-anchor="middle" x="562" y="-119.5" font-family="Helvetica,sans-Serif" font-size="10.00">inttypes.h</text>
</a>
</g>
</g>
<!-- Node13&#45;&gt;Node14 -->
<g id="edge14" class="edge"><title>Node13&#45;&gt;Node14</title>
<path fill="none" stroke="midnightblue" d="M567.844,-168.083C566.916,-160.927 565.582,-150.635 564.423,-141.691"/>
<polygon fill="midnightblue" stroke="midnightblue" points="567.891,-141.218 563.134,-131.751 560.949,-142.118 567.891,-141.218"/>
</g>
<!-- Node13&#45;&gt;Node15 -->
<g id="edge17" class="edge"><title>Node13&#45;&gt;Node15</title>
<path fill="none" stroke="midnightblue" d="M606.395,-168.444C647.995,-158.925 715.197,-143.548 759.735,-133.357"/>
<polygon fill="midnightblue" stroke="midnightblue" points="760.74,-136.718 769.707,-131.075 759.179,-129.894 760.74,-136.718"/>
</g>
<!-- Node13&#45;&gt;Node16 -->
<g id="edge19" class="edge"><title>Node13&#45;&gt;Node16</title>
<path fill="none" stroke="midnightblue" d="M580.889,-168.324C592.15,-160.107 609.287,-147.602 622.709,-137.807"/>
<polygon fill="midnightblue" stroke="midnightblue" points="624.88,-140.556 630.894,-131.834 620.753,-134.901 624.88,-140.556"/>
</g>
<!-- Node13&#45;&gt;Node17 -->
<g id="edge22" class="edge"><title>Node13&#45;&gt;Node17</title>
<path fill="none" stroke="midnightblue" d="M529.82,-168.503C484.779,-158.735 411.033,-142.742 364.04,-132.551"/>
<polygon fill="midnightblue" stroke="midnightblue" points="364.664,-129.105 354.15,-130.406 363.181,-135.946 364.664,-129.105"/>
</g>
<!-- Node13&#45;&gt;Node18 -->
<g id="edge23" class="edge"><title>Node13&#45;&gt;Node18</title>
<path fill="none" stroke="midnightblue" d="M549.035,-168.444C528.391,-159.596 495.937,-145.687 472.368,-135.586"/>
<polygon fill="midnightblue" stroke="midnightblue" points="473.442,-132.239 462.872,-131.516 470.684,-138.673 473.442,-132.239"/>
</g>
<!-- Node15&#45;&gt;Node9 -->
<g id="edge18" class="edge"><title>Node15&#45;&gt;Node9</title>
<path fill="none" stroke="midnightblue" d="M813.256,-112.083C820.465,-104.298 831.11,-92.8015 839.846,-83.3665"/>
<polygon fill="midnightblue" stroke="midnightblue" points="842.671,-85.4666 846.897,-75.7511 837.535,-80.7108 842.671,-85.4666"/>
</g>
<!-- Node16&#45;&gt;Node4 -->
<g id="edge20" class="edge"><title>Node16&#45;&gt;Node4</title>
<path fill="none" stroke="midnightblue" d="M609.667,-114.014C606.401,-113.332 603.136,-112.652 600,-112 536.949,-98.8941 463.611,-83.783 420.095,-74.8305"/>
<polygon fill="midnightblue" stroke="midnightblue" points="420.725,-71.3868 410.225,-72.8003 419.315,-78.2433 420.725,-71.3868"/>
</g>
<!-- Node16&#45;&gt;Node8 -->
<g id="edge21" class="edge"><title>Node16&#45;&gt;Node8</title>
<path fill="none" stroke="midnightblue" d="M655.853,-112.324C668.216,-103.979 687.13,-91.2122 701.737,-81.3524"/>
<polygon fill="midnightblue" stroke="midnightblue" points="703.848,-84.1503 710.179,-75.6545 699.932,-78.3483 703.848,-84.1503"/>
</g>
<!-- Node18&#45;&gt;Node4 -->
<g id="edge24" class="edge"><title>Node18&#45;&gt;Node4</title>
<path fill="none" stroke="midnightblue" d="M433.199,-112.324C424.182,-104.341 410.594,-92.3128 399.682,-82.6529"/>
<polygon fill="midnightblue" stroke="midnightblue" points="401.787,-79.8416 391.979,-75.8339 397.147,-85.083 401.787,-79.8416"/>
</g>
<!-- Node19 -->
<g id="node19" class="node"><title>Node19</title>
<g id="a_node19"><a xlink:href="ucxh__urc_8h.html" target="_top" xlink:title=" ">
<polygon fill="white" stroke="black" points="449.5,-56.5 449.5,-75.5 514.5,-75.5 514.5,-56.5 449.5,-56.5"/>
<text text-anchor="middle" x="482" y="-63.5" font-family="Helvetica,sans-Serif" font-size="10.00">ucxh_urc.h</text>
</a>
</g>
</g>
<!-- Node18&#45;&gt;Node19 -->
<g id="edge25" class="edge"><title>Node18&#45;&gt;Node19</title>
<path fill="none" stroke="midnightblue" d="M449.44,-112.083C454.949,-104.455 463.031,-93.2645 469.765,-83.9408"/>
<polygon fill="midnightblue" stroke="midnightblue" points="472.662,-85.9071 475.68,-75.7511 466.987,-81.8087 472.662,-85.9071"/>
</g>
<!-- Node19&#45;&gt;Node13 -->
<g id="edge26" class="edge"><title>Node19&#45;&gt;Node13</title>
<path fill="none" stroke="midnightblue" d="M486.704,-75.8456C493.769,-88.7734 507.907,-113.319 523,-132 531.493,-142.512 542.231,-153.138 551.196,-161.422"/>
<polygon fill="midnightblue" stroke="midnightblue" points="549.047,-164.198 558.815,-168.302 553.738,-159.002 549.047,-164.198"/>
</g>
<!-- Node20 -->
<g id="node20" class="node"><title>Node20</title>
<g id="a_node20"><a xlink:href="autogenerated_8h.html" target="_top" xlink:title="Automatically generated function prototypes and documentation.">
<polygon fill="white" stroke="black" points="439,-0.5 439,-19.5 525,-19.5 525,-0.5 439,-0.5"/>
<text text-anchor="middle" x="482" y="-7.5" font-family="Helvetica,sans-Serif" font-size="10.00">autogenerated.h</text>
</a>
</g>
</g>
<!-- Node19&#45;&gt;Node20 -->
<g id="edge27" class="edge"><title>Node19&#45;&gt;Node20</title>
<path fill="none" stroke="midnightblue" d="M482,-56.083C482,-49.0059 482,-38.8611 482,-29.9865"/>
<polygon fill="midnightblue" stroke="midnightblue" points="485.5,-29.751 482,-19.7511 478.5,-29.7511 485.5,-29.751"/>
</g>
<!-- Node22&#45;&gt;Node5 -->
<g id="edge33" class="edge"><title>Node22&#45;&gt;Node5</title>
<path fill="none" stroke="midnightblue" d="M331.717,-224.324C322.164,-216.263 307.72,-204.077 296.216,-194.369"/>
<polygon fill="midnightblue" stroke="midnightblue" points="298.37,-191.608 288.47,-187.834 293.856,-196.958 298.37,-191.608"/>
</g>
<!-- Node23&#45;&gt;Node4 -->
<g id="edge38" class="edge"><title>Node23&#45;&gt;Node4</title>
<path fill="none" stroke="midnightblue" d="M215.305,-224.397C221.561,-202.609 240.862,-144.671 277,-112 295.924,-94.8919 322.339,-83.6151 343.941,-76.6289"/>
<polygon fill="midnightblue" stroke="midnightblue" points="345.247,-79.8896 353.792,-73.6263 343.206,-73.1937 345.247,-79.8896"/>
</g>
<!-- Node23&#45;&gt;Node5 -->
<g id="edge39" class="edge"><title>Node23&#45;&gt;Node5</title>
<path fill="none" stroke="midnightblue" d="M223.443,-224.324C233.146,-216.263 247.815,-204.077 259.5,-194.369"/>
<polygon fill="midnightblue" stroke="midnightblue" points="261.911,-196.916 267.367,-187.834 257.438,-191.532 261.911,-196.916"/>
</g>
</g>
</svg>
