<?xml version="1.0" encoding="UTF-8" standalone="no"?>
<!DOCTYPE svg PUBLIC "-//W3C//DTD SVG 1.1//EN"
 "http://www.w3.org/Graphics/SVG/1.1/DTD/svg11.dtd">
<!-- Generated by graphviz version 2.38.0 (20140413.2041)
 -->
<!-- Title: ex_readmisc.c Pages: 1 -->
<svg width="857pt" height="364pt"
 viewBox="0.00 0.00 857.00 364.00" xmlns="http://www.w3.org/2000/svg" xmlns:xlink="http://www.w3.org/1999/xlink">
<g id="graph0" class="graph" transform="scale(1 1) rotate(0) translate(4 360)">
<title>ex_readmisc.c</title>
<polygon fill="white" stroke="none" points="-4,4 -4,-360 853,-360 853,4 -4,4"/>
<!-- Node1 -->
<g id="node1" class="node"><title>Node1</title>
<g id="a_node1"><a xlink:title=" ">
<polygon fill="#bfbfbf" stroke="black" points="586,-336.5 586,-355.5 666,-355.5 666,-336.5 586,-336.5"/>
<text text-anchor="middle" x="626" y="-343.5" font-family="Helvetica,sans-Serif" font-size="10.00">ex_readmisc.c</text>
</a>
</g>
</g>
<!-- Node2 -->
<g id="node2" class="node"><title>Node2</title>
<g id="a_node2"><a xlink:title=" ">
<polygon fill="white" stroke="#bfbfbf" points="0,-280.5 0,-299.5 52,-299.5 52,-280.5 0,-280.5"/>
<text text-anchor="middle" x="26" y="-287.5" font-family="Helvetica,sans-Serif" font-size="10.00">assert.h</text>
</a>
</g>
</g>
<!-- Node1&#45;&gt;Node2 -->
<g id="edge1" class="edge"><title>Node1&#45;&gt;Node2</title>
<path fill="none" stroke="midnightblue" d="M585.713,-343.713C493.339,-340.337 259.341,-329.369 66,-300 64.7333,-299.808 63.4469,-299.598 62.15,-299.374"/>
<polygon fill="midnightblue" stroke="midnightblue" points="62.6325,-295.902 52.1497,-297.439 61.3029,-302.775 62.6325,-295.902"/>
</g>
<!-- Node3 -->
<g id="node3" class="node"><title>Node3</title>
<g id="a_node3"><a xlink:title=" ">
<polygon fill="white" stroke="#bfbfbf" points="437,-56.5 437,-75.5 493,-75.5 493,-56.5 437,-56.5"/>
<text text-anchor="middle" x="465" y="-63.5" font-family="Helvetica,sans-Serif" font-size="10.00">stdbool.h</text>
</a>
</g>
</g>
<!-- Node1&#45;&gt;Node3 -->
<g id="edge2" class="edge"><title>Node1&#45;&gt;Node3</title>
<path fill="none" stroke="midnightblue" d="M640.621,-336.482C666.344,-320.272 717,-282.339 717,-235 717,-235 717,-235 717,-177 717,-85.0538 574.344,-69.1964 503.699,-66.9808"/>
<polygon fill="midnightblue" stroke="midnightblue" points="503.497,-63.4752 493.418,-66.739 503.333,-70.4733 503.497,-63.4752"/>
</g>
<!-- Node4 -->
<g id="node4" class="node"><title>Node4</title>
<g id="a_node4"><a xlink:title=" ">
<polygon fill="white" stroke="#bfbfbf" points="643,-168.5 643,-187.5 689,-187.5 689,-168.5 643,-168.5"/>
<text text-anchor="middle" x="666" y="-175.5" font-family="Helvetica,sans-Serif" font-size="10.00">stdio.h</text>
</a>
</g>
</g>
<!-- Node1&#45;&gt;Node4 -->
<g id="edge3" class="edge"><title>Node1&#45;&gt;Node4</title>
<path fill="none" stroke="midnightblue" d="M635.124,-336.338C643.302,-327.927 654.787,-314.358 660,-300 672.518,-265.525 670.766,-221.872 668.376,-197.542"/>
<polygon fill="midnightblue" stroke="midnightblue" points="671.848,-197.093 667.247,-187.55 664.892,-197.879 671.848,-197.093"/>
</g>
<!-- Node5 -->
<g id="node5" class="node"><title>Node5</title>
<g id="a_node5"><a xlink:title=" ">
<polygon fill="white" stroke="#bfbfbf" points="535,-280.5 535,-299.5 583,-299.5 583,-280.5 535,-280.5"/>
<text text-anchor="middle" x="559" y="-287.5" font-family="Helvetica,sans-Serif" font-size="10.00">stdlib.h</text>
</a>
</g>
</g>
<!-- Node1&#45;&gt;Node5 -->
<g id="edge4" class="edge"><title>Node1&#45;&gt;Node5</title>
<path fill="none" stroke="midnightblue" d="M615.235,-336.324C605.234,-328.263 590.113,-316.077 578.07,-306.369"/>
<polygon fill="midnightblue" stroke="midnightblue" points="579.943,-303.384 569.961,-299.834 575.55,-308.834 579.943,-303.384"/>
</g>
<!-- Node6 -->
<g id="node6" class="node"><title>Node6</title>
<g id="a_node6"><a xlink:title=" ">
<polygon fill="white" stroke="#bfbfbf" points="601.5,-280.5 601.5,-299.5 650.5,-299.5 650.5,-280.5 601.5,-280.5"/>
<text text-anchor="middle" x="626" y="-287.5" font-family="Helvetica,sans-Serif" font-size="10.00">string.h</text>
</a>
</g>
</g>
<!-- Node1&#45;&gt;Node6 -->
<g id="edge5" class="edge"><title>Node1&#45;&gt;Node6</title>
<path fill="none" stroke="midnightblue" d="M626,-336.083C626,-329.006 626,-318.861 626,-309.986"/>
<polygon fill="midnightblue" stroke="midnightblue" points="629.5,-309.751 626,-299.751 622.5,-309.751 629.5,-309.751"/>
</g>
<!-- Node7 -->
<g id="node7" class="node"><title>Node7</title>
<g id="a_node7"><a xlink:title=" ">
<polygon fill="white" stroke="#bfbfbf" points="85.5,-56.5 85.5,-75.5 136.5,-75.5 136.5,-56.5 85.5,-56.5"/>
<text text-anchor="middle" x="111" y="-63.5" font-family="Helvetica,sans-Serif" font-size="10.00">unistd.h</text>
</a>
</g>
</g>
<!-- Node1&#45;&gt;Node7 -->
<g id="edge6" class="edge"><title>Node1&#45;&gt;Node7</title>
<path fill="none" stroke="midnightblue" d="M585.851,-345.446C459.759,-345.782 80,-338.223 80,-235 80,-235 80,-235 80,-177 80,-143.41 93.5575,-106.14 102.741,-84.7473"/>
<polygon fill="midnightblue" stroke="midnightblue" points="105.941,-86.1651 106.819,-75.6067 99.5483,-83.3128 105.941,-86.1651"/>
</g>
<!-- Node8 -->
<g id="node8" class="node"><title>Node8</title>
<g id="a_node8"><a xlink:href="ucxh__library_8h.html" target="_top" xlink:title=" ">
<polygon fill="white" stroke="black" points="380.5,-280.5 380.5,-299.5 457.5,-299.5 457.5,-280.5 380.5,-280.5"/>
<text text-anchor="middle" x="419" y="-287.5" font-family="Helvetica,sans-Serif" font-size="10.00">ucxh_library.h</text>
</a>
</g>
</g>
<!-- Node1&#45;&gt;Node8 -->
<g id="edge7" class="edge"><title>Node1&#45;&gt;Node8</title>
<path fill="none" stroke="midnightblue" d="M593.2,-336.444C557.62,-327.162 500.686,-312.309 461.653,-302.127"/>
<polygon fill="midnightblue" stroke="midnightblue" points="462.206,-298.654 451.646,-299.516 460.439,-305.427 462.206,-298.654"/>
</g>
<!-- Node21 -->
<g id="node21" class="node"><title>Node21</title>
<g id="a_node21"><a xlink:href="ucxh__serial_8h.html" target="_top" xlink:title=" ">
<polygon fill="white" stroke="black" points="745,-224.5 745,-243.5 819,-243.5 819,-224.5 745,-224.5"/>
<text text-anchor="middle" x="782" y="-231.5" font-family="Helvetica,sans-Serif" font-size="10.00">ucxh_serial.h</text>
</a>
</g>
</g>
<!-- Node1&#45;&gt;Node21 -->
<g id="edge34" class="edge"><title>Node1&#45;&gt;Node21</title>
<path fill="none" stroke="midnightblue" d="M656.636,-336.385C678.805,-329.129 708.669,-317.16 731,-300 748.003,-286.934 762.54,-266.961 771.693,-252.605"/>
<polygon fill="midnightblue" stroke="midnightblue" points="774.897,-254.073 777.133,-243.716 768.927,-250.418 774.897,-254.073"/>
</g>
<!-- Node22 -->
<g id="node22" class="node"><title>Node22</title>
<g id="a_node22"><a xlink:href="ex__config_8h.html" target="_top" xlink:title=" ">
<polygon fill="white" stroke="black" points="783,-280.5 783,-299.5 849,-299.5 849,-280.5 783,-280.5"/>
<text text-anchor="middle" x="816" y="-287.5" font-family="Helvetica,sans-Serif" font-size="10.00">ex_config.h</text>
</a>
</g>
</g>
<!-- Node1&#45;&gt;Node22 -->
<g id="edge37" class="edge"><title>Node1&#45;&gt;Node22</title>
<path fill="none" stroke="midnightblue" d="M656.106,-336.444C688.626,-327.201 740.579,-312.436 776.391,-302.257"/>
<polygon fill="midnightblue" stroke="midnightblue" points="777.373,-305.617 786.035,-299.516 775.459,-298.884 777.373,-305.617"/>
</g>
<!-- Node9 -->
<g id="node9" class="node"><title>Node9</title>
<g id="a_node9"><a xlink:href="ucxh__config_8h.html" target="_top" xlink:title=" ">
<polygon fill="white" stroke="black" points="275.5,-224.5 275.5,-243.5 352.5,-243.5 352.5,-224.5 275.5,-224.5"/>
<text text-anchor="middle" x="314" y="-231.5" font-family="Helvetica,sans-Serif" font-size="10.00">ucxh_config.h</text>
</a>
</g>
</g>
<!-- Node8&#45;&gt;Node9 -->
<g id="edge8" class="edge"><title>Node8&#45;&gt;Node9</title>
<path fill="none" stroke="midnightblue" d="M402.13,-280.324C385.291,-271.664 359.193,-258.242 339.762,-248.249"/>
<polygon fill="midnightblue" stroke="midnightblue" points="341.322,-245.116 330.828,-243.655 338.12,-251.341 341.322,-245.116"/>
</g>
<!-- Node10 -->
<g id="node10" class="node"><title>Node10</title>
<g id="a_node10"><a xlink:href="ucxh__edm__parser_8h.html" target="_top" xlink:title=" ">
<polygon fill="white" stroke="black" points="155,-224.5 155,-243.5 257,-243.5 257,-224.5 155,-224.5"/>
<text text-anchor="middle" x="206" y="-231.5" font-family="Helvetica,sans-Serif" font-size="10.00">ucxh_edm_parser.h</text>
</a>
</g>
</g>
<!-- Node8&#45;&gt;Node10 -->
<g id="edge9" class="edge"><title>Node8&#45;&gt;Node10</title>
<path fill="none" stroke="midnightblue" d="M385.25,-280.444C348.482,-271.122 289.554,-256.183 249.378,-245.997"/>
<polygon fill="midnightblue" stroke="midnightblue" points="250.146,-242.581 239.593,-243.516 248.426,-249.367 250.146,-242.581"/>
</g>
<!-- Node12 -->
<g id="node12" class="node"><title>Node12</title>
<g id="a_node12"><a xlink:href="ucxh__parser_8h.html" target="_top" xlink:title=" ">
<polygon fill="white" stroke="black" points="313,-168.5 313,-187.5 391,-187.5 391,-168.5 313,-168.5"/>
<text text-anchor="middle" x="352" y="-175.5" font-family="Helvetica,sans-Serif" font-size="10.00">ucxh_parser.h</text>
</a>
</g>
</g>
<!-- Node8&#45;&gt;Node12 -->
<g id="edge28" class="edge"><title>Node8&#45;&gt;Node12</title>
<path fill="none" stroke="midnightblue" d="M413.743,-280.368C402.735,-262.296 377.08,-220.176 362.542,-196.307"/>
<polygon fill="midnightblue" stroke="midnightblue" points="365.424,-194.311 357.233,-187.591 359.446,-197.953 365.424,-194.311"/>
</g>
<!-- Node13 -->
<g id="node13" class="node"><title>Node13</title>
<g id="a_node13"><a xlink:href="ucxh__edm_8h.html" target="_top" xlink:title=" ">
<polygon fill="white" stroke="black" points="108,-112.5 108,-131.5 178,-131.5 178,-112.5 108,-112.5"/>
<text text-anchor="middle" x="143" y="-119.5" font-family="Helvetica,sans-Serif" font-size="10.00">ucxh_edm.h</text>
</a>
</g>
</g>
<!-- Node8&#45;&gt;Node13 -->
<g id="edge33" class="edge"><title>Node8&#45;&gt;Node13</title>
<path fill="none" stroke="midnightblue" d="M380.429,-288.448C312.542,-286.581 176.035,-278.515 146,-244 121.256,-215.566 129.715,-167.573 136.995,-141.39"/>
<polygon fill="midnightblue" stroke="midnightblue" points="140.404,-142.209 139.943,-131.624 133.702,-140.186 140.404,-142.209"/>
</g>
<!-- Node15 -->
<g id="node15" class="node"><title>Node15</title>
<g id="a_node15"><a xlink:href="ucxh__wait_8h.html" target="_top" xlink:title=" ">
<polygon fill="white" stroke="black" points="516,-112.5 516,-131.5 584,-131.5 584,-112.5 516,-112.5"/>
<text text-anchor="middle" x="550" y="-119.5" font-family="Helvetica,sans-Serif" font-size="10.00">ucxh_wait.h</text>
</a>
</g>
</g>
<!-- Node8&#45;&gt;Node15 -->
<g id="edge31" class="edge"><title>Node8&#45;&gt;Node15</title>
<path fill="none" stroke="midnightblue" d="M426.043,-280.075C447.021,-253.493 509.329,-174.538 536.771,-139.763"/>
<polygon fill="midnightblue" stroke="midnightblue" points="539.791,-141.586 543.238,-131.568 534.296,-137.25 539.791,-141.586"/>
</g>
<!-- Node16 -->
<g id="node16" class="node"><title>Node16</title>
<g id="a_node16"><a xlink:href="ucxh__wifi_8h.html" target="_top" xlink:title=" ">
<polygon fill="white" stroke="black" points="432.5,-112.5 432.5,-131.5 497.5,-131.5 497.5,-112.5 432.5,-112.5"/>
<text text-anchor="middle" x="465" y="-119.5" font-family="Helvetica,sans-Serif" font-size="10.00">ucxh_wifi.h</text>
</a>
</g>
</g>
<!-- Node8&#45;&gt;Node16 -->
<g id="edge32" class="edge"><title>Node8&#45;&gt;Node16</title>
<path fill="none" stroke="midnightblue" d="M419.943,-280.293C422.294,-260.12 429.244,-208.789 443,-168 446.161,-158.627 450.856,-148.699 455.099,-140.559"/>
<polygon fill="midnightblue" stroke="midnightblue" points="458.226,-142.135 459.915,-131.676 452.072,-138.799 458.226,-142.135"/>
</g>
<!-- Node19 -->
<g id="node19" class="node"><title>Node19</title>
<g id="a_node19"><a xlink:href="ucxh__mode_8h.html" target="_top" xlink:title=" ">
<polygon fill="white" stroke="black" points="485.5,-224.5 485.5,-243.5 560.5,-243.5 560.5,-224.5 485.5,-224.5"/>
<text text-anchor="middle" x="523" y="-231.5" font-family="Helvetica,sans-Serif" font-size="10.00">ucxh_mode.h</text>
</a>
</g>
</g>
<!-- Node8&#45;&gt;Node19 -->
<g id="edge27" class="edge"><title>Node8&#45;&gt;Node19</title>
<path fill="none" stroke="midnightblue" d="M435.709,-280.324C452.312,-271.703 478.002,-258.364 497.22,-248.386"/>
<polygon fill="midnightblue" stroke="midnightblue" points="499.07,-251.369 506.332,-243.655 495.844,-245.156 499.07,-251.369"/>
</g>
<!-- Node20 -->
<g id="node20" class="node"><title>Node20</title>
<g id="a_node20"><a xlink:href="ucxh__send_8h.html" target="_top" xlink:title=" ">
<polygon fill="white" stroke="black" points="579,-224.5 579,-243.5 651,-243.5 651,-224.5 579,-224.5"/>
<text text-anchor="middle" x="615" y="-231.5" font-family="Helvetica,sans-Serif" font-size="10.00">ucxh_send.h</text>
</a>
</g>
</g>
<!-- Node8&#45;&gt;Node20 -->
<g id="edge29" class="edge"><title>Node8&#45;&gt;Node20</title>
<path fill="none" stroke="midnightblue" d="M450.057,-280.444C483.603,-271.201 537.197,-256.436 574.141,-246.257"/>
<polygon fill="midnightblue" stroke="midnightblue" points="575.377,-249.547 584.089,-243.516 573.518,-242.798 575.377,-249.547"/>
</g>
<!-- Node11 -->
<g id="node11" class="node"><title>Node11</title>
<g id="a_node11"><a xlink:title=" ">
<polygon fill="white" stroke="#bfbfbf" points="245,-56.5 245,-75.5 289,-75.5 289,-56.5 245,-56.5"/>
<text text-anchor="middle" x="267" y="-63.5" font-family="Helvetica,sans-Serif" font-size="10.00">time.h</text>
</a>
</g>
</g>
<!-- Node10&#45;&gt;Node11 -->
<g id="edge10" class="edge"><title>Node10&#45;&gt;Node11</title>
<path fill="none" stroke="midnightblue" d="M205.668,-224.274C205.234,-203.628 206.187,-150.615 225,-112 230.462,-100.788 239.673,-90.4468 248.079,-82.5123"/>
<polygon fill="midnightblue" stroke="midnightblue" points="250.599,-84.9548 255.743,-75.6926 245.946,-79.7252 250.599,-84.9548"/>
</g>
<!-- Node10&#45;&gt;Node12 -->
<g id="edge11" class="edge"><title>Node10&#45;&gt;Node12</title>
<path fill="none" stroke="midnightblue" d="M229.134,-224.444C253.482,-215.438 292.007,-201.189 319.423,-191.049"/>
<polygon fill="midnightblue" stroke="midnightblue" points="320.809,-194.268 328.974,-187.516 318.381,-187.703 320.809,-194.268"/>
</g>
<!-- Node10&#45;&gt;Node13 -->
<g id="edge26" class="edge"><title>Node10&#45;&gt;Node13</title>
<path fill="none" stroke="midnightblue" d="M201.056,-224.368C190.706,-206.296 166.583,-164.176 152.912,-140.307"/>
<polygon fill="midnightblue" stroke="midnightblue" points="155.928,-138.53 147.921,-131.591 149.853,-142.008 155.928,-138.53"/>
</g>
<!-- Node14 -->
<g id="node14" class="node"><title>Node14</title>
<g id="a_node14"><a xlink:href="ucxh__poll_8h.html" target="_top" xlink:title=" ">
<polygon fill="white" stroke="black" points="234,-112.5 234,-131.5 300,-131.5 300,-112.5 234,-112.5"/>
<text text-anchor="middle" x="267" y="-119.5" font-family="Helvetica,sans-Serif" font-size="10.00">ucxh_poll.h</text>
</a>
</g>
</g>
<!-- Node10&#45;&gt;Node14 -->
<g id="edge25" class="edge"><title>Node10&#45;&gt;Node14</title>
<path fill="none" stroke="midnightblue" d="M210.787,-224.368C220.764,-206.376 243.958,-164.55 257.225,-140.627"/>
<polygon fill="midnightblue" stroke="midnightblue" points="260.447,-142.034 262.236,-131.591 254.325,-138.639 260.447,-142.034"/>
</g>
<!-- Node12&#45;&gt;Node3 -->
<g id="edge12" class="edge"><title>Node12&#45;&gt;Node3</title>
<path fill="none" stroke="midnightblue" d="M360.867,-168.368C379.845,-149.894 424.636,-106.293 448.827,-82.7436"/>
<polygon fill="midnightblue" stroke="midnightblue" points="451.45,-85.0747 456.174,-75.5914 446.567,-80.0588 451.45,-85.0747"/>
</g>
<!-- Node12&#45;&gt;Node11 -->
<g id="edge13" class="edge"><title>Node12&#45;&gt;Node11</title>
<path fill="none" stroke="midnightblue" d="M346.868,-168.272C339.212,-155.49 324.08,-131.125 309,-112 300.977,-101.825 291.132,-91.1937 282.991,-82.8208"/>
<polygon fill="midnightblue" stroke="midnightblue" points="285.343,-80.2221 275.823,-75.5739 280.367,-85.1448 285.343,-80.2221"/>
</g>
<!-- Node12&#45;&gt;Node13 -->
<g id="edge14" class="edge"><title>Node12&#45;&gt;Node13</title>
<path fill="none" stroke="midnightblue" d="M318.883,-168.444C282.882,-159.142 225.23,-144.246 185.814,-134.062"/>
<polygon fill="midnightblue" stroke="midnightblue" points="186.519,-130.629 175.962,-131.516 184.768,-137.407 186.519,-130.629"/>
</g>
<!-- Node12&#45;&gt;Node14 -->
<g id="edge16" class="edge"><title>Node12&#45;&gt;Node14</title>
<path fill="none" stroke="midnightblue" d="M338.343,-168.324C325.084,-159.9 304.732,-146.971 289.154,-137.074"/>
<polygon fill="midnightblue" stroke="midnightblue" points="290.94,-134.063 280.623,-131.655 287.187,-139.971 290.94,-134.063"/>
</g>
<!-- Node12&#45;&gt;Node15 -->
<g id="edge19" class="edge"><title>Node12&#45;&gt;Node15</title>
<path fill="none" stroke="midnightblue" d="M383.374,-168.444C417.263,-159.201 471.403,-144.436 508.724,-134.257"/>
<polygon fill="midnightblue" stroke="midnightblue" points="510.046,-137.524 518.773,-131.516 508.205,-130.771 510.046,-137.524"/>
</g>
<!-- Node12&#45;&gt;Node16 -->
<g id="edge20" class="edge"><title>Node12&#45;&gt;Node16</title>
<path fill="none" stroke="midnightblue" d="M369.905,-168.444C388.254,-159.675 417.005,-145.935 438.094,-135.858"/>
<polygon fill="midnightblue" stroke="midnightblue" points="439.665,-138.986 447.179,-131.516 436.647,-132.67 439.665,-138.986"/>
</g>
<!-- Node13&#45;&gt;Node7 -->
<g id="edge15" class="edge"><title>Node13&#45;&gt;Node7</title>
<path fill="none" stroke="midnightblue" d="M137.716,-112.083C133.289,-104.613 126.837,-93.7244 121.382,-84.5199"/>
<polygon fill="midnightblue" stroke="midnightblue" points="124.295,-82.5697 116.186,-75.7511 118.273,-86.1383 124.295,-82.5697"/>
</g>
<!-- Node14&#45;&gt;Node3 -->
<g id="edge17" class="edge"><title>Node14&#45;&gt;Node3</title>
<path fill="none" stroke="midnightblue" d="M298.374,-112.444C333.259,-102.929 389.605,-87.5622 426.972,-77.3713"/>
<polygon fill="midnightblue" stroke="midnightblue" points="428.248,-80.6512 436.974,-74.6433 426.406,-73.8979 428.248,-80.6512"/>
</g>
<!-- Node14&#45;&gt;Node11 -->
<g id="edge18" class="edge"><title>Node14&#45;&gt;Node11</title>
<path fill="none" stroke="midnightblue" d="M267,-112.083C267,-105.006 267,-94.8611 267,-85.9865"/>
<polygon fill="midnightblue" stroke="midnightblue" points="270.5,-85.751 267,-75.7511 263.5,-85.7511 270.5,-85.751"/>
</g>
<!-- Node16&#45;&gt;Node3 -->
<g id="edge21" class="edge"><title>Node16&#45;&gt;Node3</title>
<path fill="none" stroke="midnightblue" d="M465,-112.083C465,-105.006 465,-94.8611 465,-85.9865"/>
<polygon fill="midnightblue" stroke="midnightblue" points="468.5,-85.751 465,-75.7511 461.5,-85.7511 468.5,-85.751"/>
</g>
<!-- Node17 -->
<g id="node17" class="node"><title>Node17</title>
<g id="a_node17"><a xlink:href="ucxh__urc_8h.html" target="_top" xlink:title=" ">
<polygon fill="white" stroke="black" points="343.5,-56.5 343.5,-75.5 408.5,-75.5 408.5,-56.5 343.5,-56.5"/>
<text text-anchor="middle" x="376" y="-63.5" font-family="Helvetica,sans-Serif" font-size="10.00">ucxh_urc.h</text>
</a>
</g>
</g>
<!-- Node16&#45;&gt;Node17 -->
<g id="edge22" class="edge"><title>Node16&#45;&gt;Node17</title>
<path fill="none" stroke="midnightblue" d="M450.701,-112.324C436.817,-103.9 415.508,-90.9709 399.196,-81.0741"/>
<polygon fill="midnightblue" stroke="midnightblue" points="400.629,-77.8495 390.264,-75.6545 396.998,-83.8341 400.629,-77.8495"/>
</g>
<!-- Node17&#45;&gt;Node12 -->
<g id="edge23" class="edge"><title>Node17&#45;&gt;Node12</title>
<path fill="none" stroke="midnightblue" d="M374.126,-75.5914C370.26,-93.3079 361.326,-134.254 356.07,-158.348"/>
<polygon fill="midnightblue" stroke="midnightblue" points="352.595,-157.852 353.883,-168.368 359.435,-159.344 352.595,-157.852"/>
</g>
<!-- Node18 -->
<g id="node18" class="node"><title>Node18</title>
<g id="a_node18"><a xlink:href="autogenerated_8h.html" target="_top" xlink:title="Automatically generated function prototypes and documentation.">
<polygon fill="white" stroke="black" points="333,-0.5 333,-19.5 419,-19.5 419,-0.5 333,-0.5"/>
<text text-anchor="middle" x="376" y="-7.5" font-family="Helvetica,sans-Serif" font-size="10.00">autogenerated.h</text>
</a>
</g>
</g>
<!-- Node17&#45;&gt;Node18 -->
<g id="edge24" class="edge"><title>Node17&#45;&gt;Node18</title>
<path fill="none" stroke="midnightblue" d="M376,-56.083C376,-49.0059 376,-38.8611 376,-29.9865"/>
<polygon fill="midnightblue" stroke="midnightblue" points="379.5,-29.751 376,-19.7511 372.5,-29.7511 379.5,-29.751"/>
</g>
<!-- Node20&#45;&gt;Node4 -->
<g id="edge30" class="edge"><title>Node20&#45;&gt;Node4</title>
<path fill="none" stroke="midnightblue" d="M623.422,-224.083C630.848,-216.22 641.852,-204.569 650.812,-195.081"/>
<polygon fill="midnightblue" stroke="midnightblue" points="653.413,-197.424 657.735,-187.751 648.324,-192.618 653.413,-197.424"/>
</g>
<!-- Node21&#45;&gt;Node3 -->
<g id="edge35" class="edge"><title>Node21&#45;&gt;Node3</title>
<path fill="none" stroke="midnightblue" d="M781.137,-224.292C778.405,-201.738 767.817,-141.153 731,-112 696.391,-84.5954 568.522,-73.15 503.503,-69.0198"/>
<polygon fill="midnightblue" stroke="midnightblue" points="503.449,-65.5102 493.255,-68.3966 503.024,-72.4973 503.449,-65.5102"/>
</g>
<!-- Node21&#45;&gt;Node4 -->
<g id="edge36" class="edge"><title>Node21&#45;&gt;Node4</title>
<path fill="none" stroke="midnightblue" d="M763.619,-224.444C744.784,-215.675 715.269,-201.935 693.621,-191.858"/>
<polygon fill="midnightblue" stroke="midnightblue" points="694.838,-188.564 684.295,-187.516 691.883,-194.91 694.838,-188.564"/>
</g>
</g>
</svg>
