<?xml version="1.0" encoding="UTF-8" standalone="no"?>
<!DOCTYPE svg PUBLIC "-//W3C//DTD SVG 1.1//EN"
 "http://www.w3.org/Graphics/SVG/1.1/DTD/svg11.dtd">
<!-- Generated by graphviz version 2.38.0 (20140413.2041)
 -->
<!-- Title: ex_readmisc.c Pages: 1 -->
<svg width="909pt" height="364pt"
 viewBox="0.00 0.00 909.00 364.00" xmlns="http://www.w3.org/2000/svg" xmlns:xlink="http://www.w3.org/1999/xlink">
<g id="graph0" class="graph" transform="scale(1 1) rotate(0) translate(4 360)">
<title>ex_readmisc.c</title>
<polygon fill="white" stroke="none" points="-4,4 -4,-360 905,-360 905,4 -4,4"/>
<!-- Node1 -->
<g id="node1" class="node"><title>Node1</title>
<g id="a_node1"><a xlink:title=" ">
<polygon fill="#bfbfbf" stroke="black" points="407,-336.5 407,-355.5 487,-355.5 487,-336.5 407,-336.5"/>
<text text-anchor="middle" x="447" y="-343.5" font-family="Helvetica,sans-Serif" font-size="10.00">ex_readmisc.c</text>
</a>
</g>
</g>
<!-- Node2 -->
<g id="node2" class="node"><title>Node2</title>
<g id="a_node2"><a xlink:title=" ">
<polygon fill="white" stroke="#bfbfbf" points="0,-280.5 0,-299.5 52,-299.5 52,-280.5 0,-280.5"/>
<text text-anchor="middle" x="26" y="-287.5" font-family="Helvetica,sans-Serif" font-size="10.00">assert.h</text>
</a>
</g>
</g>
<!-- Node1&#45;&gt;Node2 -->
<g id="edge1" class="edge"><title>Node1&#45;&gt;Node2</title>
<path fill="none" stroke="midnightblue" d="M406.76,-341.631C337.046,-335.486 189.425,-321.116 66,-300 64.7371,-299.784 63.454,-299.554 62.1599,-299.313"/>
<polygon fill="midnightblue" stroke="midnightblue" points="62.6673,-295.844 52.1726,-297.297 61.2828,-302.706 62.6673,-295.844"/>
</g>
<!-- Node3 -->
<g id="node3" class="node"><title>Node3</title>
<g id="a_node3"><a xlink:title=" ">
<polygon fill="white" stroke="#bfbfbf" points="285,-56.5 285,-75.5 341,-75.5 341,-56.5 285,-56.5"/>
<text text-anchor="middle" x="313" y="-63.5" font-family="Helvetica,sans-Serif" font-size="10.00">stdbool.h</text>
</a>
</g>
</g>
<!-- Node1&#45;&gt;Node3 -->
<g id="edge2" class="edge"><title>Node1&#45;&gt;Node3</title>
<path fill="none" stroke="midnightblue" d="M406.675,-341.524C311.338,-332.196 80,-302.597 80,-235 80,-235 80,-235 80,-177 80,-91.8654 208.777,-72.5183 274.857,-68.1948"/>
<polygon fill="midnightblue" stroke="midnightblue" points="275.11,-71.6862 284.895,-67.6222 274.712,-64.6975 275.11,-71.6862"/>
</g>
<!-- Node4 -->
<g id="node4" class="node"><title>Node4</title>
<g id="a_node4"><a xlink:title=" ">
<polygon fill="white" stroke="#bfbfbf" points="187,-168.5 187,-187.5 233,-187.5 233,-168.5 187,-168.5"/>
<text text-anchor="middle" x="210" y="-175.5" font-family="Helvetica,sans-Serif" font-size="10.00">stdio.h</text>
</a>
</g>
</g>
<!-- Node1&#45;&gt;Node4 -->
<g id="edge3" class="edge"><title>Node1&#45;&gt;Node4</title>
<path fill="none" stroke="midnightblue" d="M406.678,-336.974C357.644,-325.122 275.665,-298.219 229,-244 217.865,-231.062 213.249,-211.893 211.339,-197.721"/>
<polygon fill="midnightblue" stroke="midnightblue" points="214.808,-197.237 210.315,-187.642 207.844,-197.944 214.808,-197.237"/>
</g>
<!-- Node5 -->
<g id="node5" class="node"><title>Node5</title>
<g id="a_node5"><a xlink:title=" ">
<polygon fill="white" stroke="#bfbfbf" points="701,-280.5 701,-299.5 749,-299.5 749,-280.5 701,-280.5"/>
<text text-anchor="middle" x="725" y="-287.5" font-family="Helvetica,sans-Serif" font-size="10.00">stdlib.h</text>
</a>
</g>
</g>
<!-- Node1&#45;&gt;Node5 -->
<g id="edge4" class="edge"><title>Node1&#45;&gt;Node5</title>
<path fill="none" stroke="midnightblue" d="M487.032,-338.09C534.77,-329.712 616.915,-314.861 687,-300 688.268,-299.731 689.559,-299.452 690.863,-299.166"/>
<polygon fill="midnightblue" stroke="midnightblue" points="691.938,-302.511 700.916,-296.885 690.389,-295.684 691.938,-302.511"/>
</g>
<!-- Node6 -->
<g id="node6" class="node"><title>Node6</title>
<g id="a_node6"><a xlink:title=" ">
<polygon fill="white" stroke="#bfbfbf" points="767.5,-280.5 767.5,-299.5 816.5,-299.5 816.5,-280.5 767.5,-280.5"/>
<text text-anchor="middle" x="792" y="-287.5" font-family="Helvetica,sans-Serif" font-size="10.00">string.h</text>
</a>
</g>
</g>
<!-- Node1&#45;&gt;Node6 -->
<g id="edge5" class="edge"><title>Node1&#45;&gt;Node6</title>
<path fill="none" stroke="midnightblue" d="M487.019,-340.702C544.622,-334.191 654.379,-320.569 757.262,-299.937"/>
<polygon fill="midnightblue" stroke="midnightblue" points="758.093,-303.34 767.195,-297.919 756.699,-296.48 758.093,-303.34"/>
</g>
<!-- Node7 -->
<g id="node7" class="node"><title>Node7</title>
<g id="a_node7"><a xlink:title=" ">
<polygon fill="white" stroke="#bfbfbf" points="735.5,-56.5 735.5,-75.5 786.5,-75.5 786.5,-56.5 735.5,-56.5"/>
<text text-anchor="middle" x="761" y="-63.5" font-family="Helvetica,sans-Serif" font-size="10.00">unistd.h</text>
</a>
</g>
</g>
<!-- Node1&#45;&gt;Node7 -->
<g id="edge6" class="edge"><title>Node1&#45;&gt;Node7</title>
<path fill="none" stroke="midnightblue" d="M481.021,-336.45C558.727,-316.59 743.885,-267.265 761,-244 795.999,-196.426 778.445,-120.518 767.521,-85.6367"/>
<polygon fill="midnightblue" stroke="midnightblue" points="770.745,-84.2371 764.283,-75.8413 764.099,-86.4345 770.745,-84.2371"/>
</g>
<!-- Node8 -->
<g id="node8" class="node"><title>Node8</title>
<g id="a_node8"><a xlink:href="ucxh__library_8h.html" target="_top" xlink:title=" ">
<polygon fill="white" stroke="black" points="408.5,-280.5 408.5,-299.5 485.5,-299.5 485.5,-280.5 408.5,-280.5"/>
<text text-anchor="middle" x="447" y="-287.5" font-family="Helvetica,sans-Serif" font-size="10.00">ucxh_library.h</text>
</a>
</g>
</g>
<!-- Node1&#45;&gt;Node8 -->
<g id="edge7" class="edge"><title>Node1&#45;&gt;Node8</title>
<path fill="none" stroke="midnightblue" d="M447,-336.083C447,-329.006 447,-318.861 447,-309.986"/>
<polygon fill="midnightblue" stroke="midnightblue" points="450.5,-309.751 447,-299.751 443.5,-309.751 450.5,-309.751"/>
</g>
<!-- Node22 -->
<g id="node22" class="node"><title>Node22</title>
<g id="a_node22"><a xlink:href="ucxh__serial_8h.html" target="_top" xlink:title=" ">
<polygon fill="white" stroke="black" points="108,-224.5 108,-243.5 182,-243.5 182,-224.5 108,-224.5"/>
<text text-anchor="middle" x="145" y="-231.5" font-family="Helvetica,sans-Serif" font-size="10.00">ucxh_serial.h</text>
</a>
</g>
</g>
<!-- Node1&#45;&gt;Node22 -->
<g id="edge35" class="edge"><title>Node1&#45;&gt;Node22</title>
<path fill="none" stroke="midnightblue" d="M406.887,-341.305C345.3,-335.055 230.904,-320.991 196,-300 177.245,-288.721 162.73,-267.797 154.063,-252.732"/>
<polygon fill="midnightblue" stroke="midnightblue" points="157.078,-250.951 149.226,-243.838 150.929,-254.295 157.078,-250.951"/>
</g>
<!-- Node23 -->
<g id="node23" class="node"><title>Node23</title>
<g id="a_node23"><a xlink:href="ex__config_8h.html" target="_top" xlink:title=" ">
<polygon fill="white" stroke="black" points="835,-280.5 835,-299.5 901,-299.5 901,-280.5 835,-280.5"/>
<text text-anchor="middle" x="868" y="-287.5" font-family="Helvetica,sans-Serif" font-size="10.00">ex_config.h</text>
</a>
</g>
</g>
<!-- Node1&#45;&gt;Node23 -->
<g id="edge38" class="edge"><title>Node1&#45;&gt;Node23</title>
<path fill="none" stroke="midnightblue" d="M487.166,-341.388C554.636,-335.067 695.179,-320.811 824.626,-299.914"/>
<polygon fill="midnightblue" stroke="midnightblue" points="825.414,-303.332 834.72,-298.267 824.286,-296.423 825.414,-303.332"/>
</g>
<!-- Node9 -->
<g id="node9" class="node"><title>Node9</title>
<g id="a_node9"><a xlink:href="ucxh__config_8h.html" target="_top" xlink:title=" ">
<polygon fill="white" stroke="black" points="442.5,-224.5 442.5,-243.5 519.5,-243.5 519.5,-224.5 442.5,-224.5"/>
<text text-anchor="middle" x="481" y="-231.5" font-family="Helvetica,sans-Serif" font-size="10.00">ucxh_config.h</text>
</a>
</g>
</g>
<!-- Node8&#45;&gt;Node9 -->
<g id="edge8" class="edge"><title>Node8&#45;&gt;Node9</title>
<path fill="none" stroke="midnightblue" d="M452.614,-280.083C457.367,-272.534 464.318,-261.495 470.152,-252.23"/>
<polygon fill="midnightblue" stroke="midnightblue" points="473.124,-254.078 475.49,-243.751 467.2,-250.349 473.124,-254.078"/>
</g>
<!-- Node10 -->
<g id="node10" class="node"><title>Node10</title>
<g id="a_node10"><a xlink:href="ucxh__edm__parser_8h.html" target="_top" xlink:title=" ">
<polygon fill="white" stroke="black" points="538,-224.5 538,-243.5 640,-243.5 640,-224.5 538,-224.5"/>
<text text-anchor="middle" x="589" y="-231.5" font-family="Helvetica,sans-Serif" font-size="10.00">ucxh_edm_parser.h</text>
</a>
</g>
</g>
<!-- Node8&#45;&gt;Node10 -->
<g id="edge9" class="edge"><title>Node8&#45;&gt;Node10</title>
<path fill="none" stroke="midnightblue" d="M469.5,-280.444C493.077,-271.478 530.322,-257.314 556.964,-247.183"/>
<polygon fill="midnightblue" stroke="midnightblue" points="558.502,-250.342 566.605,-243.516 556.014,-243.8 558.502,-250.342"/>
</g>
<!-- Node12 -->
<g id="node12" class="node"><title>Node12</title>
<g id="a_node12"><a xlink:href="ucxh__parser_8h.html" target="_top" xlink:title=" ">
<polygon fill="white" stroke="black" points="428,-168.5 428,-187.5 506,-187.5 506,-168.5 428,-168.5"/>
<text text-anchor="middle" x="467" y="-175.5" font-family="Helvetica,sans-Serif" font-size="10.00">ucxh_parser.h</text>
</a>
</g>
</g>
<!-- Node8&#45;&gt;Node12 -->
<g id="edge29" class="edge"><title>Node8&#45;&gt;Node12</title>
<path fill="none" stroke="midnightblue" d="M442.284,-280.424C435.999,-267.832 426.394,-243.7 433,-224 436.604,-213.251 443.903,-203.02 450.817,-195.038"/>
<polygon fill="midnightblue" stroke="midnightblue" points="453.477,-197.317 457.712,-187.605 448.345,-192.556 453.477,-197.317"/>
</g>
<!-- Node14 -->
<g id="node14" class="node"><title>Node14</title>
<g id="a_node14"><a xlink:href="ucxh__edm_8h.html" target="_top" xlink:title=" ">
<polygon fill="white" stroke="black" points="683,-112.5 683,-131.5 753,-131.5 753,-112.5 683,-112.5"/>
<text text-anchor="middle" x="718" y="-119.5" font-family="Helvetica,sans-Serif" font-size="10.00">ucxh_edm.h</text>
</a>
</g>
</g>
<!-- Node8&#45;&gt;Node14 -->
<g id="edge34" class="edge"><title>Node8&#45;&gt;Node14</title>
<path fill="none" stroke="midnightblue" d="M485.604,-289.059C557.904,-288.259 709.381,-281.972 742,-244 767.367,-214.47 744.609,-165.869 729.28,-140.169"/>
<polygon fill="midnightblue" stroke="midnightblue" points="732.149,-138.157 723.884,-131.528 726.212,-141.864 732.149,-138.157"/>
</g>
<!-- Node16 -->
<g id="node16" class="node"><title>Node16</title>
<g id="a_node16"><a xlink:href="ucxh__wait_8h.html" target="_top" xlink:title=" ">
<polygon fill="white" stroke="black" points="194,-112.5 194,-131.5 262,-131.5 262,-112.5 194,-112.5"/>
<text text-anchor="middle" x="228" y="-119.5" font-family="Helvetica,sans-Serif" font-size="10.00">ucxh_wait.h</text>
</a>
</g>
</g>
<!-- Node8&#45;&gt;Node16 -->
<g id="edge32" class="edge"><title>Node8&#45;&gt;Node16</title>
<path fill="none" stroke="midnightblue" d="M435.534,-280.309C400.055,-253.416 291.789,-171.352 247.349,-137.666"/>
<polygon fill="midnightblue" stroke="midnightblue" points="249.436,-134.857 239.353,-131.605 245.208,-140.435 249.436,-134.857"/>
</g>
<!-- Node17 -->
<g id="node17" class="node"><title>Node17</title>
<g id="a_node17"><a xlink:href="ucxh__wifi_8h.html" target="_top" xlink:title=" ">
<polygon fill="white" stroke="black" points="280.5,-112.5 280.5,-131.5 345.5,-131.5 345.5,-112.5 280.5,-112.5"/>
<text text-anchor="middle" x="313" y="-119.5" font-family="Helvetica,sans-Serif" font-size="10.00">ucxh_wifi.h</text>
</a>
</g>
</g>
<!-- Node8&#45;&gt;Node17 -->
<g id="edge33" class="edge"><title>Node8&#45;&gt;Node17</title>
<path fill="none" stroke="midnightblue" d="M440.46,-280.378C425.245,-260.385 386.165,-209.408 352,-168 344.006,-158.311 334.815,-147.683 327.364,-139.189"/>
<polygon fill="midnightblue" stroke="midnightblue" points="329.841,-136.706 320.602,-131.521 324.591,-141.336 329.841,-136.706"/>
</g>
<!-- Node20 -->
<g id="node20" class="node"><title>Node20</title>
<g id="a_node20"><a xlink:href="ucxh__mode_8h.html" target="_top" xlink:title=" ">
<polygon fill="white" stroke="black" points="658.5,-224.5 658.5,-243.5 733.5,-243.5 733.5,-224.5 658.5,-224.5"/>
<text text-anchor="middle" x="696" y="-231.5" font-family="Helvetica,sans-Serif" font-size="10.00">ucxh_mode.h</text>
</a>
</g>
</g>
<!-- Node8&#45;&gt;Node20 -->
<g id="edge28" class="edge"><title>Node8&#45;&gt;Node20</title>
<path fill="none" stroke="midnightblue" d="M485.633,-280.622C529.539,-271.1 601.223,-255.554 648.506,-245.3"/>
<polygon fill="midnightblue" stroke="midnightblue" points="649.468,-248.673 658.5,-243.133 647.985,-241.832 649.468,-248.673"/>
</g>
<!-- Node21 -->
<g id="node21" class="node"><title>Node21</title>
<g id="a_node21"><a xlink:href="ucxh__send_8h.html" target="_top" xlink:title=" ">
<polygon fill="white" stroke="black" points="238,-224.5 238,-243.5 310,-243.5 310,-224.5 238,-224.5"/>
<text text-anchor="middle" x="274" y="-231.5" font-family="Helvetica,sans-Serif" font-size="10.00">ucxh_send.h</text>
</a>
</g>
</g>
<!-- Node8&#45;&gt;Node21 -->
<g id="edge30" class="edge"><title>Node8&#45;&gt;Node21</title>
<path fill="none" stroke="midnightblue" d="M419.588,-280.444C390.231,-271.28 343.481,-256.688 310.904,-246.519"/>
<polygon fill="midnightblue" stroke="midnightblue" points="311.873,-243.155 301.284,-243.516 309.787,-249.837 311.873,-243.155"/>
</g>
<!-- Node11 -->
<g id="node11" class="node"><title>Node11</title>
<g id="a_node11"><a xlink:title=" ">
<polygon fill="white" stroke="#bfbfbf" points="567,-56.5 567,-75.5 611,-75.5 611,-56.5 567,-56.5"/>
<text text-anchor="middle" x="589" y="-63.5" font-family="Helvetica,sans-Serif" font-size="10.00">time.h</text>
</a>
</g>
</g>
<!-- Node10&#45;&gt;Node11 -->
<g id="edge10" class="edge"><title>Node10&#45;&gt;Node11</title>
<path fill="none" stroke="midnightblue" d="M596.252,-224.403C612.151,-204.46 647.39,-153.582 631,-112 626.486,-100.548 617.531,-90.291 609.045,-82.4724"/>
<polygon fill="midnightblue" stroke="midnightblue" points="611.085,-79.6113 601.214,-75.7638 606.531,-84.9275 611.085,-79.6113"/>
</g>
<!-- Node10&#45;&gt;Node12 -->
<g id="edge11" class="edge"><title>Node10&#45;&gt;Node12</title>
<path fill="none" stroke="midnightblue" d="M569.669,-224.444C549.68,-215.596 518.257,-201.687 495.436,-191.586"/>
<polygon fill="midnightblue" stroke="midnightblue" points="496.802,-188.363 486.241,-187.516 493.968,-194.764 496.802,-188.363"/>
</g>
<!-- Node10&#45;&gt;Node14 -->
<g id="edge27" class="edge"><title>Node10&#45;&gt;Node14</title>
<path fill="none" stroke="midnightblue" d="M607.09,-224.354C623.021,-216.246 646.366,-203.126 664,-188 680.625,-173.739 696.225,-154.005 706.341,-140.031"/>
<polygon fill="midnightblue" stroke="midnightblue" points="709.246,-141.984 712.153,-131.796 703.527,-137.948 709.246,-141.984"/>
</g>
<!-- Node15 -->
<g id="node15" class="node"><title>Node15</title>
<g id="a_node15"><a xlink:href="ucxh__poll_8h.html" target="_top" xlink:title=" ">
<polygon fill="white" stroke="black" points="556,-112.5 556,-131.5 622,-131.5 622,-112.5 556,-112.5"/>
<text text-anchor="middle" x="589" y="-119.5" font-family="Helvetica,sans-Serif" font-size="10.00">ucxh_poll.h</text>
</a>
</g>
</g>
<!-- Node10&#45;&gt;Node15 -->
<g id="edge26" class="edge"><title>Node10&#45;&gt;Node15</title>
<path fill="none" stroke="midnightblue" d="M589,-224.368C589,-206.617 589,-165.666 589,-141.597"/>
<polygon fill="midnightblue" stroke="midnightblue" points="592.5,-141.591 589,-131.591 585.5,-141.591 592.5,-141.591"/>
</g>
<!-- Node12&#45;&gt;Node3 -->
<g id="edge13" class="edge"><title>Node12&#45;&gt;Node3</title>
<path fill="none" stroke="midnightblue" d="M451.593,-168.45C436.351,-159.802 412.536,-145.781 393,-132 370.791,-116.334 346.777,-96.3785 330.916,-82.7371"/>
<polygon fill="midnightblue" stroke="midnightblue" points="332.854,-79.7847 323.006,-75.8755 328.266,-85.0723 332.854,-79.7847"/>
</g>
<!-- Node12&#45;&gt;Node11 -->
<g id="edge14" class="edge"><title>Node12&#45;&gt;Node11</title>
<path fill="none" stroke="midnightblue" d="M476.573,-168.368C497.152,-149.814 545.842,-105.913 571.878,-82.4376"/>
<polygon fill="midnightblue" stroke="midnightblue" points="574.388,-84.8872 579.471,-75.5914 569.701,-79.6884 574.388,-84.8872"/>
</g>
<!-- Node13 -->
<g id="node13" class="node"><title>Node13</title>
<g id="a_node13"><a xlink:title=" ">
<polygon fill="white" stroke="#bfbfbf" points="402.5,-112.5 402.5,-131.5 461.5,-131.5 461.5,-112.5 402.5,-112.5"/>
<text text-anchor="middle" x="432" y="-119.5" font-family="Helvetica,sans-Serif" font-size="10.00">inttypes.h</text>
</a>
</g>
</g>
<!-- Node12&#45;&gt;Node13 -->
<g id="edge12" class="edge"><title>Node12&#45;&gt;Node13</title>
<path fill="none" stroke="midnightblue" d="M461.22,-168.083C456.328,-160.534 449.173,-149.495 443.167,-140.23"/>
<polygon fill="midnightblue" stroke="midnightblue" points="446.048,-138.239 437.672,-131.751 440.174,-142.046 446.048,-138.239"/>
</g>
<!-- Node12&#45;&gt;Node14 -->
<g id="edge15" class="edge"><title>Node12&#45;&gt;Node14</title>
<path fill="none" stroke="midnightblue" d="M506.219,-168.563C551.306,-158.862 625.189,-142.967 672.694,-132.747"/>
<polygon fill="midnightblue" stroke="midnightblue" points="673.663,-136.119 682.703,-130.594 672.19,-129.275 673.663,-136.119"/>
</g>
<!-- Node12&#45;&gt;Node15 -->
<g id="edge17" class="edge"><title>Node12&#45;&gt;Node15</title>
<path fill="none" stroke="midnightblue" d="M486.331,-168.444C506.32,-159.596 537.743,-145.687 560.564,-135.586"/>
<polygon fill="midnightblue" stroke="midnightblue" points="562.032,-138.764 569.759,-131.516 559.198,-132.363 562.032,-138.764"/>
</g>
<!-- Node12&#45;&gt;Node16 -->
<g id="edge20" class="edge"><title>Node12&#45;&gt;Node16</title>
<path fill="none" stroke="midnightblue" d="M429.13,-168.444C386.423,-158.794 317.072,-143.125 271.997,-132.941"/>
<polygon fill="midnightblue" stroke="midnightblue" points="272.734,-129.519 262.208,-130.729 271.191,-136.347 272.734,-129.519"/>
</g>
<!-- Node12&#45;&gt;Node17 -->
<g id="edge21" class="edge"><title>Node12&#45;&gt;Node17</title>
<path fill="none" stroke="midnightblue" d="M442.598,-168.444C416.803,-159.399 375.923,-145.064 346.982,-134.916"/>
<polygon fill="midnightblue" stroke="midnightblue" points="347.882,-131.523 337.288,-131.516 345.566,-138.128 347.882,-131.523"/>
</g>
<!-- Node14&#45;&gt;Node7 -->
<g id="edge16" class="edge"><title>Node14&#45;&gt;Node7</title>
<path fill="none" stroke="midnightblue" d="M725.101,-112.083C731.237,-104.377 740.27,-93.0333 747.739,-83.6531"/>
<polygon fill="midnightblue" stroke="midnightblue" points="750.54,-85.7542 754.032,-75.7511 745.064,-81.3936 750.54,-85.7542"/>
</g>
<!-- Node15&#45;&gt;Node3 -->
<g id="edge18" class="edge"><title>Node15&#45;&gt;Node3</title>
<path fill="none" stroke="midnightblue" d="M555.982,-114.54C504.499,-104.467 405.376,-85.0735 350.997,-74.4341"/>
<polygon fill="midnightblue" stroke="midnightblue" points="351.551,-70.9763 341.065,-72.4909 350.207,-77.846 351.551,-70.9763"/>
</g>
<!-- Node15&#45;&gt;Node11 -->
<g id="edge19" class="edge"><title>Node15&#45;&gt;Node11</title>
<path fill="none" stroke="midnightblue" d="M589,-112.083C589,-105.006 589,-94.8611 589,-85.9865"/>
<polygon fill="midnightblue" stroke="midnightblue" points="592.5,-85.751 589,-75.7511 585.5,-85.7511 592.5,-85.751"/>
</g>
<!-- Node17&#45;&gt;Node3 -->
<g id="edge22" class="edge"><title>Node17&#45;&gt;Node3</title>
<path fill="none" stroke="midnightblue" d="M313,-112.083C313,-105.006 313,-94.8611 313,-85.9865"/>
<polygon fill="midnightblue" stroke="midnightblue" points="316.5,-85.751 313,-75.7511 309.5,-85.7511 316.5,-85.751"/>
</g>
<!-- Node18 -->
<g id="node18" class="node"><title>Node18</title>
<g id="a_node18"><a xlink:href="ucxh__urc_8h.html" target="_top" xlink:title=" ">
<polygon fill="white" stroke="black" points="408.5,-56.5 408.5,-75.5 473.5,-75.5 473.5,-56.5 408.5,-56.5"/>
<text text-anchor="middle" x="441" y="-63.5" font-family="Helvetica,sans-Serif" font-size="10.00">ucxh_urc.h</text>
</a>
</g>
</g>
<!-- Node17&#45;&gt;Node18 -->
<g id="edge23" class="edge"><title>Node17&#45;&gt;Node18</title>
<path fill="none" stroke="midnightblue" d="M333.282,-112.444C354.347,-103.557 387.517,-89.5632 411.486,-79.4514"/>
<polygon fill="midnightblue" stroke="midnightblue" points="412.96,-82.6283 420.813,-75.5164 410.239,-76.1787 412.96,-82.6283"/>
</g>
<!-- Node18&#45;&gt;Node12 -->
<g id="edge24" class="edge"><title>Node18&#45;&gt;Node12</title>
<path fill="none" stroke="midnightblue" d="M448.673,-75.5413C455.779,-84.0728 465.854,-97.9125 470,-112 474.44,-127.087 473.164,-144.988 471.075,-158.181"/>
<polygon fill="midnightblue" stroke="midnightblue" points="467.567,-157.898 469.154,-168.373 474.446,-159.194 467.567,-157.898"/>
</g>
<!-- Node19 -->
<g id="node19" class="node"><title>Node19</title>
<g id="a_node19"><a xlink:href="autogenerated_8h.html" target="_top" xlink:title="Automatically generated function prototypes and documentation.">
<polygon fill="white" stroke="black" points="398,-0.5 398,-19.5 484,-19.5 484,-0.5 398,-0.5"/>
<text text-anchor="middle" x="441" y="-7.5" font-family="Helvetica,sans-Serif" font-size="10.00">autogenerated.h</text>
</a>
</g>
</g>
<!-- Node18&#45;&gt;Node19 -->
<g id="edge25" class="edge"><title>Node18&#45;&gt;Node19</title>
<path fill="none" stroke="midnightblue" d="M441,-56.083C441,-49.0059 441,-38.8611 441,-29.9865"/>
<polygon fill="midnightblue" stroke="midnightblue" points="444.5,-29.751 441,-19.7511 437.5,-29.7511 444.5,-29.751"/>
</g>
<!-- Node21&#45;&gt;Node4 -->
<g id="edge31" class="edge"><title>Node21&#45;&gt;Node4</title>
<path fill="none" stroke="midnightblue" d="M263.717,-224.324C254.164,-216.263 239.72,-204.077 228.216,-194.369"/>
<polygon fill="midnightblue" stroke="midnightblue" points="230.37,-191.608 220.47,-187.834 225.856,-196.958 230.37,-191.608"/>
</g>
<!-- Node22&#45;&gt;Node3 -->
<g id="edge36" class="edge"><title>Node22&#45;&gt;Node3</title>
<path fill="none" stroke="midnightblue" d="M145.347,-224.361C146.692,-202.489 153.231,-144.372 185,-112 208.878,-87.6685 246.668,-76.4657 275.008,-71.3238"/>
<polygon fill="midnightblue" stroke="midnightblue" points="275.675,-74.7612 284.978,-69.6906 274.544,-67.8533 275.675,-74.7612"/>
</g>
<!-- Node22&#45;&gt;Node4 -->
<g id="edge37" class="edge"><title>Node22&#45;&gt;Node4</title>
<path fill="none" stroke="midnightblue" d="M155.443,-224.324C165.146,-216.263 179.815,-204.077 191.5,-194.369"/>
<polygon fill="midnightblue" stroke="midnightblue" points="193.911,-196.916 199.367,-187.834 189.438,-191.532 193.911,-196.916"/>
</g>
</g>
</svg>
