<?xml version="1.0" encoding="UTF-8" standalone="no"?>
<!DOCTYPE svg PUBLIC "-//W3C//DTD SVG 1.1//EN"
 "http://www.w3.org/Graphics/SVG/1.1/DTD/svg11.dtd">
<!-- Generated by graphviz version 2.38.0 (20140413.2041)
 -->
<!-- Title: ex_config.h Pages: 1 -->
<svg width="1434pt" height="84pt"
 viewBox="0.00 0.00 1433.50 84.00" xmlns="http://www.w3.org/2000/svg" xmlns:xlink="http://www.w3.org/1999/xlink">
<g id="graph0" class="graph" transform="scale(1 1) rotate(0) translate(4 80)">
<title>ex_config.h</title>
<polygon fill="white" stroke="none" points="-4,4 -4,-80 1429.5,-80 1429.5,4 -4,4"/>
<!-- Node1 -->
<g id="node1" class="node"><title>Node1</title>
<g id="a_node1"><a xlink:title=" ">
<polygon fill="#bfbfbf" stroke="black" points="679.5,-56.5 679.5,-75.5 745.5,-75.5 745.5,-56.5 679.5,-56.5"/>
<text text-anchor="middle" x="712.5" y="-63.5" font-family="Helvetica,sans-Serif" font-size="10.00">ex_config.h</text>
</a>
</g>
</g>
<!-- Node2 -->
<g id="node2" class="node"><title>Node2</title>
<g id="a_node2"><a xlink:href="ex__callbacks__edm__wifi_8c.html" target="_top" xlink:title=" ">
<polygon fill="white" stroke="black" points="0,-0.5 0,-19.5 125,-19.5 125,-0.5 0,-0.5"/>
<text text-anchor="middle" x="62.5" y="-7.5" font-family="Helvetica,sans-Serif" font-size="10.00">ex_callbacks_edm_wifi.c</text>
</a>
</g>
</g>
<!-- Node1&#45;&gt;Node2 -->
<g id="edge1" class="edge"><title>Node1&#45;&gt;Node2</title>
<path fill="none" stroke="midnightblue" d="M668.989,-62.3087C572.596,-56.1937 333.813,-40.2046 134.5,-20 131.492,-19.6951 128.415,-19.3682 125.309,-19.0262"/>
<polygon fill="midnightblue" stroke="midnightblue" points="669.02,-65.8175 679.22,-62.9545 669.461,-58.8314 669.02,-65.8175"/>
</g>
<!-- Node3 -->
<g id="node3" class="node"><title>Node3</title>
<g id="a_node3"><a xlink:href="ex__readmisc_8c.html" target="_top" xlink:title=" ">
<polygon fill="white" stroke="black" points="143.5,-0.5 143.5,-19.5 223.5,-19.5 223.5,-0.5 143.5,-0.5"/>
<text text-anchor="middle" x="183.5" y="-7.5" font-family="Helvetica,sans-Serif" font-size="10.00">ex_readmisc.c</text>
</a>
</g>
</g>
<!-- Node1&#45;&gt;Node3 -->
<g id="edge2" class="edge"><title>Node1&#45;&gt;Node3</title>
<path fill="none" stroke="midnightblue" d="M668.979,-62.211C584.543,-56.5146 392.708,-42.1787 232.5,-20 229.587,-19.5967 226.584,-19.1418 223.565,-18.6561"/>
<polygon fill="midnightblue" stroke="midnightblue" points="669.002,-65.7202 679.213,-62.8944 669.469,-58.7358 669.002,-65.7202"/>
</g>
<!-- Node4 -->
<g id="node4" class="node"><title>Node4</title>
<g id="a_node4"><a xlink:href="test__at__peer_8c.html" target="_top" xlink:title="Tests from chapter 5: AT&#45;commands UDDPRP and ucxhCOMMAND_writeDefaultRemotePeer() .">
<polygon fill="white" stroke="black" points="242,-0.5 242,-19.5 321,-19.5 321,-0.5 242,-0.5"/>
<text text-anchor="middle" x="281.5" y="-7.5" font-family="Helvetica,sans-Serif" font-size="10.00">test_at_peer.c</text>
</a>
</g>
</g>
<!-- Node1&#45;&gt;Node4 -->
<g id="edge3" class="edge"><title>Node1&#45;&gt;Node4</title>
<path fill="none" stroke="midnightblue" d="M669.116,-60.8082C598.132,-53.7437 452.821,-38.4188 330.5,-20 327.421,-19.5364 324.239,-19.0252 321.044,-18.4889"/>
<polygon fill="midnightblue" stroke="midnightblue" points="669.151,-64.3287 679.447,-61.8302 669.84,-57.3627 669.151,-64.3287"/>
</g>
<!-- Node5 -->
<g id="node5" class="node"><title>Node5</title>
<g id="a_node5"><a xlink:href="test__at__wifi_8c.html" target="_top" xlink:title="Tests from chapter 17, 10: AT&#45;commands UWSSTAT UNSTAT UWSCA UWSC and MODULE_writeWifiStationConfigura...">
<polygon fill="white" stroke="black" points="339.5,-0.5 339.5,-19.5 413.5,-19.5 413.5,-0.5 339.5,-0.5"/>
<text text-anchor="middle" x="376.5" y="-7.5" font-family="Helvetica,sans-Serif" font-size="10.00">test_at_wifi.c</text>
</a>
</g>
</g>
<!-- Node1&#45;&gt;Node5 -->
<g id="edge4" class="edge"><title>Node1&#45;&gt;Node5</title>
<path fill="none" stroke="midnightblue" d="M669.333,-58.8422C612.601,-50.6256 509.901,-35.3251 422.5,-20 419.615,-19.4941 416.631,-18.9524 413.634,-18.3952"/>
<polygon fill="midnightblue" stroke="midnightblue" points="668.979,-62.3273 679.377,-60.2923 669.98,-55.3992 668.979,-62.3273"/>
</g>
<!-- Node6 -->
<g id="node6" class="node"><title>Node6</title>
<g id="a_node6"><a xlink:href="test__ati9_8c.html" target="_top" xlink:title="Tests Hello, World / Issue AT command.">
<polygon fill="white" stroke="black" points="431.5,-0.5 431.5,-19.5 493.5,-19.5 493.5,-0.5 431.5,-0.5"/>
<text text-anchor="middle" x="462.5" y="-7.5" font-family="Helvetica,sans-Serif" font-size="10.00">test_ati9.c</text>
</a>
</g>
</g>
<!-- Node1&#45;&gt;Node6 -->
<g id="edge5" class="edge"><title>Node1&#45;&gt;Node6</title>
<path fill="none" stroke="midnightblue" d="M669.387,-55.8959C626.915,-46.8957 560.199,-32.6729 502.5,-20 499.58,-19.3587 496.541,-18.6855 493.502,-18.0083"/>
<polygon fill="midnightblue" stroke="midnightblue" points="668.871,-59.3643 679.379,-58.0119 670.321,-52.5161 668.871,-59.3643"/>
</g>
<!-- Node7 -->
<g id="node7" class="node"><title>Node7</title>
<g id="a_node7"><a xlink:href="test__datamode_8c.html" target="_top" xlink:title="Tests transmit over Data mode.">
<polygon fill="white" stroke="black" points="512,-0.5 512,-19.5 601,-19.5 601,-0.5 512,-0.5"/>
<text text-anchor="middle" x="556.5" y="-7.5" font-family="Helvetica,sans-Serif" font-size="10.00">test_datamode.c</text>
</a>
</g>
</g>
<!-- Node1&#45;&gt;Node7 -->
<g id="edge6" class="edge"><title>Node1&#45;&gt;Node7</title>
<path fill="none" stroke="midnightblue" d="M678.33,-53.172C648.956,-43.0039 607.302,-28.5852 581.103,-19.5164"/>
<polygon fill="midnightblue" stroke="midnightblue" points="677.187,-56.4798 687.781,-56.4435 679.476,-49.8649 677.187,-56.4798"/>
</g>
<!-- Node8 -->
<g id="node8" class="node"><title>Node8</title>
<g id="a_node8"><a xlink:href="test__edm__at_8c.html" target="_top" xlink:title="Hello, World / Issue AT command using EDM.">
<polygon fill="white" stroke="black" points="619,-0.5 619,-19.5 698,-19.5 698,-0.5 619,-0.5"/>
<text text-anchor="middle" x="658.5" y="-7.5" font-family="Helvetica,sans-Serif" font-size="10.00">test_edm_at.c</text>
</a>
</g>
</g>
<!-- Node1&#45;&gt;Node8 -->
<g id="edge7" class="edge"><title>Node1&#45;&gt;Node8</title>
<path fill="none" stroke="midnightblue" d="M696.502,-49.0024C686.933,-39.4329 675.139,-27.6389 667.251,-19.7511"/>
<polygon fill="midnightblue" stroke="midnightblue" points="694.037,-51.4868 703.583,-56.083 698.987,-46.537 694.037,-51.4868"/>
</g>
<!-- Node9 -->
<g id="node9" class="node"><title>Node9</title>
<g id="a_node9"><a xlink:href="test__edm__at__read_8c.html" target="_top" xlink:title="Tests, using EDM, read status from the module.">
<polygon fill="white" stroke="black" points="716,-0.5 716,-19.5 819,-19.5 819,-0.5 716,-0.5"/>
<text text-anchor="middle" x="767.5" y="-7.5" font-family="Helvetica,sans-Serif" font-size="10.00">test_edm_at_read.c</text>
</a>
</g>
</g>
<!-- Node1&#45;&gt;Node9 -->
<g id="edge8" class="edge"><title>Node1&#45;&gt;Node9</title>
<path fill="none" stroke="midnightblue" d="M728.794,-49.0024C738.541,-39.4329 750.553,-27.6389 758.587,-19.7511"/>
<polygon fill="midnightblue" stroke="midnightblue" points="726.266,-46.5796 721.582,-56.083 731.17,-51.5746 726.266,-46.5796"/>
</g>
<!-- Node10 -->
<g id="node10" class="node"><title>Node10</title>
<g id="a_node10"><a xlink:href="test__getgeneral_8c.html" target="_top" xlink:title="Tests from chapter 3: AT&#45;commands I, GMI, GMM, GMR, GSN .">
<polygon fill="white" stroke="black" points="837.5,-0.5 837.5,-19.5 929.5,-19.5 929.5,-0.5 837.5,-0.5"/>
<text text-anchor="middle" x="883.5" y="-7.5" font-family="Helvetica,sans-Serif" font-size="10.00">test_getgeneral.c</text>
</a>
</g>
</g>
<!-- Node1&#45;&gt;Node10 -->
<g id="edge9" class="edge"><title>Node1&#45;&gt;Node10</title>
<path fill="none" stroke="midnightblue" d="M749.536,-53.3044C781.757,-43.1294 827.689,-28.6246 856.531,-19.5164"/>
<polygon fill="midnightblue" stroke="midnightblue" points="748.077,-50.0946 739.595,-56.4435 750.185,-56.7697 748.077,-50.0946"/>
</g>
<!-- Node11 -->
<g id="node11" class="node"><title>Node11</title>
<g id="a_node11"><a xlink:href="test__getsystem_8c.html" target="_top" xlink:title="Tests from chapter 4: AT&#45;commands +UMLA .">
<polygon fill="white" stroke="black" points="947.5,-0.5 947.5,-19.5 1039.5,-19.5 1039.5,-0.5 947.5,-0.5"/>
<text text-anchor="middle" x="993.5" y="-7.5" font-family="Helvetica,sans-Serif" font-size="10.00">test_getsystem.c</text>
</a>
</g>
</g>
<!-- Node1&#45;&gt;Node11 -->
<g id="edge10" class="edge"><title>Node1&#45;&gt;Node11</title>
<path fill="none" stroke="midnightblue" d="M755.544,-56.7282C807.942,-46.6588 895.982,-29.7402 949.021,-19.5476"/>
<polygon fill="midnightblue" stroke="midnightblue" points="754.72,-53.3224 745.561,-58.6467 756.041,-60.1966 754.72,-53.3224"/>
</g>
<!-- Node12 -->
<g id="node12" class="node"><title>Node12</title>
<g id="a_node12"><a xlink:href="test__mock__ati9_8c.html" target="_top" xlink:title="Hello, World / Issue AT command to mocked serial driver.">
<polygon fill="white" stroke="black" points="1057.5,-0.5 1057.5,-19.5 1149.5,-19.5 1149.5,-0.5 1057.5,-0.5"/>
<text text-anchor="middle" x="1103.5" y="-7.5" font-family="Helvetica,sans-Serif" font-size="10.00">test_mock_ati9.c</text>
</a>
</g>
</g>
<!-- Node1&#45;&gt;Node12 -->
<g id="edge11" class="edge"><title>Node1&#45;&gt;Node12</title>
<path fill="none" stroke="midnightblue" d="M756.072,-59.5752C820.198,-51.4985 943.727,-35.5851 1048.5,-20 1051.37,-19.5729 1054.32,-19.1223 1057.3,-18.6596"/>
<polygon fill="midnightblue" stroke="midnightblue" points="755.414,-56.1303 745.929,-60.8499 756.287,-63.0757 755.414,-56.1303"/>
</g>
<!-- Node13 -->
<g id="node13" class="node"><title>Node13</title>
<g id="a_node13"><a xlink:href="test__send_8c.html" target="_top" xlink:title="Tests the functions used for building and sending AT commands.">
<polygon fill="white" stroke="black" points="1167.5,-0.5 1167.5,-19.5 1235.5,-19.5 1235.5,-0.5 1167.5,-0.5"/>
<text text-anchor="middle" x="1201.5" y="-7.5" font-family="Helvetica,sans-Serif" font-size="10.00">test_send.c</text>
</a>
</g>
</g>
<!-- Node1&#45;&gt;Node13 -->
<g id="edge12" class="edge"><title>Node1&#45;&gt;Node13</title>
<path fill="none" stroke="midnightblue" d="M755.838,-62.1575C835.769,-56.5757 1011.66,-42.7099 1158.5,-20 1161.36,-19.557 1164.33,-19.0473 1167.29,-18.5003"/>
<polygon fill="midnightblue" stroke="midnightblue" points="755.399,-58.6794 745.663,-62.8593 755.88,-65.6628 755.399,-58.6794"/>
</g>
<!-- Node14 -->
<g id="node14" class="node"><title>Node14</title>
<g id="a_node14"><a xlink:href="test__tokenizer_8c.html" target="_top" xlink:title="Tests the tokenizer of the URC parser.">
<polygon fill="white" stroke="black" points="1253.5,-0.5 1253.5,-19.5 1339.5,-19.5 1339.5,-0.5 1253.5,-0.5"/>
<text text-anchor="middle" x="1296.5" y="-7.5" font-family="Helvetica,sans-Serif" font-size="10.00">test_tokenizer.c</text>
</a>
</g>
</g>
<!-- Node1&#45;&gt;Node14 -->
<g id="edge13" class="edge"><title>Node1&#45;&gt;Node14</title>
<path fill="none" stroke="midnightblue" d="M755.787,-62.6188C846.618,-57.341 1063.66,-43.2538 1244.5,-20 1247.41,-19.6261 1250.4,-19.205 1253.41,-18.7545"/>
<polygon fill="midnightblue" stroke="midnightblue" points="755.385,-59.1361 745.602,-63.2043 755.786,-66.1245 755.385,-59.1361"/>
</g>
<!-- Node15 -->
<g id="node15" class="node"><title>Node15</title>
<g id="a_node15"><a xlink:href="test__tools_8c.html" target="_top" xlink:title=" ">
<polygon fill="white" stroke="black" points="1357.5,-0.5 1357.5,-19.5 1425.5,-19.5 1425.5,-0.5 1357.5,-0.5"/>
<text text-anchor="middle" x="1391.5" y="-7.5" font-family="Helvetica,sans-Serif" font-size="10.00">test_tools.c</text>
</a>
</g>
</g>
<!-- Node1&#45;&gt;Node15 -->
<g id="edge14" class="edge"><title>Node1&#45;&gt;Node15</title>
<path fill="none" stroke="midnightblue" d="M755.803,-63.9606C858.925,-61.0453 1126.97,-50.8745 1348.5,-20 1351.37,-19.5999 1354.34,-19.1203 1357.31,-18.5936"/>
<polygon fill="midnightblue" stroke="midnightblue" points="755.671,-60.4628 745.771,-64.2358 755.863,-67.4601 755.671,-60.4628"/>
</g>
</g>
</svg>
