<?xml version="1.0" encoding="UTF-8" standalone="no"?>
<!DOCTYPE svg PUBLIC "-//W3C//DTD SVG 1.1//EN"
 "http://www.w3.org/Graphics/SVG/1.1/DTD/svg11.dtd">
<!-- Generated by graphviz version 2.38.0 (20140413.2041)
 -->
<!-- Title: ex_config.h Pages: 1 -->
<svg width="1621pt" height="84pt"
 viewBox="0.00 0.00 1620.50 84.00" xmlns="http://www.w3.org/2000/svg" xmlns:xlink="http://www.w3.org/1999/xlink">
<g id="graph0" class="graph" transform="scale(1 1) rotate(0) translate(4 80)">
<title>ex_config.h</title>
<polygon fill="white" stroke="none" points="-4,4 -4,-80 1616.5,-80 1616.5,4 -4,4"/>
<!-- Node1 -->
<g id="node1" class="node"><title>Node1</title>
<g id="a_node1"><a xlink:title=" ">
<polygon fill="#bfbfbf" stroke="black" points="761.5,-56.5 761.5,-75.5 827.5,-75.5 827.5,-56.5 761.5,-56.5"/>
<text text-anchor="middle" x="794.5" y="-63.5" font-family="Helvetica,sans-Serif" font-size="10.00">ex_config.h</text>
</a>
</g>
</g>
<!-- Node2 -->
<g id="node2" class="node"><title>Node2</title>
<g id="a_node2"><a xlink:href="ex__callbacks__edm__wifi_8c.html" target="_top" xlink:title=" ">
<polygon fill="white" stroke="black" points="0,-0.5 0,-19.5 125,-19.5 125,-0.5 0,-0.5"/>
<text text-anchor="middle" x="62.5" y="-7.5" font-family="Helvetica,sans-Serif" font-size="10.00">ex_callbacks_edm_wifi.c</text>
</a>
</g>
</g>
<!-- Node1&#45;&gt;Node2 -->
<g id="edge1" class="edge"><title>Node1&#45;&gt;Node2</title>
<path fill="none" stroke="midnightblue" d="M751.23,-62.8944C645.673,-57.574 366.597,-42.4006 134.5,-20 131.491,-19.7096 128.413,-19.3945 125.306,-19.0619"/>
<polygon fill="midnightblue" stroke="midnightblue" points="751.32,-66.4032 761.482,-63.4076 751.67,-59.412 751.32,-66.4032"/>
</g>
<!-- Node3 -->
<g id="node3" class="node"><title>Node3</title>
<g id="a_node3"><a xlink:href="ex__http__get_8c.html" target="_top" xlink:title=" ">
<polygon fill="white" stroke="black" points="143.5,-0.5 143.5,-19.5 219.5,-19.5 219.5,-0.5 143.5,-0.5"/>
<text text-anchor="middle" x="181.5" y="-7.5" font-family="Helvetica,sans-Serif" font-size="10.00">ex_http_get.c</text>
</a>
</g>
</g>
<!-- Node1&#45;&gt;Node3 -->
<g id="edge2" class="edge"><title>Node1&#45;&gt;Node3</title>
<path fill="none" stroke="midnightblue" d="M751.093,-63.1772C656.037,-58.8292 422.464,-46.2009 228.5,-20 225.618,-19.6107 222.646,-19.1597 219.662,-18.671"/>
<polygon fill="midnightblue" stroke="midnightblue" points="751.043,-66.6784 761.19,-63.6316 751.357,-59.6855 751.043,-66.6784"/>
</g>
<!-- Node4 -->
<g id="node4" class="node"><title>Node4</title>
<g id="a_node4"><a xlink:href="ex__readmisc_8c.html" target="_top" xlink:title=" ">
<polygon fill="white" stroke="black" points="237.5,-0.5 237.5,-19.5 317.5,-19.5 317.5,-0.5 237.5,-0.5"/>
<text text-anchor="middle" x="277.5" y="-7.5" font-family="Helvetica,sans-Serif" font-size="10.00">ex_readmisc.c</text>
</a>
</g>
</g>
<!-- Node1&#45;&gt;Node4 -->
<g id="edge3" class="edge"><title>Node1&#45;&gt;Node4</title>
<path fill="none" stroke="midnightblue" d="M751.454,-62.102C668.819,-56.2642 482.324,-41.7611 326.5,-20 323.588,-19.5933 320.584,-19.1358 317.566,-18.6483"/>
<polygon fill="midnightblue" stroke="midnightblue" points="751.257,-65.5967 761.477,-62.8034 751.746,-58.6138 751.257,-65.5967"/>
</g>
<!-- Node5 -->
<g id="node5" class="node"><title>Node5</title>
<g id="a_node5"><a xlink:href="ex__wifi__pos_8c.html" target="_top" xlink:title=" ">
<polygon fill="white" stroke="black" points="336,-0.5 336,-19.5 411,-19.5 411,-0.5 336,-0.5"/>
<text text-anchor="middle" x="373.5" y="-7.5" font-family="Helvetica,sans-Serif" font-size="10.00">ex_wifi_pos.c</text>
</a>
</g>
</g>
<!-- Node1&#45;&gt;Node5 -->
<g id="edge4" class="edge"><title>Node1&#45;&gt;Node5</title>
<path fill="none" stroke="midnightblue" d="M751.08,-60.8407C681.076,-53.8989 539.022,-38.8373 419.5,-20 416.767,-19.5693 413.949,-19.0942 411.116,-18.5941"/>
<polygon fill="midnightblue" stroke="midnightblue" points="750.984,-64.348 761.279,-61.845 751.67,-57.3817 750.984,-64.348"/>
</g>
<!-- Node6 -->
<g id="node6" class="node"><title>Node6</title>
<g id="a_node6"><a xlink:href="test__at__peer_8c.html" target="_top" xlink:title="Tests from chapter 5: AT&#45;commands UDDPRP and ucxhCOMMAND_writeDefaultRemotePeer() .">
<polygon fill="white" stroke="black" points="429,-0.5 429,-19.5 508,-19.5 508,-0.5 429,-0.5"/>
<text text-anchor="middle" x="468.5" y="-7.5" font-family="Helvetica,sans-Serif" font-size="10.00">test_at_peer.c</text>
</a>
</g>
</g>
<!-- Node1&#45;&gt;Node6 -->
<g id="edge5" class="edge"><title>Node1&#45;&gt;Node6</title>
<path fill="none" stroke="midnightblue" d="M751.196,-58.2479C696.64,-49.6764 600.034,-34.2821 517.5,-20 514.432,-19.4691 511.258,-18.9095 508.068,-18.3398"/>
<polygon fill="midnightblue" stroke="midnightblue" points="750.783,-61.7259 761.205,-59.818 751.868,-54.8105 750.783,-61.7259"/>
</g>
<!-- Node7 -->
<g id="node7" class="node"><title>Node7</title>
<g id="a_node7"><a xlink:href="test__at__wifi_8c.html" target="_top" xlink:title="Tests from chapter 17, 10: AT&#45;commands UWSSTAT UNSTAT UWSCA UWSC and MODULE_writeWifiStationConfigura...">
<polygon fill="white" stroke="black" points="526.5,-0.5 526.5,-19.5 600.5,-19.5 600.5,-0.5 526.5,-0.5"/>
<text text-anchor="middle" x="563.5" y="-7.5" font-family="Helvetica,sans-Serif" font-size="10.00">test_at_wifi.c</text>
</a>
</g>
</g>
<!-- Node1&#45;&gt;Node7 -->
<g id="edge6" class="edge"><title>Node1&#45;&gt;Node7</title>
<path fill="none" stroke="midnightblue" d="M751.656,-54.9846C708.034,-44.7872 641.13,-29.1474 599.965,-19.5243"/>
<polygon fill="midnightblue" stroke="midnightblue" points="750.869,-58.3949 761.403,-57.2631 752.463,-51.5786 750.869,-58.3949"/>
</g>
<!-- Node8 -->
<g id="node8" class="node"><title>Node8</title>
<g id="a_node8"><a xlink:href="test__ati9_8c.html" target="_top" xlink:title="Tests Hello, World / Issue AT command.">
<polygon fill="white" stroke="black" points="618.5,-0.5 618.5,-19.5 680.5,-19.5 680.5,-0.5 618.5,-0.5"/>
<text text-anchor="middle" x="649.5" y="-7.5" font-family="Helvetica,sans-Serif" font-size="10.00">test_ati9.c</text>
</a>
</g>
</g>
<!-- Node1&#45;&gt;Node8 -->
<g id="edge7" class="edge"><title>Node1&#45;&gt;Node8</title>
<path fill="none" stroke="midnightblue" d="M762.025,-52.9058C734.764,-42.7536 696.508,-28.5063 672.368,-19.5164"/>
<polygon fill="midnightblue" stroke="midnightblue" points="760.932,-56.2334 771.524,-56.4435 763.375,-49.6736 760.932,-56.2334"/>
</g>
<!-- Node9 -->
<g id="node9" class="node"><title>Node9</title>
<g id="a_node9"><a xlink:href="test__datamode_8c.html" target="_top" xlink:title="Tests transmit over Data mode.">
<polygon fill="white" stroke="black" points="699,-0.5 699,-19.5 788,-19.5 788,-0.5 699,-0.5"/>
<text text-anchor="middle" x="743.5" y="-7.5" font-family="Helvetica,sans-Serif" font-size="10.00">test_datamode.c</text>
</a>
</g>
</g>
<!-- Node1&#45;&gt;Node9 -->
<g id="edge8" class="edge"><title>Node1&#45;&gt;Node9</title>
<path fill="none" stroke="midnightblue" d="M779.122,-48.7175C770.133,-39.1997 759.141,-27.5608 751.765,-19.7511"/>
<polygon fill="midnightblue" stroke="midnightblue" points="776.668,-51.216 786.078,-56.083 781.757,-46.4096 776.668,-51.216"/>
</g>
<!-- Node10 -->
<g id="node10" class="node"><title>Node10</title>
<g id="a_node10"><a xlink:href="test__edm__at_8c.html" target="_top" xlink:title="Hello, World / Issue AT command using EDM.">
<polygon fill="white" stroke="black" points="806,-0.5 806,-19.5 885,-19.5 885,-0.5 806,-0.5"/>
<text text-anchor="middle" x="845.5" y="-7.5" font-family="Helvetica,sans-Serif" font-size="10.00">test_edm_at.c</text>
</a>
</g>
</g>
<!-- Node1&#45;&gt;Node10 -->
<g id="edge9" class="edge"><title>Node1&#45;&gt;Node10</title>
<path fill="none" stroke="midnightblue" d="M809.878,-48.7175C818.867,-39.1997 829.859,-27.5608 837.235,-19.7511"/>
<polygon fill="midnightblue" stroke="midnightblue" points="807.243,-46.4096 802.922,-56.083 812.332,-51.216 807.243,-46.4096"/>
</g>
<!-- Node11 -->
<g id="node11" class="node"><title>Node11</title>
<g id="a_node11"><a xlink:href="test__edm__at__read_8c.html" target="_top" xlink:title="Tests, using EDM, read status from the module.">
<polygon fill="white" stroke="black" points="903,-0.5 903,-19.5 1006,-19.5 1006,-0.5 903,-0.5"/>
<text text-anchor="middle" x="954.5" y="-7.5" font-family="Helvetica,sans-Serif" font-size="10.00">test_edm_at_read.c</text>
</a>
</g>
</g>
<!-- Node1&#45;&gt;Node11 -->
<g id="edge10" class="edge"><title>Node1&#45;&gt;Node11</title>
<path fill="none" stroke="midnightblue" d="M829.546,-53.172C859.674,-43.0039 902.396,-28.5852 929.266,-19.5164"/>
<polygon fill="midnightblue" stroke="midnightblue" points="828.208,-49.9295 819.852,-56.4435 830.447,-56.5619 828.208,-49.9295"/>
</g>
<!-- Node12 -->
<g id="node12" class="node"><title>Node12</title>
<g id="a_node12"><a xlink:href="test__getgeneral_8c.html" target="_top" xlink:title="Tests from chapter 3: AT&#45;commands I, GMI, GMM, GMR, GSN .">
<polygon fill="white" stroke="black" points="1024.5,-0.5 1024.5,-19.5 1116.5,-19.5 1116.5,-0.5 1024.5,-0.5"/>
<text text-anchor="middle" x="1070.5" y="-7.5" font-family="Helvetica,sans-Serif" font-size="10.00">test_getgeneral.c</text>
</a>
</g>
</g>
<!-- Node1&#45;&gt;Node12 -->
<g id="edge11" class="edge"><title>Node1&#45;&gt;Node12</title>
<path fill="none" stroke="midnightblue" d="M837.356,-56.6151C888.954,-46.52 975.127,-29.6599 1027.01,-19.5095"/>
<polygon fill="midnightblue" stroke="midnightblue" points="836.66,-53.1849 827.518,-58.54 838.004,-60.0547 836.66,-53.1849"/>
</g>
<!-- Node13 -->
<g id="node13" class="node"><title>Node13</title>
<g id="a_node13"><a xlink:href="test__getsystem_8c.html" target="_top" xlink:title="Tests from chapter 4: AT&#45;commands +UMLA .">
<polygon fill="white" stroke="black" points="1134.5,-0.5 1134.5,-19.5 1226.5,-19.5 1226.5,-0.5 1134.5,-0.5"/>
<text text-anchor="middle" x="1180.5" y="-7.5" font-family="Helvetica,sans-Serif" font-size="10.00">test_getsystem.c</text>
</a>
</g>
</g>
<!-- Node1&#45;&gt;Node13 -->
<g id="edge12" class="edge"><title>Node1&#45;&gt;Node13</title>
<path fill="none" stroke="midnightblue" d="M837.921,-59.4778C901.228,-51.3401 1022.55,-35.4191 1125.5,-20 1128.37,-19.5701 1131.32,-19.1173 1134.3,-18.653"/>
<polygon fill="midnightblue" stroke="midnightblue" points="837.374,-56.0192 827.9,-60.7631 838.264,-62.9624 837.374,-56.0192"/>
</g>
<!-- Node14 -->
<g id="node14" class="node"><title>Node14</title>
<g id="a_node14"><a xlink:href="test__mock__ati9_8c.html" target="_top" xlink:title="Hello, World / Issue AT command to mocked serial driver.">
<polygon fill="white" stroke="black" points="1244.5,-0.5 1244.5,-19.5 1336.5,-19.5 1336.5,-0.5 1244.5,-0.5"/>
<text text-anchor="middle" x="1290.5" y="-7.5" font-family="Helvetica,sans-Serif" font-size="10.00">test_mock_ati9.c</text>
</a>
</g>
</g>
<!-- Node1&#45;&gt;Node14 -->
<g id="edge13" class="edge"><title>Node1&#45;&gt;Node14</title>
<path fill="none" stroke="midnightblue" d="M837.857,-61.4525C917.02,-54.7803 1090.2,-39.2829 1235.5,-20 1238.38,-19.6181 1241.34,-19.2021 1244.32,-18.7653"/>
<polygon fill="midnightblue" stroke="midnightblue" points="837.446,-57.9745 827.773,-62.2974 838.031,-64.9501 837.446,-57.9745"/>
</g>
<!-- Node15 -->
<g id="node15" class="node"><title>Node15</title>
<g id="a_node15"><a xlink:href="test__send_8c.html" target="_top" xlink:title="Tests the functions used for building and sending AT commands.">
<polygon fill="white" stroke="black" points="1354.5,-0.5 1354.5,-19.5 1422.5,-19.5 1422.5,-0.5 1354.5,-0.5"/>
<text text-anchor="middle" x="1388.5" y="-7.5" font-family="Helvetica,sans-Serif" font-size="10.00">test_send.c</text>
</a>
</g>
</g>
<!-- Node1&#45;&gt;Node15 -->
<g id="edge14" class="edge"><title>Node1&#45;&gt;Node15</title>
<path fill="none" stroke="midnightblue" d="M837.75,-63.3061C930.957,-59.2531 1157.55,-47.2359 1345.5,-20 1348.37,-19.5844 1351.33,-19.0938 1354.3,-18.5597"/>
<polygon fill="midnightblue" stroke="midnightblue" points="837.419,-59.8169 827.578,-63.7396 837.718,-66.8105 837.419,-59.8169"/>
</g>
<!-- Node16 -->
<g id="node16" class="node"><title>Node16</title>
<g id="a_node16"><a xlink:href="test__tokenizer_8c.html" target="_top" xlink:title="Tests the tokenizer of the URC parser.">
<polygon fill="white" stroke="black" points="1440.5,-0.5 1440.5,-19.5 1526.5,-19.5 1526.5,-0.5 1440.5,-0.5"/>
<text text-anchor="middle" x="1483.5" y="-7.5" font-family="Helvetica,sans-Serif" font-size="10.00">test_tokenizer.c</text>
</a>
</g>
</g>
<!-- Node1&#45;&gt;Node16 -->
<g id="edge15" class="edge"><title>Node1&#45;&gt;Node16</title>
<path fill="none" stroke="midnightblue" d="M837.804,-63.4485C940.942,-59.4249 1209.12,-47.0294 1431.5,-20 1434.41,-19.6462 1437.41,-19.2403 1440.42,-18.8008"/>
<polygon fill="midnightblue" stroke="midnightblue" points="837.629,-59.9525 827.77,-63.8336 837.897,-66.9474 837.629,-59.9525"/>
</g>
<!-- Node17 -->
<g id="node17" class="node"><title>Node17</title>
<g id="a_node17"><a xlink:href="test__tools_8c.html" target="_top" xlink:title=" ">
<polygon fill="white" stroke="black" points="1544.5,-0.5 1544.5,-19.5 1612.5,-19.5 1612.5,-0.5 1544.5,-0.5"/>
<text text-anchor="middle" x="1578.5" y="-7.5" font-family="Helvetica,sans-Serif" font-size="10.00">test_tools.c</text>
</a>
</g>
</g>
<!-- Node1&#45;&gt;Node17 -->
<g id="edge16" class="edge"><title>Node1&#45;&gt;Node17</title>
<path fill="none" stroke="midnightblue" d="M837.63,-64.5719C951.939,-62.9644 1271.97,-55.3891 1535.5,-20 1538.37,-19.6143 1541.34,-19.1447 1544.31,-18.6248"/>
<polygon fill="midnightblue" stroke="midnightblue" points="837.486,-61.0734 827.534,-64.7056 837.579,-68.0727 837.486,-61.0734"/>
</g>
</g>
</svg>
