<?xml version="1.0" encoding="UTF-8" standalone="no"?>
<!DOCTYPE svg PUBLIC "-//W3C//DTD SVG 1.1//EN"
 "http://www.w3.org/Graphics/SVG/1.1/DTD/svg11.dtd">
<!-- Generated by graphviz version 2.38.0 (20140413.2041)
 -->
<!-- Title: ucxhEDM_event_t Pages: 1 -->
<svg width="381pt" height="218pt"
 viewBox="0.00 0.00 381.00 218.00" xmlns="http://www.w3.org/2000/svg" xmlns:xlink="http://www.w3.org/1999/xlink">
<g id="graph0" class="graph" transform="scale(1 1) rotate(0) translate(4 214)">
<title>ucxhEDM_event_t</title>
<polygon fill="white" stroke="none" points="-4,4 -4,-214 377,-214 377,4 -4,4"/>
<!-- Node1 -->
<g id="node1" class="node"><title>Node1</title>
<g id="a_node1"><a xlink:title=" ">
<polygon fill="#bfbfbf" stroke="black" points="278,-95.5 278,-114.5 373,-114.5 373,-95.5 278,-95.5"/>
<text text-anchor="middle" x="325.5" y="-102.5" font-family="Helvetica,sans-Serif" font-size="10.00">ucxhEDM_event_t</text>
</a>
</g>
</g>
<!-- Node2 -->
<g id="node2" class="node"><title>Node2</title>
<g id="a_node2"><a xlink:href="structucxh_e_d_m__connection_event_b_t__t.html" target="_top" xlink:title=" ">
<polygon fill="white" stroke="black" points="3,-190.5 3,-209.5 159,-209.5 159,-190.5 3,-190.5"/>
<text text-anchor="middle" x="81" y="-197.5" font-family="Helvetica,sans-Serif" font-size="10.00">ucxhEDM_connectionEventBT_t</text>
</a>
</g>
</g>
<!-- Node2&#45;&gt;Node1 -->
<g id="edge1" class="edge"><title>Node2&#45;&gt;Node1</title>
<path fill="none" stroke="#9a32cd" stroke-dasharray="5,2" d="M169.428,-191.218C199.3,-185.815 232.17,-177.09 260,-163 283.647,-151.028 305.265,-128.103 316.468,-114.945"/>
<polygon fill="#9a32cd" stroke="#9a32cd" points="168.693,-187.793 159.424,-192.926 169.871,-194.693 168.693,-187.793"/>
<text text-anchor="middle" x="220" y="-192" font-family="Helvetica,sans-Serif" font-size="10.00"> btConnectEvent</text>
</g>
<!-- Node3 -->
<g id="node3" class="node"><title>Node3</title>
<g id="a_node3"><a xlink:href="structucxh_e_d_m__at_event__t.html" target="_top" xlink:title=" ">
<polygon fill="white" stroke="black" points="28.5,-152.5 28.5,-171.5 133.5,-171.5 133.5,-152.5 28.5,-152.5"/>
<text text-anchor="middle" x="81" y="-159.5" font-family="Helvetica,sans-Serif" font-size="10.00">ucxhEDM_atEvent_t</text>
</a>
</g>
</g>
<!-- Node3&#45;&gt;Node1 -->
<g id="edge2" class="edge"><title>Node3&#45;&gt;Node1</title>
<path fill="none" stroke="#9a32cd" stroke-dasharray="5,2" d="M143.635,-154.529C178.238,-149.525 221.975,-141.844 260,-131 275.094,-126.696 291.491,-120.058 303.975,-114.567"/>
<polygon fill="#9a32cd" stroke="#9a32cd" points="143.083,-151.072 133.669,-155.933 144.06,-158.003 143.083,-151.072"/>
<text text-anchor="middle" x="220" y="-151" font-family="Helvetica,sans-Serif" font-size="10.00"> atEvent</text>
</g>
<!-- Node4 -->
<g id="node4" class="node"><title>Node4</title>
<g id="a_node4"><a xlink:href="structucxh_e_d_m__disconnect_event__t.html" target="_top" xlink:title=" ">
<polygon fill="white" stroke="black" points="9,-114.5 9,-133.5 153,-133.5 153,-114.5 9,-114.5"/>
<text text-anchor="middle" x="81" y="-121.5" font-family="Helvetica,sans-Serif" font-size="10.00">ucxhEDM_disconnectEvent_t</text>
</a>
</g>
</g>
<!-- Node4&#45;&gt;Node1 -->
<g id="edge3" class="edge"><title>Node4&#45;&gt;Node1</title>
<path fill="none" stroke="#9a32cd" stroke-dasharray="5,2" d="M163.193,-117.639C201.347,-114.649 245.463,-111.193 277.905,-108.651"/>
<polygon fill="#9a32cd" stroke="#9a32cd" points="162.815,-114.157 153.119,-118.428 163.362,-121.136 162.815,-114.157"/>
<text text-anchor="middle" x="220" y="-119" font-family="Helvetica,sans-Serif" font-size="10.00"> disconnectEvent</text>
</g>
<!-- Node5 -->
<g id="node5" class="node"><title>Node5</title>
<g id="a_node5"><a xlink:href="structucxh_e_d_m__connection_event_i_pv6__t.html" target="_top" xlink:title=" ">
<polygon fill="white" stroke="black" points="0,-76.5 0,-95.5 162,-95.5 162,-76.5 0,-76.5"/>
<text text-anchor="middle" x="81" y="-83.5" font-family="Helvetica,sans-Serif" font-size="10.00">ucxhEDM_connectionEventIPv6_t</text>
</a>
</g>
</g>
<!-- Node5&#45;&gt;Node1 -->
<g id="edge4" class="edge"><title>Node5&#45;&gt;Node1</title>
<path fill="none" stroke="#9a32cd" stroke-dasharray="5,2" d="M172.527,-88.766C200.607,-90.1101 231.626,-92.091 260,-95 265.749,-95.5894 271.767,-96.3409 277.719,-97.1664"/>
<polygon fill="#9a32cd" stroke="#9a32cd" points="172.474,-85.26 162.325,-88.299 172.154,-92.2527 172.474,-85.26"/>
<text text-anchor="middle" x="220" y="-98" font-family="Helvetica,sans-Serif" font-size="10.00"> ipv6ConnectEvent</text>
</g>
<!-- Node6 -->
<g id="node6" class="node"><title>Node6</title>
<g id="a_node6"><a xlink:href="structucxh_e_d_m__connection_event_i_pv4__t.html" target="_top" xlink:title=" ">
<polygon fill="white" stroke="black" points="0,-38.5 0,-57.5 162,-57.5 162,-38.5 0,-38.5"/>
<text text-anchor="middle" x="81" y="-45.5" font-family="Helvetica,sans-Serif" font-size="10.00">ucxhEDM_connectionEventIPv4_t</text>
</a>
</g>
</g>
<!-- Node6&#45;&gt;Node1 -->
<g id="edge5" class="edge"><title>Node6&#45;&gt;Node1</title>
<path fill="none" stroke="#9a32cd" stroke-dasharray="5,2" d="M172.374,-55.8172C200.817,-59.7019 232.08,-65.4693 260,-74 277.11,-79.2278 295.379,-88.3829 308.09,-95.393"/>
<polygon fill="#9a32cd" stroke="#9a32cd" points="172.81,-52.3445 162.441,-54.5202 171.904,-59.2856 172.81,-52.3445"/>
<text text-anchor="middle" x="220" y="-77" font-family="Helvetica,sans-Serif" font-size="10.00"> ipv4ConnectEvent</text>
</g>
<!-- Node7 -->
<g id="node7" class="node"><title>Node7</title>
<g id="a_node7"><a xlink:href="structucxh_e_d_m__data_event__t.html" target="_top" xlink:title=" ">
<polygon fill="white" stroke="black" points="23,-0.5 23,-19.5 139,-19.5 139,-0.5 23,-0.5"/>
<text text-anchor="middle" x="81" y="-7.5" font-family="Helvetica,sans-Serif" font-size="10.00">ucxhEDM_dataEvent_t</text>
</a>
</g>
</g>
<!-- Node7&#45;&gt;Node1 -->
<g id="edge6" class="edge"><title>Node7&#45;&gt;Node1</title>
<path fill="none" stroke="#9a32cd" stroke-dasharray="5,2" d="M149.297,-12.7069C183.953,-16.3708 225.959,-24.4612 260,-42 285.047,-54.9048 306.759,-80.8084 317.444,-95.0514"/>
<polygon fill="#9a32cd" stroke="#9a32cd" points="149.552,-9.21536 139.264,-11.7464 148.885,-16.1835 149.552,-9.21536"/>
<text text-anchor="middle" x="220" y="-45" font-family="Helvetica,sans-Serif" font-size="10.00"> dataEvent</text>
</g>
</g>
</svg>
