<?xml version="1.0" encoding="UTF-8" standalone="no"?>
<!DOCTYPE svg PUBLIC "-//W3C//DTD SVG 1.1//EN"
 "http://www.w3.org/Graphics/SVG/1.1/DTD/svg11.dtd">
<!-- Generated by graphviz version 2.38.0 (20140413.2041)
 -->
<!-- Title: ucxhPARSER_urcNetworkStatusEvent_t Pages: 1 -->
<svg width="169pt" height="106pt"
 viewBox="0.00 0.00 169.00 106.00" xmlns="http://www.w3.org/2000/svg" xmlns:xlink="http://www.w3.org/1999/xlink">
<g id="graph0" class="graph" transform="scale(1 1) rotate(0) translate(4 102)">
<title>ucxhPARSER_urcNetworkStatusEvent_t</title>
<polygon fill="white" stroke="none" points="-4,4 -4,-102 165,-102 165,4 -4,4"/>
<!-- Node1 -->
<g id="node1" class="node"><title>Node1</title>
<g id="a_node1"><a xlink:title=" ">
<polygon fill="#bfbfbf" stroke="black" points="0,-0.5 0,-30.5 161,-30.5 161,-0.5 0,-0.5"/>
<text text-anchor="start" x="8" y="-18.5" font-family="Helvetica,sans-Serif" font-size="10.00">ucxhPARSER_urcNetworkStatus</text>
<text text-anchor="middle" x="80.5" y="-7.5" font-family="Helvetica,sans-Serif" font-size="10.00">Event_t</text>
</a>
</g>
</g>
<!-- Node2 -->
<g id="node2" class="node"><title>Node2</title>
<g id="a_node2"><a xlink:href="structucxh_a_t__ip_v6_generic_addr_str__t.html" target="_top" xlink:title=" ">
<polygon fill="white" stroke="black" points="6,-78.5 6,-97.5 155,-97.5 155,-78.5 6,-78.5"/>
<text text-anchor="middle" x="80.5" y="-85.5" font-family="Helvetica,sans-Serif" font-size="10.00">ucxhAT_ipV6GenericAddrStr_t</text>
</a>
</g>
</g>
<!-- Node2&#45;&gt;Node1 -->
<g id="edge1" class="edge"><title>Node2&#45;&gt;Node1</title>
<path fill="none" stroke="#9a32cd" stroke-dasharray="5,2" d="M80.5,-68.2362C80.5,-56.4079 80.5,-41.3829 80.5,-30.5762"/>
<polygon fill="#9a32cd" stroke="#9a32cd" points="77.0001,-68.3553 80.5,-78.3553 84.0001,-68.3554 77.0001,-68.3553"/>
<text text-anchor="middle" x="110.5" y="-52" font-family="Helvetica,sans-Serif" font-size="10.00"> ipv6_address</text>
</g>
</g>
</svg>
