<?xml version="1.0" encoding="UTF-8" standalone="no"?>
<!DOCTYPE svg PUBLIC "-//W3C//DTD SVG 1.1//EN"
 "http://www.w3.org/Graphics/SVG/1.1/DTD/svg11.dtd">
<!-- Generated by graphviz version 2.38.0 (20140413.2041)
 -->
<!-- Title: ucxh_serial_mock.c Pages: 1 -->
<svg width="965pt" height="252pt"
 viewBox="0.00 0.00 965.00 252.00" xmlns="http://www.w3.org/2000/svg" xmlns:xlink="http://www.w3.org/1999/xlink">
<g id="graph0" class="graph" transform="scale(1 1) rotate(0) translate(4 248)">
<title>ucxh_serial_mock.c</title>
<polygon fill="white" stroke="none" points="-4,4 -4,-248 961,-248 961,4 -4,4"/>
<!-- Node1 -->
<g id="node1" class="node"><title>Node1</title>
<g id="a_node1"><a xlink:title=" ">
<polygon fill="#bfbfbf" stroke="black" points="544,-224.5 544,-243.5 648,-243.5 648,-224.5 544,-224.5"/>
<text text-anchor="middle" x="596" y="-231.5" font-family="Helvetica,sans-Serif" font-size="10.00">ucxh_serial_mock.c</text>
</a>
</g>
</g>
<!-- Node2 -->
<g id="node2" class="node"><title>Node2</title>
<g id="a_node2"><a xlink:title=" ">
<polygon fill="white" stroke="#bfbfbf" points="172,-168.5 172,-187.5 224,-187.5 224,-168.5 172,-168.5"/>
<text text-anchor="middle" x="198" y="-175.5" font-family="Helvetica,sans-Serif" font-size="10.00">assert.h</text>
</a>
</g>
</g>
<!-- Node1&#45;&gt;Node2 -->
<g id="edge1" class="edge"><title>Node1&#45;&gt;Node2</title>
<path fill="none" stroke="midnightblue" d="M543.978,-228.667C475.208,-222.472 350.144,-209.592 234.388,-188.052"/>
<polygon fill="midnightblue" stroke="midnightblue" points="234.767,-184.562 224.292,-186.147 233.469,-191.441 234.767,-184.562"/>
</g>
<!-- Node3 -->
<g id="node3" class="node"><title>Node3</title>
<g id="a_node3"><a xlink:title=" ">
<polygon fill="white" stroke="#bfbfbf" points="400,-56.5 400,-75.5 456,-75.5 456,-56.5 400,-56.5"/>
<text text-anchor="middle" x="428" y="-63.5" font-family="Helvetica,sans-Serif" font-size="10.00">stdbool.h</text>
</a>
</g>
</g>
<!-- Node1&#45;&gt;Node3 -->
<g id="edge2" class="edge"><title>Node1&#45;&gt;Node3</title>
<path fill="none" stroke="midnightblue" d="M555.803,-224.454C532.733,-217.808 504.558,-206.51 485,-188 454.747,-159.369 438.905,-111.455 432.132,-85.3367"/>
<polygon fill="midnightblue" stroke="midnightblue" points="435.528,-84.4902 429.769,-75.5975 428.725,-86.1408 435.528,-84.4902"/>
</g>
<!-- Node4 -->
<g id="node4" class="node"><title>Node4</title>
<g id="a_node4"><a xlink:title=" ">
<polygon fill="white" stroke="#bfbfbf" points="566,-112.5 566,-131.5 612,-131.5 612,-112.5 566,-112.5"/>
<text text-anchor="middle" x="589" y="-119.5" font-family="Helvetica,sans-Serif" font-size="10.00">stdio.h</text>
</a>
</g>
</g>
<!-- Node1&#45;&gt;Node4 -->
<g id="edge3" class="edge"><title>Node1&#45;&gt;Node4</title>
<path fill="none" stroke="midnightblue" d="M595.451,-224.368C594.321,-206.617 591.715,-165.666 590.183,-141.597"/>
<polygon fill="midnightblue" stroke="midnightblue" points="593.675,-141.349 589.547,-131.591 586.689,-141.794 593.675,-141.349"/>
</g>
<!-- Node5 -->
<g id="node5" class="node"><title>Node5</title>
<g id="a_node5"><a xlink:title=" ">
<polygon fill="white" stroke="#bfbfbf" points="624,-168.5 624,-187.5 672,-187.5 672,-168.5 624,-168.5"/>
<text text-anchor="middle" x="648" y="-175.5" font-family="Helvetica,sans-Serif" font-size="10.00">stdlib.h</text>
</a>
</g>
</g>
<!-- Node1&#45;&gt;Node5 -->
<g id="edge4" class="edge"><title>Node1&#45;&gt;Node5</title>
<path fill="none" stroke="midnightblue" d="M604.587,-224.083C612.159,-216.22 623.378,-204.569 632.514,-195.081"/>
<polygon fill="midnightblue" stroke="midnightblue" points="635.158,-197.382 639.573,-187.751 630.115,-192.527 635.158,-197.382"/>
</g>
<!-- Node6 -->
<g id="node6" class="node"><title>Node6</title>
<g id="a_node6"><a xlink:title=" ">
<polygon fill="white" stroke="#bfbfbf" points="690.5,-168.5 690.5,-187.5 739.5,-187.5 739.5,-168.5 690.5,-168.5"/>
<text text-anchor="middle" x="715" y="-175.5" font-family="Helvetica,sans-Serif" font-size="10.00">string.h</text>
</a>
</g>
</g>
<!-- Node1&#45;&gt;Node6 -->
<g id="edge5" class="edge"><title>Node1&#45;&gt;Node6</title>
<path fill="none" stroke="midnightblue" d="M614.856,-224.444C634.266,-215.636 664.73,-201.812 686.965,-191.722"/>
<polygon fill="midnightblue" stroke="midnightblue" points="688.572,-194.836 696.232,-187.516 685.68,-188.462 688.572,-194.836"/>
</g>
<!-- Node7 -->
<g id="node7" class="node"><title>Node7</title>
<g id="a_node7"><a xlink:href="ucxh__config_8h.html" target="_top" xlink:title=" ">
<polygon fill="white" stroke="black" points="757.5,-168.5 757.5,-187.5 834.5,-187.5 834.5,-168.5 757.5,-168.5"/>
<text text-anchor="middle" x="796" y="-175.5" font-family="Helvetica,sans-Serif" font-size="10.00">ucxh_config.h</text>
</a>
</g>
</g>
<!-- Node1&#45;&gt;Node7 -->
<g id="edge6" class="edge"><title>Node1&#45;&gt;Node7</title>
<path fill="none" stroke="midnightblue" d="M627.691,-224.444C662.068,-215.162 717.077,-200.309 754.789,-190.127"/>
<polygon fill="midnightblue" stroke="midnightblue" points="755.716,-193.502 764.458,-187.516 753.891,-186.744 755.716,-193.502"/>
</g>
<!-- Node8 -->
<g id="node8" class="node"><title>Node8</title>
<g id="a_node8"><a xlink:href="ucxh__serial__mock_8h.html" target="_top" xlink:title=" ">
<polygon fill="white" stroke="black" points="853,-168.5 853,-187.5 957,-187.5 957,-168.5 853,-168.5"/>
<text text-anchor="middle" x="905" y="-175.5" font-family="Helvetica,sans-Serif" font-size="10.00">ucxh_serial_mock.h</text>
</a>
</g>
</g>
<!-- Node1&#45;&gt;Node8 -->
<g id="edge7" class="edge"><title>Node1&#45;&gt;Node8</title>
<path fill="none" stroke="midnightblue" d="M644.962,-224.444C699.544,-214.905 787.79,-199.483 846.101,-189.293"/>
<polygon fill="midnightblue" stroke="midnightblue" points="847.019,-192.686 856.267,-187.516 845.814,-185.79 847.019,-192.686"/>
</g>
<!-- Node10 -->
<g id="node10" class="node"><title>Node10</title>
<g id="a_node10"><a xlink:href="ucxh__parser_8h.html" target="_top" xlink:title=" ">
<polygon fill="white" stroke="black" points="242,-168.5 242,-187.5 320,-187.5 320,-168.5 242,-168.5"/>
<text text-anchor="middle" x="281" y="-175.5" font-family="Helvetica,sans-Serif" font-size="10.00">ucxh_parser.h</text>
</a>
</g>
</g>
<!-- Node1&#45;&gt;Node10 -->
<g id="edge9" class="edge"><title>Node1&#45;&gt;Node10</title>
<path fill="none" stroke="midnightblue" d="M546.087,-224.444C487.008,-214.316 389.243,-197.556 330.392,-187.467"/>
<polygon fill="midnightblue" stroke="midnightblue" points="330.677,-183.965 320.23,-185.725 329.494,-190.864 330.677,-183.965"/>
</g>
<!-- Node19 -->
<g id="node19" class="node"><title>Node19</title>
<g id="a_node19"><a xlink:href="ucxh__serial_8h.html" target="_top" xlink:title=" ">
<polygon fill="white" stroke="black" points="494,-168.5 494,-187.5 568,-187.5 568,-168.5 494,-168.5"/>
<text text-anchor="middle" x="531" y="-175.5" font-family="Helvetica,sans-Serif" font-size="10.00">ucxh_serial.h</text>
</a>
</g>
</g>
<!-- Node1&#45;&gt;Node19 -->
<g id="edge23" class="edge"><title>Node1&#45;&gt;Node19</title>
<path fill="none" stroke="midnightblue" d="M585.557,-224.324C575.854,-216.263 561.185,-204.077 549.5,-194.369"/>
<polygon fill="midnightblue" stroke="midnightblue" points="551.562,-191.532 541.633,-187.834 547.089,-196.916 551.562,-191.532"/>
</g>
<!-- Node9 -->
<g id="node9" class="node"><title>Node9</title>
<g id="a_node9"><a xlink:title=" ">
<polygon fill="white" stroke="#bfbfbf" points="881.5,-112.5 881.5,-131.5 928.5,-131.5 928.5,-112.5 881.5,-112.5"/>
<text text-anchor="middle" x="905" y="-119.5" font-family="Helvetica,sans-Serif" font-size="10.00">errno.h</text>
</a>
</g>
</g>
<!-- Node8&#45;&gt;Node9 -->
<g id="edge8" class="edge"><title>Node8&#45;&gt;Node9</title>
<path fill="none" stroke="midnightblue" d="M905,-168.083C905,-161.006 905,-150.861 905,-141.986"/>
<polygon fill="midnightblue" stroke="midnightblue" points="908.5,-141.751 905,-131.751 901.5,-141.751 908.5,-141.751"/>
</g>
<!-- Node10&#45;&gt;Node3 -->
<g id="edge10" class="edge"><title>Node10&#45;&gt;Node3</title>
<path fill="none" stroke="midnightblue" d="M320.258,-172.728C348.605,-167.625 385.829,-156.449 409,-132 420.742,-119.61 425.276,-100.367 427.002,-86.029"/>
<polygon fill="midnightblue" stroke="midnightblue" points="430.511,-86.0663 427.868,-75.8066 423.536,-85.4755 430.511,-86.0663"/>
</g>
<!-- Node11 -->
<g id="node11" class="node"><title>Node11</title>
<g id="a_node11"><a xlink:title=" ">
<polygon fill="white" stroke="#bfbfbf" points="213,-56.5 213,-75.5 257,-75.5 257,-56.5 213,-56.5"/>
<text text-anchor="middle" x="235" y="-63.5" font-family="Helvetica,sans-Serif" font-size="10.00">time.h</text>
</a>
</g>
</g>
<!-- Node10&#45;&gt;Node11 -->
<g id="edge11" class="edge"><title>Node10&#45;&gt;Node11</title>
<path fill="none" stroke="midnightblue" d="M269.407,-168.461C259.381,-160.332 245.503,-147.118 239,-132 232.718,-117.395 232.131,-99.2215 232.877,-85.8074"/>
<polygon fill="midnightblue" stroke="midnightblue" points="236.365,-86.1018 233.722,-75.8418 229.39,-85.5103 236.365,-86.1018"/>
</g>
<!-- Node12 -->
<g id="node12" class="node"><title>Node12</title>
<g id="a_node12"><a xlink:href="ucxh__edm_8h.html" target="_top" xlink:title=" ">
<polygon fill="white" stroke="black" points="0,-112.5 0,-131.5 70,-131.5 70,-112.5 0,-112.5"/>
<text text-anchor="middle" x="35" y="-119.5" font-family="Helvetica,sans-Serif" font-size="10.00">ucxh_edm.h</text>
</a>
</g>
</g>
<!-- Node10&#45;&gt;Node12 -->
<g id="edge12" class="edge"><title>Node10&#45;&gt;Node12</title>
<path fill="none" stroke="midnightblue" d="M242.021,-168.444C197.971,-158.774 126.38,-143.059 79.9932,-132.877"/>
<polygon fill="midnightblue" stroke="midnightblue" points="80.7279,-129.455 70.21,-130.729 79.227,-136.292 80.7279,-129.455"/>
</g>
<!-- Node14 -->
<g id="node14" class="node"><title>Node14</title>
<g id="a_node14"><a xlink:href="ucxh__poll_8h.html" target="_top" xlink:title=" ">
<polygon fill="white" stroke="black" points="248,-112.5 248,-131.5 314,-131.5 314,-112.5 248,-112.5"/>
<text text-anchor="middle" x="281" y="-119.5" font-family="Helvetica,sans-Serif" font-size="10.00">ucxh_poll.h</text>
</a>
</g>
</g>
<!-- Node10&#45;&gt;Node14 -->
<g id="edge14" class="edge"><title>Node10&#45;&gt;Node14</title>
<path fill="none" stroke="midnightblue" d="M281,-168.083C281,-161.006 281,-150.861 281,-141.986"/>
<polygon fill="midnightblue" stroke="midnightblue" points="284.5,-141.751 281,-131.751 277.5,-141.751 284.5,-141.751"/>
</g>
<!-- Node15 -->
<g id="node15" class="node"><title>Node15</title>
<g id="a_node15"><a xlink:href="ucxh__wait_8h.html" target="_top" xlink:title=" ">
<polygon fill="white" stroke="black" points="332,-112.5 332,-131.5 400,-131.5 400,-112.5 332,-112.5"/>
<text text-anchor="middle" x="366" y="-119.5" font-family="Helvetica,sans-Serif" font-size="10.00">ucxh_wait.h</text>
</a>
</g>
</g>
<!-- Node10&#45;&gt;Node15 -->
<g id="edge17" class="edge"><title>Node10&#45;&gt;Node15</title>
<path fill="none" stroke="midnightblue" d="M294.657,-168.324C307.916,-159.9 328.268,-146.971 343.846,-137.074"/>
<polygon fill="midnightblue" stroke="midnightblue" points="345.813,-139.971 352.377,-131.655 342.06,-134.063 345.813,-139.971"/>
</g>
<!-- Node16 -->
<g id="node16" class="node"><title>Node16</title>
<g id="a_node16"><a xlink:href="ucxh__wifi_8h.html" target="_top" xlink:title=" ">
<polygon fill="white" stroke="black" points="126.5,-112.5 126.5,-131.5 191.5,-131.5 191.5,-112.5 126.5,-112.5"/>
<text text-anchor="middle" x="159" y="-119.5" font-family="Helvetica,sans-Serif" font-size="10.00">ucxh_wifi.h</text>
</a>
</g>
</g>
<!-- Node10&#45;&gt;Node16 -->
<g id="edge18" class="edge"><title>Node10&#45;&gt;Node16</title>
<path fill="none" stroke="midnightblue" d="M261.669,-168.444C241.68,-159.596 210.257,-145.687 187.436,-135.586"/>
<polygon fill="midnightblue" stroke="midnightblue" points="188.802,-132.363 178.241,-131.516 185.968,-138.764 188.802,-132.363"/>
</g>
<!-- Node13 -->
<g id="node13" class="node"><title>Node13</title>
<g id="a_node13"><a xlink:title=" ">
<polygon fill="white" stroke="#bfbfbf" points="9.5,-56.5 9.5,-75.5 60.5,-75.5 60.5,-56.5 9.5,-56.5"/>
<text text-anchor="middle" x="35" y="-63.5" font-family="Helvetica,sans-Serif" font-size="10.00">unistd.h</text>
</a>
</g>
</g>
<!-- Node12&#45;&gt;Node13 -->
<g id="edge13" class="edge"><title>Node12&#45;&gt;Node13</title>
<path fill="none" stroke="midnightblue" d="M35,-112.083C35,-105.006 35,-94.8611 35,-85.9865"/>
<polygon fill="midnightblue" stroke="midnightblue" points="38.5001,-85.751 35,-75.7511 31.5001,-85.7511 38.5001,-85.751"/>
</g>
<!-- Node14&#45;&gt;Node3 -->
<g id="edge15" class="edge"><title>Node14&#45;&gt;Node3</title>
<path fill="none" stroke="midnightblue" d="M304.293,-112.444C328.807,-103.438 367.596,-89.1891 395.2,-79.049"/>
<polygon fill="midnightblue" stroke="midnightblue" points="396.637,-82.25 404.816,-75.5164 394.223,-75.6793 396.637,-82.25"/>
</g>
<!-- Node14&#45;&gt;Node11 -->
<g id="edge16" class="edge"><title>Node14&#45;&gt;Node11</title>
<path fill="none" stroke="midnightblue" d="M273.404,-112.083C266.773,-104.298 256.979,-92.8015 248.942,-83.3665"/>
<polygon fill="midnightblue" stroke="midnightblue" points="251.604,-81.0939 242.455,-75.7511 246.275,-85.6332 251.604,-81.0939"/>
</g>
<!-- Node16&#45;&gt;Node3 -->
<g id="edge19" class="edge"><title>Node16&#45;&gt;Node3</title>
<path fill="none" stroke="midnightblue" d="M191.716,-114.433C241.728,-104.393 336.957,-85.2762 389.973,-74.6336"/>
<polygon fill="midnightblue" stroke="midnightblue" points="390.872,-78.023 399.988,-72.6233 389.495,-71.16 390.872,-78.023"/>
</g>
<!-- Node17 -->
<g id="node17" class="node"><title>Node17</title>
<g id="a_node17"><a xlink:href="ucxh__urc_8h.html" target="_top" xlink:title=" ">
<polygon fill="white" stroke="black" points="111.5,-56.5 111.5,-75.5 176.5,-75.5 176.5,-56.5 111.5,-56.5"/>
<text text-anchor="middle" x="144" y="-63.5" font-family="Helvetica,sans-Serif" font-size="10.00">ucxh_urc.h</text>
</a>
</g>
</g>
<!-- Node16&#45;&gt;Node17 -->
<g id="edge20" class="edge"><title>Node16&#45;&gt;Node17</title>
<path fill="none" stroke="midnightblue" d="M156.523,-112.083C154.514,-104.849 151.614,-94.4087 149.11,-85.3968"/>
<polygon fill="midnightblue" stroke="midnightblue" points="152.48,-84.4495 146.431,-75.7511 145.735,-86.323 152.48,-84.4495"/>
</g>
<!-- Node17&#45;&gt;Node10 -->
<g id="edge21" class="edge"><title>Node17&#45;&gt;Node10</title>
<path fill="none" stroke="midnightblue" d="M135.156,-75.7207C122.85,-88.9231 103.514,-114.316 117,-132 124.136,-141.358 185.999,-156.515 231.651,-166.618"/>
<polygon fill="midnightblue" stroke="midnightblue" points="231.183,-170.098 241.7,-168.818 232.681,-163.26 231.183,-170.098"/>
</g>
<!-- Node18 -->
<g id="node18" class="node"><title>Node18</title>
<g id="a_node18"><a xlink:href="autogenerated_8h.html" target="_top" xlink:title="Automatically generated function prototypes and documentation.">
<polygon fill="white" stroke="black" points="101,-0.5 101,-19.5 187,-19.5 187,-0.5 101,-0.5"/>
<text text-anchor="middle" x="144" y="-7.5" font-family="Helvetica,sans-Serif" font-size="10.00">autogenerated.h</text>
</a>
</g>
</g>
<!-- Node17&#45;&gt;Node18 -->
<g id="edge22" class="edge"><title>Node17&#45;&gt;Node18</title>
<path fill="none" stroke="midnightblue" d="M144,-56.083C144,-49.0059 144,-38.8611 144,-29.9865"/>
<polygon fill="midnightblue" stroke="midnightblue" points="147.5,-29.751 144,-19.7511 140.5,-29.7511 147.5,-29.751"/>
</g>
<!-- Node19&#45;&gt;Node3 -->
<g id="edge24" class="edge"><title>Node19&#45;&gt;Node3</title>
<path fill="none" stroke="midnightblue" d="M524.894,-168.157C515.79,-155.232 497.813,-130.69 480,-112 469.833,-101.332 457.381,-90.4894 447.211,-82.1209"/>
<polygon fill="midnightblue" stroke="midnightblue" points="449.283,-79.2953 439.305,-75.7314 444.883,-84.7394 449.283,-79.2953"/>
</g>
<!-- Node19&#45;&gt;Node4 -->
<g id="edge25" class="edge"><title>Node19&#45;&gt;Node4</title>
<path fill="none" stroke="midnightblue" d="M540.319,-168.324C548.893,-160.341 561.812,-148.313 572.188,-138.653"/>
<polygon fill="midnightblue" stroke="midnightblue" points="574.578,-141.21 579.512,-131.834 569.808,-136.086 574.578,-141.21"/>
</g>
</g>
</svg>
