<?xml version="1.0" encoding="UTF-8" standalone="no"?>
<!DOCTYPE svg PUBLIC "-//W3C//DTD SVG 1.1//EN"
 "http://www.w3.org/Graphics/SVG/1.1/DTD/svg11.dtd">
<!-- Generated by graphviz version 2.38.0 (20140413.2041)
 -->
<!-- Title: ucxh_serial.h Pages: 1 -->
<svg width="1556pt" height="84pt"
 viewBox="0.00 0.00 1555.50 84.00" xmlns="http://www.w3.org/2000/svg" xmlns:xlink="http://www.w3.org/1999/xlink">
<g id="graph0" class="graph" transform="scale(1 1) rotate(0) translate(4 80)">
<title>ucxh_serial.h</title>
<polygon fill="white" stroke="none" points="-4,4 -4,-80 1551.5,-80 1551.5,4 -4,4"/>
<!-- Node1 -->
<g id="node1" class="node"><title>Node1</title>
<g id="a_node1"><a xlink:title=" ">
<polygon fill="#bfbfbf" stroke="black" points="730.5,-56.5 730.5,-75.5 804.5,-75.5 804.5,-56.5 730.5,-56.5"/>
<text text-anchor="middle" x="767.5" y="-63.5" font-family="Helvetica,sans-Serif" font-size="10.00">ucxh_serial.h</text>
</a>
</g>
</g>
<!-- Node2 -->
<g id="node2" class="node"><title>Node2</title>
<g id="a_node2"><a xlink:href="ex__callbacks__edm__wifi_8c.html" target="_top" xlink:title=" ">
<polygon fill="white" stroke="black" points="0,-0.5 0,-19.5 125,-19.5 125,-0.5 0,-0.5"/>
<text text-anchor="middle" x="62.5" y="-7.5" font-family="Helvetica,sans-Serif" font-size="10.00">ex_callbacks_edm_wifi.c</text>
</a>
</g>
</g>
<!-- Node1&#45;&gt;Node2 -->
<g id="edge1" class="edge"><title>Node1&#45;&gt;Node2</title>
<path fill="none" stroke="midnightblue" d="M720.037,-62.4941C614.587,-56.7364 352.875,-41.3952 134.5,-20 131.491,-19.7052 128.413,-19.3866 125.307,-19.0512"/>
<polygon fill="midnightblue" stroke="midnightblue" points="720.166,-66.0062 730.341,-63.0533 720.545,-59.0165 720.166,-66.0062"/>
</g>
<!-- Node3 -->
<g id="node3" class="node"><title>Node3</title>
<g id="a_node3"><a xlink:href="ex__readmisc_8c.html" target="_top" xlink:title=" ">
<polygon fill="white" stroke="black" points="143.5,-0.5 143.5,-19.5 223.5,-19.5 223.5,-0.5 143.5,-0.5"/>
<text text-anchor="middle" x="183.5" y="-7.5" font-family="Helvetica,sans-Serif" font-size="10.00">ex_readmisc.c</text>
</a>
</g>
</g>
<!-- Node1&#45;&gt;Node3 -->
<g id="edge2" class="edge"><title>Node1&#45;&gt;Node3</title>
<path fill="none" stroke="midnightblue" d="M720.13,-62.5745C626.607,-57.4417 411.756,-43.9428 232.5,-20 229.585,-19.6107 226.58,-19.166 223.561,-18.6876"/>
<polygon fill="midnightblue" stroke="midnightblue" points="720.219,-66.0843 730.394,-63.1308 720.598,-59.0946 720.219,-66.0843"/>
</g>
<!-- Node4 -->
<g id="node4" class="node"><title>Node4</title>
<g id="a_node4"><a xlink:href="test__at__peer_8c.html" target="_top" xlink:title="Tests from chapter 5: AT&#45;commands UDDPRP and ucxhCOMMAND_writeDefaultRemotePeer() .">
<polygon fill="white" stroke="black" points="242,-0.5 242,-19.5 321,-19.5 321,-0.5 242,-0.5"/>
<text text-anchor="middle" x="281.5" y="-7.5" font-family="Helvetica,sans-Serif" font-size="10.00">test_at_peer.c</text>
</a>
</g>
</g>
<!-- Node1&#45;&gt;Node4 -->
<g id="edge3" class="edge"><title>Node1&#45;&gt;Node4</title>
<path fill="none" stroke="midnightblue" d="M719.963,-61.3435C639.533,-54.88 471.58,-40.1879 330.5,-20 327.418,-19.5589 324.233,-19.0639 321.036,-18.5389"/>
<polygon fill="midnightblue" stroke="midnightblue" points="720.01,-64.8583 730.257,-62.1641 720.567,-57.8804 720.01,-64.8583"/>
</g>
<!-- Node5 -->
<g id="node5" class="node"><title>Node5</title>
<g id="a_node5"><a xlink:href="test__at__wifi_8c.html" target="_top" xlink:title="Tests from chapter 17, 10: AT&#45;commands UWSSTAT UNSTAT UWSCA UWSC and MODULE_writeWifiStationConfigura...">
<polygon fill="white" stroke="black" points="339.5,-0.5 339.5,-19.5 413.5,-19.5 413.5,-0.5 339.5,-0.5"/>
<text text-anchor="middle" x="376.5" y="-7.5" font-family="Helvetica,sans-Serif" font-size="10.00">test_at_wifi.c</text>
</a>
</g>
</g>
<!-- Node1&#45;&gt;Node5 -->
<g id="edge4" class="edge"><title>Node1&#45;&gt;Node5</title>
<path fill="none" stroke="midnightblue" d="M720.197,-59.7938C653.596,-52.2446 528.465,-37.259 422.5,-20 419.609,-19.5291 416.621,-19.0126 413.621,-18.4727"/>
<polygon fill="midnightblue" stroke="midnightblue" points="720.043,-63.2985 730.372,-60.9408 720.827,-56.3425 720.043,-63.2985"/>
</g>
<!-- Node6 -->
<g id="node6" class="node"><title>Node6</title>
<g id="a_node6"><a xlink:href="test__ati9_8c.html" target="_top" xlink:title="Tests Hello, World / Issue AT command.">
<polygon fill="white" stroke="black" points="431.5,-0.5 431.5,-19.5 493.5,-19.5 493.5,-0.5 431.5,-0.5"/>
<text text-anchor="middle" x="462.5" y="-7.5" font-family="Helvetica,sans-Serif" font-size="10.00">test_ati9.c</text>
</a>
</g>
</g>
<!-- Node1&#45;&gt;Node6 -->
<g id="edge5" class="edge"><title>Node1&#45;&gt;Node6</title>
<path fill="none" stroke="midnightblue" d="M719.94,-57.7039C666.794,-49.3698 578.257,-34.9439 502.5,-20 499.707,-19.449 496.81,-18.8504 493.91,-18.2326"/>
<polygon fill="midnightblue" stroke="midnightblue" points="719.662,-61.203 730.083,-59.2879 720.743,-54.2868 719.662,-61.203"/>
</g>
<!-- Node7 -->
<g id="node7" class="node"><title>Node7</title>
<g id="a_node7"><a xlink:href="test__datamode_8c.html" target="_top" xlink:title="Tests transmit over Data mode.">
<polygon fill="white" stroke="black" points="512,-0.5 512,-19.5 601,-19.5 601,-0.5 512,-0.5"/>
<text text-anchor="middle" x="556.5" y="-7.5" font-family="Helvetica,sans-Serif" font-size="10.00">test_datamode.c</text>
</a>
</g>
</g>
<!-- Node1&#45;&gt;Node7 -->
<g id="edge6" class="edge"><title>Node1&#45;&gt;Node7</title>
<path fill="none" stroke="midnightblue" d="M724.358,-53.959C684.506,-43.7598 626.137,-28.8217 589.777,-19.5164"/>
<polygon fill="midnightblue" stroke="midnightblue" points="723.511,-57.3549 734.066,-56.4435 725.246,-50.5734 723.511,-57.3549"/>
</g>
<!-- Node8 -->
<g id="node8" class="node"><title>Node8</title>
<g id="a_node8"><a xlink:href="test__edm__at_8c.html" target="_top" xlink:title="Hello, World / Issue AT command using EDM.">
<polygon fill="white" stroke="black" points="619,-0.5 619,-19.5 698,-19.5 698,-0.5 619,-0.5"/>
<text text-anchor="middle" x="658.5" y="-7.5" font-family="Helvetica,sans-Serif" font-size="10.00">test_edm_at.c</text>
</a>
</g>
</g>
<!-- Node1&#45;&gt;Node8 -->
<g id="edge7" class="edge"><title>Node1&#45;&gt;Node8</title>
<path fill="none" stroke="midnightblue" d="M740.981,-51.8622C720.77,-41.8492 693.513,-28.3458 675.969,-19.6545"/>
<polygon fill="midnightblue" stroke="midnightblue" points="739.473,-55.0209 749.987,-56.324 742.58,-48.7485 739.473,-55.0209"/>
</g>
<!-- Node9 -->
<g id="node9" class="node"><title>Node9</title>
<g id="a_node9"><a xlink:href="test__edm__at__read_8c.html" target="_top" xlink:title="Tests, using EDM, read status from the module.">
<polygon fill="white" stroke="black" points="716,-0.5 716,-19.5 819,-19.5 819,-0.5 716,-0.5"/>
<text text-anchor="middle" x="767.5" y="-7.5" font-family="Helvetica,sans-Serif" font-size="10.00">test_edm_at_read.c</text>
</a>
</g>
</g>
<!-- Node1&#45;&gt;Node9 -->
<g id="edge8" class="edge"><title>Node1&#45;&gt;Node9</title>
<path fill="none" stroke="midnightblue" d="M767.5,-45.8045C767.5,-36.9102 767.5,-26.7798 767.5,-19.7511"/>
<polygon fill="midnightblue" stroke="midnightblue" points="764,-46.083 767.5,-56.083 771,-46.083 764,-46.083"/>
</g>
<!-- Node10 -->
<g id="node10" class="node"><title>Node10</title>
<g id="a_node10"><a xlink:href="test__getgeneral_8c.html" target="_top" xlink:title="Tests from chapter 3: AT&#45;commands I, GMI, GMM, GMR, GSN .">
<polygon fill="white" stroke="black" points="837.5,-0.5 837.5,-19.5 929.5,-19.5 929.5,-0.5 837.5,-0.5"/>
<text text-anchor="middle" x="883.5" y="-7.5" font-family="Helvetica,sans-Serif" font-size="10.00">test_getgeneral.c</text>
</a>
</g>
</g>
<!-- Node1&#45;&gt;Node10 -->
<g id="edge9" class="edge"><title>Node1&#45;&gt;Node10</title>
<path fill="none" stroke="midnightblue" d="M795.22,-52.096C816.892,-42.0073 846.402,-28.2697 865.205,-19.5164"/>
<polygon fill="midnightblue" stroke="midnightblue" points="793.469,-49.0501 785.881,-56.4435 796.423,-55.3962 793.469,-49.0501"/>
</g>
<!-- Node11 -->
<g id="node11" class="node"><title>Node11</title>
<g id="a_node11"><a xlink:href="test__getsystem_8c.html" target="_top" xlink:title="Tests from chapter 4: AT&#45;commands +UMLA .">
<polygon fill="white" stroke="black" points="947.5,-0.5 947.5,-19.5 1039.5,-19.5 1039.5,-0.5 947.5,-0.5"/>
<text text-anchor="middle" x="993.5" y="-7.5" font-family="Helvetica,sans-Serif" font-size="10.00">test_getsystem.c</text>
</a>
</g>
</g>
<!-- Node1&#45;&gt;Node11 -->
<g id="edge10" class="edge"><title>Node1&#45;&gt;Node11</title>
<path fill="none" stroke="midnightblue" d="M813.167,-54.0884C855.864,-43.8865 918.748,-28.8612 957.857,-19.5164"/>
<polygon fill="midnightblue" stroke="midnightblue" points="812.223,-50.7153 803.31,-56.4435 813.85,-57.5237 812.223,-50.7153"/>
</g>
<!-- Node12 -->
<g id="node12" class="node"><title>Node12</title>
<g id="a_node12"><a xlink:href="test__mock__ati9_8c.html" target="_top" xlink:title="Hello, World / Issue AT command to mocked serial driver.">
<polygon fill="white" stroke="black" points="1057.5,-0.5 1057.5,-19.5 1149.5,-19.5 1149.5,-0.5 1057.5,-0.5"/>
<text text-anchor="middle" x="1103.5" y="-7.5" font-family="Helvetica,sans-Serif" font-size="10.00">test_mock_ati9.c</text>
</a>
</g>
</g>
<!-- Node1&#45;&gt;Node12 -->
<g id="edge11" class="edge"><title>Node1&#45;&gt;Node12</title>
<path fill="none" stroke="midnightblue" d="M814.729,-57.4869C870.571,-48.5921 966.315,-33.3049 1048.5,-20 1051.37,-19.5361 1054.31,-19.0574 1057.29,-18.5736"/>
<polygon fill="midnightblue" stroke="midnightblue" points="814.104,-54.0423 804.779,-59.0715 815.205,-60.9552 814.104,-54.0423"/>
</g>
<!-- Node13 -->
<g id="node13" class="node"><title>Node13</title>
<g id="a_node13"><a xlink:href="test__send_8c.html" target="_top" xlink:title="Tests the functions used for building and sending AT commands.">
<polygon fill="white" stroke="black" points="1167.5,-0.5 1167.5,-19.5 1235.5,-19.5 1235.5,-0.5 1167.5,-0.5"/>
<text text-anchor="middle" x="1201.5" y="-7.5" font-family="Helvetica,sans-Serif" font-size="10.00">test_send.c</text>
</a>
</g>
</g>
<!-- Node1&#45;&gt;Node13 -->
<g id="edge12" class="edge"><title>Node1&#45;&gt;Node13</title>
<path fill="none" stroke="midnightblue" d="M814.925,-60.9571C888.682,-54.3512 1035.22,-39.9519 1158.5,-20 1161.36,-19.537 1164.32,-19.0131 1167.29,-18.4566"/>
<polygon fill="midnightblue" stroke="midnightblue" points="814.234,-57.5046 804.583,-61.8749 814.853,-64.4772 814.234,-57.5046"/>
</g>
<!-- Node14 -->
<g id="node14" class="node"><title>Node14</title>
<g id="a_node14"><a xlink:href="test__tokenizer_8c.html" target="_top" xlink:title="Tests the tokenizer of the URC parser.">
<polygon fill="white" stroke="black" points="1253.5,-0.5 1253.5,-19.5 1339.5,-19.5 1339.5,-0.5 1253.5,-0.5"/>
<text text-anchor="middle" x="1296.5" y="-7.5" font-family="Helvetica,sans-Serif" font-size="10.00">test_tokenizer.c</text>
</a>
</g>
</g>
<!-- Node1&#45;&gt;Node14 -->
<g id="edge13" class="edge"><title>Node1&#45;&gt;Node14</title>
<path fill="none" stroke="midnightblue" d="M814.932,-61.7465C900.832,-55.5828 1087.79,-40.9218 1244.5,-20 1247.41,-19.612 1250.4,-19.1804 1253.41,-18.7222"/>
<polygon fill="midnightblue" stroke="midnightblue" points="814.447,-58.2721 804.721,-62.4732 814.944,-65.2544 814.447,-58.2721"/>
</g>
<!-- Node15 -->
<g id="node15" class="node"><title>Node15</title>
<g id="a_node15"><a xlink:href="test__tools_8c.html" target="_top" xlink:title=" ">
<polygon fill="white" stroke="black" points="1357.5,-0.5 1357.5,-19.5 1425.5,-19.5 1425.5,-0.5 1357.5,-0.5"/>
<text text-anchor="middle" x="1391.5" y="-7.5" font-family="Helvetica,sans-Serif" font-size="10.00">test_tools.c</text>
</a>
</g>
</g>
<!-- Node1&#45;&gt;Node15 -->
<g id="edge14" class="edge"><title>Node1&#45;&gt;Node15</title>
<path fill="none" stroke="midnightblue" d="M814.74,-63.4074C914.016,-59.6073 1151.41,-48.1384 1348.5,-20 1351.37,-19.5904 1354.33,-19.104 1357.3,-18.5728"/>
<polygon fill="midnightblue" stroke="midnightblue" points="814.589,-59.9105 804.727,-63.7824 814.851,-66.9056 814.589,-59.9105"/>
</g>
<!-- Node16 -->
<g id="node16" class="node"><title>Node16</title>
<g id="a_node16"><a xlink:href="ucxh__serial__mock_8c.html" target="_top" xlink:title=" ">
<polygon fill="white" stroke="black" points="1443.5,-0.5 1443.5,-19.5 1547.5,-19.5 1547.5,-0.5 1443.5,-0.5"/>
<text text-anchor="middle" x="1495.5" y="-7.5" font-family="Helvetica,sans-Serif" font-size="10.00">ucxh_serial_mock.c</text>
</a>
</g>
</g>
<!-- Node1&#45;&gt;Node16 -->
<g id="edge15" class="edge"><title>Node1&#45;&gt;Node16</title>
<path fill="none" stroke="midnightblue" d="M814.883,-63.0928C924.276,-58.4082 1202.81,-44.8682 1434.5,-20 1437.37,-19.6915 1440.32,-19.348 1443.29,-18.9803"/>
<polygon fill="midnightblue" stroke="midnightblue" points="814.675,-59.5984 804.832,-63.5186 814.971,-66.5922 814.675,-59.5984"/>
</g>
</g>
</svg>
