<?xml version="1.0" encoding="UTF-8" standalone="no"?>
<!DOCTYPE svg PUBLIC "-//W3C//DTD SVG 1.1//EN"
 "http://www.w3.org/Graphics/SVG/1.1/DTD/svg11.dtd">
<!-- Generated by graphviz version 2.38.0 (20140413.2041)
 -->
<!-- Title: ucxh_edm_parser.h Pages: 1 -->
<svg width="535pt" height="252pt"
 viewBox="0.00 0.00 535.24 252.00" xmlns="http://www.w3.org/2000/svg" xmlns:xlink="http://www.w3.org/1999/xlink">
<g id="graph0" class="graph" transform="scale(1 1) rotate(0) translate(4 248)">
<title>ucxh_edm_parser.h</title>
<polygon fill="white" stroke="none" points="-4,4 -4,-248 531.239,-248 531.239,4 -4,4"/>
<!-- Node1 -->
<g id="node1" class="node"><title>Node1</title>
<g id="a_node1"><a xlink:title=" ">
<polygon fill="#bfbfbf" stroke="black" points="114.239,-224.5 114.239,-243.5 216.239,-243.5 216.239,-224.5 114.239,-224.5"/>
<text text-anchor="middle" x="165.239" y="-231.5" font-family="Helvetica,sans-Serif" font-size="10.00">ucxh_edm_parser.h</text>
</a>
</g>
</g>
<!-- Node2 -->
<g id="node2" class="node"><title>Node2</title>
<g id="a_node2"><a xlink:title=" ">
<polygon fill="white" stroke="#bfbfbf" points="23.2395,-56.5 23.2395,-75.5 67.2395,-75.5 67.2395,-56.5 23.2395,-56.5"/>
<text text-anchor="middle" x="45.2395" y="-63.5" font-family="Helvetica,sans-Serif" font-size="10.00">time.h</text>
</a>
</g>
</g>
<!-- Node1&#45;&gt;Node2 -->
<g id="edge1" class="edge"><title>Node1&#45;&gt;Node2</title>
<path fill="none" stroke="midnightblue" d="M135.561,-224.446C96.9786,-211.535 31.2298,-182.989 3.23948,-132 -6.47059,-114.311 9.66818,-95.0058 24.6683,-82.0685"/>
<polygon fill="midnightblue" stroke="midnightblue" points="27.1219,-84.5863 32.7132,-75.587 22.7302,-79.1353 27.1219,-84.5863"/>
</g>
<!-- Node3 -->
<g id="node3" class="node"><title>Node3</title>
<g id="a_node3"><a xlink:href="ucxh__parser_8h.html" target="_top" xlink:title=" ">
<polygon fill="white" stroke="black" points="167.239,-168.5 167.239,-187.5 245.239,-187.5 245.239,-168.5 167.239,-168.5"/>
<text text-anchor="middle" x="206.239" y="-175.5" font-family="Helvetica,sans-Serif" font-size="10.00">ucxh_parser.h</text>
</a>
</g>
</g>
<!-- Node1&#45;&gt;Node3 -->
<g id="edge2" class="edge"><title>Node1&#45;&gt;Node3</title>
<path fill="none" stroke="midnightblue" d="M172.01,-224.083C177.801,-216.455 186.298,-205.264 193.377,-195.941"/>
<polygon fill="midnightblue" stroke="midnightblue" points="196.336,-197.832 199.595,-187.751 190.76,-193.599 196.336,-197.832"/>
</g>
<!-- Node6 -->
<g id="node6" class="node"><title>Node6</title>
<g id="a_node6"><a xlink:href="ucxh__edm_8h.html" target="_top" xlink:title=" ">
<polygon fill="white" stroke="black" points="457.239,-112.5 457.239,-131.5 527.239,-131.5 527.239,-112.5 457.239,-112.5"/>
<text text-anchor="middle" x="492.239" y="-119.5" font-family="Helvetica,sans-Serif" font-size="10.00">ucxh_edm.h</text>
</a>
</g>
</g>
<!-- Node1&#45;&gt;Node6 -->
<g id="edge18" class="edge"><title>Node1&#45;&gt;Node6</title>
<path fill="none" stroke="midnightblue" d="M190.627,-224.46C248.576,-204.966 390.694,-157.159 457.045,-134.839"/>
<polygon fill="midnightblue" stroke="midnightblue" points="458.281,-138.116 466.643,-131.61 456.049,-131.481 458.281,-138.116"/>
</g>
<!-- Node8 -->
<g id="node8" class="node"><title>Node8</title>
<g id="a_node8"><a xlink:href="ucxh__poll_8h.html" target="_top" xlink:title=" ">
<polygon fill="white" stroke="black" points="12.2395,-112.5 12.2395,-131.5 78.2395,-131.5 78.2395,-112.5 12.2395,-112.5"/>
<text text-anchor="middle" x="45.2395" y="-119.5" font-family="Helvetica,sans-Serif" font-size="10.00">ucxh_poll.h</text>
</a>
</g>
</g>
<!-- Node1&#45;&gt;Node8 -->
<g id="edge17" class="edge"><title>Node1&#45;&gt;Node8</title>
<path fill="none" stroke="midnightblue" d="M155.823,-224.368C135.582,-205.814 87.69,-161.913 62.0805,-138.438"/>
<polygon fill="midnightblue" stroke="midnightblue" points="64.3486,-135.769 54.6119,-131.591 59.6185,-140.929 64.3486,-135.769"/>
</g>
<!-- Node3&#45;&gt;Node2 -->
<g id="edge5" class="edge"><title>Node3&#45;&gt;Node2</title>
<path fill="none" stroke="midnightblue" d="M193.606,-168.368C165.978,-149.492 99.9575,-104.385 66.0768,-81.2367"/>
<polygon fill="midnightblue" stroke="midnightblue" points="68.0455,-78.3429 57.8142,-75.5914 64.0966,-84.1227 68.0455,-78.3429"/>
</g>
<!-- Node4 -->
<g id="node4" class="node"><title>Node4</title>
<g id="a_node4"><a xlink:title=" ">
<polygon fill="white" stroke="#bfbfbf" points="341.739,-112.5 341.739,-131.5 400.739,-131.5 400.739,-112.5 341.739,-112.5"/>
<text text-anchor="middle" x="371.239" y="-119.5" font-family="Helvetica,sans-Serif" font-size="10.00">inttypes.h</text>
</a>
</g>
</g>
<!-- Node3&#45;&gt;Node4 -->
<g id="edge3" class="edge"><title>Node3&#45;&gt;Node4</title>
<path fill="none" stroke="midnightblue" d="M232.384,-168.444C260.263,-159.32 304.588,-144.813 335.639,-134.651"/>
<polygon fill="midnightblue" stroke="midnightblue" points="336.802,-137.953 345.217,-131.516 334.624,-131.3 336.802,-137.953"/>
</g>
<!-- Node5 -->
<g id="node5" class="node"><title>Node5</title>
<g id="a_node5"><a xlink:title=" ">
<polygon fill="white" stroke="#bfbfbf" points="116.239,-56.5 116.239,-75.5 172.239,-75.5 172.239,-56.5 116.239,-56.5"/>
<text text-anchor="middle" x="144.239" y="-63.5" font-family="Helvetica,sans-Serif" font-size="10.00">stdbool.h</text>
</a>
</g>
</g>
<!-- Node3&#45;&gt;Node5 -->
<g id="edge4" class="edge"><title>Node3&#45;&gt;Node5</title>
<path fill="none" stroke="midnightblue" d="M195.539,-168.448C185.791,-160.116 171.667,-146.599 163.239,-132 154.882,-117.522 149.947,-99.0749 147.211,-85.534"/>
<polygon fill="midnightblue" stroke="midnightblue" points="150.622,-84.7284 145.403,-75.5084 143.733,-85.9708 150.622,-84.7284"/>
</g>
<!-- Node3&#45;&gt;Node6 -->
<g id="edge6" class="edge"><title>Node3&#45;&gt;Node6</title>
<path fill="none" stroke="midnightblue" d="M245.407,-169.605C298.119,-159.652 391.668,-141.989 447.22,-131.5"/>
<polygon fill="midnightblue" stroke="midnightblue" points="447.955,-134.923 457.132,-129.629 446.656,-128.045 447.955,-134.923"/>
</g>
<!-- Node3&#45;&gt;Node8 -->
<g id="edge8" class="edge"><title>Node3&#45;&gt;Node8</title>
<path fill="none" stroke="midnightblue" d="M180.729,-168.444C153.643,-159.359 110.649,-144.939 80.3707,-134.783"/>
<polygon fill="midnightblue" stroke="midnightblue" points="81.225,-131.378 70.6311,-131.516 78.999,-138.015 81.225,-131.378"/>
</g>
<!-- Node9 -->
<g id="node9" class="node"><title>Node9</title>
<g id="a_node9"><a xlink:href="ucxh__wait_8h.html" target="_top" xlink:title=" ">
<polygon fill="white" stroke="black" points="172.239,-112.5 172.239,-131.5 240.239,-131.5 240.239,-112.5 172.239,-112.5"/>
<text text-anchor="middle" x="206.239" y="-119.5" font-family="Helvetica,sans-Serif" font-size="10.00">ucxh_wait.h</text>
</a>
</g>
</g>
<!-- Node3&#45;&gt;Node9 -->
<g id="edge11" class="edge"><title>Node3&#45;&gt;Node9</title>
<path fill="none" stroke="midnightblue" d="M206.239,-168.083C206.239,-161.006 206.239,-150.861 206.239,-141.986"/>
<polygon fill="midnightblue" stroke="midnightblue" points="209.74,-141.751 206.239,-131.751 202.74,-141.751 209.74,-141.751"/>
</g>
<!-- Node10 -->
<g id="node10" class="node"><title>Node10</title>
<g id="a_node10"><a xlink:href="ucxh__wifi_8h.html" target="_top" xlink:title=" ">
<polygon fill="white" stroke="black" points="258.739,-112.5 258.739,-131.5 323.739,-131.5 323.739,-112.5 258.739,-112.5"/>
<text text-anchor="middle" x="291.239" y="-119.5" font-family="Helvetica,sans-Serif" font-size="10.00">ucxh_wifi.h</text>
</a>
</g>
</g>
<!-- Node3&#45;&gt;Node10 -->
<g id="edge12" class="edge"><title>Node3&#45;&gt;Node10</title>
<path fill="none" stroke="midnightblue" d="M219.896,-168.324C233.156,-159.9 253.507,-146.971 269.086,-137.074"/>
<polygon fill="midnightblue" stroke="midnightblue" points="271.053,-139.971 277.617,-131.655 267.299,-134.063 271.053,-139.971"/>
</g>
<!-- Node7 -->
<g id="node7" class="node"><title>Node7</title>
<g id="a_node7"><a xlink:title=" ">
<polygon fill="white" stroke="#bfbfbf" points="466.739,-56.5 466.739,-75.5 517.739,-75.5 517.739,-56.5 466.739,-56.5"/>
<text text-anchor="middle" x="492.239" y="-63.5" font-family="Helvetica,sans-Serif" font-size="10.00">unistd.h</text>
</a>
</g>
</g>
<!-- Node6&#45;&gt;Node7 -->
<g id="edge7" class="edge"><title>Node6&#45;&gt;Node7</title>
<path fill="none" stroke="midnightblue" d="M492.239,-112.083C492.239,-105.006 492.239,-94.8611 492.239,-85.9865"/>
<polygon fill="midnightblue" stroke="midnightblue" points="495.74,-85.751 492.239,-75.7511 488.74,-85.7511 495.74,-85.751"/>
</g>
<!-- Node8&#45;&gt;Node2 -->
<g id="edge10" class="edge"><title>Node8&#45;&gt;Node2</title>
<path fill="none" stroke="midnightblue" d="M45.2395,-112.083C45.2395,-105.006 45.2395,-94.8611 45.2395,-85.9865"/>
<polygon fill="midnightblue" stroke="midnightblue" points="48.7396,-85.751 45.2395,-75.7511 41.7396,-85.7511 48.7396,-85.751"/>
</g>
<!-- Node8&#45;&gt;Node5 -->
<g id="edge9" class="edge"><title>Node8&#45;&gt;Node5</title>
<path fill="none" stroke="midnightblue" d="M61.1455,-112.324C76.8777,-103.743 101.182,-90.486 119.448,-80.5224"/>
<polygon fill="midnightblue" stroke="midnightblue" points="121.27,-83.5157 128.373,-75.6545 117.918,-77.3704 121.27,-83.5157"/>
</g>
<!-- Node10&#45;&gt;Node5 -->
<g id="edge13" class="edge"><title>Node10&#45;&gt;Node5</title>
<path fill="none" stroke="midnightblue" d="M267.947,-112.444C243.432,-103.438 204.643,-89.1891 177.04,-79.049"/>
<polygon fill="midnightblue" stroke="midnightblue" points="178.017,-75.6793 167.423,-75.5164 175.603,-82.25 178.017,-75.6793"/>
</g>
<!-- Node11 -->
<g id="node11" class="node"><title>Node11</title>
<g id="a_node11"><a xlink:href="ucxh__urc_8h.html" target="_top" xlink:title=" ">
<polygon fill="white" stroke="black" points="320.739,-56.5 320.739,-75.5 385.739,-75.5 385.739,-56.5 320.739,-56.5"/>
<text text-anchor="middle" x="353.239" y="-63.5" font-family="Helvetica,sans-Serif" font-size="10.00">ucxh_urc.h</text>
</a>
</g>
</g>
<!-- Node10&#45;&gt;Node11 -->
<g id="edge14" class="edge"><title>Node10&#45;&gt;Node11</title>
<path fill="none" stroke="midnightblue" d="M301.201,-112.324C310.366,-104.341 324.177,-92.3128 335.268,-82.6529"/>
<polygon fill="midnightblue" stroke="midnightblue" points="337.855,-85.041 343.097,-75.8339 333.257,-79.7624 337.855,-85.041"/>
</g>
<!-- Node11&#45;&gt;Node3 -->
<g id="edge15" class="edge"><title>Node11&#45;&gt;Node3</title>
<path fill="none" stroke="midnightblue" d="M370.29,-75.6669C392.279,-87.9749 425.835,-111.323 409.239,-132 390.294,-155.605 309.064,-167.594 255.278,-173.057"/>
<polygon fill="midnightblue" stroke="midnightblue" points="254.858,-169.581 245.244,-174.033 255.536,-176.548 254.858,-169.581"/>
</g>
<!-- Node12 -->
<g id="node12" class="node"><title>Node12</title>
<g id="a_node12"><a xlink:href="autogenerated_8h.html" target="_top" xlink:title="Automatically generated function prototypes and documentation.">
<polygon fill="white" stroke="black" points="310.239,-0.5 310.239,-19.5 396.239,-19.5 396.239,-0.5 310.239,-0.5"/>
<text text-anchor="middle" x="353.239" y="-7.5" font-family="Helvetica,sans-Serif" font-size="10.00">autogenerated.h</text>
</a>
</g>
</g>
<!-- Node11&#45;&gt;Node12 -->
<g id="edge16" class="edge"><title>Node11&#45;&gt;Node12</title>
<path fill="none" stroke="midnightblue" d="M353.239,-56.083C353.239,-49.0059 353.239,-38.8611 353.239,-29.9865"/>
<polygon fill="midnightblue" stroke="midnightblue" points="356.74,-29.751 353.239,-19.7511 349.74,-29.7511 356.74,-29.751"/>
</g>
</g>
</svg>
