<?xml version="1.0" encoding="UTF-8" standalone="no"?>
<!DOCTYPE svg PUBLIC "-//W3C//DTD SVG 1.1//EN"
 "http://www.w3.org/Graphics/SVG/1.1/DTD/svg11.dtd">
<!-- Generated by graphviz version 2.38.0 (20140413.2041)
 -->
<!-- Title: ucxh_wifi.h Pages: 1 -->
<svg width="1621pt" height="252pt"
 viewBox="0.00 0.00 1621.00 252.00" xmlns="http://www.w3.org/2000/svg" xmlns:xlink="http://www.w3.org/1999/xlink">
<g id="graph0" class="graph" transform="scale(1 1) rotate(0) translate(4 248)">
<title>ucxh_wifi.h</title>
<polygon fill="white" stroke="none" points="-4,4 -4,-248 1617,-248 1617,4 -4,4"/>
<!-- Node1 -->
<g id="node1" class="node"><title>Node1</title>
<g id="a_node1"><a xlink:title=" ">
<polygon fill="#bfbfbf" stroke="black" points="1087,-224.5 1087,-243.5 1152,-243.5 1152,-224.5 1087,-224.5"/>
<text text-anchor="middle" x="1119.5" y="-231.5" font-family="Helvetica,sans-Serif" font-size="10.00">ucxh_wifi.h</text>
</a>
</g>
</g>
<!-- Node2 -->
<g id="node2" class="node"><title>Node2</title>
<g id="a_node2"><a xlink:href="ucxh__parser_8h.html" target="_top" xlink:title=" ">
<polygon fill="white" stroke="black" points="941.5,-168.5 941.5,-187.5 1019.5,-187.5 1019.5,-168.5 941.5,-168.5"/>
<text text-anchor="middle" x="980.5" y="-175.5" font-family="Helvetica,sans-Serif" font-size="10.00">ucxh_parser.h</text>
</a>
</g>
</g>
<!-- Node1&#45;&gt;Node2 -->
<g id="edge1" class="edge"><title>Node1&#45;&gt;Node2</title>
<path fill="none" stroke="midnightblue" d="M1088.02,-220.772C1061.91,-210.629 1025.46,-196.467 1002.42,-187.516"/>
<polygon fill="midnightblue" stroke="midnightblue" points="1086.89,-224.085 1097.48,-224.444 1089.42,-217.56 1086.89,-224.085"/>
</g>
<!-- Node4 -->
<g id="node4" class="node"><title>Node4</title>
<g id="a_node4"><a xlink:href="ucxh__library_8h.html" target="_top" xlink:title=" ">
<polygon fill="white" stroke="black" points="823,-56.5 823,-75.5 900,-75.5 900,-56.5 823,-56.5"/>
<text text-anchor="middle" x="861.5" y="-63.5" font-family="Helvetica,sans-Serif" font-size="10.00">ucxh_library.h</text>
</a>
</g>
</g>
<!-- Node1&#45;&gt;Node4 -->
<g id="edge24" class="edge"><title>Node1&#45;&gt;Node4</title>
<path fill="none" stroke="midnightblue" d="M1126.98,-215.064C1136.49,-189.091 1148.92,-140.957 1124.5,-112 1096.24,-78.4932 966.032,-69.9341 900.053,-67.7487"/>
<polygon fill="midnightblue" stroke="midnightblue" points="1123.7,-213.841 1123.32,-224.429 1130.22,-216.389 1123.7,-213.841"/>
</g>
<!-- Node8 -->
<g id="node8" class="node"><title>Node8</title>
<g id="a_node8"><a xlink:href="ex__wifi__pos_8c.html" target="_top" xlink:title=" ">
<polygon fill="white" stroke="black" points="1538,-0.5 1538,-19.5 1613,-19.5 1613,-0.5 1538,-0.5"/>
<text text-anchor="middle" x="1575.5" y="-7.5" font-family="Helvetica,sans-Serif" font-size="10.00">ex_wifi_pos.c</text>
</a>
</g>
</g>
<!-- Node1&#45;&gt;Node8 -->
<g id="edge25" class="edge"><title>Node1&#45;&gt;Node8</title>
<path fill="none" stroke="midnightblue" d="M1146.24,-219.981C1230.28,-179.069 1487.62,-53.785 1557.71,-19.6608"/>
<polygon fill="midnightblue" stroke="midnightblue" points="1144.56,-216.909 1137.1,-224.433 1147.62,-223.203 1144.56,-216.909"/>
</g>
<!-- Node3 -->
<g id="node3" class="node"><title>Node3</title>
<g id="a_node3"><a xlink:href="ucxh__edm__parser_8h.html" target="_top" xlink:title=" ">
<polygon fill="white" stroke="black" points="770.5,-112.5 770.5,-131.5 872.5,-131.5 872.5,-112.5 770.5,-112.5"/>
<text text-anchor="middle" x="821.5" y="-119.5" font-family="Helvetica,sans-Serif" font-size="10.00">ucxh_edm_parser.h</text>
</a>
</g>
</g>
<!-- Node2&#45;&gt;Node3 -->
<g id="edge2" class="edge"><title>Node2&#45;&gt;Node3</title>
<path fill="none" stroke="midnightblue" d="M945.673,-165.172C915.734,-155.004 873.279,-140.585 846.576,-131.516"/>
<polygon fill="midnightblue" stroke="midnightblue" points="944.712,-168.542 955.306,-168.444 946.963,-161.914 944.712,-168.542"/>
</g>
<!-- Node2&#45;&gt;Node4 -->
<g id="edge22" class="edge"><title>Node2&#45;&gt;Node4</title>
<path fill="none" stroke="midnightblue" d="M958.741,-162.594C946.704,-154.227 931.748,-143.159 919.5,-132 899.153,-113.462 878.422,-88.4294 868.137,-75.5067"/>
<polygon fill="midnightblue" stroke="midnightblue" points="957.05,-165.677 967.284,-168.422 960.996,-159.895 957.05,-165.677"/>
</g>
<!-- Node21 -->
<g id="node21" class="node"><title>Node21</title>
<g id="a_node21"><a xlink:href="ucxh__urc_8h.html" target="_top" xlink:title=" ">
<polygon fill="white" stroke="black" points="1051,-112.5 1051,-131.5 1116,-131.5 1116,-112.5 1051,-112.5"/>
<text text-anchor="middle" x="1083.5" y="-119.5" font-family="Helvetica,sans-Serif" font-size="10.00">ucxh_urc.h</text>
</a>
</g>
</g>
<!-- Node2&#45;&gt;Node21 -->
<g id="edge20" class="edge"><title>Node2&#45;&gt;Node21</title>
<path fill="none" stroke="midnightblue" d="M1006.08,-163.59C1025.12,-153.605 1050.56,-140.267 1066.99,-131.655"/>
<polygon fill="midnightblue" stroke="midnightblue" points="1004.28,-160.581 997.049,-168.324 1007.53,-166.78 1004.28,-160.581"/>
</g>
<!-- Node22 -->
<g id="node22" class="node"><title>Node22</title>
<g id="a_node22"><a xlink:href="ucxh__serial__mock_8c.html" target="_top" xlink:title=" ">
<polygon fill="white" stroke="black" points="928.5,-112.5 928.5,-131.5 1032.5,-131.5 1032.5,-112.5 928.5,-112.5"/>
<text text-anchor="middle" x="980.5" y="-119.5" font-family="Helvetica,sans-Serif" font-size="10.00">ucxh_serial_mock.c</text>
</a>
</g>
</g>
<!-- Node2&#45;&gt;Node22 -->
<g id="edge23" class="edge"><title>Node2&#45;&gt;Node22</title>
<path fill="none" stroke="midnightblue" d="M980.5,-157.805C980.5,-148.91 980.5,-138.78 980.5,-131.751"/>
<polygon fill="midnightblue" stroke="midnightblue" points="977,-158.083 980.5,-168.083 984,-158.083 977,-158.083"/>
</g>
<!-- Node3&#45;&gt;Node4 -->
<g id="edge3" class="edge"><title>Node3&#45;&gt;Node4</title>
<path fill="none" stroke="midnightblue" d="M834.2,-103.855C841.126,-94.5048 849.406,-83.3265 855.018,-75.7511"/>
<polygon fill="midnightblue" stroke="midnightblue" points="831.245,-101.964 828.105,-112.083 836.87,-106.131 831.245,-101.964"/>
</g>
<!-- Node5 -->
<g id="node5" class="node"><title>Node5</title>
<g id="a_node5"><a xlink:href="ex__callbacks__edm__wifi_8c.html" target="_top" xlink:title=" ">
<polygon fill="white" stroke="black" points="0,-0.5 0,-19.5 125,-19.5 125,-0.5 0,-0.5"/>
<text text-anchor="middle" x="62.5" y="-7.5" font-family="Helvetica,sans-Serif" font-size="10.00">ex_callbacks_edm_wifi.c</text>
</a>
</g>
</g>
<!-- Node4&#45;&gt;Node5 -->
<g id="edge4" class="edge"><title>Node4&#45;&gt;Node5</title>
<path fill="none" stroke="midnightblue" d="M812.736,-63.0362C695.628,-58.0903 389.33,-43.7902 134.5,-20 131.49,-19.719 128.411,-19.4115 125.303,-19.0851"/>
<polygon fill="midnightblue" stroke="midnightblue" points="812.678,-66.5367 822.815,-63.4585 812.971,-59.5429 812.678,-66.5367"/>
</g>
<!-- Node6 -->
<g id="node6" class="node"><title>Node6</title>
<g id="a_node6"><a xlink:href="ex__http__get_8c.html" target="_top" xlink:title=" ">
<polygon fill="white" stroke="black" points="143.5,-0.5 143.5,-19.5 219.5,-19.5 219.5,-0.5 143.5,-0.5"/>
<text text-anchor="middle" x="181.5" y="-7.5" font-family="Helvetica,sans-Serif" font-size="10.00">ex_http_get.c</text>
</a>
</g>
</g>
<!-- Node4&#45;&gt;Node6 -->
<g id="edge5" class="edge"><title>Node4&#45;&gt;Node6</title>
<path fill="none" stroke="midnightblue" d="M812.69,-63.4967C706.21,-59.7868 445.23,-48.3534 228.5,-20 225.617,-19.6228 222.643,-19.1805 219.658,-18.698"/>
<polygon fill="midnightblue" stroke="midnightblue" points="812.693,-66.9988 822.806,-63.842 812.931,-60.0028 812.693,-66.9988"/>
</g>
<!-- Node7 -->
<g id="node7" class="node"><title>Node7</title>
<g id="a_node7"><a xlink:href="ex__readmisc_8c.html" target="_top" xlink:title=" ">
<polygon fill="white" stroke="black" points="237.5,-0.5 237.5,-19.5 317.5,-19.5 317.5,-0.5 237.5,-0.5"/>
<text text-anchor="middle" x="277.5" y="-7.5" font-family="Helvetica,sans-Serif" font-size="10.00">ex_readmisc.c</text>
</a>
</g>
</g>
<!-- Node4&#45;&gt;Node7 -->
<g id="edge6" class="edge"><title>Node4&#45;&gt;Node7</title>
<path fill="none" stroke="midnightblue" d="M812.663,-62.4938C718.375,-57.3011 504.825,-43.8184 326.5,-20 323.585,-19.6107 320.58,-19.166 317.561,-18.6876"/>
<polygon fill="midnightblue" stroke="midnightblue" points="812.58,-65.9944 822.756,-63.0429 812.961,-59.0047 812.58,-65.9944"/>
</g>
<!-- Node4&#45;&gt;Node8 -->
<g id="edge7" class="edge"><title>Node4&#45;&gt;Node8</title>
<path fill="none" stroke="midnightblue" d="M910.161,-63.7474C1020.55,-60.4627 1298.23,-49.7026 1528.5,-20 1531.55,-19.6067 1534.7,-19.1392 1537.85,-18.627"/>
<polygon fill="midnightblue" stroke="midnightblue" points="909.902,-60.2533 900.008,-64.0423 910.106,-67.2504 909.902,-60.2533"/>
</g>
<!-- Node9 -->
<g id="node9" class="node"><title>Node9</title>
<g id="a_node9"><a xlink:href="test__at__peer_8c.html" target="_top" xlink:title="Tests from chapter 5: AT&#45;commands UDDPRP and ucxhCOMMAND_writeDefaultRemotePeer() .">
<polygon fill="white" stroke="black" points="336,-0.5 336,-19.5 415,-19.5 415,-0.5 336,-0.5"/>
<text text-anchor="middle" x="375.5" y="-7.5" font-family="Helvetica,sans-Serif" font-size="10.00">test_at_peer.c</text>
</a>
</g>
</g>
<!-- Node4&#45;&gt;Node9 -->
<g id="edge8" class="edge"><title>Node4&#45;&gt;Node9</title>
<path fill="none" stroke="midnightblue" d="M812.408,-61.2184C731.384,-54.6917 564.677,-40.0587 424.5,-20 421.418,-19.5589 418.233,-19.0639 415.036,-18.5389"/>
<polygon fill="midnightblue" stroke="midnightblue" points="812.546,-64.7405 822.793,-62.0482 813.103,-57.7627 812.546,-64.7405"/>
</g>
<!-- Node10 -->
<g id="node10" class="node"><title>Node10</title>
<g id="a_node10"><a xlink:href="test__at__wifi_8c.html" target="_top" xlink:title="Tests from chapter 17, 10: AT&#45;commands UWSSTAT UNSTAT UWSCA UWSC and MODULE_writeWifiStationConfigura...">
<polygon fill="white" stroke="black" points="433.5,-0.5 433.5,-19.5 507.5,-19.5 507.5,-0.5 433.5,-0.5"/>
<text text-anchor="middle" x="470.5" y="-7.5" font-family="Helvetica,sans-Serif" font-size="10.00">test_at_wifi.c</text>
</a>
</g>
</g>
<!-- Node4&#45;&gt;Node10 -->
<g id="edge9" class="edge"><title>Node4&#45;&gt;Node10</title>
<path fill="none" stroke="midnightblue" d="M812.586,-59.611C745.592,-52.0043 621.616,-37.1208 516.5,-20 513.609,-19.5291 510.621,-19.0126 507.621,-18.4727"/>
<polygon fill="midnightblue" stroke="midnightblue" points="812.507,-63.1243 822.837,-60.7685 813.293,-56.1685 812.507,-63.1243"/>
</g>
<!-- Node11 -->
<g id="node11" class="node"><title>Node11</title>
<g id="a_node11"><a xlink:href="test__ati9_8c.html" target="_top" xlink:title="Tests Hello, World / Issue AT command.">
<polygon fill="white" stroke="black" points="525.5,-0.5 525.5,-19.5 587.5,-19.5 587.5,-0.5 525.5,-0.5"/>
<text text-anchor="middle" x="556.5" y="-7.5" font-family="Helvetica,sans-Serif" font-size="10.00">test_ati9.c</text>
</a>
</g>
</g>
<!-- Node4&#45;&gt;Node11 -->
<g id="edge10" class="edge"><title>Node4&#45;&gt;Node11</title>
<path fill="none" stroke="midnightblue" d="M812.577,-57.4901C759.29,-49.1245 671.613,-34.8169 596.5,-20 593.707,-19.449 590.81,-18.8504 587.91,-18.2326"/>
<polygon fill="midnightblue" stroke="midnightblue" points="812.341,-60.9957 822.762,-59.0824 813.423,-54.0797 812.341,-60.9957"/>
</g>
<!-- Node12 -->
<g id="node12" class="node"><title>Node12</title>
<g id="a_node12"><a xlink:href="test__datamode_8c.html" target="_top" xlink:title="Tests transmit over Data mode.">
<polygon fill="white" stroke="black" points="606,-0.5 606,-19.5 695,-19.5 695,-0.5 606,-0.5"/>
<text text-anchor="middle" x="650.5" y="-7.5" font-family="Helvetica,sans-Serif" font-size="10.00">test_datamode.c</text>
</a>
</g>
</g>
<!-- Node4&#45;&gt;Node12 -->
<g id="edge11" class="edge"><title>Node4&#45;&gt;Node12</title>
<path fill="none" stroke="midnightblue" d="M818.358,-53.959C778.506,-43.7598 720.137,-28.8217 683.777,-19.5164"/>
<polygon fill="midnightblue" stroke="midnightblue" points="817.511,-57.3549 828.066,-56.4435 819.246,-50.5734 817.511,-57.3549"/>
</g>
<!-- Node13 -->
<g id="node13" class="node"><title>Node13</title>
<g id="a_node13"><a xlink:href="test__edm__at_8c.html" target="_top" xlink:title="Hello, World / Issue AT command using EDM.">
<polygon fill="white" stroke="black" points="713,-0.5 713,-19.5 792,-19.5 792,-0.5 713,-0.5"/>
<text text-anchor="middle" x="752.5" y="-7.5" font-family="Helvetica,sans-Serif" font-size="10.00">test_edm_at.c</text>
</a>
</g>
</g>
<!-- Node4&#45;&gt;Node13 -->
<g id="edge12" class="edge"><title>Node4&#45;&gt;Node13</title>
<path fill="none" stroke="midnightblue" d="M834.981,-51.8622C814.77,-41.8492 787.513,-28.3458 769.969,-19.6545"/>
<polygon fill="midnightblue" stroke="midnightblue" points="833.473,-55.0209 843.987,-56.324 836.58,-48.7485 833.473,-55.0209"/>
</g>
<!-- Node14 -->
<g id="node14" class="node"><title>Node14</title>
<g id="a_node14"><a xlink:href="test__edm__at__read_8c.html" target="_top" xlink:title="Tests, using EDM, read status from the module.">
<polygon fill="white" stroke="black" points="810,-0.5 810,-19.5 913,-19.5 913,-0.5 810,-0.5"/>
<text text-anchor="middle" x="861.5" y="-7.5" font-family="Helvetica,sans-Serif" font-size="10.00">test_edm_at_read.c</text>
</a>
</g>
</g>
<!-- Node4&#45;&gt;Node14 -->
<g id="edge13" class="edge"><title>Node4&#45;&gt;Node14</title>
<path fill="none" stroke="midnightblue" d="M861.5,-45.8045C861.5,-36.9102 861.5,-26.7798 861.5,-19.7511"/>
<polygon fill="midnightblue" stroke="midnightblue" points="858,-46.083 861.5,-56.083 865,-46.083 858,-46.083"/>
</g>
<!-- Node15 -->
<g id="node15" class="node"><title>Node15</title>
<g id="a_node15"><a xlink:href="test__getgeneral_8c.html" target="_top" xlink:title="Tests from chapter 3: AT&#45;commands I, GMI, GMM, GMR, GSN .">
<polygon fill="white" stroke="black" points="931.5,-0.5 931.5,-19.5 1023.5,-19.5 1023.5,-0.5 931.5,-0.5"/>
<text text-anchor="middle" x="977.5" y="-7.5" font-family="Helvetica,sans-Serif" font-size="10.00">test_getgeneral.c</text>
</a>
</g>
</g>
<!-- Node4&#45;&gt;Node15 -->
<g id="edge14" class="edge"><title>Node4&#45;&gt;Node15</title>
<path fill="none" stroke="midnightblue" d="M889.22,-52.096C910.892,-42.0073 940.402,-28.2697 959.205,-19.5164"/>
<polygon fill="midnightblue" stroke="midnightblue" points="887.469,-49.0501 879.881,-56.4435 890.423,-55.3962 887.469,-49.0501"/>
</g>
<!-- Node16 -->
<g id="node16" class="node"><title>Node16</title>
<g id="a_node16"><a xlink:href="test__getsystem_8c.html" target="_top" xlink:title="Tests from chapter 4: AT&#45;commands +UMLA .">
<polygon fill="white" stroke="black" points="1041.5,-0.5 1041.5,-19.5 1133.5,-19.5 1133.5,-0.5 1041.5,-0.5"/>
<text text-anchor="middle" x="1087.5" y="-7.5" font-family="Helvetica,sans-Serif" font-size="10.00">test_getsystem.c</text>
</a>
</g>
</g>
<!-- Node4&#45;&gt;Node16 -->
<g id="edge15" class="edge"><title>Node4&#45;&gt;Node16</title>
<path fill="none" stroke="midnightblue" d="M907.167,-54.0884C949.864,-43.8865 1012.75,-28.8612 1051.86,-19.5164"/>
<polygon fill="midnightblue" stroke="midnightblue" points="906.223,-50.7153 897.31,-56.4435 907.85,-57.5237 906.223,-50.7153"/>
</g>
<!-- Node17 -->
<g id="node17" class="node"><title>Node17</title>
<g id="a_node17"><a xlink:href="test__mock__ati9_8c.html" target="_top" xlink:title="Hello, World / Issue AT command to mocked serial driver.">
<polygon fill="white" stroke="black" points="1151.5,-0.5 1151.5,-19.5 1243.5,-19.5 1243.5,-0.5 1151.5,-0.5"/>
<text text-anchor="middle" x="1197.5" y="-7.5" font-family="Helvetica,sans-Serif" font-size="10.00">test_mock_ati9.c</text>
</a>
</g>
</g>
<!-- Node4&#45;&gt;Node17 -->
<g id="edge16" class="edge"><title>Node4&#45;&gt;Node17</title>
<path fill="none" stroke="midnightblue" d="M910.141,-57.262C966.175,-48.336 1061,-33.1934 1142.5,-20 1145.37,-19.5361 1148.31,-19.0574 1151.29,-18.5736"/>
<polygon fill="midnightblue" stroke="midnightblue" points="909.467,-53.8251 900.142,-58.8544 910.568,-60.738 909.467,-53.8251"/>
</g>
<!-- Node18 -->
<g id="node18" class="node"><title>Node18</title>
<g id="a_node18"><a xlink:href="test__send_8c.html" target="_top" xlink:title="Tests the functions used for building and sending AT commands.">
<polygon fill="white" stroke="black" points="1261.5,-0.5 1261.5,-19.5 1329.5,-19.5 1329.5,-0.5 1261.5,-0.5"/>
<text text-anchor="middle" x="1295.5" y="-7.5" font-family="Helvetica,sans-Serif" font-size="10.00">test_send.c</text>
</a>
</g>
</g>
<!-- Node4&#45;&gt;Node18 -->
<g id="edge17" class="edge"><title>Node4&#45;&gt;Node18</title>
<path fill="none" stroke="midnightblue" d="M910.214,-60.8416C984.378,-54.1843 1129.94,-39.8364 1252.5,-20 1255.36,-19.537 1258.32,-19.0131 1261.29,-18.4566"/>
<polygon fill="midnightblue" stroke="midnightblue" points="909.883,-57.3571 900.233,-61.7297 910.503,-64.3296 909.883,-57.3571"/>
</g>
<!-- Node19 -->
<g id="node19" class="node"><title>Node19</title>
<g id="a_node19"><a xlink:href="test__tokenizer_8c.html" target="_top" xlink:title="Tests the tokenizer of the URC parser.">
<polygon fill="white" stroke="black" points="1347.5,-0.5 1347.5,-19.5 1433.5,-19.5 1433.5,-0.5 1347.5,-0.5"/>
<text text-anchor="middle" x="1390.5" y="-7.5" font-family="Helvetica,sans-Serif" font-size="10.00">test_tokenizer.c</text>
</a>
</g>
</g>
<!-- Node4&#45;&gt;Node19 -->
<g id="edge18" class="edge"><title>Node4&#45;&gt;Node19</title>
<path fill="none" stroke="midnightblue" d="M910.307,-61.6477C996.814,-55.4271 1182.62,-40.8109 1338.5,-20 1341.41,-19.612 1344.4,-19.1804 1347.41,-18.7222"/>
<polygon fill="midnightblue" stroke="midnightblue" points="909.984,-58.1618 900.258,-62.3645 910.482,-65.144 909.984,-58.1618"/>
</g>
<!-- Node20 -->
<g id="node20" class="node"><title>Node20</title>
<g id="a_node20"><a xlink:href="test__tools_8c.html" target="_top" xlink:title=" ">
<polygon fill="white" stroke="black" points="1451.5,-0.5 1451.5,-19.5 1519.5,-19.5 1519.5,-0.5 1451.5,-0.5"/>
<text text-anchor="middle" x="1485.5" y="-7.5" font-family="Helvetica,sans-Serif" font-size="10.00">test_tools.c</text>
</a>
</g>
</g>
<!-- Node4&#45;&gt;Node20 -->
<g id="edge19" class="edge"><title>Node4&#45;&gt;Node20</title>
<path fill="none" stroke="midnightblue" d="M910.212,-63.3509C1010.35,-59.4943 1246.38,-48.0003 1442.5,-20 1445.37,-19.5904 1448.33,-19.104 1451.3,-18.5728"/>
<polygon fill="midnightblue" stroke="midnightblue" points="909.96,-59.8578 900.099,-63.732 910.224,-66.8528 909.96,-59.8578"/>
</g>
<!-- Node21&#45;&gt;Node1 -->
<g id="edge21" class="edge"><title>Node21&#45;&gt;Node1</title>
<path fill="none" stroke="midnightblue" d="M1089.48,-141.272C1097.34,-165.295 1110.84,-206.537 1116.68,-224.368"/>
<polygon fill="midnightblue" stroke="midnightblue" points="1092.75,-140.007 1086.31,-131.591 1086.1,-142.184 1092.75,-140.007"/>
</g>
</g>
</svg>
