<?xml version="1.0" encoding="UTF-8" standalone="no"?>
<!DOCTYPE svg PUBLIC "-//W3C//DTD SVG 1.1//EN"
 "http://www.w3.org/Graphics/SVG/1.1/DTD/svg11.dtd">
<!-- Generated by graphviz version 2.38.0 (20140413.2041)
 -->
<!-- Title: ucxh_library.h Pages: 1 -->
<svg width="1621pt" height="84pt"
 viewBox="0.00 0.00 1620.50 84.00" xmlns="http://www.w3.org/2000/svg" xmlns:xlink="http://www.w3.org/1999/xlink">
<g id="graph0" class="graph" transform="scale(1 1) rotate(0) translate(4 80)">
<title>ucxh_library.h</title>
<polygon fill="white" stroke="none" points="-4,4 -4,-80 1616.5,-80 1616.5,4 -4,4"/>
<!-- Node1 -->
<g id="node1" class="node"><title>Node1</title>
<g id="a_node1"><a xlink:title=" ">
<polygon fill="#bfbfbf" stroke="black" points="756,-56.5 756,-75.5 833,-75.5 833,-56.5 756,-56.5"/>
<text text-anchor="middle" x="794.5" y="-63.5" font-family="Helvetica,sans-Serif" font-size="10.00">ucxh_library.h</text>
</a>
</g>
</g>
<!-- Node2 -->
<g id="node2" class="node"><title>Node2</title>
<g id="a_node2"><a xlink:href="ex__callbacks__edm__wifi_8c.html" target="_top" xlink:title=" ">
<polygon fill="white" stroke="black" points="0,-0.5 0,-19.5 125,-19.5 125,-0.5 0,-0.5"/>
<text text-anchor="middle" x="62.5" y="-7.5" font-family="Helvetica,sans-Serif" font-size="10.00">ex_callbacks_edm_wifi.c</text>
</a>
</g>
</g>
<!-- Node1&#45;&gt;Node2 -->
<g id="edge1" class="edge"><title>Node1&#45;&gt;Node2</title>
<path fill="none" stroke="midnightblue" d="M745.675,-62.6134C636.161,-57.054 362.636,-42.0183 134.5,-20 131.491,-19.7096 128.413,-19.3945 125.306,-19.0619"/>
<polygon fill="midnightblue" stroke="midnightblue" points="745.59,-66.1135 755.754,-63.1218 745.943,-59.1224 745.59,-66.1135"/>
</g>
<!-- Node3 -->
<g id="node3" class="node"><title>Node3</title>
<g id="a_node3"><a xlink:href="ex__http__get_8c.html" target="_top" xlink:title=" ">
<polygon fill="white" stroke="black" points="143.5,-0.5 143.5,-19.5 219.5,-19.5 219.5,-0.5 143.5,-0.5"/>
<text text-anchor="middle" x="181.5" y="-7.5" font-family="Helvetica,sans-Serif" font-size="10.00">ex_http_get.c</text>
</a>
</g>
</g>
<!-- Node1&#45;&gt;Node3 -->
<g id="edge2" class="edge"><title>Node1&#45;&gt;Node3</title>
<path fill="none" stroke="midnightblue" d="M745.699,-62.9284C647.444,-58.3592 418.89,-45.7182 228.5,-20 225.618,-19.6107 222.646,-19.1597 219.662,-18.671"/>
<polygon fill="midnightblue" stroke="midnightblue" points="745.763,-66.4349 755.913,-63.396 746.083,-59.4422 745.763,-66.4349"/>
</g>
<!-- Node4 -->
<g id="node4" class="node"><title>Node4</title>
<g id="a_node4"><a xlink:href="ex__readmisc_8c.html" target="_top" xlink:title=" ">
<polygon fill="white" stroke="black" points="237.5,-0.5 237.5,-19.5 317.5,-19.5 317.5,-0.5 237.5,-0.5"/>
<text text-anchor="middle" x="277.5" y="-7.5" font-family="Helvetica,sans-Serif" font-size="10.00">ex_readmisc.c</text>
</a>
</g>
</g>
<!-- Node1&#45;&gt;Node4 -->
<g id="edge3" class="edge"><title>Node1&#45;&gt;Node4</title>
<path fill="none" stroke="midnightblue" d="M745.684,-61.6923C660.391,-55.6039 478.797,-41.2685 326.5,-20 323.588,-19.5933 320.584,-19.1358 317.566,-18.6483"/>
<polygon fill="midnightblue" stroke="midnightblue" points="745.623,-65.1966 755.845,-62.4109 746.117,-58.214 745.623,-65.1966"/>
</g>
<!-- Node5 -->
<g id="node5" class="node"><title>Node5</title>
<g id="a_node5"><a xlink:href="ex__wifi__pos_8c.html" target="_top" xlink:title=" ">
<polygon fill="white" stroke="black" points="336,-0.5 336,-19.5 411,-19.5 411,-0.5 336,-0.5"/>
<text text-anchor="middle" x="373.5" y="-7.5" font-family="Helvetica,sans-Serif" font-size="10.00">ex_wifi_pos.c</text>
</a>
</g>
</g>
<!-- Node1&#45;&gt;Node5 -->
<g id="edge4" class="edge"><title>Node1&#45;&gt;Node5</title>
<path fill="none" stroke="midnightblue" d="M745.682,-60.3035C673.969,-53.1415 536.026,-38.3652 419.5,-20 416.767,-19.5693 413.949,-19.0942 411.116,-18.5941"/>
<polygon fill="midnightblue" stroke="midnightblue" points="745.475,-63.8 755.772,-61.3044 746.166,-56.8342 745.475,-63.8"/>
</g>
<!-- Node6 -->
<g id="node6" class="node"><title>Node6</title>
<g id="a_node6"><a xlink:href="test__at__peer_8c.html" target="_top" xlink:title="Tests from chapter 5: AT&#45;commands UDDPRP and ucxhCOMMAND_writeDefaultRemotePeer() .">
<polygon fill="white" stroke="black" points="429,-0.5 429,-19.5 508,-19.5 508,-0.5 429,-0.5"/>
<text text-anchor="middle" x="468.5" y="-7.5" font-family="Helvetica,sans-Serif" font-size="10.00">test_at_peer.c</text>
</a>
</g>
</g>
<!-- Node1&#45;&gt;Node6 -->
<g id="edge5" class="edge"><title>Node1&#45;&gt;Node6</title>
<path fill="none" stroke="midnightblue" d="M746.041,-57.4373C690.707,-48.7299 597.494,-33.8426 517.5,-20 514.432,-19.4691 511.258,-18.9095 508.068,-18.3398"/>
<polygon fill="midnightblue" stroke="midnightblue" points="745.498,-60.8949 755.92,-58.9896 746.585,-53.9798 745.498,-60.8949"/>
</g>
<!-- Node7 -->
<g id="node7" class="node"><title>Node7</title>
<g id="a_node7"><a xlink:href="test__at__wifi_8c.html" target="_top" xlink:title="Tests from chapter 17, 10: AT&#45;commands UWSSTAT UNSTAT UWSCA UWSC and MODULE_writeWifiStationConfigura...">
<polygon fill="white" stroke="black" points="526.5,-0.5 526.5,-19.5 600.5,-19.5 600.5,-0.5 526.5,-0.5"/>
<text text-anchor="middle" x="563.5" y="-7.5" font-family="Helvetica,sans-Serif" font-size="10.00">test_at_wifi.c</text>
</a>
</g>
</g>
<!-- Node1&#45;&gt;Node7 -->
<g id="edge6" class="edge"><title>Node1&#45;&gt;Node7</title>
<path fill="none" stroke="midnightblue" d="M748.098,-54.1529C704.453,-43.95 639.99,-28.8809 599.931,-19.5164"/>
<polygon fill="midnightblue" stroke="midnightblue" points="747.363,-57.5753 757.897,-56.4435 748.957,-50.7591 747.363,-57.5753"/>
</g>
<!-- Node8 -->
<g id="node8" class="node"><title>Node8</title>
<g id="a_node8"><a xlink:href="test__ati9_8c.html" target="_top" xlink:title="Tests Hello, World / Issue AT command.">
<polygon fill="white" stroke="black" points="618.5,-0.5 618.5,-19.5 680.5,-19.5 680.5,-0.5 618.5,-0.5"/>
<text text-anchor="middle" x="649.5" y="-7.5" font-family="Helvetica,sans-Serif" font-size="10.00">test_ati9.c</text>
</a>
</g>
</g>
<!-- Node1&#45;&gt;Node8 -->
<g id="edge7" class="edge"><title>Node1&#45;&gt;Node8</title>
<path fill="none" stroke="midnightblue" d="M762.025,-52.9058C734.764,-42.7536 696.508,-28.5063 672.368,-19.5164"/>
<polygon fill="midnightblue" stroke="midnightblue" points="760.932,-56.2334 771.524,-56.4435 763.375,-49.6736 760.932,-56.2334"/>
</g>
<!-- Node9 -->
<g id="node9" class="node"><title>Node9</title>
<g id="a_node9"><a xlink:href="test__datamode_8c.html" target="_top" xlink:title="Tests transmit over Data mode.">
<polygon fill="white" stroke="black" points="699,-0.5 699,-19.5 788,-19.5 788,-0.5 699,-0.5"/>
<text text-anchor="middle" x="743.5" y="-7.5" font-family="Helvetica,sans-Serif" font-size="10.00">test_datamode.c</text>
</a>
</g>
</g>
<!-- Node1&#45;&gt;Node9 -->
<g id="edge8" class="edge"><title>Node1&#45;&gt;Node9</title>
<path fill="none" stroke="midnightblue" d="M779.122,-48.7175C770.133,-39.1997 759.141,-27.5608 751.765,-19.7511"/>
<polygon fill="midnightblue" stroke="midnightblue" points="776.668,-51.216 786.078,-56.083 781.757,-46.4096 776.668,-51.216"/>
</g>
<!-- Node10 -->
<g id="node10" class="node"><title>Node10</title>
<g id="a_node10"><a xlink:href="test__edm__at_8c.html" target="_top" xlink:title="Hello, World / Issue AT command using EDM.">
<polygon fill="white" stroke="black" points="806,-0.5 806,-19.5 885,-19.5 885,-0.5 806,-0.5"/>
<text text-anchor="middle" x="845.5" y="-7.5" font-family="Helvetica,sans-Serif" font-size="10.00">test_edm_at.c</text>
</a>
</g>
</g>
<!-- Node1&#45;&gt;Node10 -->
<g id="edge9" class="edge"><title>Node1&#45;&gt;Node10</title>
<path fill="none" stroke="midnightblue" d="M809.878,-48.7175C818.867,-39.1997 829.859,-27.5608 837.235,-19.7511"/>
<polygon fill="midnightblue" stroke="midnightblue" points="807.243,-46.4096 802.922,-56.083 812.332,-51.216 807.243,-46.4096"/>
</g>
<!-- Node11 -->
<g id="node11" class="node"><title>Node11</title>
<g id="a_node11"><a xlink:href="test__edm__at__read_8c.html" target="_top" xlink:title="Tests, using EDM, read status from the module.">
<polygon fill="white" stroke="black" points="903,-0.5 903,-19.5 1006,-19.5 1006,-0.5 903,-0.5"/>
<text text-anchor="middle" x="954.5" y="-7.5" font-family="Helvetica,sans-Serif" font-size="10.00">test_edm_at_read.c</text>
</a>
</g>
</g>
<!-- Node1&#45;&gt;Node11 -->
<g id="edge10" class="edge"><title>Node1&#45;&gt;Node11</title>
<path fill="none" stroke="midnightblue" d="M829.546,-53.172C859.674,-43.0039 902.396,-28.5852 929.266,-19.5164"/>
<polygon fill="midnightblue" stroke="midnightblue" points="828.208,-49.9295 819.852,-56.4435 830.447,-56.5619 828.208,-49.9295"/>
</g>
<!-- Node12 -->
<g id="node12" class="node"><title>Node12</title>
<g id="a_node12"><a xlink:href="test__getgeneral_8c.html" target="_top" xlink:title="Tests from chapter 3: AT&#45;commands I, GMI, GMM, GMR, GSN .">
<polygon fill="white" stroke="black" points="1024.5,-0.5 1024.5,-19.5 1116.5,-19.5 1116.5,-0.5 1024.5,-0.5"/>
<text text-anchor="middle" x="1070.5" y="-7.5" font-family="Helvetica,sans-Serif" font-size="10.00">test_getgeneral.c</text>
</a>
</g>
</g>
<!-- Node1&#45;&gt;Node12 -->
<g id="edge11" class="edge"><title>Node1&#45;&gt;Node12</title>
<path fill="none" stroke="midnightblue" d="M843.14,-55.4836C895.066,-45.324 976.609,-29.37 1026.63,-19.5834"/>
<polygon fill="midnightblue" stroke="midnightblue" points="842.309,-52.0796 833.167,-57.4347 843.653,-58.9494 842.309,-52.0796"/>
</g>
<!-- Node13 -->
<g id="node13" class="node"><title>Node13</title>
<g id="a_node13"><a xlink:href="test__getsystem_8c.html" target="_top" xlink:title="Tests from chapter 4: AT&#45;commands +UMLA .">
<polygon fill="white" stroke="black" points="1134.5,-0.5 1134.5,-19.5 1226.5,-19.5 1226.5,-0.5 1134.5,-0.5"/>
<text text-anchor="middle" x="1180.5" y="-7.5" font-family="Helvetica,sans-Serif" font-size="10.00">test_getsystem.c</text>
</a>
</g>
</g>
<!-- Node1&#45;&gt;Node13 -->
<g id="edge12" class="edge"><title>Node1&#45;&gt;Node13</title>
<path fill="none" stroke="midnightblue" d="M843.314,-58.7837C907.936,-50.4583 1025.4,-34.9919 1125.5,-20 1128.37,-19.5701 1131.32,-19.1173 1134.3,-18.653"/>
<polygon fill="midnightblue" stroke="midnightblue" points="842.497,-55.3599 833.025,-60.1065 843.39,-62.3028 842.497,-55.3599"/>
</g>
<!-- Node14 -->
<g id="node14" class="node"><title>Node14</title>
<g id="a_node14"><a xlink:href="test__mock__ati9_8c.html" target="_top" xlink:title="Hello, World / Issue AT command to mocked serial driver.">
<polygon fill="white" stroke="black" points="1244.5,-0.5 1244.5,-19.5 1336.5,-19.5 1336.5,-0.5 1244.5,-0.5"/>
<text text-anchor="middle" x="1290.5" y="-7.5" font-family="Helvetica,sans-Serif" font-size="10.00">test_mock_ati9.c</text>
</a>
</g>
</g>
<!-- Node1&#45;&gt;Node14 -->
<g id="edge13" class="edge"><title>Node1&#45;&gt;Node14</title>
<path fill="none" stroke="midnightblue" d="M843.684,-60.9597C925.272,-54.0384 1093.67,-38.8227 1235.5,-20 1238.38,-19.6181 1241.34,-19.2021 1244.32,-18.7653"/>
<polygon fill="midnightblue" stroke="midnightblue" points="842.901,-57.5133 833.23,-61.8414 843.489,-64.4885 842.901,-57.5133"/>
</g>
<!-- Node15 -->
<g id="node15" class="node"><title>Node15</title>
<g id="a_node15"><a xlink:href="test__send_8c.html" target="_top" xlink:title="Tests the functions used for building and sending AT commands.">
<polygon fill="white" stroke="black" points="1354.5,-0.5 1354.5,-19.5 1422.5,-19.5 1422.5,-0.5 1354.5,-0.5"/>
<text text-anchor="middle" x="1388.5" y="-7.5" font-family="Helvetica,sans-Serif" font-size="10.00">test_send.c</text>
</a>
</g>
</g>
<!-- Node1&#45;&gt;Node15 -->
<g id="edge14" class="edge"><title>Node1&#45;&gt;Node15</title>
<path fill="none" stroke="midnightblue" d="M843.116,-63.0704C939.416,-58.7984 1161.06,-46.7267 1345.5,-20 1348.37,-19.5844 1351.33,-19.0938 1354.3,-18.5597"/>
<polygon fill="midnightblue" stroke="midnightblue" points="842.935,-59.5748 833.097,-63.5066 843.239,-66.5682 842.935,-59.5748"/>
</g>
<!-- Node16 -->
<g id="node16" class="node"><title>Node16</title>
<g id="a_node16"><a xlink:href="test__tokenizer_8c.html" target="_top" xlink:title="Tests the tokenizer of the URC parser.">
<polygon fill="white" stroke="black" points="1440.5,-0.5 1440.5,-19.5 1526.5,-19.5 1526.5,-0.5 1440.5,-0.5"/>
<text text-anchor="middle" x="1483.5" y="-7.5" font-family="Helvetica,sans-Serif" font-size="10.00">test_tokenizer.c</text>
</a>
</g>
</g>
<!-- Node1&#45;&gt;Node16 -->
<g id="edge15" class="edge"><title>Node1&#45;&gt;Node16</title>
<path fill="none" stroke="midnightblue" d="M843.19,-63.2366C950.021,-59.0005 1212.89,-46.5712 1431.5,-20 1434.41,-19.6462 1437.41,-19.2403 1440.42,-18.8008"/>
<polygon fill="midnightblue" stroke="midnightblue" points="842.9,-59.7452 833.044,-63.6327 843.173,-66.7398 842.9,-59.7452"/>
</g>
<!-- Node17 -->
<g id="node17" class="node"><title>Node17</title>
<g id="a_node17"><a xlink:href="test__tools_8c.html" target="_top" xlink:title=" ">
<polygon fill="white" stroke="black" points="1544.5,-0.5 1544.5,-19.5 1612.5,-19.5 1612.5,-0.5 1544.5,-0.5"/>
<text text-anchor="middle" x="1578.5" y="-7.5" font-family="Helvetica,sans-Serif" font-size="10.00">test_tools.c</text>
</a>
</g>
</g>
<!-- Node1&#45;&gt;Node17 -->
<g id="edge16" class="edge"><title>Node1&#45;&gt;Node17</title>
<path fill="none" stroke="midnightblue" d="M843.505,-64.4866C962.572,-62.7046 1276.35,-54.8003 1535.5,-20 1538.37,-19.6143 1541.34,-19.1447 1544.31,-18.6248"/>
<polygon fill="midnightblue" stroke="midnightblue" points="843.212,-60.9903 833.263,-64.6318 843.312,-67.9896 843.212,-60.9903"/>
</g>
</g>
</svg>
