<?xml version="1.0" encoding="UTF-8" standalone="no"?>
<!DOCTYPE svg PUBLIC "-//W3C//DTD SVG 1.1//EN"
 "http://www.w3.org/Graphics/SVG/1.1/DTD/svg11.dtd">
<!-- Generated by graphviz version 2.38.0 (20140413.2041)
 -->
<!-- Title: ucxh_serial_mock.h Pages: 1 -->
<svg width="718pt" height="84pt"
 viewBox="0.00 0.00 717.50 84.00" xmlns="http://www.w3.org/2000/svg" xmlns:xlink="http://www.w3.org/1999/xlink">
<g id="graph0" class="graph" transform="scale(1 1) rotate(0) translate(4 80)">
<title>ucxh_serial_mock.h</title>
<polygon fill="white" stroke="none" points="-4,4 -4,-80 713.5,-80 713.5,4 -4,4"/>
<!-- Node1 -->
<g id="node1" class="node"><title>Node1</title>
<g id="a_node1"><a xlink:title=" ">
<polygon fill="#bfbfbf" stroke="black" points="293.5,-56.5 293.5,-75.5 397.5,-75.5 397.5,-56.5 293.5,-56.5"/>
<text text-anchor="middle" x="345.5" y="-63.5" font-family="Helvetica,sans-Serif" font-size="10.00">ucxh_serial_mock.h</text>
</a>
</g>
</g>
<!-- Node2 -->
<g id="node2" class="node"><title>Node2</title>
<g id="a_node2"><a xlink:href="test__at__peer_8c.html" target="_top" xlink:title="Tests from chapter 5: AT&#45;commands UDDPRP and ucxhCOMMAND_writeDefaultRemotePeer() .">
<polygon fill="white" stroke="black" points="0,-0.5 0,-19.5 79,-19.5 79,-0.5 0,-0.5"/>
<text text-anchor="middle" x="39.5" y="-7.5" font-family="Helvetica,sans-Serif" font-size="10.00">test_at_peer.c</text>
</a>
</g>
</g>
<!-- Node1&#45;&gt;Node2 -->
<g id="edge1" class="edge"><title>Node1&#45;&gt;Node2</title>
<path fill="none" stroke="midnightblue" d="M286.142,-54.7506C234.037,-45.7192 156.214,-32.1466 88.5,-20 85.4352,-19.4502 82.2634,-18.8771 79.0752,-18.2981"/>
<polygon fill="midnightblue" stroke="midnightblue" points="285.759,-58.2363 296.21,-56.4946 286.954,-51.339 285.759,-58.2363"/>
</g>
<!-- Node3 -->
<g id="node3" class="node"><title>Node3</title>
<g id="a_node3"><a xlink:href="test__at__wifi_8c.html" target="_top" xlink:title="Tests from chapter 17, 10: AT&#45;commands UWSSTAT UNSTAT UWSCA UWSC and MODULE_writeWifiStationConfigura...">
<polygon fill="white" stroke="black" points="97.5,-0.5 97.5,-19.5 171.5,-19.5 171.5,-0.5 97.5,-0.5"/>
<text text-anchor="middle" x="134.5" y="-7.5" font-family="Helvetica,sans-Serif" font-size="10.00">test_at_wifi.c</text>
</a>
</g>
</g>
<!-- Node1&#45;&gt;Node3 -->
<g id="edge2" class="edge"><title>Node1&#45;&gt;Node3</title>
<path fill="none" stroke="midnightblue" d="M302.358,-53.959C262.506,-43.7598 204.137,-28.8217 167.777,-19.5164"/>
<polygon fill="midnightblue" stroke="midnightblue" points="301.511,-57.3549 312.066,-56.4435 303.246,-50.5734 301.511,-57.3549"/>
</g>
<!-- Node4 -->
<g id="node4" class="node"><title>Node4</title>
<g id="a_node4"><a xlink:href="test__getgeneral_8c.html" target="_top" xlink:title="Tests from chapter 3: AT&#45;commands I, GMI, GMM, GMR, GSN .">
<polygon fill="white" stroke="black" points="189.5,-0.5 189.5,-19.5 281.5,-19.5 281.5,-0.5 189.5,-0.5"/>
<text text-anchor="middle" x="235.5" y="-7.5" font-family="Helvetica,sans-Serif" font-size="10.00">test_getgeneral.c</text>
</a>
</g>
</g>
<!-- Node1&#45;&gt;Node4 -->
<g id="edge3" class="edge"><title>Node1&#45;&gt;Node4</title>
<path fill="none" stroke="midnightblue" d="M318.738,-51.8622C298.341,-41.8492 270.834,-28.3458 253.13,-19.6545"/>
<polygon fill="midnightblue" stroke="midnightblue" points="317.308,-55.059 327.827,-56.324 320.392,-48.7753 317.308,-55.059"/>
</g>
<!-- Node5 -->
<g id="node5" class="node"><title>Node5</title>
<g id="a_node5"><a xlink:href="test__getsystem_8c.html" target="_top" xlink:title="Tests from chapter 4: AT&#45;commands +UMLA .">
<polygon fill="white" stroke="black" points="299.5,-0.5 299.5,-19.5 391.5,-19.5 391.5,-0.5 299.5,-0.5"/>
<text text-anchor="middle" x="345.5" y="-7.5" font-family="Helvetica,sans-Serif" font-size="10.00">test_getsystem.c</text>
</a>
</g>
</g>
<!-- Node1&#45;&gt;Node5 -->
<g id="edge4" class="edge"><title>Node1&#45;&gt;Node5</title>
<path fill="none" stroke="midnightblue" d="M345.5,-45.8045C345.5,-36.9102 345.5,-26.7798 345.5,-19.7511"/>
<polygon fill="midnightblue" stroke="midnightblue" points="342,-46.083 345.5,-56.083 349,-46.083 342,-46.083"/>
</g>
<!-- Node6 -->
<g id="node6" class="node"><title>Node6</title>
<g id="a_node6"><a xlink:href="test__mock__ati9_8c.html" target="_top" xlink:title="Hello, World / Issue AT command to mocked serial driver.">
<polygon fill="white" stroke="black" points="409.5,-0.5 409.5,-19.5 501.5,-19.5 501.5,-0.5 409.5,-0.5"/>
<text text-anchor="middle" x="455.5" y="-7.5" font-family="Helvetica,sans-Serif" font-size="10.00">test_mock_ati9.c</text>
</a>
</g>
</g>
<!-- Node1&#45;&gt;Node6 -->
<g id="edge5" class="edge"><title>Node1&#45;&gt;Node6</title>
<path fill="none" stroke="midnightblue" d="M372.262,-51.8622C392.659,-41.8492 420.166,-28.3458 437.87,-19.6545"/>
<polygon fill="midnightblue" stroke="midnightblue" points="370.608,-48.7753 363.173,-56.324 373.692,-55.059 370.608,-48.7753"/>
</g>
<!-- Node7 -->
<g id="node7" class="node"><title>Node7</title>
<g id="a_node7"><a xlink:href="test__send_8c.html" target="_top" xlink:title="Tests the functions used for building and sending AT commands.">
<polygon fill="white" stroke="black" points="519.5,-0.5 519.5,-19.5 587.5,-19.5 587.5,-0.5 519.5,-0.5"/>
<text text-anchor="middle" x="553.5" y="-7.5" font-family="Helvetica,sans-Serif" font-size="10.00">test_send.c</text>
</a>
</g>
</g>
<!-- Node1&#45;&gt;Node7 -->
<g id="edge6" class="edge"><title>Node1&#45;&gt;Node7</title>
<path fill="none" stroke="midnightblue" d="M388.278,-53.8941C427.558,-43.6966 484.929,-28.802 520.696,-19.5164"/>
<polygon fill="midnightblue" stroke="midnightblue" points="387.258,-50.5429 378.458,-56.4435 389.017,-57.3183 387.258,-50.5429"/>
</g>
<!-- Node8 -->
<g id="node8" class="node"><title>Node8</title>
<g id="a_node8"><a xlink:href="ucxh__serial__mock_8c.html" target="_top" xlink:title=" ">
<polygon fill="white" stroke="black" points="605.5,-0.5 605.5,-19.5 709.5,-19.5 709.5,-0.5 605.5,-0.5"/>
<text text-anchor="middle" x="657.5" y="-7.5" font-family="Helvetica,sans-Serif" font-size="10.00">ucxh_serial_mock.c</text>
</a>
</g>
</g>
<!-- Node1&#45;&gt;Node8 -->
<g id="edge7" class="edge"><title>Node1&#45;&gt;Node8</title>
<path fill="none" stroke="midnightblue" d="M404.852,-54.7275C463.811,-44.523 553.163,-29.0583 608.294,-19.5164"/>
<polygon fill="midnightblue" stroke="midnightblue" points="404.194,-51.2893 394.937,-56.4435 405.388,-58.1868 404.194,-51.2893"/>
</g>
</g>
</svg>
