<?xml version="1.0" encoding="UTF-8" standalone="no"?>
<!DOCTYPE svg PUBLIC "-//W3C//DTD SVG 1.1//EN"
 "http://www.w3.org/Graphics/SVG/1.1/DTD/svg11.dtd">
<!-- Generated by graphviz version 2.38.0 (20140413.2041)
 -->
<!-- Title: ucxh_poll.h Pages: 1 -->
<svg width="1621pt" height="308pt"
 viewBox="0.00 0.00 1621.00 308.00" xmlns="http://www.w3.org/2000/svg" xmlns:xlink="http://www.w3.org/1999/xlink">
<g id="graph0" class="graph" transform="scale(1 1) rotate(0) translate(4 304)">
<title>ucxh_poll.h</title>
<polygon fill="white" stroke="none" points="-4,4 -4,-304 1617,-304 1617,4 -4,4"/>
<!-- Node1 -->
<g id="node1" class="node"><title>Node1</title>
<g id="a_node1"><a xlink:title=" ">
<polygon fill="#bfbfbf" stroke="black" points="648.5,-280.5 648.5,-299.5 714.5,-299.5 714.5,-280.5 648.5,-280.5"/>
<text text-anchor="middle" x="681.5" y="-287.5" font-family="Helvetica,sans-Serif" font-size="10.00">ucxh_poll.h</text>
</a>
</g>
</g>
<!-- Node2 -->
<g id="node2" class="node"><title>Node2</title>
<g id="a_node2"><a xlink:href="ucxh__parser_8h.html" target="_top" xlink:title=" ">
<polygon fill="white" stroke="black" points="586.5,-224.5 586.5,-243.5 664.5,-243.5 664.5,-224.5 586.5,-224.5"/>
<text text-anchor="middle" x="625.5" y="-231.5" font-family="Helvetica,sans-Serif" font-size="10.00">ucxh_parser.h</text>
</a>
</g>
</g>
<!-- Node1&#45;&gt;Node2 -->
<g id="edge1" class="edge"><title>Node1&#45;&gt;Node2</title>
<path fill="none" stroke="midnightblue" d="M665.17,-273.253C655.235,-263.673 642.912,-251.791 634.661,-243.834"/>
<polygon fill="midnightblue" stroke="midnightblue" points="662.875,-275.902 672.503,-280.324 667.734,-270.863 662.875,-275.902"/>
</g>
<!-- Node3 -->
<g id="node3" class="node"><title>Node3</title>
<g id="a_node3"><a xlink:href="ucxh__edm__parser_8h.html" target="_top" xlink:title=" ">
<polygon fill="white" stroke="black" points="710.5,-168.5 710.5,-187.5 812.5,-187.5 812.5,-168.5 710.5,-168.5"/>
<text text-anchor="middle" x="761.5" y="-175.5" font-family="Helvetica,sans-Serif" font-size="10.00">ucxh_edm_parser.h</text>
</a>
</g>
</g>
<!-- Node1&#45;&gt;Node3 -->
<g id="edge27" class="edge"><title>Node1&#45;&gt;Node3</title>
<path fill="none" stroke="midnightblue" d="M693.665,-272.272C710.959,-248.494 742.017,-205.789 755.252,-187.591"/>
<polygon fill="midnightblue" stroke="midnightblue" points="690.829,-270.222 687.777,-280.368 696.49,-274.34 690.829,-270.222"/>
</g>
<!-- Node2&#45;&gt;Node3 -->
<g id="edge2" class="edge"><title>Node2&#45;&gt;Node3</title>
<path fill="none" stroke="midnightblue" d="M656.635,-220.638C682.157,-210.504 717.609,-196.427 740.051,-187.516"/>
<polygon fill="midnightblue" stroke="midnightblue" points="655.052,-217.5 647.05,-224.444 657.635,-224.006 655.052,-217.5"/>
</g>
<!-- Node4 -->
<g id="node4" class="node"><title>Node4</title>
<g id="a_node4"><a xlink:href="ucxh__library_8h.html" target="_top" xlink:title=" ">
<polygon fill="white" stroke="black" points="664,-56.5 664,-75.5 741,-75.5 741,-56.5 664,-56.5"/>
<text text-anchor="middle" x="702.5" y="-63.5" font-family="Helvetica,sans-Serif" font-size="10.00">ucxh_library.h</text>
</a>
</g>
</g>
<!-- Node2&#45;&gt;Node4 -->
<g id="edge25" class="edge"><title>Node2&#45;&gt;Node4</title>
<path fill="none" stroke="midnightblue" d="M641.524,-217.17C649.043,-209.024 657.621,-198.596 663.5,-188 685.13,-149.015 696.907,-96.216 700.913,-75.6763"/>
<polygon fill="midnightblue" stroke="midnightblue" points="638.906,-214.842 634.497,-224.476 643.951,-219.695 638.906,-214.842"/>
</g>
<!-- Node21 -->
<g id="node21" class="node"><title>Node21</title>
<g id="a_node21"><a xlink:href="ucxh__urc_8h.html" target="_top" xlink:title=" ">
<polygon fill="white" stroke="black" points="429,-168.5 429,-187.5 494,-187.5 494,-168.5 429,-168.5"/>
<text text-anchor="middle" x="461.5" y="-175.5" font-family="Helvetica,sans-Serif" font-size="10.00">ucxh_urc.h</text>
</a>
</g>
</g>
<!-- Node2&#45;&gt;Node21 -->
<g id="edge20" class="edge"><title>Node2&#45;&gt;Node21</title>
<path fill="none" stroke="midnightblue" d="M589.98,-221.304C559.078,-211.129 515.027,-196.625 487.365,-187.516"/>
<polygon fill="midnightblue" stroke="midnightblue" points="588.921,-224.64 599.514,-224.444 591.11,-217.992 588.921,-224.64"/>
</g>
<!-- Node23 -->
<g id="node23" class="node"><title>Node23</title>
<g id="a_node23"><a xlink:href="ucxh__serial__mock_8c.html" target="_top" xlink:title=" ">
<polygon fill="white" stroke="black" points="550.5,-168.5 550.5,-187.5 654.5,-187.5 654.5,-168.5 550.5,-168.5"/>
<text text-anchor="middle" x="602.5" y="-175.5" font-family="Helvetica,sans-Serif" font-size="10.00">ucxh_serial_mock.c</text>
</a>
</g>
</g>
<!-- Node2&#45;&gt;Node23 -->
<g id="edge26" class="edge"><title>Node2&#45;&gt;Node23</title>
<path fill="none" stroke="midnightblue" d="M617.701,-214.69C613.825,-205.589 609.321,-195.014 606.227,-187.751"/>
<polygon fill="midnightblue" stroke="midnightblue" points="614.563,-216.254 621.702,-224.083 621.003,-213.511 614.563,-216.254"/>
</g>
<!-- Node3&#45;&gt;Node4 -->
<g id="edge3" class="edge"><title>Node3&#45;&gt;Node4</title>
<path fill="none" stroke="midnightblue" d="M752.017,-159.32C739.171,-135.37 716.74,-93.5484 707.108,-75.5914"/>
<polygon fill="midnightblue" stroke="midnightblue" points="749.059,-161.21 756.87,-168.368 755.228,-157.902 749.059,-161.21"/>
</g>
<!-- Node5 -->
<g id="node5" class="node"><title>Node5</title>
<g id="a_node5"><a xlink:href="ex__callbacks__edm__wifi_8c.html" target="_top" xlink:title=" ">
<polygon fill="white" stroke="black" points="1488,-0.5 1488,-19.5 1613,-19.5 1613,-0.5 1488,-0.5"/>
<text text-anchor="middle" x="1550.5" y="-7.5" font-family="Helvetica,sans-Serif" font-size="10.00">ex_callbacks_edm_wifi.c</text>
</a>
</g>
</g>
<!-- Node4&#45;&gt;Node5 -->
<g id="edge4" class="edge"><title>Node4&#45;&gt;Node5</title>
<path fill="none" stroke="midnightblue" d="M751.516,-63.2891C874.187,-58.7614 1204.28,-45.0621 1478.5,-20 1481.51,-19.7248 1484.59,-19.4222 1487.7,-19.0996"/>
<polygon fill="midnightblue" stroke="midnightblue" points="751.191,-59.7986 741.325,-63.6617 751.446,-66.7939 751.191,-59.7986"/>
</g>
<!-- Node6 -->
<g id="node6" class="node"><title>Node6</title>
<g id="a_node6"><a xlink:href="ex__http__get_8c.html" target="_top" xlink:title=" ">
<polygon fill="white" stroke="black" points="93.5,-0.5 93.5,-19.5 169.5,-19.5 169.5,-0.5 93.5,-0.5"/>
<text text-anchor="middle" x="131.5" y="-7.5" font-family="Helvetica,sans-Serif" font-size="10.00">ex_http_get.c</text>
</a>
</g>
</g>
<!-- Node4&#45;&gt;Node6 -->
<g id="edge5" class="edge"><title>Node4&#45;&gt;Node6</title>
<path fill="none" stroke="midnightblue" d="M653.675,-62.4991C560.809,-57.368 352.462,-44.0598 178.5,-20 175.62,-19.6016 172.648,-19.144 169.665,-18.6507"/>
<polygon fill="midnightblue" stroke="midnightblue" points="653.714,-66.0063 663.889,-63.0561 654.095,-59.0167 653.714,-66.0063"/>
</g>
<!-- Node7 -->
<g id="node7" class="node"><title>Node7</title>
<g id="a_node7"><a xlink:href="ex__readmisc_8c.html" target="_top" xlink:title=" ">
<polygon fill="white" stroke="black" points="187.5,-0.5 187.5,-19.5 267.5,-19.5 267.5,-0.5 187.5,-0.5"/>
<text text-anchor="middle" x="227.5" y="-7.5" font-family="Helvetica,sans-Serif" font-size="10.00">ex_readmisc.c</text>
</a>
</g>
</g>
<!-- Node4&#45;&gt;Node7 -->
<g id="edge6" class="edge"><title>Node4&#45;&gt;Node7</title>
<path fill="none" stroke="midnightblue" d="M653.726,-61.0687C574.409,-54.4016 412.632,-39.6626 276.5,-20 273.589,-19.5796 270.588,-19.1121 267.57,-18.6175"/>
<polygon fill="midnightblue" stroke="midnightblue" points="653.645,-64.574 663.901,-61.9176 654.227,-57.5982 653.645,-64.574"/>
</g>
<!-- Node8 -->
<g id="node8" class="node"><title>Node8</title>
<g id="a_node8"><a xlink:href="ex__wifi__pos_8c.html" target="_top" xlink:title=" ">
<polygon fill="white" stroke="black" points="0,-0.5 0,-19.5 75,-19.5 75,-0.5 0,-0.5"/>
<text text-anchor="middle" x="37.5" y="-7.5" font-family="Helvetica,sans-Serif" font-size="10.00">ex_wifi_pos.c</text>
</a>
</g>
</g>
<!-- Node4&#45;&gt;Node8 -->
<g id="edge7" class="edge"><title>Node4&#45;&gt;Node8</title>
<path fill="none" stroke="midnightblue" d="M653.383,-63.3683C548.515,-59.4582 295.109,-47.7366 84.5,-20 81.4524,-19.5986 78.3039,-19.1253 75.1474,-18.6091"/>
<polygon fill="midnightblue" stroke="midnightblue" points="653.533,-66.876 663.654,-63.7439 653.789,-59.8807 653.533,-66.876"/>
</g>
<!-- Node9 -->
<g id="node9" class="node"><title>Node9</title>
<g id="a_node9"><a xlink:href="test__at__peer_8c.html" target="_top" xlink:title="Tests from chapter 5: AT&#45;commands UDDPRP and ucxhCOMMAND_writeDefaultRemotePeer() .">
<polygon fill="white" stroke="black" points="286,-0.5 286,-19.5 365,-19.5 365,-0.5 286,-0.5"/>
<text text-anchor="middle" x="325.5" y="-7.5" font-family="Helvetica,sans-Serif" font-size="10.00">test_at_peer.c</text>
</a>
</g>
</g>
<!-- Node4&#45;&gt;Node9 -->
<g id="edge8" class="edge"><title>Node4&#45;&gt;Node9</title>
<path fill="none" stroke="midnightblue" d="M653.562,-58.989C589.37,-50.9433 473.284,-35.84 374.5,-20 371.426,-19.507 368.247,-18.9747 365.054,-18.4239"/>
<polygon fill="midnightblue" stroke="midnightblue" points="653.432,-62.4998 663.788,-60.266 654.299,-55.5537 653.432,-62.4998"/>
</g>
<!-- Node10 -->
<g id="node10" class="node"><title>Node10</title>
<g id="a_node10"><a xlink:href="test__at__wifi_8c.html" target="_top" xlink:title="Tests from chapter 17, 10: AT&#45;commands UWSSTAT UNSTAT UWSCA UWSC and MODULE_writeWifiStationConfigura...">
<polygon fill="white" stroke="black" points="383.5,-0.5 383.5,-19.5 457.5,-19.5 457.5,-0.5 383.5,-0.5"/>
<text text-anchor="middle" x="420.5" y="-7.5" font-family="Helvetica,sans-Serif" font-size="10.00">test_at_wifi.c</text>
</a>
</g>
</g>
<!-- Node4&#45;&gt;Node10 -->
<g id="edge9" class="edge"><title>Node4&#45;&gt;Node10</title>
<path fill="none" stroke="midnightblue" d="M653.593,-55.7454C605.856,-46.6953 531.171,-32.4921 466.5,-20 463.624,-19.4444 460.647,-18.8671 457.654,-18.2851"/>
<polygon fill="midnightblue" stroke="midnightblue" points="653.175,-59.2283 663.652,-57.6516 654.478,-52.3507 653.175,-59.2283"/>
</g>
<!-- Node11 -->
<g id="node11" class="node"><title>Node11</title>
<g id="a_node11"><a xlink:href="test__ati9_8c.html" target="_top" xlink:title="Tests Hello, World / Issue AT command.">
<polygon fill="white" stroke="black" points="475.5,-0.5 475.5,-19.5 537.5,-19.5 537.5,-0.5 475.5,-0.5"/>
<text text-anchor="middle" x="506.5" y="-7.5" font-family="Helvetica,sans-Serif" font-size="10.00">test_ati9.c</text>
</a>
</g>
</g>
<!-- Node4&#45;&gt;Node11 -->
<g id="edge10" class="edge"><title>Node4&#45;&gt;Node11</title>
<path fill="none" stroke="midnightblue" d="M661.48,-53.6986C624.489,-43.507 570.9,-28.7429 537.411,-19.5164"/>
<polygon fill="midnightblue" stroke="midnightblue" points="660.873,-57.1616 671.443,-56.4435 662.732,-50.4131 660.873,-57.1616"/>
</g>
<!-- Node12 -->
<g id="node12" class="node"><title>Node12</title>
<g id="a_node12"><a xlink:href="test__datamode_8c.html" target="_top" xlink:title="Tests transmit over Data mode.">
<polygon fill="white" stroke="black" points="556,-0.5 556,-19.5 645,-19.5 645,-0.5 556,-0.5"/>
<text text-anchor="middle" x="600.5" y="-7.5" font-family="Helvetica,sans-Serif" font-size="10.00">test_datamode.c</text>
</a>
</g>
</g>
<!-- Node4&#45;&gt;Node12 -->
<g id="edge11" class="edge"><title>Node4&#45;&gt;Node12</title>
<path fill="none" stroke="midnightblue" d="M677.169,-51.5895C658.31,-41.6052 633.116,-28.2672 616.847,-19.6545"/>
<polygon fill="midnightblue" stroke="midnightblue" points="675.636,-54.7383 686.112,-56.324 678.912,-48.5518 675.636,-54.7383"/>
</g>
<!-- Node13 -->
<g id="node13" class="node"><title>Node13</title>
<g id="a_node13"><a xlink:href="test__edm__at_8c.html" target="_top" xlink:title="Hello, World / Issue AT command using EDM.">
<polygon fill="white" stroke="black" points="663,-0.5 663,-19.5 742,-19.5 742,-0.5 663,-0.5"/>
<text text-anchor="middle" x="702.5" y="-7.5" font-family="Helvetica,sans-Serif" font-size="10.00">test_edm_at.c</text>
</a>
</g>
</g>
<!-- Node4&#45;&gt;Node13 -->
<g id="edge12" class="edge"><title>Node4&#45;&gt;Node13</title>
<path fill="none" stroke="midnightblue" d="M702.5,-45.8045C702.5,-36.9102 702.5,-26.7798 702.5,-19.7511"/>
<polygon fill="midnightblue" stroke="midnightblue" points="699,-46.083 702.5,-56.083 706,-46.083 699,-46.083"/>
</g>
<!-- Node14 -->
<g id="node14" class="node"><title>Node14</title>
<g id="a_node14"><a xlink:href="test__edm__at__read_8c.html" target="_top" xlink:title="Tests, using EDM, read status from the module.">
<polygon fill="white" stroke="black" points="760,-0.5 760,-19.5 863,-19.5 863,-0.5 760,-0.5"/>
<text text-anchor="middle" x="811.5" y="-7.5" font-family="Helvetica,sans-Serif" font-size="10.00">test_edm_at_read.c</text>
</a>
</g>
</g>
<!-- Node4&#45;&gt;Node14 -->
<g id="edge13" class="edge"><title>Node4&#45;&gt;Node14</title>
<path fill="none" stroke="midnightblue" d="M729.019,-51.8622C749.23,-41.8492 776.487,-28.3458 794.031,-19.6545"/>
<polygon fill="midnightblue" stroke="midnightblue" points="727.42,-48.7485 720.013,-56.324 730.527,-55.0209 727.42,-48.7485"/>
</g>
<!-- Node15 -->
<g id="node15" class="node"><title>Node15</title>
<g id="a_node15"><a xlink:href="test__getgeneral_8c.html" target="_top" xlink:title="Tests from chapter 3: AT&#45;commands I, GMI, GMM, GMR, GSN .">
<polygon fill="white" stroke="black" points="881.5,-0.5 881.5,-19.5 973.5,-19.5 973.5,-0.5 881.5,-0.5"/>
<text text-anchor="middle" x="927.5" y="-7.5" font-family="Helvetica,sans-Serif" font-size="10.00">test_getgeneral.c</text>
</a>
</g>
</g>
<!-- Node4&#45;&gt;Node15 -->
<g id="edge14" class="edge"><title>Node4&#45;&gt;Node15</title>
<path fill="none" stroke="midnightblue" d="M747.965,-54.0884C790.473,-43.8865 853.079,-28.8612 892.015,-19.5164"/>
<polygon fill="midnightblue" stroke="midnightblue" points="747.059,-50.7064 738.152,-56.4435 748.693,-57.5131 747.059,-50.7064"/>
</g>
<!-- Node16 -->
<g id="node16" class="node"><title>Node16</title>
<g id="a_node16"><a xlink:href="test__getsystem_8c.html" target="_top" xlink:title="Tests from chapter 4: AT&#45;commands +UMLA .">
<polygon fill="white" stroke="black" points="991.5,-0.5 991.5,-19.5 1083.5,-19.5 1083.5,-0.5 991.5,-0.5"/>
<text text-anchor="middle" x="1037.5" y="-7.5" font-family="Helvetica,sans-Serif" font-size="10.00">test_getsystem.c</text>
</a>
</g>
</g>
<!-- Node4&#45;&gt;Node16 -->
<g id="edge15" class="edge"><title>Node4&#45;&gt;Node16</title>
<path fill="none" stroke="midnightblue" d="M750.967,-57.2536C806.8,-48.3199 901.29,-33.1703 982.5,-20 985.365,-19.5353 988.314,-19.056 991.288,-18.5717"/>
<polygon fill="midnightblue" stroke="midnightblue" points="750.325,-53.8117 741.003,-58.8475 751.431,-60.7238 750.325,-53.8117"/>
</g>
<!-- Node17 -->
<g id="node17" class="node"><title>Node17</title>
<g id="a_node17"><a xlink:href="test__mock__ati9_8c.html" target="_top" xlink:title="Hello, World / Issue AT command to mocked serial driver.">
<polygon fill="white" stroke="black" points="1101.5,-0.5 1101.5,-19.5 1193.5,-19.5 1193.5,-0.5 1101.5,-0.5"/>
<text text-anchor="middle" x="1147.5" y="-7.5" font-family="Helvetica,sans-Serif" font-size="10.00">test_mock_ati9.c</text>
</a>
</g>
</g>
<!-- Node4&#45;&gt;Node17 -->
<g id="edge16" class="edge"><title>Node4&#45;&gt;Node17</title>
<path fill="none" stroke="midnightblue" d="M751.44,-60.1043C825.42,-52.5339 970.093,-37.0674 1092.5,-20 1095.37,-19.5992 1098.33,-19.1687 1101.31,-18.721"/>
<polygon fill="midnightblue" stroke="midnightblue" points="750.642,-56.6674 741.049,-61.1632 751.352,-63.6313 750.642,-56.6674"/>
</g>
<!-- Node18 -->
<g id="node18" class="node"><title>Node18</title>
<g id="a_node18"><a xlink:href="test__send_8c.html" target="_top" xlink:title="Tests the functions used for building and sending AT commands.">
<polygon fill="white" stroke="black" points="1211.5,-0.5 1211.5,-19.5 1279.5,-19.5 1279.5,-0.5 1211.5,-0.5"/>
<text text-anchor="middle" x="1245.5" y="-7.5" font-family="Helvetica,sans-Serif" font-size="10.00">test_send.c</text>
</a>
</g>
</g>
<!-- Node4&#45;&gt;Node18 -->
<g id="edge17" class="edge"><title>Node4&#45;&gt;Node18</title>
<path fill="none" stroke="midnightblue" d="M751.414,-62.4952C841.183,-57.4777 1038.11,-44.5156 1202.5,-20 1205.37,-19.5725 1208.33,-19.0736 1211.3,-18.5339"/>
<polygon fill="midnightblue" stroke="midnightblue" points="751.056,-59.0095 741.263,-63.0541 751.441,-65.999 751.056,-59.0095"/>
</g>
<!-- Node19 -->
<g id="node19" class="node"><title>Node19</title>
<g id="a_node19"><a xlink:href="test__tokenizer_8c.html" target="_top" xlink:title="Tests the tokenizer of the URC parser.">
<polygon fill="white" stroke="black" points="1297.5,-0.5 1297.5,-19.5 1383.5,-19.5 1383.5,-0.5 1297.5,-0.5"/>
<text text-anchor="middle" x="1340.5" y="-7.5" font-family="Helvetica,sans-Serif" font-size="10.00">test_tokenizer.c</text>
</a>
</g>
</g>
<!-- Node4&#45;&gt;Node19 -->
<g id="edge18" class="edge"><title>Node4&#45;&gt;Node19</title>
<path fill="none" stroke="midnightblue" d="M751.182,-62.8241C851.823,-57.9821 1089.98,-44.745 1288.5,-20 1291.41,-19.6374 1294.4,-19.2247 1297.42,-18.7803"/>
<polygon fill="midnightblue" stroke="midnightblue" points="750.844,-59.3361 741.021,-63.3067 751.176,-66.3282 750.844,-59.3361"/>
</g>
<!-- Node20 -->
<g id="node20" class="node"><title>Node20</title>
<g id="a_node20"><a xlink:href="test__tools_8c.html" target="_top" xlink:title=" ">
<polygon fill="white" stroke="black" points="1401.5,-0.5 1401.5,-19.5 1469.5,-19.5 1469.5,-0.5 1401.5,-0.5"/>
<text text-anchor="middle" x="1435.5" y="-7.5" font-family="Helvetica,sans-Serif" font-size="10.00">test_tools.c</text>
</a>
</g>
</g>
<!-- Node4&#45;&gt;Node20 -->
<g id="edge19" class="edge"><title>Node4&#45;&gt;Node20</title>
<path fill="none" stroke="midnightblue" d="M751.297,-64.1813C864.478,-61.7678 1153.46,-52.645 1392.5,-20 1395.37,-19.6078 1398.34,-19.1338 1401.31,-18.6108"/>
<polygon fill="midnightblue" stroke="midnightblue" points="751.144,-60.6836 741.218,-64.3883 751.288,-67.6822 751.144,-60.6836"/>
</g>
<!-- Node22 -->
<g id="node22" class="node"><title>Node22</title>
<g id="a_node22"><a xlink:href="ucxh__wifi_8h.html" target="_top" xlink:title=" ">
<polygon fill="white" stroke="black" points="459,-112.5 459,-131.5 524,-131.5 524,-112.5 459,-112.5"/>
<text text-anchor="middle" x="491.5" y="-119.5" font-family="Helvetica,sans-Serif" font-size="10.00">ucxh_wifi.h</text>
</a>
</g>
</g>
<!-- Node21&#45;&gt;Node22 -->
<g id="edge21" class="edge"><title>Node21&#45;&gt;Node22</title>
<path fill="none" stroke="midnightblue" d="M471.347,-159.275C476.475,-150.045 482.516,-139.17 486.638,-131.751"/>
<polygon fill="midnightblue" stroke="midnightblue" points="468.251,-157.642 466.454,-168.083 474.37,-161.041 468.251,-157.642"/>
</g>
<!-- Node22&#45;&gt;Node2 -->
<g id="edge22" class="edge"><title>Node22&#45;&gt;Node2</title>
<path fill="none" stroke="midnightblue" d="M501.833,-140.24C510.943,-154.377 525.268,-174.232 541.5,-188 560.299,-203.946 585.671,-216.574 603.596,-224.344"/>
<polygon fill="midnightblue" stroke="midnightblue" points="504.656,-138.152 496.4,-131.511 498.713,-141.851 504.656,-138.152"/>
</g>
<!-- Node22&#45;&gt;Node4 -->
<g id="edge23" class="edge"><title>Node22&#45;&gt;Node4</title>
<path fill="none" stroke="midnightblue" d="M533.708,-110.198C573.591,-99.9909 632.618,-84.8844 669.26,-75.5069"/>
<polygon fill="midnightblue" stroke="midnightblue" points="532.826,-106.811 524.006,-112.681 534.562,-113.592 532.826,-106.811"/>
</g>
<!-- Node22&#45;&gt;Node8 -->
<g id="edge24" class="edge"><title>Node22&#45;&gt;Node8</title>
<path fill="none" stroke="midnightblue" d="M449.082,-110.722C360.01,-89.1412 154.951,-39.4574 72.638,-19.5136"/>
<polygon fill="midnightblue" stroke="midnightblue" points="448.306,-114.136 458.849,-113.089 449.955,-107.333 448.306,-114.136"/>
</g>
</g>
</svg>
