<?xml version="1.0" encoding="UTF-8" standalone="no"?>
<!DOCTYPE svg PUBLIC "-//W3C//DTD SVG 1.1//EN"
 "http://www.w3.org/Graphics/SVG/1.1/DTD/svg11.dtd">
<!-- Generated by graphviz version 2.38.0 (20140413.2041)
 -->
<!-- Title: ucxh_edm.h Pages: 1 -->
<svg width="1621pt" height="308pt"
 viewBox="0.00 0.00 1620.50 308.00" xmlns="http://www.w3.org/2000/svg" xmlns:xlink="http://www.w3.org/1999/xlink">
<g id="graph0" class="graph" transform="scale(1 1) rotate(0) translate(4 304)">
<title>ucxh_edm.h</title>
<polygon fill="white" stroke="none" points="-4,4 -4,-304 1616.5,-304 1616.5,4 -4,4"/>
<!-- Node1 -->
<g id="node1" class="node"><title>Node1</title>
<g id="a_node1"><a xlink:title=" ">
<polygon fill="#bfbfbf" stroke="black" points="841,-280.5 841,-299.5 911,-299.5 911,-280.5 841,-280.5"/>
<text text-anchor="middle" x="876" y="-287.5" font-family="Helvetica,sans-Serif" font-size="10.00">ucxh_edm.h</text>
</a>
</g>
</g>
<!-- Node2 -->
<g id="node2" class="node"><title>Node2</title>
<g id="a_node2"><a xlink:href="ucxh__parser_8h.html" target="_top" xlink:title=" ">
<polygon fill="white" stroke="black" points="874,-224.5 874,-243.5 952,-243.5 952,-224.5 874,-224.5"/>
<text text-anchor="middle" x="913" y="-231.5" font-family="Helvetica,sans-Serif" font-size="10.00">ucxh_parser.h</text>
</a>
</g>
</g>
<!-- Node1&#45;&gt;Node2 -->
<g id="edge1" class="edge"><title>Node1&#45;&gt;Node2</title>
<path fill="none" stroke="midnightblue" d="M887.946,-271.566C894.312,-262.275 901.867,-251.248 907.004,-243.751"/>
<polygon fill="midnightblue" stroke="midnightblue" points="884.875,-269.855 882.11,-280.083 890.649,-273.812 884.875,-269.855"/>
</g>
<!-- Node3 -->
<g id="node3" class="node"><title>Node3</title>
<g id="a_node3"><a xlink:href="ucxh__edm__parser_8h.html" target="_top" xlink:title=" ">
<polygon fill="white" stroke="black" points="783,-168.5 783,-187.5 885,-187.5 885,-168.5 783,-168.5"/>
<text text-anchor="middle" x="834" y="-175.5" font-family="Helvetica,sans-Serif" font-size="10.00">ucxh_edm_parser.h</text>
</a>
</g>
</g>
<!-- Node1&#45;&gt;Node3 -->
<g id="edge27" class="edge"><title>Node1&#45;&gt;Node3</title>
<path fill="none" stroke="midnightblue" d="M869.127,-270.998C859.962,-246.997 844.106,-205.468 837.28,-187.591"/>
<polygon fill="midnightblue" stroke="midnightblue" points="865.867,-272.275 872.704,-280.368 872.407,-269.778 865.867,-272.275"/>
</g>
<!-- Node4 -->
<g id="node4" class="node"><title>Node4</title>
<g id="a_node4"><a xlink:href="ucxh__library_8h.html" target="_top" xlink:title=" ">
<polygon fill="white" stroke="black" points="795.5,-56.5 795.5,-75.5 872.5,-75.5 872.5,-56.5 795.5,-56.5"/>
<text text-anchor="middle" x="834" y="-63.5" font-family="Helvetica,sans-Serif" font-size="10.00">ucxh_library.h</text>
</a>
</g>
</g>
<!-- Node1&#45;&gt;Node4 -->
<g id="edge28" class="edge"><title>Node1&#45;&gt;Node4</title>
<path fill="none" stroke="midnightblue" d="M853.194,-274.654C828.337,-257.518 789.978,-226.306 774,-188 755.947,-144.718 802.723,-95.2118 824.051,-75.6237"/>
<polygon fill="midnightblue" stroke="midnightblue" points="851.414,-277.674 861.674,-280.317 855.302,-271.853 851.414,-277.674"/>
</g>
<!-- Node24 -->
<g id="node24" class="node"><title>Node24</title>
<g id="a_node24"><a xlink:href="test__edm_8c.html" target="_top" xlink:title="Unit test: Low&#45;level test of EDM packet builder.s.">
<polygon fill="white" stroke="black" points="970.5,-224.5 970.5,-243.5 1035.5,-243.5 1035.5,-224.5 970.5,-224.5"/>
<text text-anchor="middle" x="1003" y="-231.5" font-family="Helvetica,sans-Serif" font-size="10.00">test_edm.c</text>
</a>
</g>
</g>
<!-- Node1&#45;&gt;Node24 -->
<g id="edge29" class="edge"><title>Node1&#45;&gt;Node24</title>
<path fill="none" stroke="midnightblue" d="M905.391,-276.503C929.2,-266.38 962.106,-252.388 982.971,-243.516"/>
<polygon fill="midnightblue" stroke="midnightblue" points="903.957,-273.31 896.124,-280.444 906.696,-279.751 903.957,-273.31"/>
</g>
<!-- Node2&#45;&gt;Node3 -->
<g id="edge2" class="edge"><title>Node2&#45;&gt;Node3</title>
<path fill="none" stroke="midnightblue" d="M891.966,-218.622C877.534,-208.757 858.859,-195.992 846.661,-187.655"/>
<polygon fill="midnightblue" stroke="midnightblue" points="890.077,-221.57 900.307,-224.324 894.027,-215.791 890.077,-221.57"/>
</g>
<!-- Node2&#45;&gt;Node4 -->
<g id="edge25" class="edge"><title>Node2&#45;&gt;Node4</title>
<path fill="none" stroke="midnightblue" d="M908.919,-214.531C905.676,-201.28 900.594,-183.162 894,-168 878.22,-131.716 851.9,-92.4224 840.077,-75.5181"/>
<polygon fill="midnightblue" stroke="midnightblue" points="905.527,-215.4 911.202,-224.346 912.345,-213.813 905.527,-215.4"/>
</g>
<!-- Node21 -->
<g id="node21" class="node"><title>Node21</title>
<g id="a_node21"><a xlink:href="ucxh__urc_8h.html" target="_top" xlink:title=" ">
<polygon fill="white" stroke="black" points="979.5,-168.5 979.5,-187.5 1044.5,-187.5 1044.5,-168.5 979.5,-168.5"/>
<text text-anchor="middle" x="1012" y="-175.5" font-family="Helvetica,sans-Serif" font-size="10.00">ucxh_urc.h</text>
</a>
</g>
</g>
<!-- Node2&#45;&gt;Node21 -->
<g id="edge20" class="edge"><title>Node2&#45;&gt;Node21</title>
<path fill="none" stroke="midnightblue" d="M937.837,-219.453C956.114,-209.483 980.416,-196.228 996.133,-187.655"/>
<polygon fill="midnightblue" stroke="midnightblue" points="936.009,-216.463 928.906,-224.324 939.361,-222.608 936.009,-216.463"/>
</g>
<!-- Node23 -->
<g id="node23" class="node"><title>Node23</title>
<g id="a_node23"><a xlink:href="ucxh__serial__mock_8c.html" target="_top" xlink:title=" ">
<polygon fill="white" stroke="black" points="1063,-168.5 1063,-187.5 1167,-187.5 1167,-168.5 1063,-168.5"/>
<text text-anchor="middle" x="1115" y="-175.5" font-family="Helvetica,sans-Serif" font-size="10.00">ucxh_serial_mock.c</text>
</a>
</g>
</g>
<!-- Node2&#45;&gt;Node23 -->
<g id="edge26" class="edge"><title>Node2&#45;&gt;Node23</title>
<path fill="none" stroke="midnightblue" d="M954.788,-221.829C992.927,-211.633 1048.48,-196.782 1083.14,-187.516"/>
<polygon fill="midnightblue" stroke="midnightblue" points="953.764,-218.48 945.008,-224.444 955.572,-225.242 953.764,-218.48"/>
</g>
<!-- Node3&#45;&gt;Node4 -->
<g id="edge3" class="edge"><title>Node3&#45;&gt;Node4</title>
<path fill="none" stroke="midnightblue" d="M834,-158.348C834,-134.254 834,-93.3079 834,-75.5914"/>
<polygon fill="midnightblue" stroke="midnightblue" points="830.5,-158.368 834,-168.368 837.5,-158.369 830.5,-158.368"/>
</g>
<!-- Node5 -->
<g id="node5" class="node"><title>Node5</title>
<g id="a_node5"><a xlink:href="ex__callbacks__edm__wifi_8c.html" target="_top" xlink:title=" ">
<polygon fill="white" stroke="black" points="1394.5,-0.5 1394.5,-19.5 1519.5,-19.5 1519.5,-0.5 1394.5,-0.5"/>
<text text-anchor="middle" x="1457" y="-7.5" font-family="Helvetica,sans-Serif" font-size="10.00">ex_callbacks_edm_wifi.c</text>
</a>
</g>
</g>
<!-- Node4&#45;&gt;Node5 -->
<g id="edge4" class="edge"><title>Node4&#45;&gt;Node5</title>
<path fill="none" stroke="midnightblue" d="M882.81,-61.7195C979.011,-55.0978 1199.85,-39.1235 1385,-20 1388.01,-19.6894 1391.08,-19.3579 1394.19,-19.0122"/>
<polygon fill="midnightblue" stroke="midnightblue" points="882.535,-58.23 872.798,-62.4058 883.014,-65.2136 882.535,-58.23"/>
</g>
<!-- Node6 -->
<g id="node6" class="node"><title>Node6</title>
<g id="a_node6"><a xlink:href="ex__http__get_8c.html" target="_top" xlink:title=" ">
<polygon fill="white" stroke="black" points="0,-0.5 0,-19.5 76,-19.5 76,-0.5 0,-0.5"/>
<text text-anchor="middle" x="38" y="-7.5" font-family="Helvetica,sans-Serif" font-size="10.00">ex_http_get.c</text>
</a>
</g>
</g>
<!-- Node4&#45;&gt;Node6 -->
<g id="edge5" class="edge"><title>Node4&#45;&gt;Node6</title>
<path fill="none" stroke="midnightblue" d="M784.935,-64.2425C664.993,-61.9151 347.551,-52.8851 85,-20 82.1148,-19.6386 79.1399,-19.2078 76.1539,-18.7333"/>
<polygon fill="midnightblue" stroke="midnightblue" points="785.184,-67.7477 795.248,-64.4353 785.315,-60.7489 785.184,-67.7477"/>
</g>
<!-- Node7 -->
<g id="node7" class="node"><title>Node7</title>
<g id="a_node7"><a xlink:href="ex__readmisc_8c.html" target="_top" xlink:title=" ">
<polygon fill="white" stroke="black" points="94,-0.5 94,-19.5 174,-19.5 174,-0.5 94,-0.5"/>
<text text-anchor="middle" x="134" y="-7.5" font-family="Helvetica,sans-Serif" font-size="10.00">ex_readmisc.c</text>
</a>
</g>
</g>
<!-- Node4&#45;&gt;Node7 -->
<g id="edge6" class="edge"><title>Node4&#45;&gt;Node7</title>
<path fill="none" stroke="midnightblue" d="M785.013,-63.4989C676.306,-59.7555 406.814,-48.1988 183,-20 180.082,-19.6324 177.075,-19.2037 174.054,-18.7366"/>
<polygon fill="midnightblue" stroke="midnightblue" points="785.218,-67.0077 795.331,-63.8472 785.455,-60.0117 785.218,-67.0077"/>
</g>
<!-- Node8 -->
<g id="node8" class="node"><title>Node8</title>
<g id="a_node8"><a xlink:href="ex__wifi__pos_8c.html" target="_top" xlink:title=" ">
<polygon fill="white" stroke="black" points="1537.5,-0.5 1537.5,-19.5 1612.5,-19.5 1612.5,-0.5 1537.5,-0.5"/>
<text text-anchor="middle" x="1575" y="-7.5" font-family="Helvetica,sans-Serif" font-size="10.00">ex_wifi_pos.c</text>
</a>
</g>
</g>
<!-- Node4&#45;&gt;Node8 -->
<g id="edge7" class="edge"><title>Node4&#45;&gt;Node8</title>
<path fill="none" stroke="midnightblue" d="M882.71,-63.9975C996.359,-61.1899 1287.72,-51.2827 1529,-20 1531.74,-19.6443 1534.57,-19.2243 1537.41,-18.7633"/>
<polygon fill="midnightblue" stroke="midnightblue" points="882.506,-60.5013 872.593,-64.2401 882.674,-67.4993 882.506,-60.5013"/>
</g>
<!-- Node9 -->
<g id="node9" class="node"><title>Node9</title>
<g id="a_node9"><a xlink:href="test__at__peer_8c.html" target="_top" xlink:title="Tests from chapter 5: AT&#45;commands UDDPRP and ucxhCOMMAND_writeDefaultRemotePeer() .">
<polygon fill="white" stroke="black" points="192.5,-0.5 192.5,-19.5 271.5,-19.5 271.5,-0.5 192.5,-0.5"/>
<text text-anchor="middle" x="232" y="-7.5" font-family="Helvetica,sans-Serif" font-size="10.00">test_at_peer.c</text>
</a>
</g>
</g>
<!-- Node4&#45;&gt;Node9 -->
<g id="edge8" class="edge"><title>Node4&#45;&gt;Node9</title>
<path fill="none" stroke="midnightblue" d="M785.263,-62.6825C688.711,-57.7278 466.425,-44.5102 281,-20 277.913,-19.592 274.725,-19.1207 271.526,-18.6121"/>
<polygon fill="midnightblue" stroke="midnightblue" points="785.144,-66.1809 795.308,-63.1914 785.498,-59.1899 785.144,-66.1809"/>
</g>
<!-- Node10 -->
<g id="node10" class="node"><title>Node10</title>
<g id="a_node10"><a xlink:href="test__at__wifi_8c.html" target="_top" xlink:title="Tests from chapter 17, 10: AT&#45;commands UWSSTAT UNSTAT UWSCA UWSC and MODULE_writeWifiStationConfigura...">
<polygon fill="white" stroke="black" points="290,-0.5 290,-19.5 364,-19.5 364,-0.5 290,-0.5"/>
<text text-anchor="middle" x="327" y="-7.5" font-family="Helvetica,sans-Serif" font-size="10.00">test_at_wifi.c</text>
</a>
</g>
</g>
<!-- Node4&#45;&gt;Node10 -->
<g id="edge9" class="edge"><title>Node4&#45;&gt;Node10</title>
<path fill="none" stroke="midnightblue" d="M785.245,-61.7853C700.923,-55.8811 522.519,-41.8729 373,-20 370.101,-19.576 367.108,-19.0932 364.105,-18.5766"/>
<polygon fill="midnightblue" stroke="midnightblue" points="785.078,-65.2821 795.296,-62.4818 785.562,-58.2988 785.078,-65.2821"/>
</g>
<!-- Node11 -->
<g id="node11" class="node"><title>Node11</title>
<g id="a_node11"><a xlink:href="test__ati9_8c.html" target="_top" xlink:title="Tests Hello, World / Issue AT command.">
<polygon fill="white" stroke="black" points="382,-0.5 382,-19.5 444,-19.5 444,-0.5 382,-0.5"/>
<text text-anchor="middle" x="413" y="-7.5" font-family="Helvetica,sans-Serif" font-size="10.00">test_ati9.c</text>
</a>
</g>
</g>
<!-- Node4&#45;&gt;Node11 -->
<g id="edge10" class="edge"><title>Node4&#45;&gt;Node11</title>
<path fill="none" stroke="midnightblue" d="M785.193,-60.8693C712.489,-54.3474 571.578,-40.2864 453,-20 450.194,-19.5199 447.288,-18.9701 444.382,-18.3841"/>
<polygon fill="midnightblue" stroke="midnightblue" points="785.144,-64.3786 795.414,-61.7767 785.763,-57.406 785.144,-64.3786"/>
</g>
<!-- Node12 -->
<g id="node12" class="node"><title>Node12</title>
<g id="a_node12"><a xlink:href="test__datamode_8c.html" target="_top" xlink:title="Tests transmit over Data mode.">
<polygon fill="white" stroke="black" points="462.5,-0.5 462.5,-19.5 551.5,-19.5 551.5,-0.5 462.5,-0.5"/>
<text text-anchor="middle" x="507" y="-7.5" font-family="Helvetica,sans-Serif" font-size="10.00">test_datamode.c</text>
</a>
</g>
</g>
<!-- Node4&#45;&gt;Node12 -->
<g id="edge11" class="edge"><title>Node4&#45;&gt;Node12</title>
<path fill="none" stroke="midnightblue" d="M785.297,-57.0832C730.5,-48.1567 638.841,-33.1681 560,-20 557.238,-19.5387 554.396,-19.062 551.53,-18.5797"/>
<polygon fill="midnightblue" stroke="midnightblue" points="784.987,-60.5786 795.419,-58.7314 786.112,-53.6696 784.987,-60.5786"/>
</g>
<!-- Node13 -->
<g id="node13" class="node"><title>Node13</title>
<g id="a_node13"><a xlink:href="test__edm__at_8c.html" target="_top" xlink:title="Hello, World / Issue AT command using EDM.">
<polygon fill="white" stroke="black" points="569.5,-0.5 569.5,-19.5 648.5,-19.5 648.5,-0.5 569.5,-0.5"/>
<text text-anchor="middle" x="609" y="-7.5" font-family="Helvetica,sans-Serif" font-size="10.00">test_edm_at.c</text>
</a>
</g>
</g>
<!-- Node4&#45;&gt;Node13 -->
<g id="edge12" class="edge"><title>Node4&#45;&gt;Node13</title>
<path fill="none" stroke="midnightblue" d="M788.535,-54.0884C746.027,-43.8865 683.421,-28.8612 644.485,-19.5164"/>
<polygon fill="midnightblue" stroke="midnightblue" points="787.807,-57.5131 798.348,-56.4435 789.441,-50.7064 787.807,-57.5131"/>
</g>
<!-- Node14 -->
<g id="node14" class="node"><title>Node14</title>
<g id="a_node14"><a xlink:href="test__edm__at__read_8c.html" target="_top" xlink:title="Tests, using EDM, read status from the module.">
<polygon fill="white" stroke="black" points="666.5,-0.5 666.5,-19.5 769.5,-19.5 769.5,-0.5 666.5,-0.5"/>
<text text-anchor="middle" x="718" y="-7.5" font-family="Helvetica,sans-Serif" font-size="10.00">test_edm_at_read.c</text>
</a>
</g>
</g>
<!-- Node4&#45;&gt;Node14 -->
<g id="edge13" class="edge"><title>Node4&#45;&gt;Node14</title>
<path fill="none" stroke="midnightblue" d="M806.28,-52.096C784.608,-42.0073 755.098,-28.2697 736.295,-19.5164"/>
<polygon fill="midnightblue" stroke="midnightblue" points="805.077,-55.3962 815.619,-56.4435 808.031,-49.0501 805.077,-55.3962"/>
</g>
<!-- Node15 -->
<g id="node15" class="node"><title>Node15</title>
<g id="a_node15"><a xlink:href="test__getgeneral_8c.html" target="_top" xlink:title="Tests from chapter 3: AT&#45;commands I, GMI, GMM, GMR, GSN .">
<polygon fill="white" stroke="black" points="788,-0.5 788,-19.5 880,-19.5 880,-0.5 788,-0.5"/>
<text text-anchor="middle" x="834" y="-7.5" font-family="Helvetica,sans-Serif" font-size="10.00">test_getgeneral.c</text>
</a>
</g>
</g>
<!-- Node4&#45;&gt;Node15 -->
<g id="edge14" class="edge"><title>Node4&#45;&gt;Node15</title>
<path fill="none" stroke="midnightblue" d="M834,-45.8045C834,-36.9102 834,-26.7798 834,-19.7511"/>
<polygon fill="midnightblue" stroke="midnightblue" points="830.5,-46.083 834,-56.083 837.5,-46.083 830.5,-46.083"/>
</g>
<!-- Node16 -->
<g id="node16" class="node"><title>Node16</title>
<g id="a_node16"><a xlink:href="test__getsystem_8c.html" target="_top" xlink:title="Tests from chapter 4: AT&#45;commands +UMLA .">
<polygon fill="white" stroke="black" points="898,-0.5 898,-19.5 990,-19.5 990,-0.5 898,-0.5"/>
<text text-anchor="middle" x="944" y="-7.5" font-family="Helvetica,sans-Serif" font-size="10.00">test_getsystem.c</text>
</a>
</g>
</g>
<!-- Node4&#45;&gt;Node16 -->
<g id="edge15" class="edge"><title>Node4&#45;&gt;Node16</title>
<path fill="none" stroke="midnightblue" d="M860.762,-51.8622C881.159,-41.8492 908.666,-28.3458 926.37,-19.6545"/>
<polygon fill="midnightblue" stroke="midnightblue" points="859.108,-48.7753 851.673,-56.324 862.192,-55.059 859.108,-48.7753"/>
</g>
<!-- Node17 -->
<g id="node17" class="node"><title>Node17</title>
<g id="a_node17"><a xlink:href="test__mock__ati9_8c.html" target="_top" xlink:title="Hello, World / Issue AT command to mocked serial driver.">
<polygon fill="white" stroke="black" points="1008,-0.5 1008,-19.5 1100,-19.5 1100,-0.5 1008,-0.5"/>
<text text-anchor="middle" x="1054" y="-7.5" font-family="Helvetica,sans-Serif" font-size="10.00">test_mock_ati9.c</text>
</a>
</g>
</g>
<!-- Node4&#45;&gt;Node17 -->
<g id="edge16" class="edge"><title>Node4&#45;&gt;Node17</title>
<path fill="none" stroke="midnightblue" d="M878.718,-54.0237C920.276,-43.8232 981.313,-28.8414 1019.3,-19.5164"/>
<polygon fill="midnightblue" stroke="midnightblue" points="877.737,-50.6606 868.86,-56.4435 879.406,-57.4588 877.737,-50.6606"/>
</g>
<!-- Node18 -->
<g id="node18" class="node"><title>Node18</title>
<g id="a_node18"><a xlink:href="test__send_8c.html" target="_top" xlink:title="Tests the functions used for building and sending AT commands.">
<polygon fill="white" stroke="black" points="1118,-0.5 1118,-19.5 1186,-19.5 1186,-0.5 1118,-0.5"/>
<text text-anchor="middle" x="1152" y="-7.5" font-family="Helvetica,sans-Serif" font-size="10.00">test_send.c</text>
</a>
</g>
</g>
<!-- Node4&#45;&gt;Node18 -->
<g id="edge17" class="edge"><title>Node4&#45;&gt;Node18</title>
<path fill="none" stroke="midnightblue" d="M882.981,-57.6526C938.067,-49.2343 1030.14,-34.6975 1109,-20 1111.85,-19.469 1114.8,-18.8973 1117.76,-18.3087"/>
<polygon fill="midnightblue" stroke="midnightblue" points="882.164,-54.2366 872.805,-59.2024 883.218,-61.1568 882.164,-54.2366"/>
</g>
<!-- Node19 -->
<g id="node19" class="node"><title>Node19</title>
<g id="a_node19"><a xlink:href="test__tokenizer_8c.html" target="_top" xlink:title="Tests the tokenizer of the URC parser.">
<polygon fill="white" stroke="black" points="1204,-0.5 1204,-19.5 1290,-19.5 1290,-0.5 1204,-0.5"/>
<text text-anchor="middle" x="1247" y="-7.5" font-family="Helvetica,sans-Serif" font-size="10.00">test_tokenizer.c</text>
</a>
</g>
</g>
<!-- Node4&#45;&gt;Node19 -->
<g id="edge18" class="edge"><title>Node4&#45;&gt;Node19</title>
<path fill="none" stroke="midnightblue" d="M882.745,-59.6658C952.202,-51.8965 1083.59,-36.5761 1195,-20 1197.9,-19.5686 1200.89,-19.1043 1203.9,-18.6223"/>
<polygon fill="midnightblue" stroke="midnightblue" points="882.1,-56.2159 872.549,-60.8017 882.875,-63.1728 882.1,-56.2159"/>
</g>
<!-- Node20 -->
<g id="node20" class="node"><title>Node20</title>
<g id="a_node20"><a xlink:href="test__tools_8c.html" target="_top" xlink:title=" ">
<polygon fill="white" stroke="black" points="1308,-0.5 1308,-19.5 1376,-19.5 1376,-0.5 1308,-0.5"/>
<text text-anchor="middle" x="1342" y="-7.5" font-family="Helvetica,sans-Serif" font-size="10.00">test_tools.c</text>
</a>
</g>
</g>
<!-- Node4&#45;&gt;Node20 -->
<g id="edge19" class="edge"><title>Node4&#45;&gt;Node20</title>
<path fill="none" stroke="midnightblue" d="M882.884,-62.0429C967.852,-56.5079 1148.14,-43.0158 1299,-20 1301.87,-19.5629 1304.83,-19.0572 1307.79,-18.513"/>
<polygon fill="midnightblue" stroke="midnightblue" points="882.513,-58.5594 872.759,-62.694 882.963,-65.5449 882.513,-58.5594"/>
</g>
<!-- Node22 -->
<g id="node22" class="node"><title>Node22</title>
<g id="a_node22"><a xlink:href="ucxh__wifi_8h.html" target="_top" xlink:title=" ">
<polygon fill="white" stroke="black" points="960.5,-112.5 960.5,-131.5 1025.5,-131.5 1025.5,-112.5 960.5,-112.5"/>
<text text-anchor="middle" x="993" y="-119.5" font-family="Helvetica,sans-Serif" font-size="10.00">ucxh_wifi.h</text>
</a>
</g>
</g>
<!-- Node21&#45;&gt;Node22 -->
<g id="edge21" class="edge"><title>Node21&#45;&gt;Node22</title>
<path fill="none" stroke="midnightblue" d="M1005.45,-158.396C1002.28,-149.362 998.607,-138.936 996.079,-131.751"/>
<polygon fill="midnightblue" stroke="midnightblue" points="1002.24,-159.812 1008.86,-168.083 1008.85,-157.488 1002.24,-159.812"/>
</g>
<!-- Node22&#45;&gt;Node2 -->
<g id="edge22" class="edge"><title>Node22&#45;&gt;Node2</title>
<path fill="none" stroke="midnightblue" d="M980.644,-139.99C963.326,-163.802 932.48,-206.215 919.277,-224.368"/>
<polygon fill="midnightblue" stroke="midnightblue" points="983.701,-141.737 986.752,-131.591 978.039,-137.62 983.701,-141.737"/>
</g>
<!-- Node22&#45;&gt;Node4 -->
<g id="edge23" class="edge"><title>Node22&#45;&gt;Node4</title>
<path fill="none" stroke="midnightblue" d="M958.173,-109.172C928.234,-99.0039 885.779,-84.5852 859.076,-75.5164"/>
<polygon fill="midnightblue" stroke="midnightblue" points="957.212,-112.542 967.806,-112.444 959.463,-105.914 957.212,-112.542"/>
</g>
<!-- Node22&#45;&gt;Node8 -->
<g id="edge24" class="edge"><title>Node22&#45;&gt;Node8</title>
<path fill="none" stroke="midnightblue" d="M1035.55,-113.086C1126.28,-96.1892 1345.44,-55.2515 1529,-20 1531.72,-19.4782 1534.52,-18.9363 1537.35,-18.3887"/>
<polygon fill="midnightblue" stroke="midnightblue" points="1034.83,-109.659 1025.64,-114.931 1036.12,-116.541 1034.83,-109.659"/>
</g>
</g>
</svg>
