<?xml version="1.0" encoding="UTF-8" standalone="no"?>
<!DOCTYPE svg PUBLIC "-//W3C//DTD SVG 1.1//EN"
 "http://www.w3.org/Graphics/SVG/1.1/DTD/svg11.dtd">
<!-- Generated by graphviz version 2.38.0 (20140413.2041)
 -->
<!-- Title: ucxh_parser.h Pages: 1 -->
<svg width="431pt" height="196pt"
 viewBox="0.00 0.00 431.00 196.00" xmlns="http://www.w3.org/2000/svg" xmlns:xlink="http://www.w3.org/1999/xlink">
<g id="graph0" class="graph" transform="scale(1 1) rotate(0) translate(4 192)">
<title>ucxh_parser.h</title>
<polygon fill="white" stroke="none" points="-4,4 -4,-192 427,-192 427,4 -4,4"/>
<!-- Node1 -->
<g id="node1" class="node"><title>Node1</title>
<g id="a_node1"><a xlink:title=" ">
<polygon fill="#bfbfbf" stroke="black" points="139,-168.5 139,-187.5 217,-187.5 217,-168.5 139,-168.5"/>
<text text-anchor="middle" x="178" y="-175.5" font-family="Helvetica,sans-Serif" font-size="10.00">ucxh_parser.h</text>
</a>
</g>
</g>
<!-- Node2 -->
<g id="node2" class="node"><title>Node2</title>
<g id="a_node2"><a xlink:title=" ">
<polygon fill="white" stroke="#bfbfbf" points="89,-56.5 89,-75.5 145,-75.5 145,-56.5 89,-56.5"/>
<text text-anchor="middle" x="117" y="-63.5" font-family="Helvetica,sans-Serif" font-size="10.00">stdbool.h</text>
</a>
</g>
</g>
<!-- Node1&#45;&gt;Node2 -->
<g id="edge1" class="edge"><title>Node1&#45;&gt;Node2</title>
<path fill="none" stroke="midnightblue" d="M167.557,-168.397C158.041,-160.028 144.25,-146.487 136,-132 127.819,-117.633 122.892,-99.4364 120.114,-85.9527"/>
<polygon fill="midnightblue" stroke="midnightblue" points="123.519,-85.1201 118.261,-75.9225 116.636,-86.392 123.519,-85.1201"/>
</g>
<!-- Node3 -->
<g id="node3" class="node"><title>Node3</title>
<g id="a_node3"><a xlink:title=" ">
<polygon fill="white" stroke="#bfbfbf" points="0,-56.5 0,-75.5 44,-75.5 44,-56.5 0,-56.5"/>
<text text-anchor="middle" x="22" y="-63.5" font-family="Helvetica,sans-Serif" font-size="10.00">time.h</text>
</a>
</g>
</g>
<!-- Node1&#45;&gt;Node3 -->
<g id="edge2" class="edge"><title>Node1&#45;&gt;Node3</title>
<path fill="none" stroke="midnightblue" d="M138.906,-171.755C95.3608,-165.017 29.0834,-151.78 14,-132 3.79191,-118.614 8.06799,-98.9686 13.4886,-84.7824"/>
<polygon fill="midnightblue" stroke="midnightblue" points="16.7086,-86.154 17.4471,-75.585 10.2788,-83.3866 16.7086,-86.154"/>
</g>
<!-- Node4 -->
<g id="node4" class="node"><title>Node4</title>
<g id="a_node4"><a xlink:href="ucxh__edm_8h.html" target="_top" xlink:title=" ">
<polygon fill="white" stroke="black" points="353,-112.5 353,-131.5 423,-131.5 423,-112.5 353,-112.5"/>
<text text-anchor="middle" x="388" y="-119.5" font-family="Helvetica,sans-Serif" font-size="10.00">ucxh_edm.h</text>
</a>
</g>
</g>
<!-- Node1&#45;&gt;Node4 -->
<g id="edge3" class="edge"><title>Node1&#45;&gt;Node4</title>
<path fill="none" stroke="midnightblue" d="M211.275,-168.444C247.448,-159.142 305.377,-144.246 344.981,-134.062"/>
<polygon fill="midnightblue" stroke="midnightblue" points="346.067,-137.397 354.881,-131.516 344.324,-130.617 346.067,-137.397"/>
</g>
<!-- Node6 -->
<g id="node6" class="node"><title>Node6</title>
<g id="a_node6"><a xlink:href="ucxh__poll_8h.html" target="_top" xlink:title=" ">
<polygon fill="white" stroke="black" points="23,-112.5 23,-131.5 89,-131.5 89,-112.5 23,-112.5"/>
<text text-anchor="middle" x="56" y="-119.5" font-family="Helvetica,sans-Serif" font-size="10.00">ucxh_poll.h</text>
</a>
</g>
</g>
<!-- Node1&#45;&gt;Node6 -->
<g id="edge5" class="edge"><title>Node1&#45;&gt;Node6</title>
<path fill="none" stroke="midnightblue" d="M158.669,-168.444C138.68,-159.596 107.257,-145.687 84.4361,-135.586"/>
<polygon fill="midnightblue" stroke="midnightblue" points="85.8018,-132.363 75.2408,-131.516 82.9685,-138.764 85.8018,-132.363"/>
</g>
<!-- Node7 -->
<g id="node7" class="node"><title>Node7</title>
<g id="a_node7"><a xlink:href="ucxh__wait_8h.html" target="_top" xlink:title=" ">
<polygon fill="white" stroke="black" points="229,-112.5 229,-131.5 297,-131.5 297,-112.5 229,-112.5"/>
<text text-anchor="middle" x="263" y="-119.5" font-family="Helvetica,sans-Serif" font-size="10.00">ucxh_wait.h</text>
</a>
</g>
</g>
<!-- Node1&#45;&gt;Node7 -->
<g id="edge8" class="edge"><title>Node1&#45;&gt;Node7</title>
<path fill="none" stroke="midnightblue" d="M191.657,-168.324C204.916,-159.9 225.268,-146.971 240.846,-137.074"/>
<polygon fill="midnightblue" stroke="midnightblue" points="242.813,-139.971 249.377,-131.655 239.06,-134.063 242.813,-139.971"/>
</g>
<!-- Node8 -->
<g id="node8" class="node"><title>Node8</title>
<g id="a_node8"><a xlink:href="ucxh__wifi_8h.html" target="_top" xlink:title=" ">
<polygon fill="white" stroke="black" points="145.5,-112.5 145.5,-131.5 210.5,-131.5 210.5,-112.5 145.5,-112.5"/>
<text text-anchor="middle" x="178" y="-119.5" font-family="Helvetica,sans-Serif" font-size="10.00">ucxh_wifi.h</text>
</a>
</g>
</g>
<!-- Node1&#45;&gt;Node8 -->
<g id="edge9" class="edge"><title>Node1&#45;&gt;Node8</title>
<path fill="none" stroke="midnightblue" d="M178,-168.083C178,-161.006 178,-150.861 178,-141.986"/>
<polygon fill="midnightblue" stroke="midnightblue" points="181.5,-141.751 178,-131.751 174.5,-141.751 181.5,-141.751"/>
</g>
<!-- Node5 -->
<g id="node5" class="node"><title>Node5</title>
<g id="a_node5"><a xlink:title=" ">
<polygon fill="white" stroke="#bfbfbf" points="362.5,-56.5 362.5,-75.5 413.5,-75.5 413.5,-56.5 362.5,-56.5"/>
<text text-anchor="middle" x="388" y="-63.5" font-family="Helvetica,sans-Serif" font-size="10.00">unistd.h</text>
</a>
</g>
</g>
<!-- Node4&#45;&gt;Node5 -->
<g id="edge4" class="edge"><title>Node4&#45;&gt;Node5</title>
<path fill="none" stroke="midnightblue" d="M388,-112.083C388,-105.006 388,-94.8611 388,-85.9865"/>
<polygon fill="midnightblue" stroke="midnightblue" points="391.5,-85.751 388,-75.7511 384.5,-85.7511 391.5,-85.751"/>
</g>
<!-- Node6&#45;&gt;Node2 -->
<g id="edge6" class="edge"><title>Node6&#45;&gt;Node2</title>
<path fill="none" stroke="midnightblue" d="M65.8007,-112.324C74.8181,-104.341 88.406,-92.3128 99.318,-82.6529"/>
<polygon fill="midnightblue" stroke="midnightblue" points="101.853,-85.083 107.021,-75.8339 97.2134,-79.8416 101.853,-85.083"/>
</g>
<!-- Node6&#45;&gt;Node3 -->
<g id="edge7" class="edge"><title>Node6&#45;&gt;Node3</title>
<path fill="none" stroke="midnightblue" d="M50.3856,-112.083C45.6326,-104.534 38.6819,-93.4948 32.8484,-84.2298"/>
<polygon fill="midnightblue" stroke="midnightblue" points="35.7999,-82.3486 27.5099,-75.7511 29.8763,-86.0783 35.7999,-82.3486"/>
</g>
<!-- Node8&#45;&gt;Node2 -->
<g id="edge10" class="edge"><title>Node8&#45;&gt;Node2</title>
<path fill="none" stroke="midnightblue" d="M168.199,-112.324C159.182,-104.341 145.594,-92.3128 134.682,-82.6529"/>
<polygon fill="midnightblue" stroke="midnightblue" points="136.787,-79.8416 126.979,-75.8339 132.147,-85.083 136.787,-79.8416"/>
</g>
<!-- Node9 -->
<g id="node9" class="node"><title>Node9</title>
<g id="a_node9"><a xlink:href="ucxh__urc_8h.html" target="_top" xlink:title=" ">
<polygon fill="white" stroke="black" points="221.5,-56.5 221.5,-75.5 286.5,-75.5 286.5,-56.5 221.5,-56.5"/>
<text text-anchor="middle" x="254" y="-63.5" font-family="Helvetica,sans-Serif" font-size="10.00">ucxh_urc.h</text>
</a>
</g>
</g>
<!-- Node8&#45;&gt;Node9 -->
<g id="edge11" class="edge"><title>Node8&#45;&gt;Node9</title>
<path fill="none" stroke="midnightblue" d="M190.211,-112.324C201.776,-104.107 219.375,-91.6017 233.161,-81.8069"/>
<polygon fill="midnightblue" stroke="midnightblue" points="235.443,-84.4791 241.567,-75.8339 231.388,-78.7729 235.443,-84.4791"/>
</g>
<!-- Node9&#45;&gt;Node1 -->
<g id="edge12" class="edge"><title>Node9&#45;&gt;Node1</title>
<path fill="none" stroke="midnightblue" d="M269.682,-75.5798C289.922,-87.7843 320.87,-111.01 306,-132 288.233,-157.079 255.327,-168.283 227.328,-173.241"/>
<polygon fill="midnightblue" stroke="midnightblue" points="226.619,-169.809 217.272,-174.799 227.69,-176.727 226.619,-169.809"/>
</g>
<!-- Node10 -->
<g id="node10" class="node"><title>Node10</title>
<g id="a_node10"><a xlink:href="autogenerated_8h.html" target="_top" xlink:title="Automatically generated function prototypes and documentation.">
<polygon fill="white" stroke="black" points="211,-0.5 211,-19.5 297,-19.5 297,-0.5 211,-0.5"/>
<text text-anchor="middle" x="254" y="-7.5" font-family="Helvetica,sans-Serif" font-size="10.00">autogenerated.h</text>
</a>
</g>
</g>
<!-- Node9&#45;&gt;Node10 -->
<g id="edge13" class="edge"><title>Node9&#45;&gt;Node10</title>
<path fill="none" stroke="midnightblue" d="M254,-56.083C254,-49.0059 254,-38.8611 254,-29.9865"/>
<polygon fill="midnightblue" stroke="midnightblue" points="257.5,-29.751 254,-19.7511 250.5,-29.7511 257.5,-29.751"/>
</g>
</g>
</svg>
