<?xml version="1.0" encoding="UTF-8" standalone="no"?>
<!DOCTYPE svg PUBLIC "-//W3C//DTD SVG 1.1//EN"
 "http://www.w3.org/Graphics/SVG/1.1/DTD/svg11.dtd">
<!-- Generated by graphviz version 2.38.0 (20140413.2041)
 -->
<!-- Title: ucxh_serial.h Pages: 1 -->
<svg width="1743pt" height="84pt"
 viewBox="0.00 0.00 1742.50 84.00" xmlns="http://www.w3.org/2000/svg" xmlns:xlink="http://www.w3.org/1999/xlink">
<g id="graph0" class="graph" transform="scale(1 1) rotate(0) translate(4 80)">
<title>ucxh_serial.h</title>
<polygon fill="white" stroke="none" points="-4,4 -4,-80 1738.5,-80 1738.5,4 -4,4"/>
<!-- Node1 -->
<g id="node1" class="node"><title>Node1</title>
<g id="a_node1"><a xlink:title=" ">
<polygon fill="#bfbfbf" stroke="black" points="808.5,-56.5 808.5,-75.5 882.5,-75.5 882.5,-56.5 808.5,-56.5"/>
<text text-anchor="middle" x="845.5" y="-63.5" font-family="Helvetica,sans-Serif" font-size="10.00">ucxh_serial.h</text>
</a>
</g>
</g>
<!-- Node2 -->
<g id="node2" class="node"><title>Node2</title>
<g id="a_node2"><a xlink:href="ex__callbacks__edm__wifi_8c.html" target="_top" xlink:title=" ">
<polygon fill="white" stroke="black" points="0,-0.5 0,-19.5 125,-19.5 125,-0.5 0,-0.5"/>
<text text-anchor="middle" x="62.5" y="-7.5" font-family="Helvetica,sans-Serif" font-size="10.00">ex_callbacks_edm_wifi.c</text>
</a>
</g>
</g>
<!-- Node1&#45;&gt;Node2 -->
<g id="edge1" class="edge"><title>Node1&#45;&gt;Node2</title>
<path fill="none" stroke="midnightblue" d="M798.286,-63.0113C684.113,-57.9846 384.073,-43.4741 134.5,-20 131.49,-19.7169 128.411,-19.4077 125.304,-19.08"/>
<polygon fill="midnightblue" stroke="midnightblue" points="798.285,-66.5145 808.428,-63.4544 798.591,-59.5212 798.285,-66.5145"/>
</g>
<!-- Node3 -->
<g id="node3" class="node"><title>Node3</title>
<g id="a_node3"><a xlink:href="ex__http__get_8c.html" target="_top" xlink:title=" ">
<polygon fill="white" stroke="black" points="143.5,-0.5 143.5,-19.5 219.5,-19.5 219.5,-0.5 143.5,-0.5"/>
<text text-anchor="middle" x="181.5" y="-7.5" font-family="Helvetica,sans-Serif" font-size="10.00">ex_http_get.c</text>
</a>
</g>
</g>
<!-- Node1&#45;&gt;Node3 -->
<g id="edge2" class="edge"><title>Node1&#45;&gt;Node3</title>
<path fill="none" stroke="midnightblue" d="M798.368,-63.4343C694.863,-59.5865 440.056,-47.8738 228.5,-20 225.617,-19.6202 222.644,-19.176 219.659,-18.6921"/>
<polygon fill="midnightblue" stroke="midnightblue" points="798.368,-66.9366 808.489,-63.8033 798.623,-59.9412 798.368,-66.9366"/>
</g>
<!-- Node4 -->
<g id="node4" class="node"><title>Node4</title>
<g id="a_node4"><a xlink:href="ex__readmisc_8c.html" target="_top" xlink:title=" ">
<polygon fill="white" stroke="black" points="237.5,-0.5 237.5,-19.5 317.5,-19.5 317.5,-0.5 237.5,-0.5"/>
<text text-anchor="middle" x="277.5" y="-7.5" font-family="Helvetica,sans-Serif" font-size="10.00">ex_readmisc.c</text>
</a>
</g>
</g>
<!-- Node1&#45;&gt;Node4 -->
<g id="edge3" class="edge"><title>Node1&#45;&gt;Node4</title>
<path fill="none" stroke="midnightblue" d="M798.189,-62.4095C706.756,-57.0691 499.54,-43.3393 326.5,-20 323.586,-19.6069 320.581,-19.1595 317.562,-18.6791"/>
<polygon fill="midnightblue" stroke="midnightblue" points="798.051,-65.9073 808.236,-62.9897 798.454,-58.9189 798.051,-65.9073"/>
</g>
<!-- Node5 -->
<g id="node5" class="node"><title>Node5</title>
<g id="a_node5"><a xlink:href="ex__wifi__pos_8c.html" target="_top" xlink:title=" ">
<polygon fill="white" stroke="black" points="336,-0.5 336,-19.5 411,-19.5 411,-0.5 336,-0.5"/>
<text text-anchor="middle" x="373.5" y="-7.5" font-family="Helvetica,sans-Serif" font-size="10.00">ex_wifi_pos.c</text>
</a>
</g>
</g>
<!-- Node1&#45;&gt;Node5 -->
<g id="edge4" class="edge"><title>Node1&#45;&gt;Node5</title>
<path fill="none" stroke="midnightblue" d="M798.229,-61.3739C719.44,-55.0242 556.395,-40.5816 419.5,-20 416.764,-19.5887 413.943,-19.1278 411.109,-18.6379"/>
<polygon fill="midnightblue" stroke="midnightblue" points="798.075,-64.8727 808.322,-62.18 798.632,-57.8949 798.075,-64.8727"/>
</g>
<!-- Node6 -->
<g id="node6" class="node"><title>Node6</title>
<g id="a_node6"><a xlink:href="test__at__peer_8c.html" target="_top" xlink:title="Tests from chapter 5: AT&#45;commands UDDPRP and ucxhCOMMAND_writeDefaultRemotePeer() .">
<polygon fill="white" stroke="black" points="429,-0.5 429,-19.5 508,-19.5 508,-0.5 429,-0.5"/>
<text text-anchor="middle" x="468.5" y="-7.5" font-family="Helvetica,sans-Serif" font-size="10.00">test_at_peer.c</text>
</a>
</g>
</g>
<!-- Node1&#45;&gt;Node6 -->
<g id="edge5" class="edge"><title>Node1&#45;&gt;Node6</title>
<path fill="none" stroke="midnightblue" d="M797.865,-59.1522C733.95,-51.1488 616.956,-35.9478 517.5,-20 514.426,-19.507 511.247,-18.9747 508.054,-18.4239"/>
<polygon fill="midnightblue" stroke="midnightblue" points="797.677,-62.6558 808.034,-60.4208 798.544,-55.7097 797.677,-62.6558"/>
</g>
<!-- Node7 -->
<g id="node7" class="node"><title>Node7</title>
<g id="a_node7"><a xlink:href="test__at__wifi_8c.html" target="_top" xlink:title="Tests from chapter 17, 10: AT&#45;commands UWSSTAT UNSTAT UWSCA UWSC and MODULE_writeWifiStationConfigura...">
<polygon fill="white" stroke="black" points="526.5,-0.5 526.5,-19.5 600.5,-19.5 600.5,-0.5 526.5,-0.5"/>
<text text-anchor="middle" x="563.5" y="-7.5" font-family="Helvetica,sans-Serif" font-size="10.00">test_at_wifi.c</text>
</a>
</g>
</g>
<!-- Node1&#45;&gt;Node7 -->
<g id="edge6" class="edge"><title>Node1&#45;&gt;Node7</title>
<path fill="none" stroke="midnightblue" d="M798.272,-56.0636C750.62,-47.0307 674.934,-32.6395 609.5,-20 606.624,-19.4444 603.647,-18.8671 600.654,-18.2851"/>
<polygon fill="midnightblue" stroke="midnightblue" points="797.816,-59.5395 808.293,-57.9626 799.12,-52.6619 797.816,-59.5395"/>
</g>
<!-- Node8 -->
<g id="node8" class="node"><title>Node8</title>
<g id="a_node8"><a xlink:href="test__ati9_8c.html" target="_top" xlink:title="Tests Hello, World / Issue AT command.">
<polygon fill="white" stroke="black" points="618.5,-0.5 618.5,-19.5 680.5,-19.5 680.5,-0.5 618.5,-0.5"/>
<text text-anchor="middle" x="649.5" y="-7.5" font-family="Helvetica,sans-Serif" font-size="10.00">test_ati9.c</text>
</a>
</g>
</g>
<!-- Node1&#45;&gt;Node8 -->
<g id="edge7" class="edge"><title>Node1&#45;&gt;Node8</title>
<path fill="none" stroke="midnightblue" d="M804.48,-53.6986C767.489,-43.507 713.9,-28.7429 680.411,-19.5164"/>
<polygon fill="midnightblue" stroke="midnightblue" points="803.873,-57.1616 814.443,-56.4435 805.732,-50.4131 803.873,-57.1616"/>
</g>
<!-- Node9 -->
<g id="node9" class="node"><title>Node9</title>
<g id="a_node9"><a xlink:href="test__datamode_8c.html" target="_top" xlink:title="Tests transmit over Data mode.">
<polygon fill="white" stroke="black" points="699,-0.5 699,-19.5 788,-19.5 788,-0.5 699,-0.5"/>
<text text-anchor="middle" x="743.5" y="-7.5" font-family="Helvetica,sans-Serif" font-size="10.00">test_datamode.c</text>
</a>
</g>
</g>
<!-- Node1&#45;&gt;Node9 -->
<g id="edge8" class="edge"><title>Node1&#45;&gt;Node9</title>
<path fill="none" stroke="midnightblue" d="M820.169,-51.5895C801.31,-41.6052 776.116,-28.2672 759.847,-19.6545"/>
<polygon fill="midnightblue" stroke="midnightblue" points="818.636,-54.7383 829.112,-56.324 821.912,-48.5518 818.636,-54.7383"/>
</g>
<!-- Node10 -->
<g id="node10" class="node"><title>Node10</title>
<g id="a_node10"><a xlink:href="test__edm__at_8c.html" target="_top" xlink:title="Hello, World / Issue AT command using EDM.">
<polygon fill="white" stroke="black" points="806,-0.5 806,-19.5 885,-19.5 885,-0.5 806,-0.5"/>
<text text-anchor="middle" x="845.5" y="-7.5" font-family="Helvetica,sans-Serif" font-size="10.00">test_edm_at.c</text>
</a>
</g>
</g>
<!-- Node1&#45;&gt;Node10 -->
<g id="edge9" class="edge"><title>Node1&#45;&gt;Node10</title>
<path fill="none" stroke="midnightblue" d="M845.5,-45.8045C845.5,-36.9102 845.5,-26.7798 845.5,-19.7511"/>
<polygon fill="midnightblue" stroke="midnightblue" points="842,-46.083 845.5,-56.083 849,-46.083 842,-46.083"/>
</g>
<!-- Node11 -->
<g id="node11" class="node"><title>Node11</title>
<g id="a_node11"><a xlink:href="test__edm__at__read_8c.html" target="_top" xlink:title="Tests, using EDM, read status from the module.">
<polygon fill="white" stroke="black" points="903,-0.5 903,-19.5 1006,-19.5 1006,-0.5 903,-0.5"/>
<text text-anchor="middle" x="954.5" y="-7.5" font-family="Helvetica,sans-Serif" font-size="10.00">test_edm_at_read.c</text>
</a>
</g>
</g>
<!-- Node1&#45;&gt;Node11 -->
<g id="edge10" class="edge"><title>Node1&#45;&gt;Node11</title>
<path fill="none" stroke="midnightblue" d="M872.019,-51.8622C892.23,-41.8492 919.487,-28.3458 937.031,-19.6545"/>
<polygon fill="midnightblue" stroke="midnightblue" points="870.42,-48.7485 863.013,-56.324 873.527,-55.0209 870.42,-48.7485"/>
</g>
<!-- Node12 -->
<g id="node12" class="node"><title>Node12</title>
<g id="a_node12"><a xlink:href="test__getgeneral_8c.html" target="_top" xlink:title="Tests from chapter 3: AT&#45;commands I, GMI, GMM, GMR, GSN .">
<polygon fill="white" stroke="black" points="1024.5,-0.5 1024.5,-19.5 1116.5,-19.5 1116.5,-0.5 1024.5,-0.5"/>
<text text-anchor="middle" x="1070.5" y="-7.5" font-family="Helvetica,sans-Serif" font-size="10.00">test_getgeneral.c</text>
</a>
</g>
</g>
<!-- Node1&#45;&gt;Node12 -->
<g id="edge11" class="edge"><title>Node1&#45;&gt;Node12</title>
<path fill="none" stroke="midnightblue" d="M890.965,-54.0884C933.473,-43.8865 996.079,-28.8612 1035.01,-19.5164"/>
<polygon fill="midnightblue" stroke="midnightblue" points="890.059,-50.7064 881.152,-56.4435 891.693,-57.5131 890.059,-50.7064"/>
</g>
<!-- Node13 -->
<g id="node13" class="node"><title>Node13</title>
<g id="a_node13"><a xlink:href="test__getsystem_8c.html" target="_top" xlink:title="Tests from chapter 4: AT&#45;commands +UMLA .">
<polygon fill="white" stroke="black" points="1134.5,-0.5 1134.5,-19.5 1226.5,-19.5 1226.5,-0.5 1134.5,-0.5"/>
<text text-anchor="middle" x="1180.5" y="-7.5" font-family="Helvetica,sans-Serif" font-size="10.00">test_getsystem.c</text>
</a>
</g>
</g>
<!-- Node1&#45;&gt;Node13 -->
<g id="edge12" class="edge"><title>Node1&#45;&gt;Node13</title>
<path fill="none" stroke="midnightblue" d="M892.56,-57.4788C948.202,-48.5761 1043.6,-33.2816 1125.5,-20 1128.37,-19.5353 1131.31,-19.056 1134.29,-18.5717"/>
<polygon fill="midnightblue" stroke="midnightblue" points="891.967,-54.029 882.645,-59.0648 893.072,-60.9412 891.967,-54.029"/>
</g>
<!-- Node14 -->
<g id="node14" class="node"><title>Node14</title>
<g id="a_node14"><a xlink:href="test__mock__ati9_8c.html" target="_top" xlink:title="Hello, World / Issue AT command to mocked serial driver.">
<polygon fill="white" stroke="black" points="1244.5,-0.5 1244.5,-19.5 1336.5,-19.5 1336.5,-0.5 1244.5,-0.5"/>
<text text-anchor="middle" x="1290.5" y="-7.5" font-family="Helvetica,sans-Serif" font-size="10.00">test_mock_ati9.c</text>
</a>
</g>
</g>
<!-- Node1&#45;&gt;Node14 -->
<g id="edge13" class="edge"><title>Node1&#45;&gt;Node14</title>
<path fill="none" stroke="midnightblue" d="M892.991,-60.2525C966.518,-52.7371 1112.29,-37.1795 1235.5,-20 1238.37,-19.5992 1241.33,-19.1687 1244.31,-18.721"/>
<polygon fill="midnightblue" stroke="midnightblue" points="892.272,-56.8075 882.678,-61.3022 892.981,-63.7715 892.272,-56.8075"/>
</g>
<!-- Node15 -->
<g id="node15" class="node"><title>Node15</title>
<g id="a_node15"><a xlink:href="test__send_8c.html" target="_top" xlink:title="Tests the functions used for building and sending AT commands.">
<polygon fill="white" stroke="black" points="1354.5,-0.5 1354.5,-19.5 1422.5,-19.5 1422.5,-0.5 1354.5,-0.5"/>
<text text-anchor="middle" x="1388.5" y="-7.5" font-family="Helvetica,sans-Serif" font-size="10.00">test_send.c</text>
</a>
</g>
</g>
<!-- Node1&#45;&gt;Node15 -->
<g id="edge14" class="edge"><title>Node1&#45;&gt;Node15</title>
<path fill="none" stroke="midnightblue" d="M892.728,-62.5892C981.698,-57.6407 1180.07,-44.6702 1345.5,-20 1348.37,-19.5725 1351.33,-19.0736 1354.3,-18.5339"/>
<polygon fill="midnightblue" stroke="midnightblue" points="892.477,-59.0976 882.684,-63.1395 892.86,-66.0871 892.477,-59.0976"/>
</g>
<!-- Node16 -->
<g id="node16" class="node"><title>Node16</title>
<g id="a_node16"><a xlink:href="test__tokenizer_8c.html" target="_top" xlink:title="Tests the tokenizer of the URC parser.">
<polygon fill="white" stroke="black" points="1440.5,-0.5 1440.5,-19.5 1526.5,-19.5 1526.5,-0.5 1440.5,-0.5"/>
<text text-anchor="middle" x="1483.5" y="-7.5" font-family="Helvetica,sans-Serif" font-size="10.00">test_tokenizer.c</text>
</a>
</g>
</g>
<!-- Node1&#45;&gt;Node16 -->
<g id="edge15" class="edge"><title>Node1&#45;&gt;Node16</title>
<path fill="none" stroke="midnightblue" d="M892.705,-62.895C992.475,-58.1122 1232.01,-44.8669 1431.5,-20 1434.41,-19.6374 1437.4,-19.2247 1440.42,-18.7803"/>
<polygon fill="midnightblue" stroke="midnightblue" points="892.468,-59.4022 882.645,-63.3712 892.799,-66.3944 892.468,-59.4022"/>
</g>
<!-- Node17 -->
<g id="node17" class="node"><title>Node17</title>
<g id="a_node17"><a xlink:href="test__tools_8c.html" target="_top" xlink:title=" ">
<polygon fill="white" stroke="black" points="1544.5,-0.5 1544.5,-19.5 1612.5,-19.5 1612.5,-0.5 1544.5,-0.5"/>
<text text-anchor="middle" x="1578.5" y="-7.5" font-family="Helvetica,sans-Serif" font-size="10.00">test_tools.c</text>
</a>
</g>
</g>
<!-- Node1&#45;&gt;Node17 -->
<g id="edge16" class="edge"><title>Node1&#45;&gt;Node17</title>
<path fill="none" stroke="midnightblue" d="M893.01,-64.2087C1005.27,-61.837 1295.54,-52.7694 1535.5,-20 1538.37,-19.6078 1541.34,-19.1338 1544.31,-18.6108"/>
<polygon fill="midnightblue" stroke="midnightblue" points="892.636,-60.7154 882.709,-64.4178 892.778,-67.714 892.636,-60.7154"/>
</g>
<!-- Node18 -->
<g id="node18" class="node"><title>Node18</title>
<g id="a_node18"><a xlink:href="ucxh__serial__mock_8c.html" target="_top" xlink:title=" ">
<polygon fill="white" stroke="black" points="1630.5,-0.5 1630.5,-19.5 1734.5,-19.5 1734.5,-0.5 1630.5,-0.5"/>
<text text-anchor="middle" x="1682.5" y="-7.5" font-family="Helvetica,sans-Serif" font-size="10.00">ucxh_serial_mock.c</text>
</a>
</g>
</g>
<!-- Node1&#45;&gt;Node18 -->
<g id="edge17" class="edge"><title>Node1&#45;&gt;Node18</title>
<path fill="none" stroke="midnightblue" d="M892.813,-63.7156C1014.16,-60.1051 1346.27,-48.2285 1621.5,-20 1624.38,-19.7051 1627.32,-19.3723 1630.29,-19.0129"/>
<polygon fill="midnightblue" stroke="midnightblue" points="892.64,-60.2191 882.746,-64.0104 892.845,-67.2161 892.64,-60.2191"/>
</g>
</g>
</svg>
