<?xml version="1.0" encoding="UTF-8" standalone="no"?>
<!DOCTYPE svg PUBLIC "-//W3C//DTD SVG 1.1//EN"
 "http://www.w3.org/Graphics/SVG/1.1/DTD/svg11.dtd">
<!-- Generated by graphviz version 2.38.0 (20140413.2041)
 -->
<!-- Title: ucxh_library.h Pages: 1 -->
<svg width="639pt" height="308pt"
 viewBox="0.00 0.00 638.50 308.00" xmlns="http://www.w3.org/2000/svg" xmlns:xlink="http://www.w3.org/1999/xlink">
<g id="graph0" class="graph" transform="scale(1 1) rotate(0) translate(4 304)">
<title>ucxh_library.h</title>
<polygon fill="white" stroke="none" points="-4,4 -4,-304 634.5,-304 634.5,4 -4,4"/>
<!-- Node1 -->
<g id="node1" class="node"><title>Node1</title>
<g id="a_node1"><a xlink:title=" ">
<polygon fill="#bfbfbf" stroke="black" points="312,-280.5 312,-299.5 389,-299.5 389,-280.5 312,-280.5"/>
<text text-anchor="middle" x="350.5" y="-287.5" font-family="Helvetica,sans-Serif" font-size="10.00">ucxh_library.h</text>
</a>
</g>
</g>
<!-- Node2 -->
<g id="node2" class="node"><title>Node2</title>
<g id="a_node2"><a xlink:href="ucxh__config_8h.html" target="_top" xlink:title=" ">
<polygon fill="white" stroke="black" points="0,-224.5 0,-243.5 77,-243.5 77,-224.5 0,-224.5"/>
<text text-anchor="middle" x="38.5" y="-231.5" font-family="Helvetica,sans-Serif" font-size="10.00">ucxh_config.h</text>
</a>
</g>
</g>
<!-- Node1&#45;&gt;Node2 -->
<g id="edge1" class="edge"><title>Node1&#45;&gt;Node2</title>
<path fill="none" stroke="midnightblue" d="M311.93,-282.324C255.25,-272.514 149.48,-254.208 87.4151,-243.466"/>
<polygon fill="midnightblue" stroke="midnightblue" points="87.9225,-240.002 77.472,-241.745 86.7286,-246.899 87.9225,-240.002"/>
</g>
<!-- Node3 -->
<g id="node3" class="node"><title>Node3</title>
<g id="a_node3"><a xlink:href="ucxh__edm__parser_8h.html" target="_top" xlink:title=" ">
<polygon fill="white" stroke="black" points="184.5,-224.5 184.5,-243.5 286.5,-243.5 286.5,-224.5 184.5,-224.5"/>
<text text-anchor="middle" x="235.5" y="-231.5" font-family="Helvetica,sans-Serif" font-size="10.00">ucxh_edm_parser.h</text>
</a>
</g>
</g>
<!-- Node1&#45;&gt;Node3 -->
<g id="edge2" class="edge"><title>Node1&#45;&gt;Node3</title>
<path fill="none" stroke="midnightblue" d="M332.278,-280.444C313.604,-271.675 284.344,-257.935 262.883,-247.858"/>
<polygon fill="midnightblue" stroke="midnightblue" points="264.176,-244.599 253.637,-243.516 261.201,-250.935 264.176,-244.599"/>
</g>
<!-- Node5 -->
<g id="node5" class="node"><title>Node5</title>
<g id="a_node5"><a xlink:href="ucxh__parser_8h.html" target="_top" xlink:title=" ">
<polygon fill="white" stroke="black" points="269.5,-168.5 269.5,-187.5 347.5,-187.5 347.5,-168.5 269.5,-168.5"/>
<text text-anchor="middle" x="308.5" y="-175.5" font-family="Helvetica,sans-Serif" font-size="10.00">ucxh_parser.h</text>
</a>
</g>
</g>
<!-- Node1&#45;&gt;Node5 -->
<g id="edge22" class="edge"><title>Node1&#45;&gt;Node5</title>
<path fill="none" stroke="midnightblue" d="M347.204,-280.368C340.365,-262.456 324.507,-220.923 315.353,-196.948"/>
<polygon fill="midnightblue" stroke="midnightblue" points="318.617,-195.685 311.78,-187.591 312.078,-198.182 318.617,-195.685"/>
</g>
<!-- Node8 -->
<g id="node8" class="node"><title>Node8</title>
<g id="a_node8"><a xlink:href="ucxh__edm_8h.html" target="_top" xlink:title=" ">
<polygon fill="white" stroke="black" points="76.5,-112.5 76.5,-131.5 146.5,-131.5 146.5,-112.5 76.5,-112.5"/>
<text text-anchor="middle" x="111.5" y="-119.5" font-family="Helvetica,sans-Serif" font-size="10.00">ucxh_edm.h</text>
</a>
</g>
</g>
<!-- Node1&#45;&gt;Node8 -->
<g id="edge27" class="edge"><title>Node1&#45;&gt;Node8</title>
<path fill="none" stroke="midnightblue" d="M311.965,-287.605C273.789,-284.41 215.407,-274.443 175.5,-244 141.291,-217.904 123.458,-168.197 115.948,-141.329"/>
<polygon fill="midnightblue" stroke="midnightblue" points="119.332,-140.436 113.416,-131.646 112.56,-142.207 119.332,-140.436"/>
</g>
<!-- Node11 -->
<g id="node11" class="node"><title>Node11</title>
<g id="a_node11"><a xlink:href="ucxh__wait_8h.html" target="_top" xlink:title=" ">
<polygon fill="white" stroke="black" points="562.5,-112.5 562.5,-131.5 630.5,-131.5 630.5,-112.5 562.5,-112.5"/>
<text text-anchor="middle" x="596.5" y="-119.5" font-family="Helvetica,sans-Serif" font-size="10.00">ucxh_wait.h</text>
</a>
</g>
</g>
<!-- Node1&#45;&gt;Node11 -->
<g id="edge25" class="edge"><title>Node1&#45;&gt;Node11</title>
<path fill="none" stroke="midnightblue" d="M360.704,-280.415C376.094,-267.606 406.338,-242.966 433.5,-224 481.447,-190.521 540.34,-155.433 572.582,-136.707"/>
<polygon fill="midnightblue" stroke="midnightblue" points="574.41,-139.692 581.315,-131.657 570.906,-133.633 574.41,-139.692"/>
</g>
<!-- Node12 -->
<g id="node12" class="node"><title>Node12</title>
<g id="a_node12"><a xlink:href="ucxh__wifi_8h.html" target="_top" xlink:title=" ">
<polygon fill="white" stroke="black" points="479,-112.5 479,-131.5 544,-131.5 544,-112.5 479,-112.5"/>
<text text-anchor="middle" x="511.5" y="-119.5" font-family="Helvetica,sans-Serif" font-size="10.00">ucxh_wifi.h</text>
</a>
</g>
</g>
<!-- Node1&#45;&gt;Node12 -->
<g id="edge26" class="edge"><title>Node1&#45;&gt;Node12</title>
<path fill="none" stroke="midnightblue" d="M351.642,-280.413C354.971,-258.663 366.602,-200.808 399.5,-168 418.306,-149.245 445.944,-138.031 469.059,-131.488"/>
<polygon fill="midnightblue" stroke="midnightblue" points="470.198,-134.807 478.98,-128.88 468.419,-128.037 470.198,-134.807"/>
</g>
<!-- Node15 -->
<g id="node15" class="node"><title>Node15</title>
<g id="a_node15"><a xlink:href="ucxh__mode_8h.html" target="_top" xlink:title=" ">
<polygon fill="white" stroke="black" points="442,-224.5 442,-243.5 517,-243.5 517,-224.5 442,-224.5"/>
<text text-anchor="middle" x="479.5" y="-231.5" font-family="Helvetica,sans-Serif" font-size="10.00">ucxh_mode.h</text>
</a>
</g>
</g>
<!-- Node1&#45;&gt;Node15 -->
<g id="edge21" class="edge"><title>Node1&#45;&gt;Node15</title>
<path fill="none" stroke="midnightblue" d="M370.94,-280.444C392.17,-271.557 425.599,-257.563 449.755,-247.451"/>
<polygon fill="midnightblue" stroke="midnightblue" points="451.282,-250.606 459.155,-243.516 448.579,-244.149 451.282,-250.606"/>
</g>
<!-- Node16 -->
<g id="node16" class="node"><title>Node16</title>
<g id="a_node16"><a xlink:href="ucxh__send_8h.html" target="_top" xlink:title=" ">
<polygon fill="white" stroke="black" points="535.5,-224.5 535.5,-243.5 607.5,-243.5 607.5,-224.5 535.5,-224.5"/>
<text text-anchor="middle" x="571.5" y="-231.5" font-family="Helvetica,sans-Serif" font-size="10.00">ucxh_send.h</text>
</a>
</g>
</g>
<!-- Node1&#45;&gt;Node16 -->
<g id="edge23" class="edge"><title>Node1&#45;&gt;Node16</title>
<path fill="none" stroke="midnightblue" d="M385.518,-280.444C423.748,-271.102 485.067,-256.119 526.757,-245.933"/>
<polygon fill="midnightblue" stroke="midnightblue" points="527.762,-249.29 536.646,-243.516 526.101,-242.49 527.762,-249.29"/>
</g>
<!-- Node4 -->
<g id="node4" class="node"><title>Node4</title>
<g id="a_node4"><a xlink:title=" ">
<polygon fill="white" stroke="#bfbfbf" points="213.5,-56.5 213.5,-75.5 257.5,-75.5 257.5,-56.5 213.5,-56.5"/>
<text text-anchor="middle" x="235.5" y="-63.5" font-family="Helvetica,sans-Serif" font-size="10.00">time.h</text>
</a>
</g>
</g>
<!-- Node3&#45;&gt;Node4 -->
<g id="edge3" class="edge"><title>Node3&#45;&gt;Node4</title>
<path fill="none" stroke="midnightblue" d="M228.248,-224.403C212.349,-204.46 177.11,-153.582 193.5,-112 198.014,-100.548 206.969,-90.291 215.455,-82.4724"/>
<polygon fill="midnightblue" stroke="midnightblue" points="217.969,-84.9275 223.286,-75.7638 213.415,-79.6113 217.969,-84.9275"/>
</g>
<!-- Node3&#45;&gt;Node5 -->
<g id="edge4" class="edge"><title>Node3&#45;&gt;Node5</title>
<path fill="none" stroke="midnightblue" d="M247.229,-224.324C258.337,-216.107 275.242,-203.602 288.483,-193.807"/>
<polygon fill="midnightblue" stroke="midnightblue" points="290.6,-196.595 296.558,-187.834 286.437,-190.967 290.6,-196.595"/>
</g>
<!-- Node3&#45;&gt;Node8 -->
<g id="edge20" class="edge"><title>Node3&#45;&gt;Node8</title>
<path fill="none" stroke="midnightblue" d="M220.064,-224.447C205.698,-216.114 184.072,-202.597 167.5,-188 150.812,-173.301 134.543,-153.64 123.879,-139.803"/>
<polygon fill="midnightblue" stroke="midnightblue" points="126.552,-137.534 117.733,-131.662 120.965,-141.752 126.552,-137.534"/>
</g>
<!-- Node10 -->
<g id="node10" class="node"><title>Node10</title>
<g id="a_node10"><a xlink:href="ucxh__poll_8h.html" target="_top" xlink:title=" ">
<polygon fill="white" stroke="black" points="202.5,-112.5 202.5,-131.5 268.5,-131.5 268.5,-112.5 202.5,-112.5"/>
<text text-anchor="middle" x="235.5" y="-119.5" font-family="Helvetica,sans-Serif" font-size="10.00">ucxh_poll.h</text>
</a>
</g>
</g>
<!-- Node3&#45;&gt;Node10 -->
<g id="edge19" class="edge"><title>Node3&#45;&gt;Node10</title>
<path fill="none" stroke="midnightblue" d="M235.5,-224.368C235.5,-206.617 235.5,-165.666 235.5,-141.597"/>
<polygon fill="midnightblue" stroke="midnightblue" points="239,-141.591 235.5,-131.591 232,-141.591 239,-141.591"/>
</g>
<!-- Node5&#45;&gt;Node4 -->
<g id="edge7" class="edge"><title>Node5&#45;&gt;Node4</title>
<path fill="none" stroke="midnightblue" d="M305.275,-168.133C300.348,-155.178 290.169,-130.599 277.5,-112 270.297,-101.425 260.644,-90.8979 252.408,-82.6875"/>
<polygon fill="midnightblue" stroke="midnightblue" points="254.697,-80.0316 245.073,-75.5996 249.832,-85.0654 254.697,-80.0316"/>
</g>
<!-- Node6 -->
<g id="node6" class="node"><title>Node6</title>
<g id="a_node6"><a xlink:title=" ">
<polygon fill="white" stroke="#bfbfbf" points="325,-112.5 325,-131.5 384,-131.5 384,-112.5 325,-112.5"/>
<text text-anchor="middle" x="354.5" y="-119.5" font-family="Helvetica,sans-Serif" font-size="10.00">inttypes.h</text>
</a>
</g>
</g>
<!-- Node5&#45;&gt;Node6 -->
<g id="edge5" class="edge"><title>Node5&#45;&gt;Node6</title>
<path fill="none" stroke="midnightblue" d="M316.096,-168.083C322.727,-160.298 332.521,-148.801 340.558,-139.367"/>
<polygon fill="midnightblue" stroke="midnightblue" points="343.225,-141.633 347.045,-131.751 337.896,-137.094 343.225,-141.633"/>
</g>
<!-- Node7 -->
<g id="node7" class="node"><title>Node7</title>
<g id="a_node7"><a xlink:title=" ">
<polygon fill="white" stroke="#bfbfbf" points="384.5,-56.5 384.5,-75.5 440.5,-75.5 440.5,-56.5 384.5,-56.5"/>
<text text-anchor="middle" x="412.5" y="-63.5" font-family="Helvetica,sans-Serif" font-size="10.00">stdbool.h</text>
</a>
</g>
</g>
<!-- Node5&#45;&gt;Node7 -->
<g id="edge6" class="edge"><title>Node5&#45;&gt;Node7</title>
<path fill="none" stroke="midnightblue" d="M337.153,-168.361C355.716,-161.369 379.043,-149.728 393.5,-132 404.288,-118.772 408.951,-99.6409 410.966,-85.5576"/>
<polygon fill="midnightblue" stroke="midnightblue" points="414.452,-85.8805 412.081,-75.5543 407.495,-85.105 414.452,-85.8805"/>
</g>
<!-- Node5&#45;&gt;Node8 -->
<g id="edge8" class="edge"><title>Node5&#45;&gt;Node8</title>
<path fill="none" stroke="midnightblue" d="M277.285,-168.444C243.567,-159.201 189.7,-144.436 152.568,-134.257"/>
<polygon fill="midnightblue" stroke="midnightblue" points="153.139,-130.785 142.569,-131.516 151.288,-137.536 153.139,-130.785"/>
</g>
<!-- Node5&#45;&gt;Node10 -->
<g id="edge10" class="edge"><title>Node5&#45;&gt;Node10</title>
<path fill="none" stroke="midnightblue" d="M296.771,-168.324C285.663,-160.107 268.758,-147.602 255.517,-137.807"/>
<polygon fill="midnightblue" stroke="midnightblue" points="257.563,-134.967 247.442,-131.834 253.4,-140.595 257.563,-134.967"/>
</g>
<!-- Node5&#45;&gt;Node11 -->
<g id="edge13" class="edge"><title>Node5&#45;&gt;Node11</title>
<path fill="none" stroke="midnightblue" d="M347.594,-170.126C394.013,-161.897 474.03,-147.499 552.227,-132.214"/>
<polygon fill="midnightblue" stroke="midnightblue" points="553.109,-135.608 562.248,-130.249 551.761,-128.739 553.109,-135.608"/>
</g>
<!-- Node5&#45;&gt;Node12 -->
<g id="edge14" class="edge"><title>Node5&#45;&gt;Node12</title>
<path fill="none" stroke="midnightblue" d="M340.666,-168.444C375.559,-159.162 431.393,-144.309 469.671,-134.127"/>
<polygon fill="midnightblue" stroke="midnightblue" points="470.72,-137.47 479.485,-131.516 468.921,-130.705 470.72,-137.47"/>
</g>
<!-- Node9 -->
<g id="node9" class="node"><title>Node9</title>
<g id="a_node9"><a xlink:title=" ">
<polygon fill="white" stroke="#bfbfbf" points="86,-56.5 86,-75.5 137,-75.5 137,-56.5 86,-56.5"/>
<text text-anchor="middle" x="111.5" y="-63.5" font-family="Helvetica,sans-Serif" font-size="10.00">unistd.h</text>
</a>
</g>
</g>
<!-- Node8&#45;&gt;Node9 -->
<g id="edge9" class="edge"><title>Node8&#45;&gt;Node9</title>
<path fill="none" stroke="midnightblue" d="M111.5,-112.083C111.5,-105.006 111.5,-94.8611 111.5,-85.9865"/>
<polygon fill="midnightblue" stroke="midnightblue" points="115,-85.751 111.5,-75.7511 108,-85.7511 115,-85.751"/>
</g>
<!-- Node10&#45;&gt;Node4 -->
<g id="edge12" class="edge"><title>Node10&#45;&gt;Node4</title>
<path fill="none" stroke="midnightblue" d="M235.5,-112.083C235.5,-105.006 235.5,-94.8611 235.5,-85.9865"/>
<polygon fill="midnightblue" stroke="midnightblue" points="239,-85.751 235.5,-75.7511 232,-85.7511 239,-85.751"/>
</g>
<!-- Node10&#45;&gt;Node7 -->
<g id="edge11" class="edge"><title>Node10&#45;&gt;Node7</title>
<path fill="none" stroke="midnightblue" d="M263.546,-112.444C293.582,-103.28 341.413,-88.6876 374.743,-78.5192"/>
<polygon fill="midnightblue" stroke="midnightblue" points="376.042,-81.7822 384.585,-75.5164 373.999,-75.0869 376.042,-81.7822"/>
</g>
<!-- Node12&#45;&gt;Node7 -->
<g id="edge15" class="edge"><title>Node12&#45;&gt;Node7</title>
<path fill="none" stroke="midnightblue" d="M495.594,-112.324C479.862,-103.743 455.558,-90.486 437.291,-80.5224"/>
<polygon fill="midnightblue" stroke="midnightblue" points="438.822,-77.3704 428.367,-75.6545 435.47,-83.5157 438.822,-77.3704"/>
</g>
<!-- Node13 -->
<g id="node13" class="node"><title>Node13</title>
<g id="a_node13"><a xlink:href="ucxh__urc_8h.html" target="_top" xlink:title=" ">
<polygon fill="white" stroke="black" points="469,-56.5 469,-75.5 534,-75.5 534,-56.5 469,-56.5"/>
<text text-anchor="middle" x="501.5" y="-63.5" font-family="Helvetica,sans-Serif" font-size="10.00">ucxh_urc.h</text>
</a>
</g>
</g>
<!-- Node12&#45;&gt;Node13 -->
<g id="edge16" class="edge"><title>Node12&#45;&gt;Node13</title>
<path fill="none" stroke="midnightblue" d="M509.849,-112.083C508.524,-104.927 506.618,-94.6353 504.961,-85.6911"/>
<polygon fill="midnightblue" stroke="midnightblue" points="508.383,-84.9466 503.121,-75.7511 501.5,-86.2212 508.383,-84.9466"/>
</g>
<!-- Node13&#45;&gt;Node5 -->
<g id="edge17" class="edge"><title>Node13&#45;&gt;Node5</title>
<path fill="none" stroke="midnightblue" d="M491.331,-75.6009C475.313,-88.8699 442.893,-114.615 412.5,-132 389.797,-144.986 362.626,-156.621 341.751,-164.805"/>
<polygon fill="midnightblue" stroke="midnightblue" points="340.423,-161.566 332.349,-168.425 342.939,-168.098 340.423,-161.566"/>
</g>
<!-- Node14 -->
<g id="node14" class="node"><title>Node14</title>
<g id="a_node14"><a xlink:href="autogenerated_8h.html" target="_top" xlink:title="Automatically generated function prototypes and documentation.">
<polygon fill="white" stroke="black" points="458.5,-0.5 458.5,-19.5 544.5,-19.5 544.5,-0.5 458.5,-0.5"/>
<text text-anchor="middle" x="501.5" y="-7.5" font-family="Helvetica,sans-Serif" font-size="10.00">autogenerated.h</text>
</a>
</g>
</g>
<!-- Node13&#45;&gt;Node14 -->
<g id="edge18" class="edge"><title>Node13&#45;&gt;Node14</title>
<path fill="none" stroke="midnightblue" d="M501.5,-56.083C501.5,-49.0059 501.5,-38.8611 501.5,-29.9865"/>
<polygon fill="midnightblue" stroke="midnightblue" points="505,-29.751 501.5,-19.7511 498,-29.7511 505,-29.751"/>
</g>
<!-- Node17 -->
<g id="node17" class="node"><title>Node17</title>
<g id="a_node17"><a xlink:title=" ">
<polygon fill="white" stroke="#bfbfbf" points="548.5,-168.5 548.5,-187.5 594.5,-187.5 594.5,-168.5 548.5,-168.5"/>
<text text-anchor="middle" x="571.5" y="-175.5" font-family="Helvetica,sans-Serif" font-size="10.00">stdio.h</text>
</a>
</g>
</g>
<!-- Node16&#45;&gt;Node17 -->
<g id="edge24" class="edge"><title>Node16&#45;&gt;Node17</title>
<path fill="none" stroke="midnightblue" d="M571.5,-224.083C571.5,-217.006 571.5,-206.861 571.5,-197.986"/>
<polygon fill="midnightblue" stroke="midnightblue" points="575,-197.751 571.5,-187.751 568,-197.751 575,-197.751"/>
</g>
</g>
</svg>
