<?xml version="1.0" encoding="UTF-8" standalone="no"?>
<!DOCTYPE svg PUBLIC "-//W3C//DTD SVG 1.1//EN"
 "http://www.w3.org/Graphics/SVG/1.1/DTD/svg11.dtd">
<!-- Generated by graphviz version 2.38.0 (20140413.2041)
 -->
<!-- Title: ucxh_wifi.h Pages: 1 -->
<svg width="420pt" height="252pt"
 viewBox="0.00 0.00 420.00 252.00" xmlns="http://www.w3.org/2000/svg" xmlns:xlink="http://www.w3.org/1999/xlink">
<g id="graph0" class="graph" transform="scale(1 1) rotate(0) translate(4 248)">
<title>ucxh_wifi.h</title>
<polygon fill="white" stroke="none" points="-4,4 -4,-248 416,-248 416,4 -4,4"/>
<!-- Node1 -->
<g id="node1" class="node"><title>Node1</title>
<g id="a_node1"><a xlink:title=" ">
<polygon fill="#bfbfbf" stroke="black" points="103.5,-224.5 103.5,-243.5 168.5,-243.5 168.5,-224.5 103.5,-224.5"/>
<text text-anchor="middle" x="136" y="-231.5" font-family="Helvetica,sans-Serif" font-size="10.00">ucxh_wifi.h</text>
</a>
</g>
</g>
<!-- Node2 -->
<g id="node2" class="node"><title>Node2</title>
<g id="a_node2"><a xlink:title=" ">
<polygon fill="white" stroke="#bfbfbf" points="0,-0.5 0,-19.5 56,-19.5 56,-0.5 0,-0.5"/>
<text text-anchor="middle" x="28" y="-7.5" font-family="Helvetica,sans-Serif" font-size="10.00">stdbool.h</text>
</a>
</g>
</g>
<!-- Node1&#45;&gt;Node2 -->
<g id="edge1" class="edge"><title>Node1&#45;&gt;Node2</title>
<path fill="none" stroke="midnightblue" d="M127.797,-224.356C107.173,-201.998 53.2908,-139.553 32,-76 27,-61.0751 26.2553,-43.1599 26.6163,-29.9207"/>
<polygon fill="midnightblue" stroke="midnightblue" points="30.1244,-29.8482 27.139,-19.6827 23.1336,-29.4911 30.1244,-29.8482"/>
</g>
<!-- Node3 -->
<g id="node3" class="node"><title>Node3</title>
<g id="a_node3"><a xlink:href="ucxh__urc_8h.html" target="_top" xlink:title=" ">
<polygon fill="white" stroke="black" points="164.5,-168.5 164.5,-187.5 229.5,-187.5 229.5,-168.5 164.5,-168.5"/>
<text text-anchor="middle" x="197" y="-175.5" font-family="Helvetica,sans-Serif" font-size="10.00">ucxh_urc.h</text>
</a>
</g>
</g>
<!-- Node1&#45;&gt;Node3 -->
<g id="edge2" class="edge"><title>Node1&#45;&gt;Node3</title>
<path fill="none" stroke="midnightblue" d="M145.801,-224.324C154.818,-216.341 168.406,-204.313 179.318,-194.653"/>
<polygon fill="midnightblue" stroke="midnightblue" points="181.853,-197.083 187.021,-187.834 177.213,-191.842 181.853,-197.083"/>
</g>
<!-- Node4 -->
<g id="node4" class="node"><title>Node4</title>
<g id="a_node4"><a xlink:href="ucxh__parser_8h.html" target="_top" xlink:title=" ">
<polygon fill="white" stroke="black" points="128,-112.5 128,-131.5 206,-131.5 206,-112.5 128,-112.5"/>
<text text-anchor="middle" x="167" y="-119.5" font-family="Helvetica,sans-Serif" font-size="10.00">ucxh_parser.h</text>
</a>
</g>
</g>
<!-- Node3&#45;&gt;Node4 -->
<g id="edge3" class="edge"><title>Node3&#45;&gt;Node4</title>
<path fill="none" stroke="midnightblue" d="M192.046,-168.083C187.896,-160.613 181.847,-149.724 176.733,-140.52"/>
<polygon fill="midnightblue" stroke="midnightblue" points="179.778,-138.793 171.862,-131.751 173.659,-142.192 179.778,-138.793"/>
</g>
<!-- Node11 -->
<g id="node11" class="node"><title>Node11</title>
<g id="a_node11"><a xlink:href="autogenerated_8h.html" target="_top" xlink:title="Automatically generated function prototypes and documentation.">
<polygon fill="white" stroke="black" points="224,-112.5 224,-131.5 310,-131.5 310,-112.5 224,-112.5"/>
<text text-anchor="middle" x="267" y="-119.5" font-family="Helvetica,sans-Serif" font-size="10.00">autogenerated.h</text>
</a>
</g>
</g>
<!-- Node3&#45;&gt;Node11 -->
<g id="edge14" class="edge"><title>Node3&#45;&gt;Node11</title>
<path fill="none" stroke="midnightblue" d="M208.247,-168.324C218.797,-160.185 234.801,-147.839 247.442,-138.087"/>
<polygon fill="midnightblue" stroke="midnightblue" points="249.769,-140.713 255.549,-131.834 245.493,-135.171 249.769,-140.713"/>
</g>
<!-- Node4&#45;&gt;Node1 -->
<g id="edge13" class="edge"><title>Node4&#45;&gt;Node1</title>
<path fill="none" stroke="midnightblue" d="M164.579,-131.591C159.563,-149.388 147.942,-190.625 141.165,-214.674"/>
<polygon fill="midnightblue" stroke="midnightblue" points="137.776,-213.794 138.433,-224.368 144.514,-215.693 137.776,-213.794"/>
</g>
<!-- Node4&#45;&gt;Node2 -->
<g id="edge5" class="edge"><title>Node4&#45;&gt;Node2</title>
<path fill="none" stroke="midnightblue" d="M127.9,-115.597C101.61,-109.986 68.0407,-98.6671 47,-76 35.3871,-63.4895 30.8352,-44.2624 29.0704,-29.9611"/>
<polygon fill="midnightblue" stroke="midnightblue" points="32.5366,-29.4237 28.1709,-19.7702 25.5637,-30.0392 32.5366,-29.4237"/>
</g>
<!-- Node5 -->
<g id="node5" class="node"><title>Node5</title>
<g id="a_node5"><a xlink:title=" ">
<polygon fill="white" stroke="#bfbfbf" points="56.5,-56.5 56.5,-75.5 115.5,-75.5 115.5,-56.5 56.5,-56.5"/>
<text text-anchor="middle" x="86" y="-63.5" font-family="Helvetica,sans-Serif" font-size="10.00">inttypes.h</text>
</a>
</g>
</g>
<!-- Node4&#45;&gt;Node5 -->
<g id="edge4" class="edge"><title>Node4&#45;&gt;Node5</title>
<path fill="none" stroke="midnightblue" d="M153.986,-112.324C141.468,-103.979 122.318,-91.2122 107.529,-81.3524"/>
<polygon fill="midnightblue" stroke="midnightblue" points="109.244,-78.2894 98.9818,-75.6545 105.361,-84.1137 109.244,-78.2894"/>
</g>
<!-- Node6 -->
<g id="node6" class="node"><title>Node6</title>
<g id="a_node6"><a xlink:title=" ">
<polygon fill="white" stroke="#bfbfbf" points="174,-0.5 174,-19.5 218,-19.5 218,-0.5 174,-0.5"/>
<text text-anchor="middle" x="196" y="-7.5" font-family="Helvetica,sans-Serif" font-size="10.00">time.h</text>
</a>
</g>
</g>
<!-- Node4&#45;&gt;Node6 -->
<g id="edge6" class="edge"><title>Node4&#45;&gt;Node6</title>
<path fill="none" stroke="midnightblue" d="M179.214,-112.236C189.354,-104.143 203.043,-91.1121 209,-76 214.994,-60.7934 210.335,-42.4525 204.999,-29.1359"/>
<polygon fill="midnightblue" stroke="midnightblue" points="208.049,-27.3832 200.765,-19.6893 201.662,-30.2462 208.049,-27.3832"/>
</g>
<!-- Node7 -->
<g id="node7" class="node"><title>Node7</title>
<g id="a_node7"><a xlink:href="ucxh__edm_8h.html" target="_top" xlink:title=" ">
<polygon fill="white" stroke="black" points="256,-56.5 256,-75.5 326,-75.5 326,-56.5 256,-56.5"/>
<text text-anchor="middle" x="291" y="-63.5" font-family="Helvetica,sans-Serif" font-size="10.00">ucxh_edm.h</text>
</a>
</g>
</g>
<!-- Node4&#45;&gt;Node7 -->
<g id="edge7" class="edge"><title>Node4&#45;&gt;Node7</title>
<path fill="none" stroke="midnightblue" d="M186.648,-112.444C206.965,-103.596 238.903,-89.6875 262.098,-79.5865"/>
<polygon fill="midnightblue" stroke="midnightblue" points="263.673,-82.7181 271.444,-75.5164 260.878,-76.3002 263.673,-82.7181"/>
</g>
<!-- Node9 -->
<g id="node9" class="node"><title>Node9</title>
<g id="a_node9"><a xlink:href="ucxh__poll_8h.html" target="_top" xlink:title=" ">
<polygon fill="white" stroke="black" points="134,-56.5 134,-75.5 200,-75.5 200,-56.5 134,-56.5"/>
<text text-anchor="middle" x="167" y="-63.5" font-family="Helvetica,sans-Serif" font-size="10.00">ucxh_poll.h</text>
</a>
</g>
</g>
<!-- Node4&#45;&gt;Node9 -->
<g id="edge9" class="edge"><title>Node4&#45;&gt;Node9</title>
<path fill="none" stroke="midnightblue" d="M167,-112.083C167,-105.006 167,-94.8611 167,-85.9865"/>
<polygon fill="midnightblue" stroke="midnightblue" points="170.5,-85.751 167,-75.7511 163.5,-85.7511 170.5,-85.751"/>
</g>
<!-- Node10 -->
<g id="node10" class="node"><title>Node10</title>
<g id="a_node10"><a xlink:href="ucxh__wait_8h.html" target="_top" xlink:title=" ">
<polygon fill="white" stroke="black" points="344,-56.5 344,-75.5 412,-75.5 412,-56.5 344,-56.5"/>
<text text-anchor="middle" x="378" y="-63.5" font-family="Helvetica,sans-Serif" font-size="10.00">ucxh_wait.h</text>
</a>
</g>
</g>
<!-- Node4&#45;&gt;Node10 -->
<g id="edge12" class="edge"><title>Node4&#45;&gt;Node10</title>
<path fill="none" stroke="midnightblue" d="M200.434,-112.444C236.856,-103.122 295.23,-88.1828 335.029,-77.9972"/>
<polygon fill="midnightblue" stroke="midnightblue" points="335.903,-81.3866 344.723,-75.5164 334.167,-74.6051 335.903,-81.3866"/>
</g>
<!-- Node8 -->
<g id="node8" class="node"><title>Node8</title>
<g id="a_node8"><a xlink:title=" ">
<polygon fill="white" stroke="#bfbfbf" points="265.5,-0.5 265.5,-19.5 316.5,-19.5 316.5,-0.5 265.5,-0.5"/>
<text text-anchor="middle" x="291" y="-7.5" font-family="Helvetica,sans-Serif" font-size="10.00">unistd.h</text>
</a>
</g>
</g>
<!-- Node7&#45;&gt;Node8 -->
<g id="edge8" class="edge"><title>Node7&#45;&gt;Node8</title>
<path fill="none" stroke="midnightblue" d="M291,-56.083C291,-49.0059 291,-38.8611 291,-29.9865"/>
<polygon fill="midnightblue" stroke="midnightblue" points="294.5,-29.751 291,-19.7511 287.5,-29.7511 294.5,-29.751"/>
</g>
<!-- Node9&#45;&gt;Node2 -->
<g id="edge10" class="edge"><title>Node9&#45;&gt;Node2</title>
<path fill="none" stroke="midnightblue" d="M144.975,-56.4435C121.896,-47.4776 85.438,-33.314 59.3591,-23.1827"/>
<polygon fill="midnightblue" stroke="midnightblue" points="60.5107,-19.8753 49.9219,-19.5164 57.9758,-26.4002 60.5107,-19.8753"/>
</g>
<!-- Node9&#45;&gt;Node6 -->
<g id="edge11" class="edge"><title>Node9&#45;&gt;Node6</title>
<path fill="none" stroke="midnightblue" d="M171.789,-56.083C175.758,-48.6913 181.525,-37.9533 186.435,-28.8111"/>
<polygon fill="midnightblue" stroke="midnightblue" points="189.653,-30.217 191.3,-19.7511 183.486,-26.9051 189.653,-30.217"/>
</g>
</g>
</svg>
