<?xml version="1.0" encoding="UTF-8" standalone="no"?>
<!DOCTYPE svg PUBLIC "-//W3C//DTD SVG 1.1//EN"
 "http://www.w3.org/Graphics/SVG/1.1/DTD/svg11.dtd">
<!-- Generated by graphviz version 2.38.0 (20140413.2041)
 -->
<!-- Title: ucxh_urc.h Pages: 1 -->
<svg width="486pt" height="196pt"
 viewBox="0.00 0.00 485.50 196.00" xmlns="http://www.w3.org/2000/svg" xmlns:xlink="http://www.w3.org/1999/xlink">
<g id="graph0" class="graph" transform="scale(1 1) rotate(0) translate(4 192)">
<title>ucxh_urc.h</title>
<polygon fill="white" stroke="none" points="-4,4 -4,-192 481.5,-192 481.5,4 -4,4"/>
<!-- Node1 -->
<g id="node1" class="node"><title>Node1</title>
<g id="a_node1"><a xlink:title=" ">
<polygon fill="#bfbfbf" stroke="black" points="159,-168.5 159,-187.5 224,-187.5 224,-168.5 159,-168.5"/>
<text text-anchor="middle" x="191.5" y="-175.5" font-family="Helvetica,sans-Serif" font-size="10.00">ucxh_urc.h</text>
</a>
</g>
</g>
<!-- Node2 -->
<g id="node2" class="node"><title>Node2</title>
<g id="a_node2"><a xlink:href="ucxh__parser_8h.html" target="_top" xlink:title=" ">
<polygon fill="white" stroke="black" points="152.5,-112.5 152.5,-131.5 230.5,-131.5 230.5,-112.5 152.5,-112.5"/>
<text text-anchor="middle" x="191.5" y="-119.5" font-family="Helvetica,sans-Serif" font-size="10.00">ucxh_parser.h</text>
</a>
</g>
</g>
<!-- Node1&#45;&gt;Node2 -->
<g id="edge1" class="edge"><title>Node1&#45;&gt;Node2</title>
<path fill="none" stroke="midnightblue" d="M191.5,-168.083C191.5,-161.006 191.5,-150.861 191.5,-141.986"/>
<polygon fill="midnightblue" stroke="midnightblue" points="195,-141.751 191.5,-131.751 188,-141.751 195,-141.751"/>
</g>
<!-- Node11 -->
<g id="node11" class="node"><title>Node11</title>
<g id="a_node11"><a xlink:href="autogenerated_8h.html" target="_top" xlink:title="Automatically generated function prototypes and documentation.">
<polygon fill="white" stroke="black" points="248.5,-112.5 248.5,-131.5 334.5,-131.5 334.5,-112.5 248.5,-112.5"/>
<text text-anchor="middle" x="291.5" y="-119.5" font-family="Helvetica,sans-Serif" font-size="10.00">autogenerated.h</text>
</a>
</g>
</g>
<!-- Node1&#45;&gt;Node11 -->
<g id="edge14" class="edge"><title>Node1&#45;&gt;Node11</title>
<path fill="none" stroke="midnightblue" d="M207.567,-168.324C223.458,-159.743 248.007,-146.486 266.458,-136.522"/>
<polygon fill="midnightblue" stroke="midnightblue" points="268.337,-139.486 275.473,-131.655 265.011,-133.326 268.337,-139.486"/>
</g>
<!-- Node3 -->
<g id="node3" class="node"><title>Node3</title>
<g id="a_node3"><a xlink:title=" ">
<polygon fill="white" stroke="#bfbfbf" points="122,-56.5 122,-75.5 181,-75.5 181,-56.5 122,-56.5"/>
<text text-anchor="middle" x="151.5" y="-63.5" font-family="Helvetica,sans-Serif" font-size="10.00">inttypes.h</text>
</a>
</g>
</g>
<!-- Node2&#45;&gt;Node3 -->
<g id="edge2" class="edge"><title>Node2&#45;&gt;Node3</title>
<path fill="none" stroke="midnightblue" d="M184.895,-112.083C179.245,-104.455 170.955,-93.2645 164.049,-83.9408"/>
<polygon fill="midnightblue" stroke="midnightblue" points="166.747,-81.7034 157.982,-75.7511 161.122,-85.87 166.747,-81.7034"/>
</g>
<!-- Node4 -->
<g id="node4" class="node"><title>Node4</title>
<g id="a_node4"><a xlink:title=" ">
<polygon fill="white" stroke="#bfbfbf" points="65.5,-0.5 65.5,-19.5 121.5,-19.5 121.5,-0.5 65.5,-0.5"/>
<text text-anchor="middle" x="93.5" y="-7.5" font-family="Helvetica,sans-Serif" font-size="10.00">stdbool.h</text>
</a>
</g>
</g>
<!-- Node2&#45;&gt;Node4 -->
<g id="edge3" class="edge"><title>Node2&#45;&gt;Node4</title>
<path fill="none" stroke="midnightblue" d="M166.35,-112.488C148.862,-105.34 126.298,-93.4626 112.5,-76 101.917,-62.6067 97.2271,-43.4981 95.1495,-29.4649"/>
<polygon fill="midnightblue" stroke="midnightblue" points="98.6224,-29.0286 93.9808,-19.5047 91.6701,-29.8445 98.6224,-29.0286"/>
</g>
<!-- Node5 -->
<g id="node5" class="node"><title>Node5</title>
<g id="a_node5"><a xlink:title=" ">
<polygon fill="white" stroke="#bfbfbf" points="240.5,-0.5 240.5,-19.5 284.5,-19.5 284.5,-0.5 240.5,-0.5"/>
<text text-anchor="middle" x="262.5" y="-7.5" font-family="Helvetica,sans-Serif" font-size="10.00">time.h</text>
</a>
</g>
</g>
<!-- Node2&#45;&gt;Node5 -->
<g id="edge4" class="edge"><title>Node2&#45;&gt;Node5</title>
<path fill="none" stroke="midnightblue" d="M223.685,-112.488C242.039,-105.801 263.516,-94.4504 274.5,-76 283.014,-61.6995 278.03,-42.7403 272.109,-28.9907"/>
<polygon fill="midnightblue" stroke="midnightblue" points="275.103,-27.1421 267.607,-19.6553 268.798,-30.1829 275.103,-27.1421"/>
</g>
<!-- Node6 -->
<g id="node6" class="node"><title>Node6</title>
<g id="a_node6"><a xlink:href="ucxh__edm_8h.html" target="_top" xlink:title=" ">
<polygon fill="white" stroke="black" points="407.5,-56.5 407.5,-75.5 477.5,-75.5 477.5,-56.5 407.5,-56.5"/>
<text text-anchor="middle" x="442.5" y="-63.5" font-family="Helvetica,sans-Serif" font-size="10.00">ucxh_edm.h</text>
</a>
</g>
</g>
<!-- Node2&#45;&gt;Node6 -->
<g id="edge5" class="edge"><title>Node2&#45;&gt;Node6</title>
<path fill="none" stroke="midnightblue" d="M230.719,-112.563C275.806,-102.862 349.689,-86.9673 397.194,-76.7472"/>
<polygon fill="midnightblue" stroke="midnightblue" points="398.163,-80.1189 407.203,-74.5938 396.69,-73.2755 398.163,-80.1189"/>
</g>
<!-- Node8 -->
<g id="node8" class="node"><title>Node8</title>
<g id="a_node8"><a xlink:href="ucxh__poll_8h.html" target="_top" xlink:title=" ">
<polygon fill="white" stroke="black" points="199.5,-56.5 199.5,-75.5 265.5,-75.5 265.5,-56.5 199.5,-56.5"/>
<text text-anchor="middle" x="232.5" y="-63.5" font-family="Helvetica,sans-Serif" font-size="10.00">ucxh_poll.h</text>
</a>
</g>
</g>
<!-- Node2&#45;&gt;Node8 -->
<g id="edge7" class="edge"><title>Node2&#45;&gt;Node8</title>
<path fill="none" stroke="midnightblue" d="M198.27,-112.083C204.062,-104.455 212.558,-93.2645 219.638,-83.9408"/>
<polygon fill="midnightblue" stroke="midnightblue" points="222.596,-85.8321 225.856,-75.7511 217.021,-81.5991 222.596,-85.8321"/>
</g>
<!-- Node9 -->
<g id="node9" class="node"><title>Node9</title>
<g id="a_node9"><a xlink:href="ucxh__wait_8h.html" target="_top" xlink:title=" ">
<polygon fill="white" stroke="black" points="321.5,-56.5 321.5,-75.5 389.5,-75.5 389.5,-56.5 321.5,-56.5"/>
<text text-anchor="middle" x="355.5" y="-63.5" font-family="Helvetica,sans-Serif" font-size="10.00">ucxh_wait.h</text>
</a>
</g>
</g>
<!-- Node2&#45;&gt;Node9 -->
<g id="edge10" class="edge"><title>Node2&#45;&gt;Node9</title>
<path fill="none" stroke="midnightblue" d="M217.486,-112.444C245.196,-103.32 289.252,-88.8133 320.116,-78.6509"/>
<polygon fill="midnightblue" stroke="midnightblue" points="321.232,-81.9684 329.635,-75.5164 319.042,-75.3196 321.232,-81.9684"/>
</g>
<!-- Node10 -->
<g id="node10" class="node"><title>Node10</title>
<g id="a_node10"><a xlink:href="ucxh__wifi_8h.html" target="_top" xlink:title=" ">
<polygon fill="white" stroke="black" points="0,-56.5 0,-75.5 65,-75.5 65,-56.5 0,-56.5"/>
<text text-anchor="middle" x="32.5" y="-63.5" font-family="Helvetica,sans-Serif" font-size="10.00">ucxh_wifi.h</text>
</a>
</g>
</g>
<!-- Node2&#45;&gt;Node10 -->
<g id="edge11" class="edge"><title>Node2&#45;&gt;Node10</title>
<path fill="none" stroke="midnightblue" d="M166.306,-112.444C139.557,-103.359 97.0974,-88.9388 67.1948,-78.7831"/>
<polygon fill="midnightblue" stroke="midnightblue" points="68.1705,-75.4182 57.5762,-75.5164 65.9194,-82.0464 68.1705,-75.4182"/>
</g>
<!-- Node7 -->
<g id="node7" class="node"><title>Node7</title>
<g id="a_node7"><a xlink:title=" ">
<polygon fill="white" stroke="#bfbfbf" points="417,-0.5 417,-19.5 468,-19.5 468,-0.5 417,-0.5"/>
<text text-anchor="middle" x="442.5" y="-7.5" font-family="Helvetica,sans-Serif" font-size="10.00">unistd.h</text>
</a>
</g>
</g>
<!-- Node6&#45;&gt;Node7 -->
<g id="edge6" class="edge"><title>Node6&#45;&gt;Node7</title>
<path fill="none" stroke="midnightblue" d="M442.5,-56.083C442.5,-49.0059 442.5,-38.8611 442.5,-29.9865"/>
<polygon fill="midnightblue" stroke="midnightblue" points="446,-29.751 442.5,-19.7511 439,-29.7511 446,-29.751"/>
</g>
<!-- Node8&#45;&gt;Node4 -->
<g id="edge8" class="edge"><title>Node8&#45;&gt;Node4</title>
<path fill="none" stroke="midnightblue" d="M210.475,-56.4435C187.396,-47.4776 150.938,-33.314 124.859,-23.1827"/>
<polygon fill="midnightblue" stroke="midnightblue" points="126.011,-19.8753 115.422,-19.5164 123.476,-26.4002 126.011,-19.8753"/>
</g>
<!-- Node8&#45;&gt;Node5 -->
<g id="edge9" class="edge"><title>Node8&#45;&gt;Node5</title>
<path fill="none" stroke="midnightblue" d="M237.454,-56.083C241.604,-48.6127 247.653,-37.7244 252.767,-28.5199"/>
<polygon fill="midnightblue" stroke="midnightblue" points="255.841,-30.1924 257.638,-19.7511 249.722,-26.7929 255.841,-30.1924"/>
</g>
<!-- Node10&#45;&gt;Node1 -->
<g id="edge13" class="edge"><title>Node10&#45;&gt;Node1</title>
<path fill="none" stroke="midnightblue" d="M44.9185,-75.5914C72.0333,-94.3501 136.791,-139.151 170.421,-162.417"/>
<polygon fill="midnightblue" stroke="midnightblue" points="168.808,-165.557 179.024,-168.368 172.791,-159.801 168.808,-165.557"/>
</g>
<!-- Node10&#45;&gt;Node4 -->
<g id="edge12" class="edge"><title>Node10&#45;&gt;Node4</title>
<path fill="none" stroke="midnightblue" d="M42.3007,-56.324C51.3181,-48.3414 64.906,-36.3128 75.818,-26.6529"/>
<polygon fill="midnightblue" stroke="midnightblue" points="78.3533,-29.083 83.521,-19.8339 73.7134,-23.8416 78.3533,-29.083"/>
</g>
</g>
</svg>
