<?xml version="1.0" encoding="UTF-8" standalone="no"?>
<!DOCTYPE svg PUBLIC "-//W3C//DTD SVG 1.1//EN"
 "http://www.w3.org/Graphics/SVG/1.1/DTD/svg11.dtd">
<!-- Generated by graphviz version 2.38.0 (20140413.2041)
 -->
<!-- Title: ucxh_parser.h Pages: 1 -->
<svg width="526pt" height="196pt"
 viewBox="0.00 0.00 525.50 196.00" xmlns="http://www.w3.org/2000/svg" xmlns:xlink="http://www.w3.org/1999/xlink">
<g id="graph0" class="graph" transform="scale(1 1) rotate(0) translate(4 192)">
<title>ucxh_parser.h</title>
<polygon fill="white" stroke="none" points="-4,4 -4,-192 521.5,-192 521.5,4 -4,4"/>
<!-- Node1 -->
<g id="node1" class="node"><title>Node1</title>
<g id="a_node1"><a xlink:title=" ">
<polygon fill="#bfbfbf" stroke="black" points="201.5,-168.5 201.5,-187.5 279.5,-187.5 279.5,-168.5 201.5,-168.5"/>
<text text-anchor="middle" x="240.5" y="-175.5" font-family="Helvetica,sans-Serif" font-size="10.00">ucxh_parser.h</text>
</a>
</g>
</g>
<!-- Node2 -->
<g id="node2" class="node"><title>Node2</title>
<g id="a_node2"><a xlink:title=" ">
<polygon fill="white" stroke="#bfbfbf" points="0,-112.5 0,-131.5 59,-131.5 59,-112.5 0,-112.5"/>
<text text-anchor="middle" x="29.5" y="-119.5" font-family="Helvetica,sans-Serif" font-size="10.00">inttypes.h</text>
</a>
</g>
</g>
<!-- Node1&#45;&gt;Node2 -->
<g id="edge1" class="edge"><title>Node1&#45;&gt;Node2</title>
<path fill="none" stroke="midnightblue" d="M207.066,-168.444C169.545,-158.841 108.728,-143.276 68.9208,-133.089"/>
<polygon fill="midnightblue" stroke="midnightblue" points="69.5877,-129.647 59.0321,-130.558 67.8521,-136.428 69.5877,-129.647"/>
</g>
<!-- Node3 -->
<g id="node3" class="node"><title>Node3</title>
<g id="a_node3"><a xlink:title=" ">
<polygon fill="white" stroke="#bfbfbf" points="177.5,-56.5 177.5,-75.5 233.5,-75.5 233.5,-56.5 177.5,-56.5"/>
<text text-anchor="middle" x="205.5" y="-63.5" font-family="Helvetica,sans-Serif" font-size="10.00">stdbool.h</text>
</a>
</g>
</g>
<!-- Node1&#45;&gt;Node3 -->
<g id="edge2" class="edge"><title>Node1&#45;&gt;Node3</title>
<path fill="none" stroke="midnightblue" d="M237.754,-168.368C232.08,-150.537 218.958,-109.295 211.314,-85.2717"/>
<polygon fill="midnightblue" stroke="midnightblue" points="214.601,-84.0594 208.234,-75.5914 207.93,-86.1819 214.601,-84.0594"/>
</g>
<!-- Node4 -->
<g id="node4" class="node"><title>Node4</title>
<g id="a_node4"><a xlink:title=" ">
<polygon fill="white" stroke="#bfbfbf" points="90.5,-56.5 90.5,-75.5 134.5,-75.5 134.5,-56.5 90.5,-56.5"/>
<text text-anchor="middle" x="112.5" y="-63.5" font-family="Helvetica,sans-Serif" font-size="10.00">time.h</text>
</a>
</g>
</g>
<!-- Node1&#45;&gt;Node4 -->
<g id="edge3" class="edge"><title>Node1&#45;&gt;Node4</title>
<path fill="none" stroke="midnightblue" d="M201.343,-175.581C170.02,-172.13 127.919,-161.787 106.5,-132 96.7992,-118.509 100.179,-99.1491 104.838,-85.0687"/>
<polygon fill="midnightblue" stroke="midnightblue" points="108.187,-86.1066 108.454,-75.5151 101.641,-83.6284 108.187,-86.1066"/>
</g>
<!-- Node5 -->
<g id="node5" class="node"><title>Node5</title>
<g id="a_node5"><a xlink:href="ucxh__edm_8h.html" target="_top" xlink:title=" ">
<polygon fill="white" stroke="black" points="237.5,-112.5 237.5,-131.5 307.5,-131.5 307.5,-112.5 237.5,-112.5"/>
<text text-anchor="middle" x="272.5" y="-119.5" font-family="Helvetica,sans-Serif" font-size="10.00">ucxh_edm.h</text>
</a>
</g>
</g>
<!-- Node1&#45;&gt;Node5 -->
<g id="edge4" class="edge"><title>Node1&#45;&gt;Node5</title>
<path fill="none" stroke="midnightblue" d="M245.784,-168.083C250.211,-160.613 256.663,-149.724 262.118,-140.52"/>
<polygon fill="midnightblue" stroke="midnightblue" points="265.227,-142.138 267.314,-131.751 259.205,-138.57 265.227,-142.138"/>
</g>
<!-- Node7 -->
<g id="node7" class="node"><title>Node7</title>
<g id="a_node7"><a xlink:href="ucxh__poll_8h.html" target="_top" xlink:title=" ">
<polygon fill="white" stroke="black" points="115.5,-112.5 115.5,-131.5 181.5,-131.5 181.5,-112.5 115.5,-112.5"/>
<text text-anchor="middle" x="148.5" y="-119.5" font-family="Helvetica,sans-Serif" font-size="10.00">ucxh_poll.h</text>
</a>
</g>
</g>
<!-- Node1&#45;&gt;Node7 -->
<g id="edge6" class="edge"><title>Node1&#45;&gt;Node7</title>
<path fill="none" stroke="midnightblue" d="M225.719,-168.324C211.233,-159.822 188.927,-146.729 172.007,-136.797"/>
<polygon fill="midnightblue" stroke="midnightblue" points="173.641,-133.698 163.245,-131.655 170.097,-139.735 173.641,-133.698"/>
</g>
<!-- Node8 -->
<g id="node8" class="node"><title>Node8</title>
<g id="a_node8"><a xlink:href="ucxh__wait_8h.html" target="_top" xlink:title=" ">
<polygon fill="white" stroke="black" points="325.5,-112.5 325.5,-131.5 393.5,-131.5 393.5,-112.5 325.5,-112.5"/>
<text text-anchor="middle" x="359.5" y="-119.5" font-family="Helvetica,sans-Serif" font-size="10.00">ucxh_wait.h</text>
</a>
</g>
</g>
<!-- Node1&#45;&gt;Node8 -->
<g id="edge9" class="edge"><title>Node1&#45;&gt;Node8</title>
<path fill="none" stroke="midnightblue" d="M259.356,-168.444C278.766,-159.636 309.23,-145.812 331.465,-135.722"/>
<polygon fill="midnightblue" stroke="midnightblue" points="333.072,-138.836 340.732,-131.516 330.18,-132.462 333.072,-138.836"/>
</g>
<!-- Node9 -->
<g id="node9" class="node"><title>Node9</title>
<g id="a_node9"><a xlink:href="ucxh__wifi_8h.html" target="_top" xlink:title=" ">
<polygon fill="white" stroke="black" points="412,-112.5 412,-131.5 477,-131.5 477,-112.5 412,-112.5"/>
<text text-anchor="middle" x="444.5" y="-119.5" font-family="Helvetica,sans-Serif" font-size="10.00">ucxh_wifi.h</text>
</a>
</g>
</g>
<!-- Node1&#45;&gt;Node9 -->
<g id="edge10" class="edge"><title>Node1&#45;&gt;Node9</title>
<path fill="none" stroke="midnightblue" d="M272.824,-168.444C307.889,-159.162 363.998,-144.309 402.465,-134.127"/>
<polygon fill="midnightblue" stroke="midnightblue" points="403.555,-137.459 412.327,-131.516 401.764,-130.692 403.555,-137.459"/>
</g>
<!-- Node6 -->
<g id="node6" class="node"><title>Node6</title>
<g id="a_node6"><a xlink:title=" ">
<polygon fill="white" stroke="#bfbfbf" points="252,-56.5 252,-75.5 303,-75.5 303,-56.5 252,-56.5"/>
<text text-anchor="middle" x="277.5" y="-63.5" font-family="Helvetica,sans-Serif" font-size="10.00">unistd.h</text>
</a>
</g>
</g>
<!-- Node5&#45;&gt;Node6 -->
<g id="edge5" class="edge"><title>Node5&#45;&gt;Node6</title>
<path fill="none" stroke="midnightblue" d="M273.326,-112.083C273.981,-105.006 274.92,-94.8611 275.742,-85.9865"/>
<polygon fill="midnightblue" stroke="midnightblue" points="279.253,-86.0312 276.69,-75.7511 272.283,-85.3858 279.253,-86.0312"/>
</g>
<!-- Node7&#45;&gt;Node3 -->
<g id="edge7" class="edge"><title>Node7&#45;&gt;Node3</title>
<path fill="none" stroke="midnightblue" d="M157.658,-112.324C166.001,-104.42 178.532,-92.5482 188.677,-82.9377"/>
<polygon fill="midnightblue" stroke="midnightblue" points="191.323,-85.2522 196.175,-75.8339 186.509,-80.1705 191.323,-85.2522"/>
</g>
<!-- Node7&#45;&gt;Node4 -->
<g id="edge8" class="edge"><title>Node7&#45;&gt;Node4</title>
<path fill="none" stroke="midnightblue" d="M142.555,-112.083C137.523,-104.534 130.163,-93.4948 123.987,-84.2298"/>
<polygon fill="midnightblue" stroke="midnightblue" points="126.793,-82.1301 118.334,-75.7511 120.969,-86.0131 126.793,-82.1301"/>
</g>
<!-- Node9&#45;&gt;Node3 -->
<g id="edge11" class="edge"><title>Node9&#45;&gt;Node3</title>
<path fill="none" stroke="midnightblue" d="M411.919,-113.946C373.906,-105.671 308.906,-91.3829 243.793,-76.2693"/>
<polygon fill="midnightblue" stroke="midnightblue" points="244.301,-72.7941 233.768,-73.9359 242.714,-79.6118 244.301,-72.7941"/>
</g>
<!-- Node10 -->
<g id="node10" class="node"><title>Node10</title>
<g id="a_node10"><a xlink:href="ucxh__urc_8h.html" target="_top" xlink:title=" ">
<polygon fill="white" stroke="black" points="442,-56.5 442,-75.5 507,-75.5 507,-56.5 442,-56.5"/>
<text text-anchor="middle" x="474.5" y="-63.5" font-family="Helvetica,sans-Serif" font-size="10.00">ucxh_urc.h</text>
</a>
</g>
</g>
<!-- Node9&#45;&gt;Node10 -->
<g id="edge12" class="edge"><title>Node9&#45;&gt;Node10</title>
<path fill="none" stroke="midnightblue" d="M449.454,-112.083C453.604,-104.613 459.653,-93.7244 464.767,-84.5199"/>
<polygon fill="midnightblue" stroke="midnightblue" points="467.841,-86.1924 469.638,-75.7511 461.722,-82.7929 467.841,-86.1924"/>
</g>
<!-- Node10&#45;&gt;Node1 -->
<g id="edge13" class="edge"><title>Node10&#45;&gt;Node1</title>
<path fill="none" stroke="midnightblue" d="M480.022,-75.684C487.906,-89.2982 500.021,-115.782 486.5,-132 461.975,-161.418 354.414,-171.661 289.918,-175.186"/>
<polygon fill="midnightblue" stroke="midnightblue" points="289.377,-171.709 279.568,-175.715 289.734,-178.7 289.377,-171.709"/>
</g>
<!-- Node11 -->
<g id="node11" class="node"><title>Node11</title>
<g id="a_node11"><a xlink:href="autogenerated_8h.html" target="_top" xlink:title="Automatically generated function prototypes and documentation.">
<polygon fill="white" stroke="black" points="431.5,-0.5 431.5,-19.5 517.5,-19.5 517.5,-0.5 431.5,-0.5"/>
<text text-anchor="middle" x="474.5" y="-7.5" font-family="Helvetica,sans-Serif" font-size="10.00">autogenerated.h</text>
</a>
</g>
</g>
<!-- Node10&#45;&gt;Node11 -->
<g id="edge14" class="edge"><title>Node10&#45;&gt;Node11</title>
<path fill="none" stroke="midnightblue" d="M474.5,-56.083C474.5,-49.0059 474.5,-38.8611 474.5,-29.9865"/>
<polygon fill="midnightblue" stroke="midnightblue" points="478,-29.751 474.5,-19.7511 471,-29.7511 478,-29.751"/>
</g>
</g>
</svg>
