<?xml version="1.0" encoding="UTF-8" standalone="no"?>
<!DOCTYPE svg PUBLIC "-//W3C//DTD SVG 1.1//EN"
 "http://www.w3.org/Graphics/SVG/1.1/DTD/svg11.dtd">
<!-- Generated by graphviz version 2.38.0 (20140413.2041)
 -->
<!-- Title: ucxh_wifi.h Pages: 1 -->
<svg width="342pt" height="252pt"
 viewBox="0.00 0.00 342.00 252.00" xmlns="http://www.w3.org/2000/svg" xmlns:xlink="http://www.w3.org/1999/xlink">
<g id="graph0" class="graph" transform="scale(1 1) rotate(0) translate(4 248)">
<title>ucxh_wifi.h</title>
<polygon fill="white" stroke="none" points="-4,4 -4,-248 338,-248 338,4 -4,4"/>
<!-- Node1 -->
<g id="node1" class="node"><title>Node1</title>
<g id="a_node1"><a xlink:title=" ">
<polygon fill="#bfbfbf" stroke="black" points="25.5,-224.5 25.5,-243.5 90.5,-243.5 90.5,-224.5 25.5,-224.5"/>
<text text-anchor="middle" x="58" y="-231.5" font-family="Helvetica,sans-Serif" font-size="10.00">ucxh_wifi.h</text>
</a>
</g>
</g>
<!-- Node2 -->
<g id="node2" class="node"><title>Node2</title>
<g id="a_node2"><a xlink:title=" ">
<polygon fill="white" stroke="#bfbfbf" points="0,-0.5 0,-19.5 56,-19.5 56,-0.5 0,-0.5"/>
<text text-anchor="middle" x="28" y="-7.5" font-family="Helvetica,sans-Serif" font-size="10.00">stdbool.h</text>
</a>
</g>
</g>
<!-- Node1&#45;&gt;Node2 -->
<g id="edge1" class="edge"><title>Node1&#45;&gt;Node2</title>
<path fill="none" stroke="midnightblue" d="M56.4614,-224.173C52.348,-200.338 40.9388,-132.654 34,-76 32.1033,-60.5138 30.5114,-42.8854 29.445,-29.8977"/>
<polygon fill="midnightblue" stroke="midnightblue" points="32.9278,-29.5415 28.6486,-19.8492 25.9497,-30.0945 32.9278,-29.5415"/>
</g>
<!-- Node3 -->
<g id="node3" class="node"><title>Node3</title>
<g id="a_node3"><a xlink:href="ucxh__urc_8h.html" target="_top" xlink:title=" ">
<polygon fill="white" stroke="black" points="86.5,-168.5 86.5,-187.5 151.5,-187.5 151.5,-168.5 86.5,-168.5"/>
<text text-anchor="middle" x="119" y="-175.5" font-family="Helvetica,sans-Serif" font-size="10.00">ucxh_urc.h</text>
</a>
</g>
</g>
<!-- Node1&#45;&gt;Node3 -->
<g id="edge2" class="edge"><title>Node1&#45;&gt;Node3</title>
<path fill="none" stroke="midnightblue" d="M67.8007,-224.324C76.8181,-216.341 90.406,-204.313 101.318,-194.653"/>
<polygon fill="midnightblue" stroke="midnightblue" points="103.853,-197.083 109.021,-187.834 99.2134,-191.842 103.853,-197.083"/>
</g>
<!-- Node4 -->
<g id="node4" class="node"><title>Node4</title>
<g id="a_node4"><a xlink:href="ucxh__parser_8h.html" target="_top" xlink:title=" ">
<polygon fill="white" stroke="black" points="65,-112.5 65,-131.5 143,-131.5 143,-112.5 65,-112.5"/>
<text text-anchor="middle" x="104" y="-119.5" font-family="Helvetica,sans-Serif" font-size="10.00">ucxh_parser.h</text>
</a>
</g>
</g>
<!-- Node3&#45;&gt;Node4 -->
<g id="edge3" class="edge"><title>Node3&#45;&gt;Node4</title>
<path fill="none" stroke="midnightblue" d="M116.523,-168.083C114.514,-160.849 111.614,-150.409 109.11,-141.397"/>
<polygon fill="midnightblue" stroke="midnightblue" points="112.48,-140.449 106.431,-131.751 105.735,-142.323 112.48,-140.449"/>
</g>
<!-- Node10 -->
<g id="node10" class="node"><title>Node10</title>
<g id="a_node10"><a xlink:href="autogenerated_8h.html" target="_top" xlink:title="Automatically generated function prototypes and documentation.">
<polygon fill="white" stroke="black" points="161,-112.5 161,-131.5 247,-131.5 247,-112.5 161,-112.5"/>
<text text-anchor="middle" x="204" y="-119.5" font-family="Helvetica,sans-Serif" font-size="10.00">autogenerated.h</text>
</a>
</g>
</g>
<!-- Node3&#45;&gt;Node10 -->
<g id="edge13" class="edge"><title>Node3&#45;&gt;Node10</title>
<path fill="none" stroke="midnightblue" d="M132.657,-168.324C145.916,-159.9 166.268,-146.971 181.846,-137.074"/>
<polygon fill="midnightblue" stroke="midnightblue" points="183.813,-139.971 190.377,-131.655 180.06,-134.063 183.813,-139.971"/>
</g>
<!-- Node4&#45;&gt;Node1 -->
<g id="edge12" class="edge"><title>Node4&#45;&gt;Node1</title>
<path fill="none" stroke="midnightblue" d="M97.922,-131.604C91.929,-140.405 82.8428,-154.645 77,-168 70.3733,-183.147 65.2937,-201.267 62.0611,-214.523"/>
<polygon fill="midnightblue" stroke="midnightblue" points="58.6336,-213.81 59.7867,-224.342 65.4531,-215.389 58.6336,-213.81"/>
</g>
<!-- Node4&#45;&gt;Node2 -->
<g id="edge4" class="edge"><title>Node4&#45;&gt;Node2</title>
<path fill="none" stroke="midnightblue" d="M88.4721,-112.465C75.5647,-104.603 57.6465,-91.783 47,-76 37.6516,-62.1414 32.8264,-43.6255 30.3838,-29.9012"/>
<polygon fill="midnightblue" stroke="midnightblue" points="33.7985,-29.0728 28.8454,-19.707 26.8769,-30.1174 33.7985,-29.0728"/>
</g>
<!-- Node5 -->
<g id="node5" class="node"><title>Node5</title>
<g id="a_node5"><a xlink:title=" ">
<polygon fill="white" stroke="#bfbfbf" points="100,-0.5 100,-19.5 144,-19.5 144,-0.5 100,-0.5"/>
<text text-anchor="middle" x="122" y="-7.5" font-family="Helvetica,sans-Serif" font-size="10.00">time.h</text>
</a>
</g>
</g>
<!-- Node4&#45;&gt;Node5 -->
<g id="edge5" class="edge"><title>Node4&#45;&gt;Node5</title>
<path fill="none" stroke="midnightblue" d="M111.151,-112.364C117.773,-103.763 127.157,-89.8728 131,-76 135.276,-60.5608 132.139,-42.4699 128.442,-29.2994"/>
<polygon fill="midnightblue" stroke="midnightblue" points="131.713,-28.0352 125.356,-19.5596 125.04,-30.1497 131.713,-28.0352"/>
</g>
<!-- Node6 -->
<g id="node6" class="node"><title>Node6</title>
<g id="a_node6"><a xlink:href="ucxh__edm_8h.html" target="_top" xlink:title=" ">
<polygon fill="white" stroke="black" points="178,-56.5 178,-75.5 248,-75.5 248,-56.5 178,-56.5"/>
<text text-anchor="middle" x="213" y="-63.5" font-family="Helvetica,sans-Serif" font-size="10.00">ucxh_edm.h</text>
</a>
</g>
</g>
<!-- Node4&#45;&gt;Node6 -->
<g id="edge6" class="edge"><title>Node4&#45;&gt;Node6</title>
<path fill="none" stroke="midnightblue" d="M121.513,-112.324C139.072,-103.625 166.331,-90.1202 186.531,-80.113"/>
<polygon fill="midnightblue" stroke="midnightblue" points="188.124,-83.23 195.531,-75.6545 185.016,-76.9575 188.124,-83.23"/>
</g>
<!-- Node8 -->
<g id="node8" class="node"><title>Node8</title>
<g id="a_node8"><a xlink:href="ucxh__poll_8h.html" target="_top" xlink:title=" ">
<polygon fill="white" stroke="black" points="56,-56.5 56,-75.5 122,-75.5 122,-56.5 56,-56.5"/>
<text text-anchor="middle" x="89" y="-63.5" font-family="Helvetica,sans-Serif" font-size="10.00">ucxh_poll.h</text>
</a>
</g>
</g>
<!-- Node4&#45;&gt;Node8 -->
<g id="edge8" class="edge"><title>Node4&#45;&gt;Node8</title>
<path fill="none" stroke="midnightblue" d="M101.523,-112.083C99.5135,-104.849 96.6135,-94.4087 94.1102,-85.3968"/>
<polygon fill="midnightblue" stroke="midnightblue" points="97.4797,-84.4495 91.4309,-75.7511 90.7351,-86.323 97.4797,-84.4495"/>
</g>
<!-- Node9 -->
<g id="node9" class="node"><title>Node9</title>
<g id="a_node9"><a xlink:href="ucxh__wait_8h.html" target="_top" xlink:title=" ">
<polygon fill="white" stroke="black" points="266,-56.5 266,-75.5 334,-75.5 334,-56.5 266,-56.5"/>
<text text-anchor="middle" x="300" y="-63.5" font-family="Helvetica,sans-Serif" font-size="10.00">ucxh_wait.h</text>
</a>
</g>
</g>
<!-- Node4&#45;&gt;Node9 -->
<g id="edge11" class="edge"><title>Node4&#45;&gt;Node9</title>
<path fill="none" stroke="midnightblue" d="M135.057,-112.444C168.603,-103.201 222.197,-88.4356 259.141,-78.2572"/>
<polygon fill="midnightblue" stroke="midnightblue" points="260.377,-81.5469 269.089,-75.5164 258.518,-74.7984 260.377,-81.5469"/>
</g>
<!-- Node7 -->
<g id="node7" class="node"><title>Node7</title>
<g id="a_node7"><a xlink:title=" ">
<polygon fill="white" stroke="#bfbfbf" points="187.5,-0.5 187.5,-19.5 238.5,-19.5 238.5,-0.5 187.5,-0.5"/>
<text text-anchor="middle" x="213" y="-7.5" font-family="Helvetica,sans-Serif" font-size="10.00">unistd.h</text>
</a>
</g>
</g>
<!-- Node6&#45;&gt;Node7 -->
<g id="edge7" class="edge"><title>Node6&#45;&gt;Node7</title>
<path fill="none" stroke="midnightblue" d="M213,-56.083C213,-49.0059 213,-38.8611 213,-29.9865"/>
<polygon fill="midnightblue" stroke="midnightblue" points="216.5,-29.751 213,-19.7511 209.5,-29.7511 216.5,-29.751"/>
</g>
<!-- Node8&#45;&gt;Node2 -->
<g id="edge9" class="edge"><title>Node8&#45;&gt;Node2</title>
<path fill="none" stroke="midnightblue" d="M79.1993,-56.324C70.1819,-48.3414 56.594,-36.3128 45.682,-26.6529"/>
<polygon fill="midnightblue" stroke="midnightblue" points="47.7866,-23.8416 37.979,-19.8339 43.1467,-29.083 47.7866,-23.8416"/>
</g>
<!-- Node8&#45;&gt;Node5 -->
<g id="edge10" class="edge"><title>Node8&#45;&gt;Node5</title>
<path fill="none" stroke="midnightblue" d="M94.4493,-56.083C99.0145,-48.6127 105.668,-37.7244 111.293,-28.5199"/>
<polygon fill="midnightblue" stroke="midnightblue" points="114.424,-30.109 116.652,-19.7511 108.451,-26.4588 114.424,-30.109"/>
</g>
</g>
</svg>
