<?xml version="1.0" encoding="UTF-8" standalone="no"?>
<!DOCTYPE svg PUBLIC "-//W3C//DTD SVG 1.1//EN"
 "http://www.w3.org/Graphics/SVG/1.1/DTD/svg11.dtd">
<!-- Generated by graphviz version 2.38.0 (20140413.2041)
 -->
<!-- Title: ucxh_config.h Pages: 1 -->
<svg width="1621pt" height="140pt"
 viewBox="0.00 0.00 1620.50 140.00" xmlns="http://www.w3.org/2000/svg" xmlns:xlink="http://www.w3.org/1999/xlink">
<g id="graph0" class="graph" transform="scale(1 1) rotate(0) translate(4 136)">
<title>ucxh_config.h</title>
<polygon fill="white" stroke="none" points="-4,4 -4,-136 1616.5,-136 1616.5,4 -4,4"/>
<!-- Node1 -->
<g id="node1" class="node"><title>Node1</title>
<g id="a_node1"><a xlink:title=" ">
<polygon fill="#bfbfbf" stroke="black" points="810,-112.5 810,-131.5 887,-131.5 887,-112.5 810,-112.5"/>
<text text-anchor="middle" x="848.5" y="-119.5" font-family="Helvetica,sans-Serif" font-size="10.00">ucxh_config.h</text>
</a>
</g>
</g>
<!-- Node2 -->
<g id="node2" class="node"><title>Node2</title>
<g id="a_node2"><a xlink:href="ucxh__library_8h.html" target="_top" xlink:title=" ">
<polygon fill="white" stroke="black" points="756,-56.5 756,-75.5 833,-75.5 833,-56.5 756,-56.5"/>
<text text-anchor="middle" x="794.5" y="-63.5" font-family="Helvetica,sans-Serif" font-size="10.00">ucxh_library.h</text>
</a>
</g>
</g>
<!-- Node1&#45;&gt;Node2 -->
<g id="edge1" class="edge"><title>Node1&#45;&gt;Node2</title>
<path fill="none" stroke="midnightblue" d="M832.502,-105.002C822.933,-95.4329 811.139,-83.6389 803.251,-75.7511"/>
<polygon fill="midnightblue" stroke="midnightblue" points="830.037,-107.487 839.583,-112.083 834.987,-102.537 830.037,-107.487"/>
</g>
<!-- Node19 -->
<g id="node19" class="node"><title>Node19</title>
<g id="a_node19"><a xlink:href="ucxh__serial__mock_8c.html" target="_top" xlink:title=" ">
<polygon fill="white" stroke="black" points="851.5,-56.5 851.5,-75.5 955.5,-75.5 955.5,-56.5 851.5,-56.5"/>
<text text-anchor="middle" x="903.5" y="-63.5" font-family="Helvetica,sans-Serif" font-size="10.00">ucxh_serial_mock.c</text>
</a>
</g>
</g>
<!-- Node1&#45;&gt;Node19 -->
<g id="edge18" class="edge"><title>Node1&#45;&gt;Node19</title>
<path fill="none" stroke="midnightblue" d="M864.794,-105.002C874.541,-95.4329 886.553,-83.6389 894.587,-75.7511"/>
<polygon fill="midnightblue" stroke="midnightblue" points="862.266,-102.58 857.582,-112.083 867.17,-107.575 862.266,-102.58"/>
</g>
<!-- Node3 -->
<g id="node3" class="node"><title>Node3</title>
<g id="a_node3"><a xlink:href="ex__callbacks__edm__wifi_8c.html" target="_top" xlink:title=" ">
<polygon fill="white" stroke="black" points="0,-0.5 0,-19.5 125,-19.5 125,-0.5 0,-0.5"/>
<text text-anchor="middle" x="62.5" y="-7.5" font-family="Helvetica,sans-Serif" font-size="10.00">ex_callbacks_edm_wifi.c</text>
</a>
</g>
</g>
<!-- Node2&#45;&gt;Node3 -->
<g id="edge2" class="edge"><title>Node2&#45;&gt;Node3</title>
<path fill="none" stroke="midnightblue" d="M745.675,-62.6134C636.161,-57.054 362.636,-42.0183 134.5,-20 131.491,-19.7096 128.413,-19.3945 125.306,-19.0619"/>
<polygon fill="midnightblue" stroke="midnightblue" points="745.59,-66.1135 755.754,-63.1218 745.943,-59.1224 745.59,-66.1135"/>
</g>
<!-- Node4 -->
<g id="node4" class="node"><title>Node4</title>
<g id="a_node4"><a xlink:href="ex__http__get_8c.html" target="_top" xlink:title=" ">
<polygon fill="white" stroke="black" points="143.5,-0.5 143.5,-19.5 219.5,-19.5 219.5,-0.5 143.5,-0.5"/>
<text text-anchor="middle" x="181.5" y="-7.5" font-family="Helvetica,sans-Serif" font-size="10.00">ex_http_get.c</text>
</a>
</g>
</g>
<!-- Node2&#45;&gt;Node4 -->
<g id="edge3" class="edge"><title>Node2&#45;&gt;Node4</title>
<path fill="none" stroke="midnightblue" d="M745.699,-62.9284C647.444,-58.3592 418.89,-45.7182 228.5,-20 225.618,-19.6107 222.646,-19.1597 219.662,-18.671"/>
<polygon fill="midnightblue" stroke="midnightblue" points="745.763,-66.4349 755.913,-63.396 746.083,-59.4422 745.763,-66.4349"/>
</g>
<!-- Node5 -->
<g id="node5" class="node"><title>Node5</title>
<g id="a_node5"><a xlink:href="ex__readmisc_8c.html" target="_top" xlink:title=" ">
<polygon fill="white" stroke="black" points="237.5,-0.5 237.5,-19.5 317.5,-19.5 317.5,-0.5 237.5,-0.5"/>
<text text-anchor="middle" x="277.5" y="-7.5" font-family="Helvetica,sans-Serif" font-size="10.00">ex_readmisc.c</text>
</a>
</g>
</g>
<!-- Node2&#45;&gt;Node5 -->
<g id="edge4" class="edge"><title>Node2&#45;&gt;Node5</title>
<path fill="none" stroke="midnightblue" d="M745.684,-61.6923C660.391,-55.6039 478.797,-41.2685 326.5,-20 323.588,-19.5933 320.584,-19.1358 317.566,-18.6483"/>
<polygon fill="midnightblue" stroke="midnightblue" points="745.623,-65.1966 755.845,-62.4109 746.117,-58.214 745.623,-65.1966"/>
</g>
<!-- Node6 -->
<g id="node6" class="node"><title>Node6</title>
<g id="a_node6"><a xlink:href="ex__wifi__pos_8c.html" target="_top" xlink:title=" ">
<polygon fill="white" stroke="black" points="336,-0.5 336,-19.5 411,-19.5 411,-0.5 336,-0.5"/>
<text text-anchor="middle" x="373.5" y="-7.5" font-family="Helvetica,sans-Serif" font-size="10.00">ex_wifi_pos.c</text>
</a>
</g>
</g>
<!-- Node2&#45;&gt;Node6 -->
<g id="edge5" class="edge"><title>Node2&#45;&gt;Node6</title>
<path fill="none" stroke="midnightblue" d="M745.682,-60.3035C673.969,-53.1415 536.026,-38.3652 419.5,-20 416.767,-19.5693 413.949,-19.0942 411.116,-18.5941"/>
<polygon fill="midnightblue" stroke="midnightblue" points="745.475,-63.8 755.772,-61.3044 746.166,-56.8342 745.475,-63.8"/>
</g>
<!-- Node7 -->
<g id="node7" class="node"><title>Node7</title>
<g id="a_node7"><a xlink:href="test__at__peer_8c.html" target="_top" xlink:title="Tests from chapter 5: AT&#45;commands UDDPRP and ucxhCOMMAND_writeDefaultRemotePeer() .">
<polygon fill="white" stroke="black" points="429,-0.5 429,-19.5 508,-19.5 508,-0.5 429,-0.5"/>
<text text-anchor="middle" x="468.5" y="-7.5" font-family="Helvetica,sans-Serif" font-size="10.00">test_at_peer.c</text>
</a>
</g>
</g>
<!-- Node2&#45;&gt;Node7 -->
<g id="edge6" class="edge"><title>Node2&#45;&gt;Node7</title>
<path fill="none" stroke="midnightblue" d="M746.041,-57.4373C690.707,-48.7299 597.494,-33.8426 517.5,-20 514.432,-19.4691 511.258,-18.9095 508.068,-18.3398"/>
<polygon fill="midnightblue" stroke="midnightblue" points="745.498,-60.8949 755.92,-58.9896 746.585,-53.9798 745.498,-60.8949"/>
</g>
<!-- Node8 -->
<g id="node8" class="node"><title>Node8</title>
<g id="a_node8"><a xlink:href="test__at__wifi_8c.html" target="_top" xlink:title="Tests from chapter 17, 10: AT&#45;commands UWSSTAT UNSTAT UWSCA UWSC and MODULE_writeWifiStationConfigura...">
<polygon fill="white" stroke="black" points="526.5,-0.5 526.5,-19.5 600.5,-19.5 600.5,-0.5 526.5,-0.5"/>
<text text-anchor="middle" x="563.5" y="-7.5" font-family="Helvetica,sans-Serif" font-size="10.00">test_at_wifi.c</text>
</a>
</g>
</g>
<!-- Node2&#45;&gt;Node8 -->
<g id="edge7" class="edge"><title>Node2&#45;&gt;Node8</title>
<path fill="none" stroke="midnightblue" d="M748.098,-54.1529C704.453,-43.95 639.99,-28.8809 599.931,-19.5164"/>
<polygon fill="midnightblue" stroke="midnightblue" points="747.363,-57.5753 757.897,-56.4435 748.957,-50.7591 747.363,-57.5753"/>
</g>
<!-- Node9 -->
<g id="node9" class="node"><title>Node9</title>
<g id="a_node9"><a xlink:href="test__ati9_8c.html" target="_top" xlink:title="Tests Hello, World / Issue AT command.">
<polygon fill="white" stroke="black" points="618.5,-0.5 618.5,-19.5 680.5,-19.5 680.5,-0.5 618.5,-0.5"/>
<text text-anchor="middle" x="649.5" y="-7.5" font-family="Helvetica,sans-Serif" font-size="10.00">test_ati9.c</text>
</a>
</g>
</g>
<!-- Node2&#45;&gt;Node9 -->
<g id="edge8" class="edge"><title>Node2&#45;&gt;Node9</title>
<path fill="none" stroke="midnightblue" d="M762.025,-52.9058C734.764,-42.7536 696.508,-28.5063 672.368,-19.5164"/>
<polygon fill="midnightblue" stroke="midnightblue" points="760.932,-56.2334 771.524,-56.4435 763.375,-49.6736 760.932,-56.2334"/>
</g>
<!-- Node10 -->
<g id="node10" class="node"><title>Node10</title>
<g id="a_node10"><a xlink:href="test__datamode_8c.html" target="_top" xlink:title="Tests transmit over Data mode.">
<polygon fill="white" stroke="black" points="699,-0.5 699,-19.5 788,-19.5 788,-0.5 699,-0.5"/>
<text text-anchor="middle" x="743.5" y="-7.5" font-family="Helvetica,sans-Serif" font-size="10.00">test_datamode.c</text>
</a>
</g>
</g>
<!-- Node2&#45;&gt;Node10 -->
<g id="edge9" class="edge"><title>Node2&#45;&gt;Node10</title>
<path fill="none" stroke="midnightblue" d="M779.122,-48.7175C770.133,-39.1997 759.141,-27.5608 751.765,-19.7511"/>
<polygon fill="midnightblue" stroke="midnightblue" points="776.668,-51.216 786.078,-56.083 781.757,-46.4096 776.668,-51.216"/>
</g>
<!-- Node11 -->
<g id="node11" class="node"><title>Node11</title>
<g id="a_node11"><a xlink:href="test__edm__at_8c.html" target="_top" xlink:title="Hello, World / Issue AT command using EDM.">
<polygon fill="white" stroke="black" points="806,-0.5 806,-19.5 885,-19.5 885,-0.5 806,-0.5"/>
<text text-anchor="middle" x="845.5" y="-7.5" font-family="Helvetica,sans-Serif" font-size="10.00">test_edm_at.c</text>
</a>
</g>
</g>
<!-- Node2&#45;&gt;Node11 -->
<g id="edge10" class="edge"><title>Node2&#45;&gt;Node11</title>
<path fill="none" stroke="midnightblue" d="M809.878,-48.7175C818.867,-39.1997 829.859,-27.5608 837.235,-19.7511"/>
<polygon fill="midnightblue" stroke="midnightblue" points="807.243,-46.4096 802.922,-56.083 812.332,-51.216 807.243,-46.4096"/>
</g>
<!-- Node12 -->
<g id="node12" class="node"><title>Node12</title>
<g id="a_node12"><a xlink:href="test__edm__at__read_8c.html" target="_top" xlink:title="Tests, using EDM, read status from the module.">
<polygon fill="white" stroke="black" points="903,-0.5 903,-19.5 1006,-19.5 1006,-0.5 903,-0.5"/>
<text text-anchor="middle" x="954.5" y="-7.5" font-family="Helvetica,sans-Serif" font-size="10.00">test_edm_at_read.c</text>
</a>
</g>
</g>
<!-- Node2&#45;&gt;Node12 -->
<g id="edge11" class="edge"><title>Node2&#45;&gt;Node12</title>
<path fill="none" stroke="midnightblue" d="M829.546,-53.172C859.674,-43.0039 902.396,-28.5852 929.266,-19.5164"/>
<polygon fill="midnightblue" stroke="midnightblue" points="828.208,-49.9295 819.852,-56.4435 830.447,-56.5619 828.208,-49.9295"/>
</g>
<!-- Node13 -->
<g id="node13" class="node"><title>Node13</title>
<g id="a_node13"><a xlink:href="test__getgeneral_8c.html" target="_top" xlink:title="Tests from chapter 3: AT&#45;commands I, GMI, GMM, GMR, GSN .">
<polygon fill="white" stroke="black" points="1024.5,-0.5 1024.5,-19.5 1116.5,-19.5 1116.5,-0.5 1024.5,-0.5"/>
<text text-anchor="middle" x="1070.5" y="-7.5" font-family="Helvetica,sans-Serif" font-size="10.00">test_getgeneral.c</text>
</a>
</g>
</g>
<!-- Node2&#45;&gt;Node13 -->
<g id="edge12" class="edge"><title>Node2&#45;&gt;Node13</title>
<path fill="none" stroke="midnightblue" d="M843.14,-55.4836C895.066,-45.324 976.609,-29.37 1026.63,-19.5834"/>
<polygon fill="midnightblue" stroke="midnightblue" points="842.309,-52.0796 833.167,-57.4347 843.653,-58.9494 842.309,-52.0796"/>
</g>
<!-- Node14 -->
<g id="node14" class="node"><title>Node14</title>
<g id="a_node14"><a xlink:href="test__getsystem_8c.html" target="_top" xlink:title="Tests from chapter 4: AT&#45;commands +UMLA .">
<polygon fill="white" stroke="black" points="1134.5,-0.5 1134.5,-19.5 1226.5,-19.5 1226.5,-0.5 1134.5,-0.5"/>
<text text-anchor="middle" x="1180.5" y="-7.5" font-family="Helvetica,sans-Serif" font-size="10.00">test_getsystem.c</text>
</a>
</g>
</g>
<!-- Node2&#45;&gt;Node14 -->
<g id="edge13" class="edge"><title>Node2&#45;&gt;Node14</title>
<path fill="none" stroke="midnightblue" d="M843.29,-55.9614C969.452,-36.3935 1003.21,-37.7774 1125.5,-20 1128.37,-19.5824 1131.33,-19.1391 1134.3,-18.6818"/>
<polygon fill="midnightblue" stroke="midnightblue" points="842.578,-52.5303 833.239,-57.5342 843.66,-59.4462 842.578,-52.5303"/>
</g>
<!-- Node15 -->
<g id="node15" class="node"><title>Node15</title>
<g id="a_node15"><a xlink:href="test__mock__ati9_8c.html" target="_top" xlink:title="Hello, World / Issue AT command to mocked serial driver.">
<polygon fill="white" stroke="black" points="1244.5,-0.5 1244.5,-19.5 1336.5,-19.5 1336.5,-0.5 1244.5,-0.5"/>
<text text-anchor="middle" x="1290.5" y="-7.5" font-family="Helvetica,sans-Serif" font-size="10.00">test_mock_ati9.c</text>
</a>
</g>
</g>
<!-- Node2&#45;&gt;Node15 -->
<g id="edge14" class="edge"><title>Node2&#45;&gt;Node15</title>
<path fill="none" stroke="midnightblue" d="M843.267,-56.0279C1017.95,-32.1848 1064.74,-41.7648 1235.5,-20 1238.38,-19.633 1241.34,-19.2284 1244.32,-18.8001"/>
<polygon fill="midnightblue" stroke="midnightblue" points="842.648,-52.5802 833.221,-57.4165 843.606,-59.5142 842.648,-52.5802"/>
</g>
<!-- Node16 -->
<g id="node16" class="node"><title>Node16</title>
<g id="a_node16"><a xlink:href="test__send_8c.html" target="_top" xlink:title="Tests the functions used for building and sending AT commands.">
<polygon fill="white" stroke="black" points="1354.5,-0.5 1354.5,-19.5 1422.5,-19.5 1422.5,-0.5 1354.5,-0.5"/>
<text text-anchor="middle" x="1388.5" y="-7.5" font-family="Helvetica,sans-Serif" font-size="10.00">test_send.c</text>
</a>
</g>
</g>
<!-- Node2&#45;&gt;Node16 -->
<g id="edge15" class="edge"><title>Node2&#45;&gt;Node16</title>
<path fill="none" stroke="midnightblue" d="M843.279,-56.0636C1066.54,-27.9848 1126.78,-50.5737 1345.5,-20 1348.37,-19.5988 1351.34,-19.1183 1354.31,-18.5911"/>
<polygon fill="midnightblue" stroke="midnightblue" points="842.688,-52.6105 833.212,-57.3498 843.575,-59.554 842.688,-52.6105"/>
</g>
<!-- Node17 -->
<g id="node17" class="node"><title>Node17</title>
<g id="a_node17"><a xlink:href="test__tokenizer_8c.html" target="_top" xlink:title="Tests the tokenizer of the URC parser.">
<polygon fill="white" stroke="black" points="1440.5,-0.5 1440.5,-19.5 1526.5,-19.5 1526.5,-0.5 1440.5,-0.5"/>
<text text-anchor="middle" x="1483.5" y="-7.5" font-family="Helvetica,sans-Serif" font-size="10.00">test_tokenizer.c</text>
</a>
</g>
</g>
<!-- Node2&#45;&gt;Node17 -->
<g id="edge16" class="edge"><title>Node2&#45;&gt;Node17</title>
<path fill="none" stroke="midnightblue" d="M843.378,-56.0662C1104.54,-24.4386 1174.31,-50.0238 1431.5,-20 1434.41,-19.6601 1437.41,-19.2645 1440.42,-18.8325"/>
<polygon fill="midnightblue" stroke="midnightblue" points="842.707,-52.6223 833.208,-57.3149 843.56,-59.5701 842.707,-52.6223"/>
</g>
<!-- Node18 -->
<g id="node18" class="node"><title>Node18</title>
<g id="a_node18"><a xlink:href="test__tools_8c.html" target="_top" xlink:title=" ">
<polygon fill="white" stroke="black" points="1544.5,-0.5 1544.5,-19.5 1612.5,-19.5 1612.5,-0.5 1544.5,-0.5"/>
<text text-anchor="middle" x="1578.5" y="-7.5" font-family="Helvetica,sans-Serif" font-size="10.00">test_tools.c</text>
</a>
</g>
</g>
<!-- Node2&#45;&gt;Node18 -->
<g id="edge17" class="edge"><title>Node2&#45;&gt;Node18</title>
<path fill="none" stroke="midnightblue" d="M843.293,-56.0934C1150.51,-20.3547 1232.94,-59.2832 1535.5,-20 1538.37,-19.6268 1541.34,-19.1661 1544.31,-18.6521"/>
<polygon fill="midnightblue" stroke="midnightblue" points="842.725,-52.636 833.204,-57.2842 843.546,-59.5877 842.725,-52.636"/>
</g>
</g>
</svg>
