<?xml version="1.0" encoding="UTF-8" standalone="no"?>
<!DOCTYPE svg PUBLIC "-//W3C//DTD SVG 1.1//EN"
 "http://www.w3.org/Graphics/SVG/1.1/DTD/svg11.dtd">
<!-- Generated by graphviz version 2.38.0 (20140413.2041)
 -->
<!-- Title: ucxh_serial_mock.c Pages: 1 -->
<svg width="1042pt" height="252pt"
 viewBox="0.00 0.00 1042.00 252.00" xmlns="http://www.w3.org/2000/svg" xmlns:xlink="http://www.w3.org/1999/xlink">
<g id="graph0" class="graph" transform="scale(1 1) rotate(0) translate(4 248)">
<title>ucxh_serial_mock.c</title>
<polygon fill="white" stroke="none" points="-4,4 -4,-248 1038,-248 1038,4 -4,4"/>
<!-- Node1 -->
<g id="node1" class="node"><title>Node1</title>
<g id="a_node1"><a xlink:title=" ">
<polygon fill="#bfbfbf" stroke="black" points="621,-224.5 621,-243.5 725,-243.5 725,-224.5 621,-224.5"/>
<text text-anchor="middle" x="673" y="-231.5" font-family="Helvetica,sans-Serif" font-size="10.00">ucxh_serial_mock.c</text>
</a>
</g>
</g>
<!-- Node2 -->
<g id="node2" class="node"><title>Node2</title>
<g id="a_node2"><a xlink:title=" ">
<polygon fill="white" stroke="#bfbfbf" points="214,-168.5 214,-187.5 266,-187.5 266,-168.5 214,-168.5"/>
<text text-anchor="middle" x="240" y="-175.5" font-family="Helvetica,sans-Serif" font-size="10.00">assert.h</text>
</a>
</g>
</g>
<!-- Node1&#45;&gt;Node2 -->
<g id="edge1" class="edge"><title>Node1&#45;&gt;Node2</title>
<path fill="none" stroke="midnightblue" d="M620.824,-229.427C546.386,-223.819 405.321,-211.298 276.341,-188.019"/>
<polygon fill="midnightblue" stroke="midnightblue" points="276.753,-184.536 266.286,-186.177 275.492,-191.422 276.753,-184.536"/>
</g>
<!-- Node3 -->
<g id="node3" class="node"><title>Node3</title>
<g id="a_node3"><a xlink:title=" ">
<polygon fill="white" stroke="#bfbfbf" points="477,-56.5 477,-75.5 533,-75.5 533,-56.5 477,-56.5"/>
<text text-anchor="middle" x="505" y="-63.5" font-family="Helvetica,sans-Serif" font-size="10.00">stdbool.h</text>
</a>
</g>
</g>
<!-- Node1&#45;&gt;Node3 -->
<g id="edge2" class="edge"><title>Node1&#45;&gt;Node3</title>
<path fill="none" stroke="midnightblue" d="M632.803,-224.454C609.733,-217.808 581.558,-206.51 562,-188 531.747,-159.369 515.905,-111.455 509.132,-85.3367"/>
<polygon fill="midnightblue" stroke="midnightblue" points="512.528,-84.4902 506.769,-75.5975 505.725,-86.1408 512.528,-84.4902"/>
</g>
<!-- Node4 -->
<g id="node4" class="node"><title>Node4</title>
<g id="a_node4"><a xlink:title=" ">
<polygon fill="white" stroke="#bfbfbf" points="639,-112.5 639,-131.5 685,-131.5 685,-112.5 639,-112.5"/>
<text text-anchor="middle" x="662" y="-119.5" font-family="Helvetica,sans-Serif" font-size="10.00">stdio.h</text>
</a>
</g>
</g>
<!-- Node1&#45;&gt;Node4 -->
<g id="edge3" class="edge"><title>Node1&#45;&gt;Node4</title>
<path fill="none" stroke="midnightblue" d="M672.137,-224.368C670.362,-206.617 666.267,-165.666 663.86,-141.597"/>
<polygon fill="midnightblue" stroke="midnightblue" points="667.337,-141.193 662.859,-131.591 660.372,-141.89 667.337,-141.193"/>
</g>
<!-- Node5 -->
<g id="node5" class="node"><title>Node5</title>
<g id="a_node5"><a xlink:title=" ">
<polygon fill="white" stroke="#bfbfbf" points="701,-168.5 701,-187.5 749,-187.5 749,-168.5 701,-168.5"/>
<text text-anchor="middle" x="725" y="-175.5" font-family="Helvetica,sans-Serif" font-size="10.00">stdlib.h</text>
</a>
</g>
</g>
<!-- Node1&#45;&gt;Node5 -->
<g id="edge4" class="edge"><title>Node1&#45;&gt;Node5</title>
<path fill="none" stroke="midnightblue" d="M681.587,-224.083C689.159,-216.22 700.378,-204.569 709.514,-195.081"/>
<polygon fill="midnightblue" stroke="midnightblue" points="712.158,-197.382 716.573,-187.751 707.115,-192.527 712.158,-197.382"/>
</g>
<!-- Node6 -->
<g id="node6" class="node"><title>Node6</title>
<g id="a_node6"><a xlink:title=" ">
<polygon fill="white" stroke="#bfbfbf" points="767.5,-168.5 767.5,-187.5 816.5,-187.5 816.5,-168.5 767.5,-168.5"/>
<text text-anchor="middle" x="792" y="-175.5" font-family="Helvetica,sans-Serif" font-size="10.00">string.h</text>
</a>
</g>
</g>
<!-- Node1&#45;&gt;Node6 -->
<g id="edge5" class="edge"><title>Node1&#45;&gt;Node6</title>
<path fill="none" stroke="midnightblue" d="M691.856,-224.444C711.266,-215.636 741.73,-201.812 763.965,-191.722"/>
<polygon fill="midnightblue" stroke="midnightblue" points="765.572,-194.836 773.232,-187.516 762.68,-188.462 765.572,-194.836"/>
</g>
<!-- Node7 -->
<g id="node7" class="node"><title>Node7</title>
<g id="a_node7"><a xlink:href="ucxh__config_8h.html" target="_top" xlink:title=" ">
<polygon fill="white" stroke="black" points="834.5,-168.5 834.5,-187.5 911.5,-187.5 911.5,-168.5 834.5,-168.5"/>
<text text-anchor="middle" x="873" y="-175.5" font-family="Helvetica,sans-Serif" font-size="10.00">ucxh_config.h</text>
</a>
</g>
</g>
<!-- Node1&#45;&gt;Node7 -->
<g id="edge6" class="edge"><title>Node1&#45;&gt;Node7</title>
<path fill="none" stroke="midnightblue" d="M704.691,-224.444C739.068,-215.162 794.077,-200.309 831.789,-190.127"/>
<polygon fill="midnightblue" stroke="midnightblue" points="832.716,-193.502 841.458,-187.516 830.891,-186.744 832.716,-193.502"/>
</g>
<!-- Node8 -->
<g id="node8" class="node"><title>Node8</title>
<g id="a_node8"><a xlink:href="ucxh__serial__mock_8h.html" target="_top" xlink:title=" ">
<polygon fill="white" stroke="black" points="930,-168.5 930,-187.5 1034,-187.5 1034,-168.5 930,-168.5"/>
<text text-anchor="middle" x="982" y="-175.5" font-family="Helvetica,sans-Serif" font-size="10.00">ucxh_serial_mock.h</text>
</a>
</g>
</g>
<!-- Node1&#45;&gt;Node8 -->
<g id="edge7" class="edge"><title>Node1&#45;&gt;Node8</title>
<path fill="none" stroke="midnightblue" d="M721.962,-224.444C776.544,-214.905 864.79,-199.483 923.101,-189.293"/>
<polygon fill="midnightblue" stroke="midnightblue" points="924.019,-192.686 933.267,-187.516 922.814,-185.79 924.019,-192.686"/>
</g>
<!-- Node10 -->
<g id="node10" class="node"><title>Node10</title>
<g id="a_node10"><a xlink:href="ucxh__parser_8h.html" target="_top" xlink:title=" ">
<polygon fill="white" stroke="black" points="284,-168.5 284,-187.5 362,-187.5 362,-168.5 284,-168.5"/>
<text text-anchor="middle" x="323" y="-175.5" font-family="Helvetica,sans-Serif" font-size="10.00">ucxh_parser.h</text>
</a>
</g>
</g>
<!-- Node1&#45;&gt;Node10 -->
<g id="edge9" class="edge"><title>Node1&#45;&gt;Node10</title>
<path fill="none" stroke="midnightblue" d="M620.979,-224.974C553.828,-214.613 437.826,-196.716 372.118,-186.578"/>
<polygon fill="midnightblue" stroke="midnightblue" points="372.436,-183.086 362.02,-185.02 371.369,-190.004 372.436,-183.086"/>
</g>
<!-- Node20 -->
<g id="node20" class="node"><title>Node20</title>
<g id="a_node20"><a xlink:href="ucxh__serial_8h.html" target="_top" xlink:title=" ">
<polygon fill="white" stroke="black" points="571,-168.5 571,-187.5 645,-187.5 645,-168.5 571,-168.5"/>
<text text-anchor="middle" x="608" y="-175.5" font-family="Helvetica,sans-Serif" font-size="10.00">ucxh_serial.h</text>
</a>
</g>
</g>
<!-- Node1&#45;&gt;Node20 -->
<g id="edge24" class="edge"><title>Node1&#45;&gt;Node20</title>
<path fill="none" stroke="midnightblue" d="M662.557,-224.324C652.854,-216.263 638.185,-204.077 626.5,-194.369"/>
<polygon fill="midnightblue" stroke="midnightblue" points="628.562,-191.532 618.633,-187.834 624.089,-196.916 628.562,-191.532"/>
</g>
<!-- Node9 -->
<g id="node9" class="node"><title>Node9</title>
<g id="a_node9"><a xlink:title=" ">
<polygon fill="white" stroke="#bfbfbf" points="958.5,-112.5 958.5,-131.5 1005.5,-131.5 1005.5,-112.5 958.5,-112.5"/>
<text text-anchor="middle" x="982" y="-119.5" font-family="Helvetica,sans-Serif" font-size="10.00">errno.h</text>
</a>
</g>
</g>
<!-- Node8&#45;&gt;Node9 -->
<g id="edge8" class="edge"><title>Node8&#45;&gt;Node9</title>
<path fill="none" stroke="midnightblue" d="M982,-168.083C982,-161.006 982,-150.861 982,-141.986"/>
<polygon fill="midnightblue" stroke="midnightblue" points="985.5,-141.751 982,-131.751 978.5,-141.751 985.5,-141.751"/>
</g>
<!-- Node10&#45;&gt;Node3 -->
<g id="edge11" class="edge"><title>Node10&#45;&gt;Node3</title>
<path fill="none" stroke="midnightblue" d="M362.206,-176.353C398.663,-173.641 452.151,-163.956 485,-132 497.287,-120.047 502.07,-100.745 503.909,-86.2744"/>
<polygon fill="midnightblue" stroke="midnightblue" points="507.428,-86.2114 504.839,-75.9378 500.457,-85.5838 507.428,-86.2114"/>
</g>
<!-- Node11 -->
<g id="node11" class="node"><title>Node11</title>
<g id="a_node11"><a xlink:title=" ">
<polygon fill="white" stroke="#bfbfbf" points="334.5,-112.5 334.5,-131.5 393.5,-131.5 393.5,-112.5 334.5,-112.5"/>
<text text-anchor="middle" x="364" y="-119.5" font-family="Helvetica,sans-Serif" font-size="10.00">inttypes.h</text>
</a>
</g>
</g>
<!-- Node10&#45;&gt;Node11 -->
<g id="edge10" class="edge"><title>Node10&#45;&gt;Node11</title>
<path fill="none" stroke="midnightblue" d="M329.77,-168.083C335.562,-160.455 344.058,-149.264 351.138,-139.941"/>
<polygon fill="midnightblue" stroke="midnightblue" points="354.096,-141.832 357.356,-131.751 348.521,-137.599 354.096,-141.832"/>
</g>
<!-- Node12 -->
<g id="node12" class="node"><title>Node12</title>
<g id="a_node12"><a xlink:title=" ">
<polygon fill="white" stroke="#bfbfbf" points="127,-56.5 127,-75.5 171,-75.5 171,-56.5 127,-56.5"/>
<text text-anchor="middle" x="149" y="-63.5" font-family="Helvetica,sans-Serif" font-size="10.00">time.h</text>
</a>
</g>
</g>
<!-- Node10&#45;&gt;Node12 -->
<g id="edge12" class="edge"><title>Node10&#45;&gt;Node12</title>
<path fill="none" stroke="midnightblue" d="M283.832,-169.609C234.6,-159.925 155.462,-142.898 147,-132 136.847,-118.925 138.981,-99.5043 142.657,-85.2964"/>
<polygon fill="midnightblue" stroke="midnightblue" points="146.033,-86.2246 145.591,-75.639 139.335,-84.1897 146.033,-86.2246"/>
</g>
<!-- Node13 -->
<g id="node13" class="node"><title>Node13</title>
<g id="a_node13"><a xlink:href="ucxh__edm_8h.html" target="_top" xlink:title=" ">
<polygon fill="white" stroke="black" points="0,-112.5 0,-131.5 70,-131.5 70,-112.5 0,-112.5"/>
<text text-anchor="middle" x="35" y="-119.5" font-family="Helvetica,sans-Serif" font-size="10.00">ucxh_edm.h</text>
</a>
</g>
</g>
<!-- Node10&#45;&gt;Node13 -->
<g id="edge13" class="edge"><title>Node10&#45;&gt;Node13</title>
<path fill="none" stroke="midnightblue" d="M283.859,-169.661C230.868,-159.725 136.497,-142.031 80.438,-131.52"/>
<polygon fill="midnightblue" stroke="midnightblue" points="80.9088,-128.047 70.4351,-129.644 79.6188,-134.927 80.9088,-128.047"/>
</g>
<!-- Node15 -->
<g id="node15" class="node"><title>Node15</title>
<g id="a_node15"><a xlink:href="ucxh__poll_8h.html" target="_top" xlink:title=" ">
<polygon fill="white" stroke="black" points="164,-112.5 164,-131.5 230,-131.5 230,-112.5 164,-112.5"/>
<text text-anchor="middle" x="197" y="-119.5" font-family="Helvetica,sans-Serif" font-size="10.00">ucxh_poll.h</text>
</a>
</g>
</g>
<!-- Node10&#45;&gt;Node15 -->
<g id="edge15" class="edge"><title>Node10&#45;&gt;Node15</title>
<path fill="none" stroke="midnightblue" d="M303.035,-168.444C282.391,-159.596 249.937,-145.687 226.368,-135.586"/>
<polygon fill="midnightblue" stroke="midnightblue" points="227.442,-132.239 216.872,-131.516 224.684,-138.673 227.442,-132.239"/>
</g>
<!-- Node16 -->
<g id="node16" class="node"><title>Node16</title>
<g id="a_node16"><a xlink:href="ucxh__wait_8h.html" target="_top" xlink:title=" ">
<polygon fill="white" stroke="black" points="248,-112.5 248,-131.5 316,-131.5 316,-112.5 248,-112.5"/>
<text text-anchor="middle" x="282" y="-119.5" font-family="Helvetica,sans-Serif" font-size="10.00">ucxh_wait.h</text>
</a>
</g>
</g>
<!-- Node10&#45;&gt;Node16 -->
<g id="edge18" class="edge"><title>Node10&#45;&gt;Node16</title>
<path fill="none" stroke="midnightblue" d="M316.23,-168.083C310.438,-160.455 301.942,-149.264 294.862,-139.941"/>
<polygon fill="midnightblue" stroke="midnightblue" points="297.479,-137.599 288.644,-131.751 291.904,-141.832 297.479,-137.599"/>
</g>
<!-- Node17 -->
<g id="node17" class="node"><title>Node17</title>
<g id="a_node17"><a xlink:href="ucxh__wifi_8h.html" target="_top" xlink:title=" ">
<polygon fill="white" stroke="black" points="411.5,-112.5 411.5,-131.5 476.5,-131.5 476.5,-112.5 411.5,-112.5"/>
<text text-anchor="middle" x="444" y="-119.5" font-family="Helvetica,sans-Serif" font-size="10.00">ucxh_wifi.h</text>
</a>
</g>
</g>
<!-- Node10&#45;&gt;Node17 -->
<g id="edge19" class="edge"><title>Node10&#45;&gt;Node17</title>
<path fill="none" stroke="midnightblue" d="M342.173,-168.444C361.909,-159.636 392.885,-145.812 415.493,-135.722"/>
<polygon fill="midnightblue" stroke="midnightblue" points="417.211,-138.788 424.917,-131.516 414.359,-132.396 417.211,-138.788"/>
</g>
<!-- Node14 -->
<g id="node14" class="node"><title>Node14</title>
<g id="a_node14"><a xlink:title=" ">
<polygon fill="white" stroke="#bfbfbf" points="9.5,-56.5 9.5,-75.5 60.5,-75.5 60.5,-56.5 9.5,-56.5"/>
<text text-anchor="middle" x="35" y="-63.5" font-family="Helvetica,sans-Serif" font-size="10.00">unistd.h</text>
</a>
</g>
</g>
<!-- Node13&#45;&gt;Node14 -->
<g id="edge14" class="edge"><title>Node13&#45;&gt;Node14</title>
<path fill="none" stroke="midnightblue" d="M35,-112.083C35,-105.006 35,-94.8611 35,-85.9865"/>
<polygon fill="midnightblue" stroke="midnightblue" points="38.5001,-85.751 35,-75.7511 31.5001,-85.7511 38.5001,-85.751"/>
</g>
<!-- Node15&#45;&gt;Node3 -->
<g id="edge16" class="edge"><title>Node15&#45;&gt;Node3</title>
<path fill="none" stroke="midnightblue" d="M230.444,-113.696C233.335,-113.107 236.217,-112.533 239,-112 319.906,-96.4956 415.199,-81.0544 466.921,-72.908"/>
<polygon fill="midnightblue" stroke="midnightblue" points="467.635,-76.3388 476.971,-71.3305 466.55,-69.4235 467.635,-76.3388"/>
</g>
<!-- Node15&#45;&gt;Node12 -->
<g id="edge17" class="edge"><title>Node15&#45;&gt;Node12</title>
<path fill="none" stroke="midnightblue" d="M189.074,-112.083C182.154,-104.298 171.935,-92.8015 163.548,-83.3665"/>
<polygon fill="midnightblue" stroke="midnightblue" points="166.038,-80.8999 156.779,-75.7511 160.806,-85.5505 166.038,-80.8999"/>
</g>
<!-- Node17&#45;&gt;Node3 -->
<g id="edge20" class="edge"><title>Node17&#45;&gt;Node3</title>
<path fill="none" stroke="midnightblue" d="M453.801,-112.324C462.818,-104.341 476.406,-92.3128 487.318,-82.6529"/>
<polygon fill="midnightblue" stroke="midnightblue" points="489.853,-85.083 495.021,-75.8339 485.213,-79.8416 489.853,-85.083"/>
</g>
<!-- Node18 -->
<g id="node18" class="node"><title>Node18</title>
<g id="a_node18"><a xlink:href="ucxh__urc_8h.html" target="_top" xlink:title=" ">
<polygon fill="white" stroke="black" points="291.5,-56.5 291.5,-75.5 356.5,-75.5 356.5,-56.5 291.5,-56.5"/>
<text text-anchor="middle" x="324" y="-63.5" font-family="Helvetica,sans-Serif" font-size="10.00">ucxh_urc.h</text>
</a>
</g>
</g>
<!-- Node17&#45;&gt;Node18 -->
<g id="edge21" class="edge"><title>Node17&#45;&gt;Node18</title>
<path fill="none" stroke="midnightblue" d="M424.986,-112.444C405.412,-103.636 374.692,-89.8116 352.271,-79.722"/>
<polygon fill="midnightblue" stroke="midnightblue" points="353.481,-76.4284 342.925,-75.5164 350.608,-82.8119 353.481,-76.4284"/>
</g>
<!-- Node18&#45;&gt;Node10 -->
<g id="edge22" class="edge"><title>Node18&#45;&gt;Node10</title>
<path fill="none" stroke="midnightblue" d="M291.453,-70.968C247.163,-77.1129 171.513,-90.5141 155,-112 149.583,-119.048 149.588,-124.948 155,-132 162.407,-141.652 227.079,-156.988 273.973,-167.024"/>
<polygon fill="midnightblue" stroke="midnightblue" points="273.471,-170.495 283.979,-169.144 274.921,-163.647 273.471,-170.495"/>
</g>
<!-- Node19 -->
<g id="node19" class="node"><title>Node19</title>
<g id="a_node19"><a xlink:href="autogenerated_8h.html" target="_top" xlink:title="Automatically generated function prototypes and documentation.">
<polygon fill="white" stroke="black" points="281,-0.5 281,-19.5 367,-19.5 367,-0.5 281,-0.5"/>
<text text-anchor="middle" x="324" y="-7.5" font-family="Helvetica,sans-Serif" font-size="10.00">autogenerated.h</text>
</a>
</g>
</g>
<!-- Node18&#45;&gt;Node19 -->
<g id="edge23" class="edge"><title>Node18&#45;&gt;Node19</title>
<path fill="none" stroke="midnightblue" d="M324,-56.083C324,-49.0059 324,-38.8611 324,-29.9865"/>
<polygon fill="midnightblue" stroke="midnightblue" points="327.5,-29.751 324,-19.7511 320.5,-29.7511 327.5,-29.751"/>
</g>
<!-- Node20&#45;&gt;Node3 -->
<g id="edge25" class="edge"><title>Node20&#45;&gt;Node3</title>
<path fill="none" stroke="midnightblue" d="M601.894,-168.157C592.79,-155.232 574.813,-130.69 557,-112 546.833,-101.332 534.381,-90.4894 524.211,-82.1209"/>
<polygon fill="midnightblue" stroke="midnightblue" points="526.283,-79.2953 516.305,-75.7314 521.883,-84.7394 526.283,-79.2953"/>
</g>
<!-- Node20&#45;&gt;Node4 -->
<g id="edge26" class="edge"><title>Node20&#45;&gt;Node4</title>
<path fill="none" stroke="midnightblue" d="M616.917,-168.083C624.78,-160.22 636.431,-148.569 645.919,-139.081"/>
<polygon fill="midnightblue" stroke="midnightblue" points="648.653,-141.297 653.249,-131.751 643.703,-136.347 648.653,-141.297"/>
</g>
</g>
</svg>
