<?xml version="1.0" encoding="UTF-8" standalone="no"?>
<!DOCTYPE svg PUBLIC "-//W3C//DTD SVG 1.1//EN"
 "http://www.w3.org/Graphics/SVG/1.1/DTD/svg11.dtd">
<!-- Generated by graphviz version 2.38.0 (20140413.2041)
 -->
<!-- Title: ucxh_urc.h Pages: 1 -->
<svg width="1434pt" height="308pt"
 viewBox="0.00 0.00 1433.50 308.00" xmlns="http://www.w3.org/2000/svg" xmlns:xlink="http://www.w3.org/1999/xlink">
<g id="graph0" class="graph" transform="scale(1 1) rotate(0) translate(4 304)">
<title>ucxh_urc.h</title>
<polygon fill="white" stroke="none" points="-4,4 -4,-304 1429.5,-304 1429.5,4 -4,4"/>
<!-- Node1 -->
<g id="node1" class="node"><title>Node1</title>
<g id="a_node1"><a xlink:title=" ">
<polygon fill="#bfbfbf" stroke="black" points="750,-280.5 750,-299.5 815,-299.5 815,-280.5 750,-280.5"/>
<text text-anchor="middle" x="782.5" y="-287.5" font-family="Helvetica,sans-Serif" font-size="10.00">ucxh_urc.h</text>
</a>
</g>
</g>
<!-- Node2 -->
<g id="node2" class="node"><title>Node2</title>
<g id="a_node2"><a xlink:href="ucxh__wifi_8h.html" target="_top" xlink:title=" ">
<polygon fill="white" stroke="black" points="781,-224.5 781,-243.5 846,-243.5 846,-224.5 781,-224.5"/>
<text text-anchor="middle" x="813.5" y="-231.5" font-family="Helvetica,sans-Serif" font-size="10.00">ucxh_wifi.h</text>
</a>
</g>
</g>
<!-- Node1&#45;&gt;Node2 -->
<g id="edge1" class="edge"><title>Node1&#45;&gt;Node2</title>
<path fill="none" stroke="midnightblue" d="M792.676,-271.275C797.974,-262.045 804.217,-251.17 808.476,-243.751"/>
<polygon fill="midnightblue" stroke="midnightblue" points="789.562,-269.668 787.619,-280.083 795.633,-273.153 789.562,-269.668"/>
</g>
<!-- Node3 -->
<g id="node3" class="node"><title>Node3</title>
<g id="a_node3"><a xlink:href="ucxh__parser_8h.html" target="_top" xlink:title=" ">
<polygon fill="white" stroke="black" points="713.5,-168.5 713.5,-187.5 791.5,-187.5 791.5,-168.5 713.5,-168.5"/>
<text text-anchor="middle" x="752.5" y="-175.5" font-family="Helvetica,sans-Serif" font-size="10.00">ucxh_parser.h</text>
</a>
</g>
</g>
<!-- Node2&#45;&gt;Node3 -->
<g id="edge2" class="edge"><title>Node2&#45;&gt;Node3</title>
<path fill="none" stroke="midnightblue" d="M796.033,-217.537C785.156,-207.909 771.556,-195.869 762.479,-187.834"/>
<polygon fill="midnightblue" stroke="midnightblue" points="793.892,-220.316 803.699,-224.324 798.532,-215.075 793.892,-220.316"/>
</g>
<!-- Node5 -->
<g id="node5" class="node"><title>Node5</title>
<g id="a_node5"><a xlink:href="ucxh__library_8h.html" target="_top" xlink:title=" ">
<polygon fill="white" stroke="black" points="674,-56.5 674,-75.5 751,-75.5 751,-56.5 674,-56.5"/>
<text text-anchor="middle" x="712.5" y="-63.5" font-family="Helvetica,sans-Serif" font-size="10.00">ucxh_library.h</text>
</a>
</g>
</g>
<!-- Node2&#45;&gt;Node5 -->
<g id="edge22" class="edge"><title>Node2&#45;&gt;Node5</title>
<path fill="none" stroke="midnightblue" d="M827.681,-216.497C847.151,-191.741 877.2,-144.442 853.5,-112 830.233,-80.1508 784.174,-70.3169 751.021,-67.5478"/>
<polygon fill="midnightblue" stroke="midnightblue" points="824.96,-214.295 821.34,-224.252 830.38,-218.726 824.96,-214.295"/>
</g>
<!-- Node3&#45;&gt;Node1 -->
<g id="edge19" class="edge"><title>Node3&#45;&gt;Node1</title>
<path fill="none" stroke="midnightblue" d="M757.483,-197.272C764.035,-221.295 775.283,-262.537 780.146,-280.368"/>
<polygon fill="midnightblue" stroke="midnightblue" points="760.851,-196.318 754.843,-187.591 754.098,-198.16 760.851,-196.318"/>
</g>
<!-- Node4 -->
<g id="node4" class="node"><title>Node4</title>
<g id="a_node4"><a xlink:href="ucxh__edm__parser_8h.html" target="_top" xlink:title=" ">
<polygon fill="white" stroke="black" points="582.5,-112.5 582.5,-131.5 684.5,-131.5 684.5,-112.5 582.5,-112.5"/>
<text text-anchor="middle" x="633.5" y="-119.5" font-family="Helvetica,sans-Serif" font-size="10.00">ucxh_edm_parser.h</text>
</a>
</g>
</g>
<!-- Node3&#45;&gt;Node4 -->
<g id="edge3" class="edge"><title>Node3&#45;&gt;Node4</title>
<path fill="none" stroke="midnightblue" d="M724.363,-164.232C702.104,-154.131 671.644,-140.309 652.268,-131.516"/>
<polygon fill="midnightblue" stroke="midnightblue" points="723.091,-167.498 733.644,-168.444 725.984,-161.124 723.091,-167.498"/>
</g>
<!-- Node3&#45;&gt;Node5 -->
<g id="edge20" class="edge"><title>Node3&#45;&gt;Node5</title>
<path fill="none" stroke="midnightblue" d="M743.327,-158.988C739.391,-150.865 734.921,-141.076 731.5,-132 724.035,-112.198 717.674,-88.1075 714.556,-75.5491"/>
<polygon fill="midnightblue" stroke="midnightblue" points="740.324,-160.809 747.908,-168.207 746.593,-157.694 740.324,-160.809"/>
</g>
<!-- Node20 -->
<g id="node20" class="node"><title>Node20</title>
<g id="a_node20"><a xlink:href="ucxh__serial__mock_8c.html" target="_top" xlink:title=" ">
<polygon fill="white" stroke="black" points="740.5,-112.5 740.5,-131.5 844.5,-131.5 844.5,-112.5 740.5,-112.5"/>
<text text-anchor="middle" x="792.5" y="-119.5" font-family="Helvetica,sans-Serif" font-size="10.00">ucxh_serial_mock.c</text>
</a>
</g>
</g>
<!-- Node3&#45;&gt;Node20 -->
<g id="edge21" class="edge"><title>Node3&#45;&gt;Node20</title>
<path fill="none" stroke="midnightblue" d="M765.2,-159.855C772.126,-150.505 780.406,-139.327 786.018,-131.751"/>
<polygon fill="midnightblue" stroke="midnightblue" points="762.245,-157.964 759.105,-168.083 767.87,-162.131 762.245,-157.964"/>
</g>
<!-- Node4&#45;&gt;Node5 -->
<g id="edge4" class="edge"><title>Node4&#45;&gt;Node5</title>
<path fill="none" stroke="midnightblue" d="M654.534,-106.622C668.966,-96.7574 687.641,-83.9919 699.839,-75.6545"/>
<polygon fill="midnightblue" stroke="midnightblue" points="652.473,-103.791 646.193,-112.324 656.423,-109.57 652.473,-103.791"/>
</g>
<!-- Node6 -->
<g id="node6" class="node"><title>Node6</title>
<g id="a_node6"><a xlink:href="ex__callbacks__edm__wifi_8c.html" target="_top" xlink:title=" ">
<polygon fill="white" stroke="black" points="0,-0.5 0,-19.5 125,-19.5 125,-0.5 0,-0.5"/>
<text text-anchor="middle" x="62.5" y="-7.5" font-family="Helvetica,sans-Serif" font-size="10.00">ex_callbacks_edm_wifi.c</text>
</a>
</g>
</g>
<!-- Node5&#45;&gt;Node6 -->
<g id="edge5" class="edge"><title>Node5&#45;&gt;Node6</title>
<path fill="none" stroke="midnightblue" d="M663.834,-61.9809C564.306,-55.6365 330.348,-39.8534 134.5,-20 131.492,-19.6951 128.415,-19.3682 125.309,-19.0262"/>
<polygon fill="midnightblue" stroke="midnightblue" points="663.687,-65.4784 673.888,-62.6187 664.13,-58.4925 663.687,-65.4784"/>
</g>
<!-- Node7 -->
<g id="node7" class="node"><title>Node7</title>
<g id="a_node7"><a xlink:href="ex__readmisc_8c.html" target="_top" xlink:title=" ">
<polygon fill="white" stroke="black" points="143.5,-0.5 143.5,-19.5 223.5,-19.5 223.5,-0.5 143.5,-0.5"/>
<text text-anchor="middle" x="183.5" y="-7.5" font-family="Helvetica,sans-Serif" font-size="10.00">ex_readmisc.c</text>
</a>
</g>
</g>
<!-- Node5&#45;&gt;Node7 -->
<g id="edge6" class="edge"><title>Node5&#45;&gt;Node7</title>
<path fill="none" stroke="midnightblue" d="M663.695,-61.8526C576.752,-55.9281 389.449,-41.7275 232.5,-20 229.587,-19.5967 226.584,-19.1418 223.565,-18.6561"/>
<polygon fill="midnightblue" stroke="midnightblue" points="663.578,-65.3527 673.791,-62.5341 664.05,-58.3685 663.578,-65.3527"/>
</g>
<!-- Node8 -->
<g id="node8" class="node"><title>Node8</title>
<g id="a_node8"><a xlink:href="test__at__peer_8c.html" target="_top" xlink:title="Tests from chapter 5: AT&#45;commands UDDPRP and ucxhCOMMAND_writeDefaultRemotePeer() .">
<polygon fill="white" stroke="black" points="242,-0.5 242,-19.5 321,-19.5 321,-0.5 242,-0.5"/>
<text text-anchor="middle" x="281.5" y="-7.5" font-family="Helvetica,sans-Serif" font-size="10.00">test_at_peer.c</text>
</a>
</g>
</g>
<!-- Node5&#45;&gt;Node8 -->
<g id="edge7" class="edge"><title>Node5&#45;&gt;Node8</title>
<path fill="none" stroke="midnightblue" d="M663.663,-60.2639C590.893,-52.9768 449.768,-37.9591 330.5,-20 327.421,-19.5364 324.239,-19.0252 321.044,-18.4889"/>
<polygon fill="midnightblue" stroke="midnightblue" points="663.596,-63.7743 673.893,-61.2823 664.289,-56.8088 663.596,-63.7743"/>
</g>
<!-- Node9 -->
<g id="node9" class="node"><title>Node9</title>
<g id="a_node9"><a xlink:href="test__at__wifi_8c.html" target="_top" xlink:title="Tests from chapter 17, 10: AT&#45;commands UWSSTAT UNSTAT UWSCA UWSC and MODULE_writeWifiStationConfigura...">
<polygon fill="white" stroke="black" points="339.5,-0.5 339.5,-19.5 413.5,-19.5 413.5,-0.5 339.5,-0.5"/>
<text text-anchor="middle" x="376.5" y="-7.5" font-family="Helvetica,sans-Serif" font-size="10.00">test_at_wifi.c</text>
</a>
</g>
</g>
<!-- Node5&#45;&gt;Node9 -->
<g id="edge8" class="edge"><title>Node5&#45;&gt;Node9</title>
<path fill="none" stroke="midnightblue" d="M664.029,-58.0727C606.366,-49.6946 507.242,-34.8588 422.5,-20 419.615,-19.4941 416.631,-18.9524 413.634,-18.3952"/>
<polygon fill="midnightblue" stroke="midnightblue" points="663.556,-61.5407 673.955,-59.5106 664.56,-54.613 663.556,-61.5407"/>
</g>
<!-- Node10 -->
<g id="node10" class="node"><title>Node10</title>
<g id="a_node10"><a xlink:href="test__ati9_8c.html" target="_top" xlink:title="Tests Hello, World / Issue AT command.">
<polygon fill="white" stroke="black" points="431.5,-0.5 431.5,-19.5 493.5,-19.5 493.5,-0.5 431.5,-0.5"/>
<text text-anchor="middle" x="462.5" y="-7.5" font-family="Helvetica,sans-Serif" font-size="10.00">test_ati9.c</text>
</a>
</g>
</g>
<!-- Node5&#45;&gt;Node10 -->
<g id="edge9" class="edge"><title>Node5&#45;&gt;Node10</title>
<path fill="none" stroke="midnightblue" d="M663.948,-54.743C621.365,-45.712 557.793,-32.1443 502.5,-20 499.58,-19.3587 496.541,-18.6855 493.502,-18.0083"/>
<polygon fill="midnightblue" stroke="midnightblue" points="663.261,-58.1751 673.77,-56.8245 664.713,-51.3272 663.261,-58.1751"/>
</g>
<!-- Node11 -->
<g id="node11" class="node"><title>Node11</title>
<g id="a_node11"><a xlink:href="test__datamode_8c.html" target="_top" xlink:title="Tests transmit over Data mode.">
<polygon fill="white" stroke="black" points="512,-0.5 512,-19.5 601,-19.5 601,-0.5 512,-0.5"/>
<text text-anchor="middle" x="556.5" y="-7.5" font-family="Helvetica,sans-Serif" font-size="10.00">test_datamode.c</text>
</a>
</g>
</g>
<!-- Node5&#45;&gt;Node11 -->
<g id="edge10" class="edge"><title>Node5&#45;&gt;Node11</title>
<path fill="none" stroke="midnightblue" d="M678.33,-53.172C648.956,-43.0039 607.302,-28.5852 581.103,-19.5164"/>
<polygon fill="midnightblue" stroke="midnightblue" points="677.187,-56.4798 687.781,-56.4435 679.476,-49.8649 677.187,-56.4798"/>
</g>
<!-- Node12 -->
<g id="node12" class="node"><title>Node12</title>
<g id="a_node12"><a xlink:href="test__edm__at_8c.html" target="_top" xlink:title="Hello, World / Issue AT command using EDM.">
<polygon fill="white" stroke="black" points="619,-0.5 619,-19.5 698,-19.5 698,-0.5 619,-0.5"/>
<text text-anchor="middle" x="658.5" y="-7.5" font-family="Helvetica,sans-Serif" font-size="10.00">test_edm_at.c</text>
</a>
</g>
</g>
<!-- Node5&#45;&gt;Node12 -->
<g id="edge11" class="edge"><title>Node5&#45;&gt;Node12</title>
<path fill="none" stroke="midnightblue" d="M696.502,-49.0024C686.933,-39.4329 675.139,-27.6389 667.251,-19.7511"/>
<polygon fill="midnightblue" stroke="midnightblue" points="694.037,-51.4868 703.583,-56.083 698.987,-46.537 694.037,-51.4868"/>
</g>
<!-- Node13 -->
<g id="node13" class="node"><title>Node13</title>
<g id="a_node13"><a xlink:href="test__edm__at__read_8c.html" target="_top" xlink:title="Tests, using EDM, read status from the module.">
<polygon fill="white" stroke="black" points="716,-0.5 716,-19.5 819,-19.5 819,-0.5 716,-0.5"/>
<text text-anchor="middle" x="767.5" y="-7.5" font-family="Helvetica,sans-Serif" font-size="10.00">test_edm_at_read.c</text>
</a>
</g>
</g>
<!-- Node5&#45;&gt;Node13 -->
<g id="edge12" class="edge"><title>Node5&#45;&gt;Node13</title>
<path fill="none" stroke="midnightblue" d="M728.794,-49.0024C738.541,-39.4329 750.553,-27.6389 758.587,-19.7511"/>
<polygon fill="midnightblue" stroke="midnightblue" points="726.266,-46.5796 721.582,-56.083 731.17,-51.5746 726.266,-46.5796"/>
</g>
<!-- Node14 -->
<g id="node14" class="node"><title>Node14</title>
<g id="a_node14"><a xlink:href="test__getgeneral_8c.html" target="_top" xlink:title="Tests from chapter 3: AT&#45;commands I, GMI, GMM, GMR, GSN .">
<polygon fill="white" stroke="black" points="837.5,-0.5 837.5,-19.5 929.5,-19.5 929.5,-0.5 837.5,-0.5"/>
<text text-anchor="middle" x="883.5" y="-7.5" font-family="Helvetica,sans-Serif" font-size="10.00">test_getgeneral.c</text>
</a>
</g>
</g>
<!-- Node5&#45;&gt;Node14 -->
<g id="edge13" class="edge"><title>Node5&#45;&gt;Node14</title>
<path fill="none" stroke="midnightblue" d="M749.536,-53.3044C781.757,-43.1294 827.689,-28.6246 856.531,-19.5164"/>
<polygon fill="midnightblue" stroke="midnightblue" points="748.077,-50.0946 739.595,-56.4435 750.185,-56.7697 748.077,-50.0946"/>
</g>
<!-- Node15 -->
<g id="node15" class="node"><title>Node15</title>
<g id="a_node15"><a xlink:href="test__getsystem_8c.html" target="_top" xlink:title="Tests from chapter 4: AT&#45;commands +UMLA .">
<polygon fill="white" stroke="black" points="947.5,-0.5 947.5,-19.5 1039.5,-19.5 1039.5,-0.5 947.5,-0.5"/>
<text text-anchor="middle" x="993.5" y="-7.5" font-family="Helvetica,sans-Serif" font-size="10.00">test_getsystem.c</text>
</a>
</g>
</g>
<!-- Node5&#45;&gt;Node15 -->
<g id="edge14" class="edge"><title>Node5&#45;&gt;Node15</title>
<path fill="none" stroke="midnightblue" d="M761.104,-55.6596C814.018,-45.4912 897.908,-29.3699 949.106,-19.5313"/>
<polygon fill="midnightblue" stroke="midnightblue" points="760.437,-52.2239 751.277,-57.5482 761.758,-59.0981 760.437,-52.2239"/>
</g>
<!-- Node16 -->
<g id="node16" class="node"><title>Node16</title>
<g id="a_node16"><a xlink:href="test__mock__ati9_8c.html" target="_top" xlink:title="Hello, World / Issue AT command to mocked serial driver.">
<polygon fill="white" stroke="black" points="1057.5,-0.5 1057.5,-19.5 1149.5,-19.5 1149.5,-0.5 1057.5,-0.5"/>
<text text-anchor="middle" x="1103.5" y="-7.5" font-family="Helvetica,sans-Serif" font-size="10.00">test_mock_ati9.c</text>
</a>
</g>
</g>
<!-- Node5&#45;&gt;Node16 -->
<g id="edge15" class="edge"><title>Node5&#45;&gt;Node16</title>
<path fill="none" stroke="midnightblue" d="M761.118,-58.939C826.517,-50.6831 946.412,-35.1857 1048.5,-20 1051.37,-19.5729 1054.32,-19.1223 1057.3,-18.6596"/>
<polygon fill="midnightblue" stroke="midnightblue" points="760.585,-55.4784 751.101,-60.2007 761.46,-62.4235 760.585,-55.4784"/>
</g>
<!-- Node17 -->
<g id="node17" class="node"><title>Node17</title>
<g id="a_node17"><a xlink:href="test__send_8c.html" target="_top" xlink:title="Tests the functions used for building and sending AT commands.">
<polygon fill="white" stroke="black" points="1167.5,-0.5 1167.5,-19.5 1235.5,-19.5 1235.5,-0.5 1167.5,-0.5"/>
<text text-anchor="middle" x="1201.5" y="-7.5" font-family="Helvetica,sans-Serif" font-size="10.00">test_send.c</text>
</a>
</g>
</g>
<!-- Node5&#45;&gt;Node17 -->
<g id="edge16" class="edge"><title>Node5&#45;&gt;Node17</title>
<path fill="none" stroke="midnightblue" d="M761.205,-61.7803C843.43,-55.9665 1014.86,-42.2144 1158.5,-20 1161.36,-19.557 1164.33,-19.0473 1167.29,-18.5003"/>
<polygon fill="midnightblue" stroke="midnightblue" points="760.885,-58.2941 751.154,-62.4828 761.373,-65.277 760.885,-58.2941"/>
</g>
<!-- Node18 -->
<g id="node18" class="node"><title>Node18</title>
<g id="a_node18"><a xlink:href="test__tokenizer_8c.html" target="_top" xlink:title="Tests the tokenizer of the URC parser.">
<polygon fill="white" stroke="black" points="1253.5,-0.5 1253.5,-19.5 1339.5,-19.5 1339.5,-0.5 1253.5,-0.5"/>
<text text-anchor="middle" x="1296.5" y="-7.5" font-family="Helvetica,sans-Serif" font-size="10.00">test_tokenizer.c</text>
</a>
</g>
</g>
<!-- Node5&#45;&gt;Node18 -->
<g id="edge17" class="edge"><title>Node5&#45;&gt;Node18</title>
<path fill="none" stroke="midnightblue" d="M761.041,-62.3119C854.763,-56.8082 1067.05,-42.8167 1244.5,-20 1247.41,-19.6261 1250.4,-19.205 1253.41,-18.7545"/>
<polygon fill="midnightblue" stroke="midnightblue" points="760.789,-58.8205 751.009,-62.8951 761.195,-65.8087 760.789,-58.8205"/>
</g>
<!-- Node19 -->
<g id="node19" class="node"><title>Node19</title>
<g id="a_node19"><a xlink:href="test__tools_8c.html" target="_top" xlink:title=" ">
<polygon fill="white" stroke="black" points="1357.5,-0.5 1357.5,-19.5 1425.5,-19.5 1425.5,-0.5 1357.5,-0.5"/>
<text text-anchor="middle" x="1391.5" y="-7.5" font-family="Helvetica,sans-Serif" font-size="10.00">test_tools.c</text>
</a>
</g>
</g>
<!-- Node5&#45;&gt;Node19 -->
<g id="edge18" class="edge"><title>Node5&#45;&gt;Node19</title>
<path fill="none" stroke="midnightblue" d="M761.188,-63.806C867.999,-60.6945 1130.73,-50.3512 1348.5,-20 1351.37,-19.5999 1354.34,-19.1203 1357.31,-18.5936"/>
<polygon fill="midnightblue" stroke="midnightblue" points="760.941,-60.3115 751.044,-64.0932 761.139,-67.3087 760.941,-60.3115"/>
</g>
</g>
</svg>
