<?xml version="1.0" encoding="UTF-8" standalone="no"?>
<!DOCTYPE svg PUBLIC "-//W3C//DTD SVG 1.1//EN"
 "http://www.w3.org/Graphics/SVG/1.1/DTD/svg11.dtd">
<!-- Generated by graphviz version 2.38.0 (20140413.2041)
 -->
<!-- Title: ucxh_urc.h Pages: 1 -->
<svg width="408pt" height="196pt"
 viewBox="0.00 0.00 407.50 196.00" xmlns="http://www.w3.org/2000/svg" xmlns:xlink="http://www.w3.org/1999/xlink">
<g id="graph0" class="graph" transform="scale(1 1) rotate(0) translate(4 192)">
<title>ucxh_urc.h</title>
<polygon fill="white" stroke="none" points="-4,4 -4,-192 403.5,-192 403.5,4 -4,4"/>
<!-- Node1 -->
<g id="node1" class="node"><title>Node1</title>
<g id="a_node1"><a xlink:title=" ">
<polygon fill="#bfbfbf" stroke="black" points="71,-168.5 71,-187.5 136,-187.5 136,-168.5 71,-168.5"/>
<text text-anchor="middle" x="103.5" y="-175.5" font-family="Helvetica,sans-Serif" font-size="10.00">ucxh_urc.h</text>
</a>
</g>
</g>
<!-- Node2 -->
<g id="node2" class="node"><title>Node2</title>
<g id="a_node2"><a xlink:href="ucxh__parser_8h.html" target="_top" xlink:title=" ">
<polygon fill="white" stroke="black" points="164.5,-112.5 164.5,-131.5 242.5,-131.5 242.5,-112.5 164.5,-112.5"/>
<text text-anchor="middle" x="203.5" y="-119.5" font-family="Helvetica,sans-Serif" font-size="10.00">ucxh_parser.h</text>
</a>
</g>
</g>
<!-- Node1&#45;&gt;Node2 -->
<g id="edge1" class="edge"><title>Node1&#45;&gt;Node2</title>
<path fill="none" stroke="midnightblue" d="M119.567,-168.324C135.458,-159.743 160.007,-146.486 178.458,-136.522"/>
<polygon fill="midnightblue" stroke="midnightblue" points="180.337,-139.486 187.473,-131.655 177.011,-133.326 180.337,-139.486"/>
</g>
<!-- Node10 -->
<g id="node10" class="node"><title>Node10</title>
<g id="a_node10"><a xlink:href="autogenerated_8h.html" target="_top" xlink:title="Automatically generated function prototypes and documentation.">
<polygon fill="white" stroke="black" points="60.5,-112.5 60.5,-131.5 146.5,-131.5 146.5,-112.5 60.5,-112.5"/>
<text text-anchor="middle" x="103.5" y="-119.5" font-family="Helvetica,sans-Serif" font-size="10.00">autogenerated.h</text>
</a>
</g>
</g>
<!-- Node1&#45;&gt;Node10 -->
<g id="edge13" class="edge"><title>Node1&#45;&gt;Node10</title>
<path fill="none" stroke="midnightblue" d="M103.5,-168.083C103.5,-161.006 103.5,-150.861 103.5,-141.986"/>
<polygon fill="midnightblue" stroke="midnightblue" points="107,-141.751 103.5,-131.751 100,-141.751 107,-141.751"/>
</g>
<!-- Node3 -->
<g id="node3" class="node"><title>Node3</title>
<g id="a_node3"><a xlink:title=" ">
<polygon fill="white" stroke="#bfbfbf" points="65.5,-0.5 65.5,-19.5 121.5,-19.5 121.5,-0.5 65.5,-0.5"/>
<text text-anchor="middle" x="93.5" y="-7.5" font-family="Helvetica,sans-Serif" font-size="10.00">stdbool.h</text>
</a>
</g>
</g>
<!-- Node2&#45;&gt;Node3 -->
<g id="edge2" class="edge"><title>Node2&#45;&gt;Node3</title>
<path fill="none" stroke="midnightblue" d="M171.538,-112.409C151.899,-105.575 127.678,-94.0942 112.5,-76 101.53,-62.9221 96.8917,-43.7712 94.9317,-29.6422"/>
<polygon fill="midnightblue" stroke="midnightblue" points="98.4017,-29.1736 93.8642,-19.5996 91.4409,-29.9135 98.4017,-29.1736"/>
</g>
<!-- Node4 -->
<g id="node4" class="node"><title>Node4</title>
<g id="a_node4"><a xlink:title=" ">
<polygon fill="white" stroke="#bfbfbf" points="207.5,-0.5 207.5,-19.5 251.5,-19.5 251.5,-0.5 207.5,-0.5"/>
<text text-anchor="middle" x="229.5" y="-7.5" font-family="Helvetica,sans-Serif" font-size="10.00">time.h</text>
</a>
</g>
</g>
<!-- Node2&#45;&gt;Node4 -->
<g id="edge3" class="edge"><title>Node2&#45;&gt;Node4</title>
<path fill="none" stroke="midnightblue" d="M233.381,-112.387C251.04,-105.587 271.951,-94.15 282.5,-76 293.617,-56.8732 272.869,-37.5539 254.164,-25.0081"/>
<polygon fill="midnightblue" stroke="midnightblue" points="255.891,-21.9592 245.565,-19.5847 252.156,-27.8799 255.891,-21.9592"/>
</g>
<!-- Node5 -->
<g id="node5" class="node"><title>Node5</title>
<g id="a_node5"><a xlink:href="ucxh__edm_8h.html" target="_top" xlink:title=" ">
<polygon fill="white" stroke="black" points="329.5,-56.5 329.5,-75.5 399.5,-75.5 399.5,-56.5 329.5,-56.5"/>
<text text-anchor="middle" x="364.5" y="-63.5" font-family="Helvetica,sans-Serif" font-size="10.00">ucxh_edm.h</text>
</a>
</g>
</g>
<!-- Node2&#45;&gt;Node5 -->
<g id="edge4" class="edge"><title>Node2&#45;&gt;Node5</title>
<path fill="none" stroke="midnightblue" d="M229.011,-112.444C256.096,-103.359 299.09,-88.9388 329.369,-78.7831"/>
<polygon fill="midnightblue" stroke="midnightblue" points="330.74,-82.0148 339.108,-75.5164 328.514,-75.3781 330.74,-82.0148"/>
</g>
<!-- Node7 -->
<g id="node7" class="node"><title>Node7</title>
<g id="a_node7"><a xlink:href="ucxh__poll_8h.html" target="_top" xlink:title=" ">
<polygon fill="white" stroke="black" points="121.5,-56.5 121.5,-75.5 187.5,-75.5 187.5,-56.5 121.5,-56.5"/>
<text text-anchor="middle" x="154.5" y="-63.5" font-family="Helvetica,sans-Serif" font-size="10.00">ucxh_poll.h</text>
</a>
</g>
</g>
<!-- Node2&#45;&gt;Node7 -->
<g id="edge6" class="edge"><title>Node2&#45;&gt;Node7</title>
<path fill="none" stroke="midnightblue" d="M195.409,-112.083C188.345,-104.298 177.912,-92.8015 169.351,-83.3665"/>
<polygon fill="midnightblue" stroke="midnightblue" points="171.753,-80.8047 162.441,-75.7511 166.569,-85.5087 171.753,-80.8047"/>
</g>
<!-- Node8 -->
<g id="node8" class="node"><title>Node8</title>
<g id="a_node8"><a xlink:href="ucxh__wait_8h.html" target="_top" xlink:title=" ">
<polygon fill="white" stroke="black" points="205.5,-56.5 205.5,-75.5 273.5,-75.5 273.5,-56.5 205.5,-56.5"/>
<text text-anchor="middle" x="239.5" y="-63.5" font-family="Helvetica,sans-Serif" font-size="10.00">ucxh_wait.h</text>
</a>
</g>
</g>
<!-- Node2&#45;&gt;Node8 -->
<g id="edge9" class="edge"><title>Node2&#45;&gt;Node8</title>
<path fill="none" stroke="midnightblue" d="M209.445,-112.083C214.477,-104.534 221.837,-93.4948 228.013,-84.2298"/>
<polygon fill="midnightblue" stroke="midnightblue" points="231.031,-86.0131 233.666,-75.7511 225.207,-82.1301 231.031,-86.0131"/>
</g>
<!-- Node9 -->
<g id="node9" class="node"><title>Node9</title>
<g id="a_node9"><a xlink:href="ucxh__wifi_8h.html" target="_top" xlink:title=" ">
<polygon fill="white" stroke="black" points="0,-56.5 0,-75.5 65,-75.5 65,-56.5 0,-56.5"/>
<text text-anchor="middle" x="32.5" y="-63.5" font-family="Helvetica,sans-Serif" font-size="10.00">ucxh_wifi.h</text>
</a>
</g>
</g>
<!-- Node2&#45;&gt;Node9 -->
<g id="edge10" class="edge"><title>Node2&#45;&gt;Node9</title>
<path fill="none" stroke="midnightblue" d="M176.405,-112.444C147.512,-103.32 101.575,-88.8133 69.3946,-78.6509"/>
<polygon fill="midnightblue" stroke="midnightblue" points="70.0585,-75.1903 59.4687,-75.5164 67.9505,-81.8654 70.0585,-75.1903"/>
</g>
<!-- Node6 -->
<g id="node6" class="node"><title>Node6</title>
<g id="a_node6"><a xlink:title=" ">
<polygon fill="white" stroke="#bfbfbf" points="339,-0.5 339,-19.5 390,-19.5 390,-0.5 339,-0.5"/>
<text text-anchor="middle" x="364.5" y="-7.5" font-family="Helvetica,sans-Serif" font-size="10.00">unistd.h</text>
</a>
</g>
</g>
<!-- Node5&#45;&gt;Node6 -->
<g id="edge5" class="edge"><title>Node5&#45;&gt;Node6</title>
<path fill="none" stroke="midnightblue" d="M364.5,-56.083C364.5,-49.0059 364.5,-38.8611 364.5,-29.9865"/>
<polygon fill="midnightblue" stroke="midnightblue" points="368,-29.751 364.5,-19.7511 361,-29.7511 368,-29.751"/>
</g>
<!-- Node7&#45;&gt;Node3 -->
<g id="edge7" class="edge"><title>Node7&#45;&gt;Node3</title>
<path fill="none" stroke="midnightblue" d="M144.699,-56.324C135.682,-48.3414 122.094,-36.3128 111.182,-26.6529"/>
<polygon fill="midnightblue" stroke="midnightblue" points="113.287,-23.8416 103.479,-19.8339 108.647,-29.083 113.287,-23.8416"/>
</g>
<!-- Node7&#45;&gt;Node4 -->
<g id="edge8" class="edge"><title>Node7&#45;&gt;Node4</title>
<path fill="none" stroke="midnightblue" d="M166.55,-56.324C177.963,-48.1066 195.331,-35.6017 208.935,-25.8069"/>
<polygon fill="midnightblue" stroke="midnightblue" points="211.16,-28.5174 217.231,-19.8339 207.07,-22.8366 211.16,-28.5174"/>
</g>
<!-- Node9&#45;&gt;Node1 -->
<g id="edge12" class="edge"><title>Node9&#45;&gt;Node1</title>
<path fill="none" stroke="midnightblue" d="M33.4464,-75.6406C35.2118,-88.7383 39.9367,-113.996 51.5,-132 59.1614,-143.929 70.9041,-154.474 81.2931,-162.352"/>
<polygon fill="midnightblue" stroke="midnightblue" points="79.4204,-165.316 89.5822,-168.314 83.5078,-159.633 79.4204,-165.316"/>
</g>
<!-- Node9&#45;&gt;Node3 -->
<g id="edge11" class="edge"><title>Node9&#45;&gt;Node3</title>
<path fill="none" stroke="midnightblue" d="M42.3007,-56.324C51.3181,-48.3414 64.906,-36.3128 75.818,-26.6529"/>
<polygon fill="midnightblue" stroke="midnightblue" points="78.3533,-29.083 83.521,-19.8339 73.7134,-23.8416 78.3533,-29.083"/>
</g>
</g>
</svg>
