<?xml version="1.0" encoding="UTF-8" standalone="no"?>
<!DOCTYPE svg PUBLIC "-//W3C//DTD SVG 1.1//EN"
 "http://www.w3.org/Graphics/SVG/1.1/DTD/svg11.dtd">
<!-- Generated by graphviz version 2.38.0 (20140413.2041)
 -->
<!-- Title: ucxh_parser.h Pages: 1 -->
<svg width="1621pt" height="252pt"
 viewBox="0.00 0.00 1621.00 252.00" xmlns="http://www.w3.org/2000/svg" xmlns:xlink="http://www.w3.org/1999/xlink">
<g id="graph0" class="graph" transform="scale(1 1) rotate(0) translate(4 248)">
<title>ucxh_parser.h</title>
<polygon fill="white" stroke="none" points="-4,4 -4,-248 1617,-248 1617,4 -4,4"/>
<!-- Node1 -->
<g id="node1" class="node"><title>Node1</title>
<g id="a_node1"><a xlink:title=" ">
<polygon fill="#bfbfbf" stroke="black" points="904.5,-224.5 904.5,-243.5 982.5,-243.5 982.5,-224.5 904.5,-224.5"/>
<text text-anchor="middle" x="943.5" y="-231.5" font-family="Helvetica,sans-Serif" font-size="10.00">ucxh_parser.h</text>
</a>
</g>
</g>
<!-- Node2 -->
<g id="node2" class="node"><title>Node2</title>
<g id="a_node2"><a xlink:href="ucxh__edm__parser_8h.html" target="_top" xlink:title=" ">
<polygon fill="white" stroke="black" points="752.5,-112.5 752.5,-131.5 854.5,-131.5 854.5,-112.5 752.5,-112.5"/>
<text text-anchor="middle" x="803.5" y="-119.5" font-family="Helvetica,sans-Serif" font-size="10.00">ucxh_edm_parser.h</text>
</a>
</g>
</g>
<!-- Node1&#45;&gt;Node2 -->
<g id="edge1" class="edge"><title>Node1&#45;&gt;Node2</title>
<path fill="none" stroke="midnightblue" d="M917.479,-219.465C902.561,-211.206 883.816,-199.959 868.5,-188 845.606,-170.125 822.411,-144.813 810.915,-131.673"/>
<polygon fill="midnightblue" stroke="midnightblue" points="916.196,-222.751 926.655,-224.438 919.531,-216.596 916.196,-222.751"/>
</g>
<!-- Node3 -->
<g id="node3" class="node"><title>Node3</title>
<g id="a_node3"><a xlink:href="ucxh__library_8h.html" target="_top" xlink:title=" ">
<polygon fill="white" stroke="black" points="823,-56.5 823,-75.5 900,-75.5 900,-56.5 823,-56.5"/>
<text text-anchor="middle" x="861.5" y="-63.5" font-family="Helvetica,sans-Serif" font-size="10.00">ucxh_library.h</text>
</a>
</g>
</g>
<!-- Node1&#45;&gt;Node3 -->
<g id="edge24" class="edge"><title>Node1&#45;&gt;Node3</title>
<path fill="none" stroke="midnightblue" d="M925.696,-217.37C917.391,-209.294 907.942,-198.868 901.5,-188 878.71,-149.555 866.981,-96.4439 863.046,-75.7484"/>
<polygon fill="midnightblue" stroke="midnightblue" points="923.468,-220.078 933.172,-224.33 928.238,-214.954 923.468,-220.078"/>
</g>
<!-- Node20 -->
<g id="node20" class="node"><title>Node20</title>
<g id="a_node20"><a xlink:href="ucxh__urc_8h.html" target="_top" xlink:title=" ">
<polygon fill="white" stroke="black" points="911,-168.5 911,-187.5 976,-187.5 976,-168.5 911,-168.5"/>
<text text-anchor="middle" x="943.5" y="-175.5" font-family="Helvetica,sans-Serif" font-size="10.00">ucxh_urc.h</text>
</a>
</g>
</g>
<!-- Node1&#45;&gt;Node20 -->
<g id="edge19" class="edge"><title>Node1&#45;&gt;Node20</title>
<path fill="none" stroke="midnightblue" d="M943.5,-213.805C943.5,-204.91 943.5,-194.78 943.5,-187.751"/>
<polygon fill="midnightblue" stroke="midnightblue" points="940,-214.083 943.5,-224.083 947,-214.083 940,-214.083"/>
</g>
<!-- Node22 -->
<g id="node22" class="node"><title>Node22</title>
<g id="a_node22"><a xlink:href="ucxh__serial__mock_8c.html" target="_top" xlink:title=" ">
<polygon fill="white" stroke="black" points="994.5,-168.5 994.5,-187.5 1098.5,-187.5 1098.5,-168.5 994.5,-168.5"/>
<text text-anchor="middle" x="1046.5" y="-175.5" font-family="Helvetica,sans-Serif" font-size="10.00">ucxh_serial_mock.c</text>
</a>
</g>
</g>
<!-- Node1&#45;&gt;Node22 -->
<g id="edge25" class="edge"><title>Node1&#45;&gt;Node22</title>
<path fill="none" stroke="midnightblue" d="M969.079,-219.59C988.123,-209.605 1013.56,-196.267 1029.99,-187.655"/>
<polygon fill="midnightblue" stroke="midnightblue" points="967.28,-216.581 960.049,-224.324 970.531,-222.78 967.28,-216.581"/>
</g>
<!-- Node2&#45;&gt;Node3 -->
<g id="edge2" class="edge"><title>Node2&#45;&gt;Node3</title>
<path fill="none" stroke="midnightblue" d="M820.413,-105.253C830.703,-95.6731 843.466,-83.7906 852.012,-75.8339"/>
<polygon fill="midnightblue" stroke="midnightblue" points="817.753,-102.948 812.819,-112.324 822.523,-108.071 817.753,-102.948"/>
</g>
<!-- Node4 -->
<g id="node4" class="node"><title>Node4</title>
<g id="a_node4"><a xlink:href="ex__callbacks__edm__wifi_8c.html" target="_top" xlink:title=" ">
<polygon fill="white" stroke="black" points="0,-0.5 0,-19.5 125,-19.5 125,-0.5 0,-0.5"/>
<text text-anchor="middle" x="62.5" y="-7.5" font-family="Helvetica,sans-Serif" font-size="10.00">ex_callbacks_edm_wifi.c</text>
</a>
</g>
</g>
<!-- Node3&#45;&gt;Node4 -->
<g id="edge3" class="edge"><title>Node3&#45;&gt;Node4</title>
<path fill="none" stroke="midnightblue" d="M812.736,-63.0362C695.628,-58.0903 389.33,-43.7902 134.5,-20 131.49,-19.719 128.411,-19.4115 125.303,-19.0851"/>
<polygon fill="midnightblue" stroke="midnightblue" points="812.678,-66.5367 822.815,-63.4585 812.971,-59.5429 812.678,-66.5367"/>
</g>
<!-- Node5 -->
<g id="node5" class="node"><title>Node5</title>
<g id="a_node5"><a xlink:href="ex__http__get_8c.html" target="_top" xlink:title=" ">
<polygon fill="white" stroke="black" points="143.5,-0.5 143.5,-19.5 219.5,-19.5 219.5,-0.5 143.5,-0.5"/>
<text text-anchor="middle" x="181.5" y="-7.5" font-family="Helvetica,sans-Serif" font-size="10.00">ex_http_get.c</text>
</a>
</g>
</g>
<!-- Node3&#45;&gt;Node5 -->
<g id="edge4" class="edge"><title>Node3&#45;&gt;Node5</title>
<path fill="none" stroke="midnightblue" d="M812.69,-63.4967C706.21,-59.7868 445.23,-48.3534 228.5,-20 225.617,-19.6228 222.643,-19.1805 219.658,-18.698"/>
<polygon fill="midnightblue" stroke="midnightblue" points="812.693,-66.9988 822.806,-63.842 812.931,-60.0028 812.693,-66.9988"/>
</g>
<!-- Node6 -->
<g id="node6" class="node"><title>Node6</title>
<g id="a_node6"><a xlink:href="ex__readmisc_8c.html" target="_top" xlink:title=" ">
<polygon fill="white" stroke="black" points="237.5,-0.5 237.5,-19.5 317.5,-19.5 317.5,-0.5 237.5,-0.5"/>
<text text-anchor="middle" x="277.5" y="-7.5" font-family="Helvetica,sans-Serif" font-size="10.00">ex_readmisc.c</text>
</a>
</g>
</g>
<!-- Node3&#45;&gt;Node6 -->
<g id="edge5" class="edge"><title>Node3&#45;&gt;Node6</title>
<path fill="none" stroke="midnightblue" d="M812.663,-62.4938C718.375,-57.3011 504.825,-43.8184 326.5,-20 323.585,-19.6107 320.58,-19.166 317.561,-18.6876"/>
<polygon fill="midnightblue" stroke="midnightblue" points="812.58,-65.9944 822.756,-63.0429 812.961,-59.0047 812.58,-65.9944"/>
</g>
<!-- Node7 -->
<g id="node7" class="node"><title>Node7</title>
<g id="a_node7"><a xlink:href="ex__wifi__pos_8c.html" target="_top" xlink:title=" ">
<polygon fill="white" stroke="black" points="1538,-0.5 1538,-19.5 1613,-19.5 1613,-0.5 1538,-0.5"/>
<text text-anchor="middle" x="1575.5" y="-7.5" font-family="Helvetica,sans-Serif" font-size="10.00">ex_wifi_pos.c</text>
</a>
</g>
</g>
<!-- Node3&#45;&gt;Node7 -->
<g id="edge6" class="edge"><title>Node3&#45;&gt;Node7</title>
<path fill="none" stroke="midnightblue" d="M910.558,-59.82C924.135,-58.4758 938.881,-57.0987 952.5,-56 1208.17,-35.3742 1274.03,-52.1849 1528.5,-20 1531.55,-19.6143 1534.7,-19.1521 1537.86,-18.6435"/>
<polygon fill="midnightblue" stroke="midnightblue" points="910.041,-56.3542 900.441,-60.8363 910.741,-63.3191 910.041,-56.3542"/>
</g>
<!-- Node8 -->
<g id="node8" class="node"><title>Node8</title>
<g id="a_node8"><a xlink:href="test__at__peer_8c.html" target="_top" xlink:title="Tests from chapter 5: AT&#45;commands UDDPRP and ucxhCOMMAND_writeDefaultRemotePeer() .">
<polygon fill="white" stroke="black" points="336,-0.5 336,-19.5 415,-19.5 415,-0.5 336,-0.5"/>
<text text-anchor="middle" x="375.5" y="-7.5" font-family="Helvetica,sans-Serif" font-size="10.00">test_at_peer.c</text>
</a>
</g>
</g>
<!-- Node3&#45;&gt;Node8 -->
<g id="edge7" class="edge"><title>Node3&#45;&gt;Node8</title>
<path fill="none" stroke="midnightblue" d="M812.408,-61.2184C731.384,-54.6917 564.677,-40.0587 424.5,-20 421.418,-19.5589 418.233,-19.0639 415.036,-18.5389"/>
<polygon fill="midnightblue" stroke="midnightblue" points="812.546,-64.7405 822.793,-62.0482 813.103,-57.7627 812.546,-64.7405"/>
</g>
<!-- Node9 -->
<g id="node9" class="node"><title>Node9</title>
<g id="a_node9"><a xlink:href="test__at__wifi_8c.html" target="_top" xlink:title="Tests from chapter 17, 10: AT&#45;commands UWSSTAT UNSTAT UWSCA UWSC and MODULE_writeWifiStationConfigura...">
<polygon fill="white" stroke="black" points="433.5,-0.5 433.5,-19.5 507.5,-19.5 507.5,-0.5 433.5,-0.5"/>
<text text-anchor="middle" x="470.5" y="-7.5" font-family="Helvetica,sans-Serif" font-size="10.00">test_at_wifi.c</text>
</a>
</g>
</g>
<!-- Node3&#45;&gt;Node9 -->
<g id="edge8" class="edge"><title>Node3&#45;&gt;Node9</title>
<path fill="none" stroke="midnightblue" d="M812.586,-59.611C745.592,-52.0043 621.616,-37.1208 516.5,-20 513.609,-19.5291 510.621,-19.0126 507.621,-18.4727"/>
<polygon fill="midnightblue" stroke="midnightblue" points="812.507,-63.1243 822.837,-60.7685 813.293,-56.1685 812.507,-63.1243"/>
</g>
<!-- Node10 -->
<g id="node10" class="node"><title>Node10</title>
<g id="a_node10"><a xlink:href="test__ati9_8c.html" target="_top" xlink:title="Tests Hello, World / Issue AT command.">
<polygon fill="white" stroke="black" points="525.5,-0.5 525.5,-19.5 587.5,-19.5 587.5,-0.5 525.5,-0.5"/>
<text text-anchor="middle" x="556.5" y="-7.5" font-family="Helvetica,sans-Serif" font-size="10.00">test_ati9.c</text>
</a>
</g>
</g>
<!-- Node3&#45;&gt;Node10 -->
<g id="edge9" class="edge"><title>Node3&#45;&gt;Node10</title>
<path fill="none" stroke="midnightblue" d="M812.577,-57.4901C759.29,-49.1245 671.613,-34.8169 596.5,-20 593.707,-19.449 590.81,-18.8504 587.91,-18.2326"/>
<polygon fill="midnightblue" stroke="midnightblue" points="812.341,-60.9957 822.762,-59.0824 813.423,-54.0797 812.341,-60.9957"/>
</g>
<!-- Node11 -->
<g id="node11" class="node"><title>Node11</title>
<g id="a_node11"><a xlink:href="test__datamode_8c.html" target="_top" xlink:title="Tests transmit over Data mode.">
<polygon fill="white" stroke="black" points="606,-0.5 606,-19.5 695,-19.5 695,-0.5 606,-0.5"/>
<text text-anchor="middle" x="650.5" y="-7.5" font-family="Helvetica,sans-Serif" font-size="10.00">test_datamode.c</text>
</a>
</g>
</g>
<!-- Node3&#45;&gt;Node11 -->
<g id="edge10" class="edge"><title>Node3&#45;&gt;Node11</title>
<path fill="none" stroke="midnightblue" d="M818.358,-53.959C778.506,-43.7598 720.137,-28.8217 683.777,-19.5164"/>
<polygon fill="midnightblue" stroke="midnightblue" points="817.511,-57.3549 828.066,-56.4435 819.246,-50.5734 817.511,-57.3549"/>
</g>
<!-- Node12 -->
<g id="node12" class="node"><title>Node12</title>
<g id="a_node12"><a xlink:href="test__edm__at_8c.html" target="_top" xlink:title="Hello, World / Issue AT command using EDM.">
<polygon fill="white" stroke="black" points="713,-0.5 713,-19.5 792,-19.5 792,-0.5 713,-0.5"/>
<text text-anchor="middle" x="752.5" y="-7.5" font-family="Helvetica,sans-Serif" font-size="10.00">test_edm_at.c</text>
</a>
</g>
</g>
<!-- Node3&#45;&gt;Node12 -->
<g id="edge11" class="edge"><title>Node3&#45;&gt;Node12</title>
<path fill="none" stroke="midnightblue" d="M834.981,-51.8622C814.77,-41.8492 787.513,-28.3458 769.969,-19.6545"/>
<polygon fill="midnightblue" stroke="midnightblue" points="833.473,-55.0209 843.987,-56.324 836.58,-48.7485 833.473,-55.0209"/>
</g>
<!-- Node13 -->
<g id="node13" class="node"><title>Node13</title>
<g id="a_node13"><a xlink:href="test__edm__at__read_8c.html" target="_top" xlink:title="Tests, using EDM, read status from the module.">
<polygon fill="white" stroke="black" points="810,-0.5 810,-19.5 913,-19.5 913,-0.5 810,-0.5"/>
<text text-anchor="middle" x="861.5" y="-7.5" font-family="Helvetica,sans-Serif" font-size="10.00">test_edm_at_read.c</text>
</a>
</g>
</g>
<!-- Node3&#45;&gt;Node13 -->
<g id="edge12" class="edge"><title>Node3&#45;&gt;Node13</title>
<path fill="none" stroke="midnightblue" d="M861.5,-45.8045C861.5,-36.9102 861.5,-26.7798 861.5,-19.7511"/>
<polygon fill="midnightblue" stroke="midnightblue" points="858,-46.083 861.5,-56.083 865,-46.083 858,-46.083"/>
</g>
<!-- Node14 -->
<g id="node14" class="node"><title>Node14</title>
<g id="a_node14"><a xlink:href="test__getgeneral_8c.html" target="_top" xlink:title="Tests from chapter 3: AT&#45;commands I, GMI, GMM, GMR, GSN .">
<polygon fill="white" stroke="black" points="931.5,-0.5 931.5,-19.5 1023.5,-19.5 1023.5,-0.5 931.5,-0.5"/>
<text text-anchor="middle" x="977.5" y="-7.5" font-family="Helvetica,sans-Serif" font-size="10.00">test_getgeneral.c</text>
</a>
</g>
</g>
<!-- Node3&#45;&gt;Node14 -->
<g id="edge13" class="edge"><title>Node3&#45;&gt;Node14</title>
<path fill="none" stroke="midnightblue" d="M889.22,-52.096C910.892,-42.0073 940.402,-28.2697 959.205,-19.5164"/>
<polygon fill="midnightblue" stroke="midnightblue" points="887.469,-49.0501 879.881,-56.4435 890.423,-55.3962 887.469,-49.0501"/>
</g>
<!-- Node15 -->
<g id="node15" class="node"><title>Node15</title>
<g id="a_node15"><a xlink:href="test__getsystem_8c.html" target="_top" xlink:title="Tests from chapter 4: AT&#45;commands +UMLA .">
<polygon fill="white" stroke="black" points="1041.5,-0.5 1041.5,-19.5 1133.5,-19.5 1133.5,-0.5 1041.5,-0.5"/>
<text text-anchor="middle" x="1087.5" y="-7.5" font-family="Helvetica,sans-Serif" font-size="10.00">test_getsystem.c</text>
</a>
</g>
</g>
<!-- Node3&#45;&gt;Node15 -->
<g id="edge14" class="edge"><title>Node3&#45;&gt;Node15</title>
<path fill="none" stroke="midnightblue" d="M907.167,-54.0884C949.864,-43.8865 1012.75,-28.8612 1051.86,-19.5164"/>
<polygon fill="midnightblue" stroke="midnightblue" points="906.223,-50.7153 897.31,-56.4435 907.85,-57.5237 906.223,-50.7153"/>
</g>
<!-- Node16 -->
<g id="node16" class="node"><title>Node16</title>
<g id="a_node16"><a xlink:href="test__mock__ati9_8c.html" target="_top" xlink:title="Hello, World / Issue AT command to mocked serial driver.">
<polygon fill="white" stroke="black" points="1151.5,-0.5 1151.5,-19.5 1243.5,-19.5 1243.5,-0.5 1151.5,-0.5"/>
<text text-anchor="middle" x="1197.5" y="-7.5" font-family="Helvetica,sans-Serif" font-size="10.00">test_mock_ati9.c</text>
</a>
</g>
</g>
<!-- Node3&#45;&gt;Node16 -->
<g id="edge15" class="edge"><title>Node3&#45;&gt;Node16</title>
<path fill="none" stroke="midnightblue" d="M910.141,-57.262C966.175,-48.336 1061,-33.1934 1142.5,-20 1145.37,-19.5361 1148.31,-19.0574 1151.29,-18.5736"/>
<polygon fill="midnightblue" stroke="midnightblue" points="909.467,-53.8251 900.142,-58.8544 910.568,-60.738 909.467,-53.8251"/>
</g>
<!-- Node17 -->
<g id="node17" class="node"><title>Node17</title>
<g id="a_node17"><a xlink:href="test__send_8c.html" target="_top" xlink:title="Tests the functions used for building and sending AT commands.">
<polygon fill="white" stroke="black" points="1261.5,-0.5 1261.5,-19.5 1329.5,-19.5 1329.5,-0.5 1261.5,-0.5"/>
<text text-anchor="middle" x="1295.5" y="-7.5" font-family="Helvetica,sans-Serif" font-size="10.00">test_send.c</text>
</a>
</g>
</g>
<!-- Node3&#45;&gt;Node17 -->
<g id="edge16" class="edge"><title>Node3&#45;&gt;Node17</title>
<path fill="none" stroke="midnightblue" d="M910.253,-59.9546C999.907,-50.5824 1187.7,-30.488 1252.5,-20 1255.36,-19.537 1258.32,-19.0131 1261.29,-18.4566"/>
<polygon fill="midnightblue" stroke="midnightblue" points="909.662,-56.4972 900.079,-61.0162 910.388,-63.4594 909.662,-56.4972"/>
</g>
<!-- Node18 -->
<g id="node18" class="node"><title>Node18</title>
<g id="a_node18"><a xlink:href="test__tokenizer_8c.html" target="_top" xlink:title="Tests the tokenizer of the URC parser.">
<polygon fill="white" stroke="black" points="1347.5,-0.5 1347.5,-19.5 1433.5,-19.5 1433.5,-0.5 1347.5,-0.5"/>
<text text-anchor="middle" x="1390.5" y="-7.5" font-family="Helvetica,sans-Serif" font-size="10.00">test_tokenizer.c</text>
</a>
</g>
</g>
<!-- Node3&#45;&gt;Node18 -->
<g id="edge17" class="edge"><title>Node3&#45;&gt;Node18</title>
<path fill="none" stroke="midnightblue" d="M910.205,-60.1323C923.886,-58.7788 938.774,-57.3189 952.5,-56 1124.01,-39.521 1167.7,-42.7096 1338.5,-20 1341.41,-19.6136 1344.4,-19.1831 1347.41,-18.7257"/>
<polygon fill="midnightblue" stroke="midnightblue" points="909.623,-56.6728 900.018,-61.1425 910.314,-63.6386 909.623,-56.6728"/>
</g>
<!-- Node19 -->
<g id="node19" class="node"><title>Node19</title>
<g id="a_node19"><a xlink:href="test__tools_8c.html" target="_top" xlink:title=" ">
<polygon fill="white" stroke="black" points="1451.5,-0.5 1451.5,-19.5 1519.5,-19.5 1519.5,-0.5 1451.5,-0.5"/>
<text text-anchor="middle" x="1485.5" y="-7.5" font-family="Helvetica,sans-Serif" font-size="10.00">test_tools.c</text>
</a>
</g>
</g>
<!-- Node3&#45;&gt;Node19 -->
<g id="edge18" class="edge"><title>Node3&#45;&gt;Node19</title>
<path fill="none" stroke="midnightblue" d="M910.189,-59.9556C923.87,-58.6005 938.761,-57.1839 952.5,-56 1170.06,-37.2527 1226.27,-50.4347 1442.5,-20 1445.37,-19.5961 1448.34,-19.1137 1451.3,-18.5852"/>
<polygon fill="midnightblue" stroke="midnightblue" points="909.604,-56.4965 900.002,-60.975 910.301,-63.4617 909.604,-56.4965"/>
</g>
<!-- Node21 -->
<g id="node21" class="node"><title>Node21</title>
<g id="a_node21"><a xlink:href="ucxh__wifi_8h.html" target="_top" xlink:title=" ">
<polygon fill="white" stroke="black" points="914,-112.5 914,-131.5 979,-131.5 979,-112.5 914,-112.5"/>
<text text-anchor="middle" x="946.5" y="-119.5" font-family="Helvetica,sans-Serif" font-size="10.00">ucxh_wifi.h</text>
</a>
</g>
</g>
<!-- Node20&#45;&gt;Node21 -->
<g id="edge20" class="edge"><title>Node20&#45;&gt;Node21</title>
<path fill="none" stroke="midnightblue" d="M944.566,-157.805C945.061,-148.91 945.623,-138.78 946.014,-131.751"/>
<polygon fill="midnightblue" stroke="midnightblue" points="941.056,-157.904 943.995,-168.083 948.045,-158.293 941.056,-157.904"/>
</g>
<!-- Node21&#45;&gt;Node1 -->
<g id="edge21" class="edge"><title>Node21&#45;&gt;Node1</title>
<path fill="none" stroke="midnightblue" d="M989.167,-125.362C1047.25,-130.218 1140.43,-144.812 1107.5,-188 1092.42,-207.78 1026.14,-221.017 982.594,-227.755"/>
<polygon fill="midnightblue" stroke="midnightblue" points="989.359,-121.867 979.12,-124.589 988.821,-128.846 989.359,-121.867"/>
</g>
<!-- Node21&#45;&gt;Node3 -->
<g id="edge22" class="edge"><title>Node21&#45;&gt;Node3</title>
<path fill="none" stroke="midnightblue" d="M924.306,-106.901C908.72,-96.9986 888.37,-84.0705 875.123,-75.6545"/>
<polygon fill="midnightblue" stroke="midnightblue" points="922.526,-109.916 932.843,-112.324 926.279,-104.007 922.526,-109.916"/>
</g>
<!-- Node21&#45;&gt;Node7 -->
<g id="edge23" class="edge"><title>Node21&#45;&gt;Node7</title>
<path fill="none" stroke="midnightblue" d="M988.952,-113.893C1085.09,-97.7409 1326.77,-56.8166 1528.5,-20 1531.52,-19.4481 1534.66,-18.8678 1537.8,-18.2787"/>
<polygon fill="midnightblue" stroke="midnightblue" points="988.314,-110.451 979.031,-115.558 989.473,-117.354 988.314,-110.451"/>
</g>
</g>
</svg>
