<?xml version="1.0" encoding="UTF-8" standalone="no"?>
<!DOCTYPE svg PUBLIC "-//W3C//DTD SVG 1.1//EN"
 "http://www.w3.org/Graphics/SVG/1.1/DTD/svg11.dtd">
<!-- Generated by graphviz version 2.38.0 (20140413.2041)
 -->
<!-- Title: ucxh_library.h Pages: 1 -->
<svg width="600pt" height="308pt"
 viewBox="0.00 0.00 599.50 308.00" xmlns="http://www.w3.org/2000/svg" xmlns:xlink="http://www.w3.org/1999/xlink">
<g id="graph0" class="graph" transform="scale(1 1) rotate(0) translate(4 304)">
<title>ucxh_library.h</title>
<polygon fill="white" stroke="none" points="-4,4 -4,-304 595.5,-304 595.5,4 -4,4"/>
<!-- Node1 -->
<g id="node1" class="node"><title>Node1</title>
<g id="a_node1"><a xlink:title=" ">
<polygon fill="#bfbfbf" stroke="black" points="294,-280.5 294,-299.5 371,-299.5 371,-280.5 294,-280.5"/>
<text text-anchor="middle" x="332.5" y="-287.5" font-family="Helvetica,sans-Serif" font-size="10.00">ucxh_library.h</text>
</a>
</g>
</g>
<!-- Node2 -->
<g id="node2" class="node"><title>Node2</title>
<g id="a_node2"><a xlink:href="ucxh__config_8h.html" target="_top" xlink:title=" ">
<polygon fill="white" stroke="black" points="0,-224.5 0,-243.5 77,-243.5 77,-224.5 0,-224.5"/>
<text text-anchor="middle" x="38.5" y="-231.5" font-family="Helvetica,sans-Serif" font-size="10.00">ucxh_config.h</text>
</a>
</g>
</g>
<!-- Node1&#45;&gt;Node2 -->
<g id="edge1" class="edge"><title>Node1&#45;&gt;Node2</title>
<path fill="none" stroke="midnightblue" d="M293.718,-281.96C247.225,-273.509 166.668,-258.828 87.1977,-244.122"/>
<polygon fill="midnightblue" stroke="midnightblue" points="87.4797,-240.615 77.0096,-242.236 86.2052,-247.498 87.4797,-240.615"/>
</g>
<!-- Node3 -->
<g id="node3" class="node"><title>Node3</title>
<g id="a_node3"><a xlink:href="ucxh__edm__parser_8h.html" target="_top" xlink:title=" ">
<polygon fill="white" stroke="black" points="95.5,-224.5 95.5,-243.5 197.5,-243.5 197.5,-224.5 95.5,-224.5"/>
<text text-anchor="middle" x="146.5" y="-231.5" font-family="Helvetica,sans-Serif" font-size="10.00">ucxh_edm_parser.h</text>
</a>
</g>
</g>
<!-- Node1&#45;&gt;Node3 -->
<g id="edge2" class="edge"><title>Node1&#45;&gt;Node3</title>
<path fill="none" stroke="midnightblue" d="M303.028,-280.444C271.329,-271.241 220.768,-256.562 185.725,-246.388"/>
<polygon fill="midnightblue" stroke="midnightblue" points="186.414,-242.943 175.834,-243.516 184.462,-249.666 186.414,-242.943"/>
</g>
<!-- Node5 -->
<g id="node5" class="node"><title>Node5</title>
<g id="a_node5"><a xlink:href="ucxh__parser_8h.html" target="_top" xlink:title=" ">
<polygon fill="white" stroke="black" points="253.5,-168.5 253.5,-187.5 331.5,-187.5 331.5,-168.5 253.5,-168.5"/>
<text text-anchor="middle" x="292.5" y="-175.5" font-family="Helvetica,sans-Serif" font-size="10.00">ucxh_parser.h</text>
</a>
</g>
</g>
<!-- Node1&#45;&gt;Node5 -->
<g id="edge21" class="edge"><title>Node1&#45;&gt;Node5</title>
<path fill="none" stroke="midnightblue" d="M329.361,-280.368C322.877,-262.537 307.88,-221.295 299.144,-197.272"/>
<polygon fill="midnightblue" stroke="midnightblue" points="302.331,-195.793 295.624,-187.591 295.752,-198.185 302.331,-195.793"/>
</g>
<!-- Node7 -->
<g id="node7" class="node"><title>Node7</title>
<g id="a_node7"><a xlink:href="ucxh__edm_8h.html" target="_top" xlink:title=" ">
<polygon fill="white" stroke="black" points="162.5,-112.5 162.5,-131.5 232.5,-131.5 232.5,-112.5 162.5,-112.5"/>
<text text-anchor="middle" x="197.5" y="-119.5" font-family="Helvetica,sans-Serif" font-size="10.00">ucxh_edm.h</text>
</a>
</g>
</g>
<!-- Node1&#45;&gt;Node7 -->
<g id="edge26" class="edge"><title>Node1&#45;&gt;Node7</title>
<path fill="none" stroke="midnightblue" d="M324.454,-280.313C308.631,-263.113 272.567,-223.326 244.5,-188 231.952,-172.207 218.558,-153.477 209.291,-140.19"/>
<polygon fill="midnightblue" stroke="midnightblue" points="211.913,-137.827 203.345,-131.596 206.157,-141.81 211.913,-137.827"/>
</g>
<!-- Node10 -->
<g id="node10" class="node"><title>Node10</title>
<g id="a_node10"><a xlink:href="ucxh__wait_8h.html" target="_top" xlink:title=" ">
<polygon fill="white" stroke="black" points="448.5,-112.5 448.5,-131.5 516.5,-131.5 516.5,-112.5 448.5,-112.5"/>
<text text-anchor="middle" x="482.5" y="-119.5" font-family="Helvetica,sans-Serif" font-size="10.00">ucxh_wait.h</text>
</a>
</g>
</g>
<!-- Node1&#45;&gt;Node10 -->
<g id="edge24" class="edge"><title>Node1&#45;&gt;Node10</title>
<path fill="none" stroke="midnightblue" d="M340.565,-280.075C364.687,-253.38 436.538,-173.865 467.751,-139.322"/>
<polygon fill="midnightblue" stroke="midnightblue" points="470.65,-141.334 474.758,-131.568 465.456,-136.641 470.65,-141.334"/>
</g>
<!-- Node11 -->
<g id="node11" class="node"><title>Node11</title>
<g id="a_node11"><a xlink:href="ucxh__wifi_8h.html" target="_top" xlink:title=" ">
<polygon fill="white" stroke="black" points="327,-112.5 327,-131.5 392,-131.5 392,-112.5 327,-112.5"/>
<text text-anchor="middle" x="359.5" y="-119.5" font-family="Helvetica,sans-Serif" font-size="10.00">ucxh_wifi.h</text>
</a>
</g>
</g>
<!-- Node1&#45;&gt;Node11 -->
<g id="edge25" class="edge"><title>Node1&#45;&gt;Node11</title>
<path fill="none" stroke="midnightblue" d="M333.952,-280.075C338.202,-253.945 350.683,-177.211 356.478,-141.577"/>
<polygon fill="midnightblue" stroke="midnightblue" points="359.956,-142 358.106,-131.568 353.046,-140.876 359.956,-142"/>
</g>
<!-- Node14 -->
<g id="node14" class="node"><title>Node14</title>
<g id="a_node14"><a xlink:href="ucxh__mode_8h.html" target="_top" xlink:title=" ">
<polygon fill="white" stroke="black" points="426,-224.5 426,-243.5 501,-243.5 501,-224.5 426,-224.5"/>
<text text-anchor="middle" x="463.5" y="-231.5" font-family="Helvetica,sans-Serif" font-size="10.00">ucxh_mode.h</text>
</a>
</g>
</g>
<!-- Node1&#45;&gt;Node14 -->
<g id="edge20" class="edge"><title>Node1&#45;&gt;Node14</title>
<path fill="none" stroke="midnightblue" d="M353.257,-280.444C374.816,-271.557 408.763,-257.563 433.294,-247.451"/>
<polygon fill="midnightblue" stroke="midnightblue" points="434.928,-250.563 442.84,-243.516 432.261,-244.092 434.928,-250.563"/>
</g>
<!-- Node15 -->
<g id="node15" class="node"><title>Node15</title>
<g id="a_node15"><a xlink:href="ucxh__send_8h.html" target="_top" xlink:title=" ">
<polygon fill="white" stroke="black" points="519.5,-224.5 519.5,-243.5 591.5,-243.5 591.5,-224.5 519.5,-224.5"/>
<text text-anchor="middle" x="555.5" y="-231.5" font-family="Helvetica,sans-Serif" font-size="10.00">ucxh_send.h</text>
</a>
</g>
</g>
<!-- Node1&#45;&gt;Node15 -->
<g id="edge22" class="edge"><title>Node1&#45;&gt;Node15</title>
<path fill="none" stroke="midnightblue" d="M367.835,-280.444C406.411,-271.102 468.285,-256.119 510.353,-245.933"/>
<polygon fill="midnightblue" stroke="midnightblue" points="511.435,-249.272 520.33,-243.516 509.787,-242.468 511.435,-249.272"/>
</g>
<!-- Node4 -->
<g id="node4" class="node"><title>Node4</title>
<g id="a_node4"><a xlink:title=" ">
<polygon fill="white" stroke="#bfbfbf" points="89.5,-56.5 89.5,-75.5 133.5,-75.5 133.5,-56.5 89.5,-56.5"/>
<text text-anchor="middle" x="111.5" y="-63.5" font-family="Helvetica,sans-Serif" font-size="10.00">time.h</text>
</a>
</g>
</g>
<!-- Node3&#45;&gt;Node4 -->
<g id="edge3" class="edge"><title>Node3&#45;&gt;Node4</title>
<path fill="none" stroke="midnightblue" d="M136.735,-224.49C119.205,-208.484 82.9749,-171.9 69.5,-132 66.6559,-123.578 66.2404,-120.27 69.5,-112 74.014,-100.548 82.969,-90.291 91.4546,-82.4724"/>
<polygon fill="midnightblue" stroke="midnightblue" points="93.9686,-84.9275 99.2863,-75.7638 89.4147,-79.6113 93.9686,-84.9275"/>
</g>
<!-- Node3&#45;&gt;Node5 -->
<g id="edge4" class="edge"><title>Node3&#45;&gt;Node5</title>
<path fill="none" stroke="midnightblue" d="M169.634,-224.444C193.982,-215.438 232.507,-201.189 259.923,-191.049"/>
<polygon fill="midnightblue" stroke="midnightblue" points="261.309,-194.268 269.474,-187.516 258.881,-187.703 261.309,-194.268"/>
</g>
<!-- Node3&#45;&gt;Node7 -->
<g id="edge19" class="edge"><title>Node3&#45;&gt;Node7</title>
<path fill="none" stroke="midnightblue" d="M150.502,-224.368C158.807,-206.456 178.063,-164.923 189.179,-140.948"/>
<polygon fill="midnightblue" stroke="midnightblue" points="192.486,-142.136 193.517,-131.591 186.135,-139.192 192.486,-142.136"/>
</g>
<!-- Node9 -->
<g id="node9" class="node"><title>Node9</title>
<g id="a_node9"><a xlink:href="ucxh__poll_8h.html" target="_top" xlink:title=" ">
<polygon fill="white" stroke="black" points="78.5,-112.5 78.5,-131.5 144.5,-131.5 144.5,-112.5 78.5,-112.5"/>
<text text-anchor="middle" x="111.5" y="-119.5" font-family="Helvetica,sans-Serif" font-size="10.00">ucxh_poll.h</text>
</a>
</g>
</g>
<!-- Node3&#45;&gt;Node9 -->
<g id="edge18" class="edge"><title>Node3&#45;&gt;Node9</title>
<path fill="none" stroke="midnightblue" d="M143.754,-224.368C138.08,-206.537 124.958,-165.295 117.314,-141.272"/>
<polygon fill="midnightblue" stroke="midnightblue" points="120.601,-140.059 114.234,-131.591 113.93,-142.182 120.601,-140.059"/>
</g>
<!-- Node5&#45;&gt;Node4 -->
<g id="edge6" class="edge"><title>Node5&#45;&gt;Node4</title>
<path fill="none" stroke="midnightblue" d="M287.766,-168.103C279.935,-154.197 262.99,-127.321 241.5,-112 211.841,-90.8538 171.38,-78.9318 143.515,-72.7487"/>
<polygon fill="midnightblue" stroke="midnightblue" points="144.006,-69.2757 133.501,-70.6526 142.572,-76.1272 144.006,-69.2757"/>
</g>
<!-- Node6 -->
<g id="node6" class="node"><title>Node6</title>
<g id="a_node6"><a xlink:title=" ">
<polygon fill="white" stroke="#bfbfbf" points="270.5,-56.5 270.5,-75.5 326.5,-75.5 326.5,-56.5 270.5,-56.5"/>
<text text-anchor="middle" x="298.5" y="-63.5" font-family="Helvetica,sans-Serif" font-size="10.00">stdbool.h</text>
</a>
</g>
</g>
<!-- Node5&#45;&gt;Node6 -->
<g id="edge5" class="edge"><title>Node5&#45;&gt;Node6</title>
<path fill="none" stroke="midnightblue" d="M292.971,-168.368C293.939,-150.617 296.173,-109.666 297.486,-85.5974"/>
<polygon fill="midnightblue" stroke="midnightblue" points="300.981,-85.7672 298.031,-75.5914 293.992,-85.3859 300.981,-85.7672"/>
</g>
<!-- Node5&#45;&gt;Node7 -->
<g id="edge7" class="edge"><title>Node5&#45;&gt;Node7</title>
<path fill="none" stroke="midnightblue" d="M277.237,-168.324C262.279,-159.822 239.245,-146.729 221.773,-136.797"/>
<polygon fill="midnightblue" stroke="midnightblue" points="223.149,-133.553 212.726,-131.655 219.69,-139.639 223.149,-133.553"/>
</g>
<!-- Node5&#45;&gt;Node9 -->
<g id="edge9" class="edge"><title>Node5&#45;&gt;Node9</title>
<path fill="none" stroke="midnightblue" d="M263.82,-168.444C232.973,-159.241 183.772,-144.562 149.671,-134.388"/>
<polygon fill="midnightblue" stroke="midnightblue" points="150.629,-131.021 140.046,-131.516 148.628,-137.729 150.629,-131.021"/>
</g>
<!-- Node5&#45;&gt;Node10 -->
<g id="edge12" class="edge"><title>Node5&#45;&gt;Node10</title>
<path fill="none" stroke="midnightblue" d="M322.606,-168.444C355.126,-159.201 407.079,-144.436 442.891,-134.257"/>
<polygon fill="midnightblue" stroke="midnightblue" points="443.873,-137.617 452.535,-131.516 441.959,-130.884 443.873,-137.617"/>
</g>
<!-- Node5&#45;&gt;Node11 -->
<g id="edge13" class="edge"><title>Node5&#45;&gt;Node11</title>
<path fill="none" stroke="midnightblue" d="M303.265,-168.324C313.266,-160.263 328.387,-148.077 340.43,-138.369"/>
<polygon fill="midnightblue" stroke="midnightblue" points="342.95,-140.834 348.539,-131.834 338.557,-135.384 342.95,-140.834"/>
</g>
<!-- Node8 -->
<g id="node8" class="node"><title>Node8</title>
<g id="a_node8"><a xlink:title=" ">
<polygon fill="white" stroke="#bfbfbf" points="172,-56.5 172,-75.5 223,-75.5 223,-56.5 172,-56.5"/>
<text text-anchor="middle" x="197.5" y="-63.5" font-family="Helvetica,sans-Serif" font-size="10.00">unistd.h</text>
</a>
</g>
</g>
<!-- Node7&#45;&gt;Node8 -->
<g id="edge8" class="edge"><title>Node7&#45;&gt;Node8</title>
<path fill="none" stroke="midnightblue" d="M197.5,-112.083C197.5,-105.006 197.5,-94.8611 197.5,-85.9865"/>
<polygon fill="midnightblue" stroke="midnightblue" points="201,-85.751 197.5,-75.7511 194,-85.7511 201,-85.751"/>
</g>
<!-- Node9&#45;&gt;Node4 -->
<g id="edge11" class="edge"><title>Node9&#45;&gt;Node4</title>
<path fill="none" stroke="midnightblue" d="M111.5,-112.083C111.5,-105.006 111.5,-94.8611 111.5,-85.9865"/>
<polygon fill="midnightblue" stroke="midnightblue" points="115,-85.751 111.5,-75.7511 108,-85.7511 115,-85.751"/>
</g>
<!-- Node9&#45;&gt;Node6 -->
<g id="edge10" class="edge"><title>Node9&#45;&gt;Node6</title>
<path fill="none" stroke="midnightblue" d="M141.131,-112.444C173.375,-103.132 225.031,-88.2155 260.301,-78.0308"/>
<polygon fill="midnightblue" stroke="midnightblue" points="261.596,-81.3 270.232,-75.1629 259.654,-74.5748 261.596,-81.3"/>
</g>
<!-- Node11&#45;&gt;Node6 -->
<g id="edge14" class="edge"><title>Node11&#45;&gt;Node6</title>
<path fill="none" stroke="midnightblue" d="M349.699,-112.324C340.682,-104.341 327.094,-92.3128 316.182,-82.6529"/>
<polygon fill="midnightblue" stroke="midnightblue" points="318.287,-79.8416 308.479,-75.8339 313.647,-85.083 318.287,-79.8416"/>
</g>
<!-- Node12 -->
<g id="node12" class="node"><title>Node12</title>
<g id="a_node12"><a xlink:href="ucxh__urc_8h.html" target="_top" xlink:title=" ">
<polygon fill="white" stroke="black" points="366,-56.5 366,-75.5 431,-75.5 431,-56.5 366,-56.5"/>
<text text-anchor="middle" x="398.5" y="-63.5" font-family="Helvetica,sans-Serif" font-size="10.00">ucxh_urc.h</text>
</a>
</g>
</g>
<!-- Node11&#45;&gt;Node12 -->
<g id="edge15" class="edge"><title>Node11&#45;&gt;Node12</title>
<path fill="none" stroke="midnightblue" d="M365.94,-112.083C371.449,-104.455 379.531,-93.2645 386.265,-83.9408"/>
<polygon fill="midnightblue" stroke="midnightblue" points="389.162,-85.9071 392.18,-75.7511 383.487,-81.8087 389.162,-85.9071"/>
</g>
<!-- Node12&#45;&gt;Node5 -->
<g id="edge16" class="edge"><title>Node12&#45;&gt;Node5</title>
<path fill="none" stroke="midnightblue" d="M401.973,-75.8702C406.593,-89.2677 412.933,-114.912 401.5,-132 388.013,-152.159 363.666,-163.297 341.399,-169.446"/>
<polygon fill="midnightblue" stroke="midnightblue" points="340.551,-166.05 331.692,-171.861 342.241,-172.843 340.551,-166.05"/>
</g>
<!-- Node13 -->
<g id="node13" class="node"><title>Node13</title>
<g id="a_node13"><a xlink:href="autogenerated_8h.html" target="_top" xlink:title="Automatically generated function prototypes and documentation.">
<polygon fill="white" stroke="black" points="355.5,-0.5 355.5,-19.5 441.5,-19.5 441.5,-0.5 355.5,-0.5"/>
<text text-anchor="middle" x="398.5" y="-7.5" font-family="Helvetica,sans-Serif" font-size="10.00">autogenerated.h</text>
</a>
</g>
</g>
<!-- Node12&#45;&gt;Node13 -->
<g id="edge17" class="edge"><title>Node12&#45;&gt;Node13</title>
<path fill="none" stroke="midnightblue" d="M398.5,-56.083C398.5,-49.0059 398.5,-38.8611 398.5,-29.9865"/>
<polygon fill="midnightblue" stroke="midnightblue" points="402,-29.751 398.5,-19.7511 395,-29.7511 402,-29.751"/>
</g>
<!-- Node16 -->
<g id="node16" class="node"><title>Node16</title>
<g id="a_node16"><a xlink:title=" ">
<polygon fill="white" stroke="#bfbfbf" points="532.5,-168.5 532.5,-187.5 578.5,-187.5 578.5,-168.5 532.5,-168.5"/>
<text text-anchor="middle" x="555.5" y="-175.5" font-family="Helvetica,sans-Serif" font-size="10.00">stdio.h</text>
</a>
</g>
</g>
<!-- Node15&#45;&gt;Node16 -->
<g id="edge23" class="edge"><title>Node15&#45;&gt;Node16</title>
<path fill="none" stroke="midnightblue" d="M555.5,-224.083C555.5,-217.006 555.5,-206.861 555.5,-197.986"/>
<polygon fill="midnightblue" stroke="midnightblue" points="559,-197.751 555.5,-187.751 552,-197.751 559,-197.751"/>
</g>
</g>
</svg>
