<?xml version="1.0" encoding="UTF-8" standalone="no"?>
<!DOCTYPE svg PUBLIC "-//W3C//DTD SVG 1.1//EN"
 "http://www.w3.org/Graphics/SVG/1.1/DTD/svg11.dtd">
<!-- Generated by graphviz version 2.38.0 (20140413.2041)
 -->
<!-- Title: ucxh_edm_parser.h Pages: 1 -->
<svg width="457pt" height="252pt"
 viewBox="0.00 0.00 457.49 252.00" xmlns="http://www.w3.org/2000/svg" xmlns:xlink="http://www.w3.org/1999/xlink">
<g id="graph0" class="graph" transform="scale(1 1) rotate(0) translate(4 248)">
<title>ucxh_edm_parser.h</title>
<polygon fill="white" stroke="none" points="-4,4 -4,-248 453.49,-248 453.49,4 -4,4"/>
<!-- Node1 -->
<g id="node1" class="node"><title>Node1</title>
<g id="a_node1"><a xlink:title=" ">
<polygon fill="#bfbfbf" stroke="black" points="58.4902,-224.5 58.4902,-243.5 160.49,-243.5 160.49,-224.5 58.4902,-224.5"/>
<text text-anchor="middle" x="109.49" y="-231.5" font-family="Helvetica,sans-Serif" font-size="10.00">ucxh_edm_parser.h</text>
</a>
</g>
</g>
<!-- Node2 -->
<g id="node2" class="node"><title>Node2</title>
<g id="a_node2"><a xlink:title=" ">
<polygon fill="white" stroke="#bfbfbf" points="22.4902,-56.5 22.4902,-75.5 66.4902,-75.5 66.4902,-56.5 22.4902,-56.5"/>
<text text-anchor="middle" x="44.4902" y="-63.5" font-family="Helvetica,sans-Serif" font-size="10.00">time.h</text>
</a>
</g>
</g>
<!-- Node1&#45;&gt;Node2 -->
<g id="edge1" class="edge"><title>Node1&#45;&gt;Node2</title>
<path fill="none" stroke="midnightblue" d="M94.0847,-224.261C69.2635,-209.177 21.304,-175.63 2.49018,-132 -5.38133,-113.745 9.87638,-94.8788 24.1567,-82.2055"/>
<polygon fill="midnightblue" stroke="midnightblue" points="26.7842,-84.5752 32.2696,-75.5108 22.3289,-79.176 26.7842,-84.5752"/>
</g>
<!-- Node3 -->
<g id="node3" class="node"><title>Node3</title>
<g id="a_node3"><a xlink:href="ucxh__parser_8h.html" target="_top" xlink:title=" ">
<polygon fill="white" stroke="black" points="134.49,-168.5 134.49,-187.5 212.49,-187.5 212.49,-168.5 134.49,-168.5"/>
<text text-anchor="middle" x="173.49" y="-175.5" font-family="Helvetica,sans-Serif" font-size="10.00">ucxh_parser.h</text>
</a>
</g>
</g>
<!-- Node1&#45;&gt;Node3 -->
<g id="edge2" class="edge"><title>Node1&#45;&gt;Node3</title>
<path fill="none" stroke="midnightblue" d="M119.773,-224.324C129.326,-216.263 143.77,-204.077 155.275,-194.369"/>
<polygon fill="midnightblue" stroke="midnightblue" points="157.634,-196.958 163.02,-187.834 153.12,-191.608 157.634,-196.958"/>
</g>
<!-- Node5 -->
<g id="node5" class="node"><title>Node5</title>
<g id="a_node5"><a xlink:href="ucxh__edm_8h.html" target="_top" xlink:title=" ">
<polygon fill="white" stroke="black" points="379.49,-112.5 379.49,-131.5 449.49,-131.5 449.49,-112.5 379.49,-112.5"/>
<text text-anchor="middle" x="414.49" y="-119.5" font-family="Helvetica,sans-Serif" font-size="10.00">ucxh_edm.h</text>
</a>
</g>
</g>
<!-- Node1&#45;&gt;Node5 -->
<g id="edge17" class="edge"><title>Node1&#45;&gt;Node5</title>
<path fill="none" stroke="midnightblue" d="M133.169,-224.46C186.998,-205.047 318.689,-157.551 380.898,-135.115"/>
<polygon fill="midnightblue" stroke="midnightblue" points="382.396,-138.296 390.616,-131.61 380.022,-131.711 382.396,-138.296"/>
</g>
<!-- Node7 -->
<g id="node7" class="node"><title>Node7</title>
<g id="a_node7"><a xlink:href="ucxh__poll_8h.html" target="_top" xlink:title=" ">
<polygon fill="white" stroke="black" points="11.4902,-112.5 11.4902,-131.5 77.4902,-131.5 77.4902,-112.5 11.4902,-112.5"/>
<text text-anchor="middle" x="44.4902" y="-119.5" font-family="Helvetica,sans-Serif" font-size="10.00">ucxh_poll.h</text>
</a>
</g>
</g>
<!-- Node1&#45;&gt;Node7 -->
<g id="edge16" class="edge"><title>Node1&#45;&gt;Node7</title>
<path fill="none" stroke="midnightblue" d="M104.39,-224.368C93.7103,-206.296 68.8217,-164.176 54.7173,-140.307"/>
<polygon fill="midnightblue" stroke="midnightblue" points="57.6675,-138.42 49.5669,-131.591 51.641,-141.981 57.6675,-138.42"/>
</g>
<!-- Node3&#45;&gt;Node2 -->
<g id="edge4" class="edge"><title>Node3&#45;&gt;Node2</title>
<path fill="none" stroke="midnightblue" d="M163.368,-168.368C141.514,-149.733 89.6781,-105.532 62.238,-82.1338"/>
<polygon fill="midnightblue" stroke="midnightblue" points="64.4458,-79.4167 54.5656,-75.5914 59.9038,-84.7431 64.4458,-79.4167"/>
</g>
<!-- Node4 -->
<g id="node4" class="node"><title>Node4</title>
<g id="a_node4"><a xlink:title=" ">
<polygon fill="white" stroke="#bfbfbf" points="115.49,-56.5 115.49,-75.5 171.49,-75.5 171.49,-56.5 115.49,-56.5"/>
<text text-anchor="middle" x="143.49" y="-63.5" font-family="Helvetica,sans-Serif" font-size="10.00">stdbool.h</text>
</a>
</g>
</g>
<!-- Node3&#45;&gt;Node4 -->
<g id="edge3" class="edge"><title>Node3&#45;&gt;Node4</title>
<path fill="none" stroke="midnightblue" d="M171.136,-168.368C166.273,-150.537 155.025,-109.295 148.473,-85.2717"/>
<polygon fill="midnightblue" stroke="midnightblue" points="151.841,-84.3181 145.833,-75.5914 145.088,-86.16 151.841,-84.3181"/>
</g>
<!-- Node3&#45;&gt;Node5 -->
<g id="edge5" class="edge"><title>Node3&#45;&gt;Node5</title>
<path fill="none" stroke="midnightblue" d="M211.677,-168.444C254.495,-158.85 323.872,-143.304 369.342,-133.116"/>
<polygon fill="midnightblue" stroke="midnightblue" points="370.233,-136.503 379.226,-130.902 368.703,-129.673 370.233,-136.503"/>
</g>
<!-- Node3&#45;&gt;Node7 -->
<g id="edge7" class="edge"><title>Node3&#45;&gt;Node7</title>
<path fill="none" stroke="midnightblue" d="M153.05,-168.444C131.82,-159.557 98.3912,-145.563 74.2352,-135.451"/>
<polygon fill="midnightblue" stroke="midnightblue" points="75.4109,-132.149 64.835,-131.516 72.7079,-138.606 75.4109,-132.149"/>
</g>
<!-- Node8 -->
<g id="node8" class="node"><title>Node8</title>
<g id="a_node8"><a xlink:href="ucxh__wait_8h.html" target="_top" xlink:title=" ">
<polygon fill="white" stroke="black" points="255.49,-112.5 255.49,-131.5 323.49,-131.5 323.49,-112.5 255.49,-112.5"/>
<text text-anchor="middle" x="289.49" y="-119.5" font-family="Helvetica,sans-Serif" font-size="10.00">ucxh_wait.h</text>
</a>
</g>
</g>
<!-- Node3&#45;&gt;Node8 -->
<g id="edge10" class="edge"><title>Node3&#45;&gt;Node8</title>
<path fill="none" stroke="midnightblue" d="M191.871,-168.444C210.707,-159.675 240.221,-145.935 261.869,-135.858"/>
<polygon fill="midnightblue" stroke="midnightblue" points="263.607,-138.91 271.196,-131.516 260.653,-132.564 263.607,-138.91"/>
</g>
<!-- Node9 -->
<g id="node9" class="node"><title>Node9</title>
<g id="a_node9"><a xlink:href="ucxh__wifi_8h.html" target="_top" xlink:title=" ">
<polygon fill="white" stroke="black" points="171.99,-112.5 171.99,-131.5 236.99,-131.5 236.99,-112.5 171.99,-112.5"/>
<text text-anchor="middle" x="204.49" y="-119.5" font-family="Helvetica,sans-Serif" font-size="10.00">ucxh_wifi.h</text>
</a>
</g>
</g>
<!-- Node3&#45;&gt;Node9 -->
<g id="edge11" class="edge"><title>Node3&#45;&gt;Node9</title>
<path fill="none" stroke="midnightblue" d="M178.609,-168.083C182.898,-160.613 189.148,-149.724 194.432,-140.52"/>
<polygon fill="midnightblue" stroke="midnightblue" points="197.523,-142.166 199.466,-131.751 191.452,-138.681 197.523,-142.166"/>
</g>
<!-- Node6 -->
<g id="node6" class="node"><title>Node6</title>
<g id="a_node6"><a xlink:title=" ">
<polygon fill="white" stroke="#bfbfbf" points="388.99,-56.5 388.99,-75.5 439.99,-75.5 439.99,-56.5 388.99,-56.5"/>
<text text-anchor="middle" x="414.49" y="-63.5" font-family="Helvetica,sans-Serif" font-size="10.00">unistd.h</text>
</a>
</g>
</g>
<!-- Node5&#45;&gt;Node6 -->
<g id="edge6" class="edge"><title>Node5&#45;&gt;Node6</title>
<path fill="none" stroke="midnightblue" d="M414.49,-112.083C414.49,-105.006 414.49,-94.8611 414.49,-85.9865"/>
<polygon fill="midnightblue" stroke="midnightblue" points="417.99,-85.751 414.49,-75.7511 410.99,-85.7511 417.99,-85.751"/>
</g>
<!-- Node7&#45;&gt;Node2 -->
<g id="edge9" class="edge"><title>Node7&#45;&gt;Node2</title>
<path fill="none" stroke="midnightblue" d="M44.4902,-112.083C44.4902,-105.006 44.4902,-94.8611 44.4902,-85.9865"/>
<polygon fill="midnightblue" stroke="midnightblue" points="47.9903,-85.751 44.4902,-75.7511 40.9903,-85.7511 47.9903,-85.751"/>
</g>
<!-- Node7&#45;&gt;Node4 -->
<g id="edge8" class="edge"><title>Node7&#45;&gt;Node4</title>
<path fill="none" stroke="midnightblue" d="M60.3962,-112.324C76.1284,-103.743 100.433,-90.486 118.699,-80.5224"/>
<polygon fill="midnightblue" stroke="midnightblue" points="120.521,-83.5157 127.624,-75.6545 117.169,-77.3704 120.521,-83.5157"/>
</g>
<!-- Node9&#45;&gt;Node4 -->
<g id="edge12" class="edge"><title>Node9&#45;&gt;Node4</title>
<path fill="none" stroke="midnightblue" d="M194.689,-112.324C185.672,-104.341 172.084,-92.3128 161.172,-82.6529"/>
<polygon fill="midnightblue" stroke="midnightblue" points="163.277,-79.8416 153.469,-75.8339 158.637,-85.083 163.277,-79.8416"/>
</g>
<!-- Node10 -->
<g id="node10" class="node"><title>Node10</title>
<g id="a_node10"><a xlink:href="ucxh__urc_8h.html" target="_top" xlink:title=" ">
<polygon fill="white" stroke="black" points="247.99,-56.5 247.99,-75.5 312.99,-75.5 312.99,-56.5 247.99,-56.5"/>
<text text-anchor="middle" x="280.49" y="-63.5" font-family="Helvetica,sans-Serif" font-size="10.00">ucxh_urc.h</text>
</a>
</g>
</g>
<!-- Node9&#45;&gt;Node10 -->
<g id="edge13" class="edge"><title>Node9&#45;&gt;Node10</title>
<path fill="none" stroke="midnightblue" d="M216.701,-112.324C228.266,-104.107 245.866,-91.6017 259.651,-81.8069"/>
<polygon fill="midnightblue" stroke="midnightblue" points="261.933,-84.4791 268.057,-75.8339 257.878,-78.7729 261.933,-84.4791"/>
</g>
<!-- Node10&#45;&gt;Node3 -->
<g id="edge14" class="edge"><title>Node10&#45;&gt;Node3</title>
<path fill="none" stroke="midnightblue" d="M296.008,-75.5042C316.453,-87.8094 348.094,-111.368 332.49,-132 319.141,-149.651 264.135,-162.371 222.529,-169.692"/>
<polygon fill="midnightblue" stroke="midnightblue" points="221.812,-166.264 212.541,-171.393 222.987,-173.164 221.812,-166.264"/>
</g>
<!-- Node11 -->
<g id="node11" class="node"><title>Node11</title>
<g id="a_node11"><a xlink:href="autogenerated_8h.html" target="_top" xlink:title="Automatically generated function prototypes and documentation.">
<polygon fill="white" stroke="black" points="237.49,-0.5 237.49,-19.5 323.49,-19.5 323.49,-0.5 237.49,-0.5"/>
<text text-anchor="middle" x="280.49" y="-7.5" font-family="Helvetica,sans-Serif" font-size="10.00">autogenerated.h</text>
</a>
</g>
</g>
<!-- Node10&#45;&gt;Node11 -->
<g id="edge15" class="edge"><title>Node10&#45;&gt;Node11</title>
<path fill="none" stroke="midnightblue" d="M280.49,-56.083C280.49,-49.0059 280.49,-38.8611 280.49,-29.9865"/>
<polygon fill="midnightblue" stroke="midnightblue" points="283.99,-29.751 280.49,-19.7511 276.99,-29.7511 283.99,-29.751"/>
</g>
</g>
</svg>
